<svg width="60" height="80" viewBox="0 0 135 145" fill="none" xmlns="http://www.w3.org/2000/svg">
<path d="M85.3484 125.669C84.8035 125.669 84.2811 125.892 83.8958 126.291C83.5106 126.689 83.2941 127.229 83.2941 127.793V142.876C83.2941 143.439 83.5106 143.98 83.8958 144.378C84.2811 144.776 84.8035 145 85.3484 145C85.8932 145 86.4157 144.776 86.8009 144.378C87.1861 143.98 87.4026 143.439 87.4026 142.876V127.793C87.4026 127.229 87.1861 126.689 86.8009 126.291C86.4157 125.892 85.8932 125.669 85.3484 125.669ZM27.8305 125.669C27.2856 125.669 26.7631 125.892 26.3779 126.291C25.9927 126.689 25.7762 127.229 25.7762 127.793V142.876C25.7762 143.439 25.9927 143.98 26.3779 144.378C26.7631 144.776 27.2856 145 27.8305 145C28.3753 145 28.8978 144.776 29.283 144.378C29.6682 143.98 29.8847 143.439 29.8847 142.876V127.793C29.8847 127.514 29.8315 127.237 29.7283 126.98C29.6251 126.722 29.4737 126.488 29.283 126.291C29.0922 126.093 28.8658 125.937 28.6166 125.83C28.3673 125.723 28.1002 125.669 27.8305 125.669ZM87.0438 109.458C87.0438 108.895 86.8273 108.354 86.4421 107.956C86.0569 107.558 85.5344 107.334 84.9895 107.334H74.9047C74.3599 107.334 73.8374 107.558 73.4522 107.956C73.067 108.354 72.8505 108.895 72.8505 109.458C72.8505 110.021 73.067 110.562 73.4522 110.96C73.8374 111.358 74.3599 111.582 74.9047 111.582H84.9895C85.5344 111.582 86.0569 111.358 86.4421 110.96C86.8273 110.562 87.0438 110.021 87.0438 109.458ZM119.089 7.81924C117.954 6.98784 116.593 6.54868 115.201 6.56445C113.81 6.58021 112.459 7.0501 111.341 7.90703C110.216 8.71348 109.366 9.86676 108.913 11.2023C108.459 12.5378 108.425 13.9873 108.816 15.3439C108.97 15.8844 109.326 16.3391 109.805 16.6081C110.284 16.8771 110.847 16.9384 111.37 16.7784C111.892 16.6184 112.332 16.2503 112.592 15.755C112.852 15.2598 112.912 14.6779 112.757 14.1375C112.613 13.6274 112.629 13.0829 112.805 12.5833C112.98 12.0836 113.305 11.6548 113.732 11.3593C114.158 11.0212 114.677 10.8321 115.214 10.8194C115.75 10.8067 116.277 10.971 116.718 11.2885C117.61 11.9398 117.928 13.4323 117.364 14.3046C116.978 14.8965 116.351 15.3921 115.627 15.967C114.676 16.6536 113.831 17.4842 113.119 18.4309C111.461 20.8126 111.171 24.262 112.395 27.0091C112.509 27.2627 112.669 27.4908 112.867 27.6804C113.066 27.87 113.298 28.0173 113.552 28.1139C113.805 28.2106 114.075 28.2547 114.344 28.2437C114.614 28.2327 114.88 28.1668 115.125 28.0499C115.37 27.9329 115.591 27.7671 115.774 27.562C115.957 27.3569 116.1 27.1164 116.193 26.8543C116.287 26.5923 116.329 26.3138 116.319 26.0347C116.308 25.7556 116.245 25.4814 116.131 25.2277C115.526 23.8712 115.663 22.0559 116.46 20.9117C116.945 20.311 117.507 19.7822 118.131 19.3399C119.015 18.6376 120.015 17.8446 120.779 16.6722C122.593 13.877 121.82 9.81582 119.087 7.81924H119.089ZM99.2896 80.7129L78.6462 71.3672L78.6105 71.3502L75.4169 69.903C74.8378 69.6389 74.28 69.3273 73.7489 68.9713L73.6996 68.9373C72.1483 67.8866 70.8598 66.4708 69.9395 64.806C69.0193 63.1412 68.4935 61.2747 68.4052 59.3594C70.2682 57.6802 71.8096 55.6542 72.9491 53.3866C76.2696 53.3255 79.4442 51.9651 81.833 49.5796C84.2219 47.1942 85.6474 43.9611 85.8222 40.532C85.8331 40.3829 85.8386 40.2328 85.8386 40.0817V29.8864C85.8368 28.4138 85.3425 26.9872 84.4394 25.8485C83.5363 24.7098 82.2801 23.9292 80.8839 23.639C80.2316 17.161 77.2811 11.1626 72.6021 6.80216C67.9231 2.44173 61.8476 0.0285129 55.5486 0.0285129C49.2496 0.0285129 43.1741 2.44173 38.4951 6.80216C33.8161 11.1626 30.8656 17.161 30.2133 23.639C28.8174 23.9277 27.561 24.7066 26.657 25.8437C25.753 26.9807 25.257 28.406 25.2531 29.8779V40.0732C25.2545 41.7628 25.9043 43.3826 27.0597 44.5773C28.2151 45.772 29.7817 46.4438 31.4157 46.4453H36.0719C36.6315 51.3483 38.905 55.8707 42.4646 59.1611C42.4043 61.4621 41.713 63.6979 40.4711 65.6082C39.2293 67.5185 37.488 69.0247 35.4502 69.9512L11.7775 80.7129C8.27601 82.3061 5.29828 84.9179 3.20713 88.2301C1.11597 91.5424 0.00167071 95.412 0 99.3675L0 142.876C0 143.439 0.216425 143.98 0.601664 144.378C0.986904 144.776 1.5094 145 2.05421 145C2.59902 145 3.12152 144.776 3.50676 144.378C3.892 143.98 4.10842 143.439 4.10842 142.876V99.3675C4.10968 96.2382 4.99056 93.1767 6.64389 90.5556C8.29722 87.9345 10.6517 85.8668 13.4208 84.6041L32.3388 76.0061L40.1365 90.625C40.1996 90.7446 40.2739 90.8575 40.3584 90.962C40.8858 91.619 41.5367 92.1585 42.2716 92.548C43.0064 92.9374 43.8101 93.1686 44.6339 93.2276C44.79 93.2276 44.9461 93.2475 45.1023 93.2475C46.6106 93.2501 48.0663 92.675 49.1888 91.6332L50.1091 90.7836L46.1595 134.547C46.133 134.846 46.1682 135.148 46.2626 135.432C46.357 135.716 46.5086 135.976 46.7073 136.195L54.0422 144.326C54.2348 144.539 54.4676 144.709 54.7263 144.825C54.985 144.94 55.2639 145 55.5459 145H55.576C55.8629 144.996 56.1457 144.929 56.4061 144.805C56.6666 144.681 56.8988 144.501 57.0879 144.278L63.9955 136.147C64.1778 135.932 64.3162 135.682 64.4024 135.41C64.4885 135.138 64.5206 134.852 64.4967 134.567L60.9032 90.7355L61.8893 91.6417C63.0107 92.6833 64.4656 93.2584 65.973 93.256C66.1292 93.256 66.2853 93.256 66.4414 93.2361C67.2656 93.1771 68.0697 92.946 68.805 92.5565C69.5404 92.1671 70.1917 91.6276 70.7196 90.9705C70.8027 90.8625 70.876 90.7468 70.9388 90.625L78.7119 76.0259L97.638 84.6069C100.413 85.8648 102.773 87.9312 104.43 90.5535C106.087 93.1759 106.97 96.2406 106.97 99.3731V142.876C106.97 143.439 107.186 143.98 107.571 144.378C107.957 144.776 108.479 145 109.024 145C109.569 145 110.091 144.776 110.476 144.378C110.862 143.98 111.078 143.439 111.078 142.876V99.376C111.079 95.4172 109.965 91.5438 107.872 88.2293C105.778 84.9148 102.796 82.3029 99.2896 80.7129ZM74.5733 48.9347C74.7679 48.1149 74.9133 47.2836 75.0088 46.4453H79.0406C77.8132 47.701 76.2625 48.5651 74.5733 48.9347ZM81.7192 29.8779V39.8269C81.7192 39.9855 81.7192 40.1412 81.7192 40.297C81.6652 40.8185 81.4267 41.301 81.0496 41.6517C80.6724 42.0025 80.1833 42.1968 79.676 42.1973H75.1567V32.3616C75.2004 31.6071 75.2004 30.8505 75.1567 30.096V27.7539H79.676C80.2189 27.7569 80.7386 27.982 81.1215 28.38C81.5043 28.778 81.7193 29.3166 81.7192 29.8779ZM35.935 30.2121C35.8925 30.9516 35.8925 31.693 35.935 32.4324V42.1973H31.4157C30.8709 42.1973 30.3484 41.9735 29.9632 41.5752C29.5779 41.1768 29.3615 40.6366 29.3615 40.0732V29.8779C29.3615 29.3146 29.5779 28.7744 29.9632 28.376C30.3484 27.9777 30.8709 27.7539 31.4157 27.7539H35.935V30.2121ZM38.2987 23.5313C38.1962 23.5157 38.0928 23.5072 37.9892 23.5059H34.3519C35.0158 18.1804 37.5328 13.2873 41.4325 9.74154C45.3322 6.19572 50.3474 4.23997 55.5404 4.23997C60.7334 4.23997 65.7486 6.19572 69.6483 9.74154C73.5479 13.2873 76.065 18.1804 76.7289 23.5059H73.0916C72.9925 23.5071 72.8936 23.5156 72.7958 23.5313C72.6917 23.4124 72.5849 23.2991 72.4726 23.1887C71.1195 21.835 69.7007 21.4017 68.4518 21.0193C67.4877 20.7361 66.6578 20.4699 65.8388 19.7817C64.5187 18.6744 63.6805 16.8251 63.3491 14.2848C63.2947 13.8845 63.1311 13.5085 62.8775 13.2009C62.6239 12.8933 62.2907 12.6668 61.9171 12.5479C61.5435 12.429 61.1448 12.4227 60.7678 12.5297C60.3908 12.6367 60.0511 12.8525 59.7885 13.152C57.6998 15.617 55.0791 17.539 52.1386 18.7622C49.8817 19.6741 47.9124 19.9403 46.0116 20.2009C43.2726 20.5747 40.6652 20.9259 38.5343 23.2651C38.4521 23.3473 38.3754 23.4407 38.2987 23.5313ZM40.0434 44.0692V30.3027C40.1721 28.4902 40.6652 27.1025 41.5224 26.1623C42.6016 24.9785 43.9875 24.7463 46.5429 24.3951C48.4876 24.1317 50.9088 23.8032 53.6313 22.6959C56.0248 21.724 58.2461 20.3489 60.2048 18.6263C60.8319 20.356 61.8845 21.8866 63.2587 23.0669C64.7159 24.2847 66.1429 24.7236 67.2932 25.0748C68.282 25.3778 68.9968 25.5959 69.6295 26.2274C70.4512 27.0459 70.9223 28.36 71.0456 30.1441V32.2852C71.0456 32.3191 71.0456 32.3531 71.0456 32.3871V44.0834C71.0459 45.8056 70.7768 47.5166 70.2485 49.1499H65.7649C65.3127 48.34 64.6147 47.7071 63.7791 47.3492C62.9435 46.9914 62.0171 46.9286 61.1435 47.1706C60.27 47.4127 59.498 47.946 58.9474 48.6879C58.3969 49.4298 58.0985 50.3388 58.0985 51.2739C58.0985 52.2091 58.3969 53.1181 58.9474 53.86C59.498 54.6019 60.27 55.1352 61.1435 55.3772C62.0171 55.6193 62.9435 55.5565 63.7791 55.1986C64.6147 54.8407 65.3127 54.2078 65.7649 53.3979H68.1395C66.2317 56.1621 63.5235 58.2276 60.4062 59.2962C57.2888 60.3648 53.9236 60.3812 50.7966 59.3429C47.6697 58.3047 44.9428 56.2656 43.0099 53.5202C41.0771 50.7747 40.0382 47.4651 40.0434 44.0692ZM46.2882 61.9394C49.1003 63.499 52.2388 64.3235 55.4299 64.3408C58.6209 64.358 61.7676 63.5676 64.5953 62.0385C65.2401 65.3118 66.8359 68.3036 69.1694 70.6139L55.5322 80.3674L41.8128 70.5516C44.1163 68.2177 45.6774 65.2136 46.2882 61.9394ZM46.4526 88.4698C46.0583 88.8333 45.5438 89.0258 45.0159 89.0074C44.4881 88.9889 43.9873 88.7609 43.6177 88.3707L36.1267 74.2898L37.1045 73.8481C37.5227 73.6592 37.9308 73.4506 38.3288 73.2222L52.2235 83.1626L46.4526 88.4698ZM55.4911 139.713L50.3309 133.995L54.6091 86.6602L55.5376 85.8105L56.4442 86.6432L60.3281 134.037L55.4911 139.713ZM67.4548 88.3594C67.0849 88.7489 66.5843 88.9765 66.0566 88.995C65.5289 89.0134 65.0145 88.8213 64.62 88.4585L58.8545 83.1513L72.7054 73.2392C73.0505 73.4289 73.4038 73.6073 73.7681 73.7716L74.9376 74.3012L67.4548 88.3594ZM115.143 0C111.215 0 107.376 1.20419 104.11 3.4603C100.845 5.71641 98.2998 8.92311 96.7968 12.6749C95.2938 16.4267 94.9006 20.555 95.6668 24.5379C96.433 28.5207 98.3242 32.1792 101.101 35.0507C103.878 37.9222 107.417 39.8777 111.269 40.6699C115.121 41.4622 119.113 41.0556 122.742 39.5015C126.37 37.9475 129.471 35.3158 131.653 31.9393C133.835 28.5628 135 24.5931 135 20.5322C134.994 15.0886 132.9 9.86961 129.178 6.02037C125.455 2.17113 120.407 0.00599686 115.143 0V0ZM115.143 36.8164C112.028 36.8164 108.983 35.8614 106.393 34.072C103.803 32.2827 101.785 29.7395 100.592 26.7639C99.4005 23.7884 99.0886 20.5142 99.6963 17.3553C100.304 14.1965 101.804 11.295 104.006 9.01757C106.209 6.74019 109.015 5.18927 112.07 4.56094C115.125 3.93261 118.292 4.2551 121.169 5.48761C124.047 6.72012 126.507 8.8073 128.237 11.4852C129.968 14.1631 130.892 17.3115 130.892 20.5322C130.887 24.8497 129.227 28.989 126.274 32.0419C123.321 35.0948 119.318 36.8119 115.143 36.8164ZM115.143 30.2489C114.736 30.2489 114.339 30.3735 114.001 30.6069C113.664 30.8403 113.4 31.172 113.245 31.5601C113.089 31.9482 113.049 32.3753 113.128 32.7873C113.207 33.1993 113.403 33.5778 113.69 33.8749C113.977 34.1719 114.343 34.3742 114.742 34.4562C115.14 34.5381 115.553 34.4961 115.929 34.3353C116.304 34.1745 116.625 33.9023 116.851 33.553C117.076 33.2037 117.197 32.793 117.197 32.3729C117.197 31.8096 116.98 31.2694 116.595 30.871C116.21 30.4727 115.687 30.2489 115.143 30.2489Z" fill="black"/>
</svg>
