<svg width="98" height="88" viewBox="0 0 98 88" fill="none" xmlns="http://www.w3.org/2000/svg">
<path d="M29.3709 63.8584L28.3145 63.5218L24.0684 63.3249C24.0684 63.3249 22.0166 63.2855 21.9372 63.3249C21.8577 63.3642 21.3426 63.9569 21.3426 63.9569C21.3426 63.9569 17.0843 66.0078 16.4517 66.5645C15.8191 67.1211 12.9111 69.3371 10.5322 70.7589C8.15321 72.1807 5.89673 73.1322 5.89673 73.1322C5.89673 73.1322 9.41597 73.5658 11.8084 73.7171C14.2009 73.8684 26.2705 74.2224 26.2705 74.2224L37.9539 74.6478C37.9539 74.6478 49.1808 75.3348 53.8265 75.8038C58.4722 76.2727 65.9059 76.5678 68.7921 76.4659C71.6784 76.3641 77.7825 75.9205 80.7253 75.4668C83.6681 75.0131 85.9741 74.6123 85.9741 74.6123C85.9741 74.6123 90.7525 74.3457 90.6649 74.424C90.5773 74.5024 86.583 72.7009 84.5619 70.7466C82.5408 68.7922 82.7009 68.1613 81.0049 67.1119C79.309 66.0626 78.5142 64.5897 78.5142 64.5897L75.0465 64.5722L29.3709 63.8584Z" fill="url(#paint0_linear_215_135)"/>
<path d="M89.0959 35.6289C88.924 37.7108 88.2996 41.1897 86.6011 41.7243C84.9072 42.2553 84.3581 42.195 84.3581 42.195C84.3581 42.195 84.3332 42.274 84.2869 42.4058C84.2661 42.4623 84.2406 42.5338 84.2157 42.6128C84.2157 42.6128 84.2157 42.6128 84.2116 42.6128C84.006 43.204 83.6076 44.2959 83.2428 45.0338C83.1466 45.222 83.054 45.384 82.9705 45.512C82.9705 45.512 82.9787 45.7152 82.9746 46.0804C82.9705 47.948 82.7564 54.017 80.3205 58.3543C77.415 63.5387 75.6372 64.0132 75.6372 64.0132C75.6372 64.0132 74.9706 69.8376 75.1172 70.0032C75.2637 70.1727 76.748 70.5229 77.004 70.6998C77.264 70.8768 78.878 72.3376 78.0689 73.2073C77.7463 73.5537 76.748 73.7494 75.6581 73.8548C74.0059 74.0167 72.1445 73.9829 72.1445 73.9829C72.1445 73.9829 68.1613 70.3836 67.8763 69.3029C67.5868 68.2187 67.1467 69.2088 66.5554 69.3068C65.9642 69.4009 51.2892 70.3422 44.8407 70.1048C38.3922 69.8677 29.9562 70.0635 28.4383 69.6306C26.9163 69.2013 26.6522 69.254 26.6522 69.254C26.6522 69.254 24.1112 71.7915 21.9647 71.5242C19.8135 71.257 20.0317 70.5793 20.0317 70.5793C20.0317 70.5793 17.2351 69.7473 18.434 68.5726C19.6333 67.3942 23.4572 65.5832 24.1365 64.8791C24.8199 64.1714 27.7549 65.1126 29.3272 63.6555C30.2579 62.7896 31.7172 60.5907 32.7527 58.9456V58.9417C32.8326 58.8137 32.9079 58.6894 32.9832 58.5691C33.5663 57.6315 33.9643 56.95 33.9643 56.95L34.4884 55.4741C34.4884 55.4741 30.6817 55.4328 30.212 52.673C29.7465 49.9132 31.3986 47.2702 35.277 46.9465C39.1553 46.6188 39.39 48.3809 39.5746 50.1956C39.7589 52.0066 39.7589 52.0066 39.7589 52.0066C39.7589 52.0066 44.0271 49.9847 45.8385 48.5013C47.6458 47.018 49.2182 45.9826 49.2182 45.9826C49.2182 45.9826 50.3961 41.9805 51.8887 41.1596C53.3856 40.3351 52.7567 40.546 52.6478 40.0979C52.5471 39.6536 52.0188 37.7222 52.0188 37.7222C52.0188 37.7222 50.8155 40.0753 49.9519 38.6182C49.0838 37.1575 46.3712 34.4052 46.1321 30.8999C45.8889 27.3948 45.0585 23.8858 45.9687 23.7202C46.8785 23.5582 52.459 21.8037 52.459 21.8037C52.459 21.8037 52.2285 19.0478 54.4043 18.2534C56.5806 17.4627 60.3165 14.8235 66.7482 12.9749C69.268 12.252 71.6916 11.9018 73.7127 11.7474C76.8528 11.5027 79.0123 11.7211 79.0123 11.7211C79.0123 11.7211 83.6538 17.794 85.0542 20.5725C86.3915 23.2345 86.744 24.2209 86.769 24.3C86.7523 24.2811 86.6892 24.2059 86.6769 24.1983C86.6978 24.2434 86.8865 24.5033 87.6076 25.4332C88.9702 27.1878 89.2679 33.5469 89.0959 35.6289Z" fill="url(#paint1_linear_215_135)"/>
<path d="M83.8558 22.7925C83.8558 26.113 80.9883 28.8047 77.4506 28.8047C73.9133 28.8047 71.0459 26.113 71.0459 22.7925C71.0459 19.472 73.9133 16.7803 77.4506 16.7803C80.9884 16.7803 83.8558 19.472 83.8558 22.7925Z" fill="url(#paint2_linear_215_135)"/>
<path d="M79.2043 26.4793C75.7092 26.4793 72.87 23.6628 72.954 20.5846C72.9818 19.5689 73.3045 18.633 73.8413 17.827C72.1539 18.9098 71.0459 20.7293 71.0459 22.7925C71.0459 26.113 73.9133 28.8047 77.4506 28.8047C80.0671 28.8047 82.3133 27.3304 83.3075 25.2203C82.1725 26.0131 80.7377 26.4793 79.2043 26.4793Z" fill="#E2B2AA"/>
<path d="M77.9465 27.546C74.4514 27.546 71.6122 24.7294 71.6961 21.6513C71.724 20.6282 72.0519 19.6866 72.5957 18.8768C71.631 19.9289 71.0459 21.2958 71.0459 22.7925C71.0459 26.113 73.9133 28.8048 77.4506 28.8048C80.0671 28.8048 82.3133 27.3304 83.3075 25.2204C83.2424 25.266 83.1728 25.3064 83.1056 25.3498C81.8895 26.6985 80.0097 27.546 77.9465 27.546Z" fill="#FEFBFB"/>
<path d="M85.3016 17.8768L83.2551 17.1096L86.7749 24.3025C86.7749 24.3025 87.5028 22.9925 87.3587 21.3453C87.2146 19.6981 85.3016 17.8768 85.3016 17.8768Z" fill="url(#paint3_linear_215_135)"/>
<path d="M91.3603 33.5016C89.8801 34.9059 89.4608 34.6386 89.4608 34.6386C89.4608 34.6386 88.9744 35.3277 89.096 36.058C89.1799 36.5851 88.4212 39.1904 87.4397 40.8584C87.0626 41.5022 86.6515 42.0066 86.2449 42.1949C84.7774 42.8764 82.1233 41.7469 82.1233 41.7469L79.6076 40.2446C79.6076 40.2446 75.8676 39.8946 76.0269 35.2221C76.1821 30.546 78.6978 29.4467 78.6978 29.4467C78.6978 29.4467 79.7923 28.4264 81.0669 27.3835C82.0271 26.604 83.0835 25.8135 83.8549 25.4331C85.6495 24.5522 87.5236 24.3111 87.9851 23.2381C88.4461 22.1689 91.1297 22.4663 91.3226 23.6034C91.5109 24.7404 91.5236 26.0959 91.8716 26.9355C92.2197 27.775 92.8405 32.0934 91.3603 33.5016Z" fill="url(#paint4_linear_215_135)"/>
<path d="M67.9596 24.2735C67.402 21.5175 67.3729 18.4114 69.1589 16.3332C69.8128 15.5765 70.4377 14.9665 71.0289 14.4808C70.9159 15.5349 72.3707 13.0388 74.924 13.3776C77.5782 13.7278 71.0457 12.1417 67.9596 24.2735ZM75.666 73.851L75.6578 73.8547C74.0057 74.0166 72.1443 73.9828 72.1443 73.9828C72.1443 73.9828 68.1611 70.3835 67.8761 69.3028C67.8761 69.3028 67.8761 69.2992 67.8675 69.2727C67.8426 69.1673 67.7378 68.7079 67.3226 66.7615C66.832 64.431 67.1756 62.2924 67.2009 62.1343C67.1465 62.2398 66.656 63.0568 63.3938 65.44C59.8844 68.004 44.8405 70.1047 44.8405 70.1047C38.392 69.8676 29.9559 70.0634 28.4381 69.6305C26.9161 69.2012 26.652 69.2539 26.652 69.2539C26.652 69.2539 24.111 71.7914 21.9645 71.5241C19.8133 71.2569 20.0315 70.5792 20.0315 70.5792C20.0315 70.5792 18.9416 70.2555 18.4174 69.7246C18.0984 69.4045 17.9854 69.013 18.4338 68.5725C19.6331 67.3941 23.457 65.5831 24.1363 64.879C24.8197 64.1713 27.7547 65.1125 29.327 63.6554C30.1279 62.9099 31.3227 61.1704 32.2996 59.6532C32.4589 59.4086 32.61 59.1712 32.7525 58.9455V58.9416L33.1972 58.7346L32.983 58.569C33.5661 57.6314 33.9641 56.9499 33.9641 56.9499L34.4882 55.4741C34.4882 55.4741 34.0984 55.4704 33.5493 55.3724C32.3918 55.1691 30.5303 54.5479 30.2118 52.6729C29.7463 49.9131 31.3984 47.2701 35.2768 46.9464C36.0605 46.8786 36.698 46.9011 37.2135 46.9841C39.2473 47.3341 39.4274 48.7459 39.5744 50.1955C39.7587 52.0065 39.7587 52.0065 39.7587 52.0065C39.7587 52.0065 44.0269 49.9847 45.8383 48.5013C47.6456 47.0179 49.2179 45.9825 49.2179 45.9825C49.2179 45.9825 50.3959 41.9804 51.8884 41.1595C53.3854 40.335 52.7565 40.5459 52.6475 40.0978C52.5468 39.6535 52.0186 37.7222 52.0186 37.7222C52.0186 37.7222 50.8152 40.0752 49.9517 38.6181C49.0836 37.1574 46.371 34.4051 46.1319 30.8999C45.8886 27.3947 45.0583 23.8858 45.9685 23.7201C46.8783 23.5582 52.4588 21.8036 52.4588 21.8036C52.4588 21.8036 52.2282 19.0477 54.4041 18.2533C56.1947 17.602 59.0375 15.7044 63.5698 14.0214C62.7103 15.9642 61.6998 18.5997 61.8214 20.004C61.8214 20.004 59.3057 21.0846 57.3686 26.8299C55.8593 31.299 55.3729 34.0588 54.1904 35.8698C55.6538 34.4767 57.6495 32.5564 58.4254 31.525C58.3038 31.7923 55.5825 37.7598 57.7879 40.2446C60.0395 42.7822 67.8003 44.2882 67.8003 44.2882C67.8003 44.2882 63.1841 43.9117 59.5154 43.4864C55.8466 43.0646 54.0647 45.4178 61.1925 47.3491C65.0581 48.3959 69.1003 48.7649 71.9849 48.8816C70.4503 49.179 68.9029 49.578 67.5657 50.1277C67.5657 50.1277 67.5616 50.1277 67.5489 50.1315C67.0706 50.2595 57.5868 52.7293 54.0143 51.4906C50.3415 50.2181 50.1318 49.8416 50.1318 49.8416C50.1318 49.8416 49.5574 51.5359 44.4715 54.0283C44.4715 54.0283 39.0753 55.9597 40.1235 59.7247C41.1717 63.4897 48.4547 63.4897 51.8089 62.5711C55.1632 61.6561 58.2575 59.7736 62.3455 60.2895C66.4335 60.8053 68.7228 57.6202 68.7228 57.6202V57.6163C69.4524 56.7353 69.9262 55.7564 69.9262 55.7564C69.9262 55.7564 69.486 66.3322 71.733 69.9165C71.733 69.9165 74.295 70.2667 74.924 70.1499C75.5529 70.0296 75.6327 70.3835 75.6327 70.3835C75.6327 70.3835 72.3833 71.3021 72.5131 72.3148C72.643 73.3276 75.666 73.851 75.666 73.851ZM84.2155 42.6128C84.2155 42.6128 84.2155 42.6128 84.2114 42.6128C84.073 42.6694 81.1126 43.8252 77.4693 44.8493C77.4693 44.8493 77.4607 44.853 77.4398 44.8567H77.4271C76.9116 44.9508 71.5948 45.8244 71.0457 42.4133C70.4671 38.829 73.0373 33.6521 73.0373 33.6521L72.9493 33.5543V33.5505C73.5696 32.8841 73.9303 32.1763 73.9303 32.1763C73.9303 32.1763 76.903 28.7878 79.2299 28.5694C79.2299 28.5694 75.037 32.5866 76.1316 36.777C77.2301 40.9637 80.1315 40.0828 80.1315 40.0828C80.1315 40.0828 82.6055 42.146 83.6954 42.2739C84.0226 42.3116 84.1987 42.3605 84.2867 42.4057C84.4923 42.5111 84.2155 42.6128 84.2155 42.6128Z" fill="#D36E97"/>
<path d="M33.5448 49.3071C31.8177 51.2761 33.2054 52.5487 33.9895 53.0193C34.5762 53.3695 34.7859 54.8641 33.5493 55.3724C32.3918 55.1691 30.5304 54.5479 30.2119 52.6729C29.7463 49.9132 31.3985 47.2702 35.2768 46.9464C36.0605 46.8786 36.6981 46.9012 37.2136 46.9841L38.4464 47.9592C38.4464 47.9592 35.2768 47.338 33.5448 49.3071Z" fill="url(#paint5_linear_215_135)"/>
<path d="M54.1907 35.8698C53.8512 36.3854 53.4569 36.8261 52.9705 37.2062C51.8973 38.0422 52.803 37.1951 54.1907 35.8698Z" fill="url(#paint6_linear_215_135)"/>
<path d="M87.3603 40.8771C87.3898 40.8696 87.4147 40.8621 87.4397 40.8584C87.0626 41.5022 86.6515 42.0066 86.2449 42.1949C84.7774 42.8764 82.1233 41.7469 82.1233 41.7469L79.6076 40.2446C79.6076 40.2446 75.8676 39.8946 76.0269 35.2221C76.1821 30.546 78.6978 29.4467 78.6978 29.4467C78.6978 29.4467 79.7923 28.4264 81.0669 27.3835L81.4358 27.1538C81.4358 27.1538 78.6433 33.3961 80.4294 36.4195C82.2072 39.4427 88.4293 35.8698 88.4293 35.8698C88.4293 35.8698 85.9808 38.4036 85.3015 39.0888C84.6222 39.7702 86.4296 41.1595 87.3603 40.8771ZM86.7748 24.6985L86.9918 24.2396C86.9918 24.2396 91.0552 24.8551 91.454 24.6239C91.8528 24.3926 91.3689 25.675 91.3488 25.7456C91.3287 25.8162 91.2255 26.3456 90.812 26.2869C90.3985 26.228 86.7748 24.6985 86.7748 24.6985Z" fill="#9B3A69"/>
<path d="M90.5294 25.2162C90.5294 25.5087 89.8783 25.7456 89.075 25.7456C88.2716 25.7456 87.6206 25.5087 87.6206 25.2162C87.6206 24.9237 88.2716 24.6868 89.075 24.6868C89.8783 24.6867 90.5294 24.9237 90.5294 25.2162Z" fill="#683E57"/>
<path d="M90.0905 23.1514C90.0905 23.1514 90.7588 24.2279 90.844 24.5456C90.844 24.5456 90.7588 23.1808 90.4673 23.1278C90.1757 23.0749 90.0905 23.1514 90.0905 23.1514ZM89.193 27.2752C89.193 27.2752 89.3633 32.6874 87.3587 35.417C87.3587 35.417 89.6254 33.0874 89.8612 28.5695C89.8613 28.5694 89.8613 27.3929 89.193 27.2752ZM91.5147 27.8635C91.5147 27.8635 91.92 31.3542 90.812 33.1385C90.812 33.1385 92.6984 30.7773 91.5147 27.8635ZM77.5653 24.6588C77.5653 25.5905 76.7243 26.3457 75.6867 26.3457C74.6491 26.3457 73.8081 25.5905 73.8081 24.6588C73.8081 23.7271 74.6491 22.9719 75.6867 22.9719C76.7243 22.9719 77.5653 23.7271 77.5653 24.6588Z" fill="#FEFBFB"/>
<path d="M59.0439 19.6746L59.6863 22.0662C59.6863 22.0662 61.377 19.8669 64.5208 21.0394C64.5208 21.0394 62.0812 19.3139 62.8949 15.6351C63.7085 11.9564 60.6686 17.1097 60.6686 17.1097L59.0439 19.6746ZM60.5114 28.2165C60.5114 28.2165 60.4066 30.0835 59.0439 33.1385C57.6812 36.1935 56.624 37.137 57.1526 39.089C57.6812 41.041 55.5586 38.9231 55.5586 38.9231L57.2619 33.1385C57.2619 33.1385 59.3059 30.3107 60.5114 28.2165Z" fill="#D36E97"/>
<path d="M48.0552 22.9719C48.0552 22.9719 47.077 27.0417 48.0552 32.2609C49.0334 37.48 51.0651 38.9232 51.0651 38.9232C51.0651 38.9232 46.8645 36.0855 46.132 30.8999C45.3995 25.7144 45.854 24.0814 45.854 24.0814L48.0552 22.9719ZM54.6242 35.6915C54.6242 35.6915 52.9638 40.193 55.5585 42.5543C55.5585 42.5543 52.7812 41.5547 52.49 39.9703C52.199 38.386 52.9703 37.2063 52.9703 37.2063L54.6242 35.6915Z" fill="#E5B884"/>
<path d="M51.6363 41.7313L53.2439 40.6803C53.2439 40.6803 54.98 42.2534 54.9067 42.2747C54.8334 42.296 52.3177 42.9551 50.9202 46.3278C49.5227 49.7004 50.2397 49.9325 50.2397 49.9325C50.2397 49.9325 49.243 47.3632 49.2955 46.061C49.3479 44.7589 51.6363 41.7313 51.6363 41.7313Z" fill="#E5B884"/>
<path d="M48.0201 46.767L48.966 45.8801L49.4561 46.9447C49.4561 46.9447 47.3564 49.9828 42.2202 52.7124C37.0839 55.4421 35.0235 55.5795 33.1974 58.7346C33.1974 58.7346 33.9655 55.8892 36.586 53.9125C39.2066 51.9359 40.6921 51.341 43.1988 49.9324C45.7055 48.5239 48.0201 46.767 48.0201 46.767ZM33.0926 59.3972C33.0926 59.3972 31.6185 64.3613 29.9037 65.1369C28.1889 65.9162 26.3041 65.4965 23.8262 66.5657C21.344 67.6312 20.9751 69.9994 18.6691 69.7659C18.581 69.7584 18.497 69.7434 18.4177 69.7246C18.0987 69.4045 17.9857 69.0129 18.434 68.5725C19.6333 67.394 23.4572 65.5831 24.1365 64.879C24.8199 64.1712 27.7549 65.1125 29.3272 63.6554C30.1281 62.9099 31.3229 61.1704 32.2999 59.6532L33.0926 59.3972ZM67.482 61.7955C67.482 61.7955 69.0289 71.2021 73.1296 73.9817C73.1296 73.9817 71.5749 74.447 69.9628 72.2748C68.3509 70.1026 66.4338 66.2508 67.482 61.7955Z" fill="#E5B884"/>
<path d="M71.5838 19.4863C71.5838 19.4863 68.7888 23.2429 69.6159 26.0591C70.443 28.8753 74.5892 30.46 76.7089 29.6206C78.8287 28.7812 77.7887 28.5694 77.7887 28.5694C77.7887 28.5694 72.0751 28.3576 71.1805 24.2396C70.2858 20.1217 71.5838 19.4863 71.5838 19.4863Z" fill="#D36E97"/>
<path d="M77.759 24.1249C77.5653 23.0448 76.4848 22.3032 75.3465 22.468C74.207 22.6332 73.4413 23.6422 73.6354 24.7216C73.829 25.8015 74.9092 26.5431 76.0483 26.3784C77.1866 26.2131 77.9527 25.2044 77.759 24.1249ZM74.7564 25.0283C73.7791 25.0283 73.7791 23.6666 74.7564 23.6666C75.7342 23.6666 75.7342 25.0283 74.7564 25.0283ZM76.5711 25.7552C75.3629 25.7552 75.3629 24.0729 76.5711 24.0729C77.7791 24.0729 77.7791 25.7552 76.5711 25.7552ZM21.887 71.9028C21.4129 71.9028 20.9919 71.8201 20.6267 71.6548C20.1407 71.4352 19.8774 71.1237 19.7459 70.9153C18.8963 70.7541 18.3255 70.4204 18.0471 69.9218C17.6221 69.1607 18.086 68.3397 18.1061 68.3049L18.1741 68.1873L18.3092 68.1338C18.3305 68.1253 20.4559 67.276 21.7195 66.1414C23.1776 64.8321 23.8553 64.4815 26.6793 64.314C29.1999 64.1646 30.8844 61.6673 32.2 59.2441C32.4563 58.7713 32.6705 58.3408 32.8694 57.9402C33.6982 56.2721 34.2972 55.0668 36.573 53.5577C37.3108 53.0685 38.4327 52.4204 39.732 51.6702C43.2042 49.6649 47.9596 46.9186 49.138 45.0006L49.8726 45.3642C48.5914 47.4489 43.7332 50.2548 40.1856 52.3035C38.8987 53.0468 37.7874 53.6886 37.0709 54.1636C34.9729 55.5547 34.4405 56.6257 33.6352 58.247C33.4325 58.6546 33.2147 59.0928 32.9534 59.5739C31.533 62.1914 29.6831 64.8905 26.7342 65.0655C24.0375 65.2253 23.5584 65.5551 22.3124 66.6737C21.1279 67.7374 19.3361 68.5349 18.8009 68.7599C18.7305 68.9342 18.6285 69.2879 18.7989 69.588C19.0179 69.9748 19.6276 70.1391 20.1009 70.2089L20.3523 70.2461L20.4314 70.4636C20.4485 70.5061 20.9272 71.621 23.2897 70.9136C25.8796 70.1385 26.5351 69.0421 26.5417 69.0313L26.6928 68.7686L27.015 68.8342C27.0609 68.8442 31.6521 69.829 38.1232 69.702C39.7655 69.6707 41.9823 69.6951 44.5492 69.7236C52.2515 69.8086 62.7978 69.925 67.998 68.6179L68.224 69.3429C62.908 70.6794 52.29 70.5623 44.539 70.4767C41.9786 70.4484 39.7684 70.4235 38.1412 70.455C32.4915 70.56 28.2282 69.8371 27.108 69.6239C26.7423 70.0627 25.7666 70.966 23.5551 71.6281C22.943 71.8111 22.3857 71.9028 21.887 71.9028Z" fill="#683E57"/>
<path d="M67.6392 59.96C67.5385 60.5959 67.4725 61.2337 67.4394 61.8723C67.3984 62.5099 67.3886 63.1482 67.4119 63.7839C67.448 65.0547 67.6093 66.3197 67.9401 67.5404C68.2595 68.7627 68.7811 69.9347 69.5129 70.978C70.2479 72.0183 71.2142 72.916 72.3573 73.5905L72.1633 73.5309H72.1645C73.071 73.5905 73.9964 73.6184 74.9042 73.5988C75.3583 73.5877 75.8111 73.5642 76.2484 73.5118C76.4662 73.4853 76.6808 73.4511 76.8794 73.4033C77.0739 73.3575 77.2696 73.2889 77.3609 73.2213C77.5472 73.0908 77.675 72.7277 77.6463 72.3949C77.6262 72.0537 77.4915 71.711 77.266 71.4353C76.8171 70.868 75.9942 70.629 75.156 70.6741L75.154 70.6742L74.7441 70.6931L74.7154 70.3227C74.6245 69.1426 74.638 67.9832 74.7158 66.816C74.7858 65.6508 74.9455 64.4897 75.1785 63.34C75.4103 62.1907 75.7251 61.0497 76.1895 59.9544C76.6566 58.8638 77.2528 57.8041 78.068 56.9009C77.4591 57.9234 77.0153 58.999 76.6799 60.0989C76.3442 61.1986 76.0949 62.3175 75.9159 63.4468C75.7394 64.5767 75.6453 65.7165 75.5789 66.8568C75.5265 67.995 75.5093 69.1476 75.5523 70.2733L75.1138 69.9219H75.1159C75.622 69.901 76.1514 69.9486 76.6546 70.1197C77.157 70.2883 77.6209 70.5917 77.9424 70.9906C78.2662 71.3881 78.4542 71.8644 78.4837 72.3561C78.4976 72.6023 78.4718 72.8545 78.387 73.1047C78.3015 73.3498 78.1536 73.6117 77.8822 73.8112C77.6037 74.0004 77.347 74.0651 77.0968 74.1307C76.8467 74.1907 76.6026 74.2283 76.3606 74.2579C75.8767 74.3158 75.4004 74.3398 74.9263 74.3515C73.9764 74.3715 73.0428 74.3434 72.0966 74.2814L72.0945 74.2813L71.9892 74.2739L71.9004 74.2217C71.2768 73.8564 70.6925 73.4332 70.1725 72.9525C69.6537 72.4706 69.2041 71.932 68.8192 71.363C68.0445 70.2228 67.5732 68.9493 67.2882 67.6679C67.0119 66.3807 66.9398 65.073 67 63.7802C67.0749 62.488 67.2653 61.202 67.6392 59.96Z" fill="#683E57"/>
<path d="M75.6899 64.483L75.1416 63.9134C75.2268 63.8472 83.6456 57.1503 82.5253 45.2141L83.3606 45.1509C84.5185 57.4827 75.7783 64.4145 75.6899 64.483Z" fill="#683E57"/>
<path d="M84.7774 42.2052C84.6902 42.9433 84.4544 43.5957 84.11 44.2272C83.7636 44.8504 83.2862 45.4162 82.7011 45.8643C82.1176 46.3147 81.4305 46.6397 80.7144 46.8396C79.997 47.0421 79.2522 47.1263 78.5144 47.1355C79.2482 47.064 79.9725 46.9167 80.6423 46.6629C81.3122 46.4114 81.9227 46.0487 82.4145 45.5895C82.9078 45.1319 83.2833 44.5842 83.5356 43.997C83.7849 43.4168 83.9335 42.7675 83.9389 42.1827L84.7774 42.2052Z" fill="#683E57"/>
<path d="M84.4413 42.6512C81.6201 42.6512 79.7391 40.6706 79.6519 40.5766L80.2943 40.093C80.3152 40.115 82.4206 42.3156 85.3106 41.8241C86.1131 41.6876 86.81 41.214 87.382 40.4165C88.5719 38.7579 88.8716 36.1509 88.5629 35.0121L89.3777 34.8337C89.7147 36.0768 89.4494 38.9254 88.0871 40.8243C87.3857 41.8021 86.5041 42.3874 85.467 42.5639C85.1132 42.6242 84.7705 42.6512 84.4413 42.6512Z" fill="#683E57"/>
<path d="M80.5239 40.5976C79.325 40.5976 77.9894 40.3464 76.9854 39.4675C75.6604 38.3075 75.287 36.3581 75.8757 33.6735C77.2671 27.3307 86.4045 24.0865 86.7927 23.9514L87.0957 24.6537C87.0048 24.6853 78 27.8854 76.6988 33.8191C76.1681 36.2382 76.4613 37.9571 77.5705 38.9283C78.9827 40.1646 81.3797 39.8473 82.3456 39.6539C85.4747 39.0263 88.3437 36.2797 89.6548 32.6572C90.9597 29.0518 89.8075 25.865 89.7961 25.8334L90.5912 25.5953C90.6432 25.7345 91.8417 29.0513 90.4524 32.89C89.0512 36.7607 85.941 39.7043 82.5282 40.3889C81.9971 40.4953 81.2884 40.5976 80.5239 40.5976Z" fill="#683E57"/>
<path d="M89.1512 35.0921L89.0398 34.3457C89.1516 34.3312 91.8294 33.9478 92.0808 30.6458C92.3392 27.2568 90.6883 26.056 90.6715 26.0442L91.1796 25.4451C91.2627 25.5013 93.2093 26.8671 92.9178 30.6973C92.618 34.6292 89.1859 35.0879 89.1512 35.0921Z" fill="#683E57"/>
<path d="M90.7656 26.4292C89.3551 26.4292 86.5363 25.0984 86.2444 24.6006C86.0241 24.225 86.4389 23.8439 86.5752 23.7187C87.4216 22.9407 89.6871 21.7956 90.9986 22.3809C91.6983 22.6936 91.9555 24.2673 91.9322 25.0011C91.9035 25.9113 91.5354 26.2417 91.2316 26.3584C91.1051 26.4071 90.947 26.4292 90.7656 26.4292ZM87.0871 24.3289C87.748 24.8138 90.3615 25.8744 90.9016 25.6665C90.9241 25.6576 91.0191 25.5648 91.0674 25.2703C91.2038 24.4377 90.8373 23.2187 90.606 23.0446C90.2985 22.9094 89.7576 22.951 89.1028 23.1729C88.1476 23.4963 87.3397 24.0604 87.0871 24.3289ZM84.485 22.5723C84.4833 24.2153 83.7046 25.8486 82.4058 27.0008C81.1123 28.1621 79.2993 28.8391 77.4682 28.8456C75.6362 28.8649 73.8039 28.1955 72.5002 27.0284C71.1842 25.8729 70.4095 24.2283 70.4108 22.5673C70.3911 20.9069 71.1453 19.2472 72.4576 18.0681C73.1099 17.4763 73.8927 16.9995 74.7502 16.6761C75.6096 16.3558 76.5415 16.1974 77.4681 16.2005C79.3242 16.1995 81.1717 16.8904 82.4615 18.0832C83.7656 19.2619 84.5104 20.9163 84.485 22.5671V22.5723ZM83.5645 22.5671C83.5576 21.1297 82.8853 19.7195 81.747 18.7251C80.616 17.7249 79.0507 17.1432 77.4681 17.159C75.8885 17.1645 74.3301 17.741 73.2061 18.7402C72.076 19.7344 71.4135 21.1395 71.4123 22.5673C71.3951 23.9946 72.0375 25.4146 73.1635 26.4325C74.2805 27.4583 75.861 28.0611 77.4681 28.0639C78.2703 28.0686 79.074 27.9341 79.8167 27.6594C80.5583 27.3818 81.2368 26.971 81.803 26.4597C82.9467 25.4385 83.5846 24.0073 83.5645 22.562V22.5671H83.5645Z" fill="#683E57"/>
<path d="M80.0605 15.4546C78.7866 14.5272 77.2758 13.9007 75.7235 13.7365C74.9476 13.6635 74.1651 13.6959 73.4122 13.8613C72.6669 14.02 71.9053 14.275 71.2887 14.6444C70.003 15.3807 69.1624 16.6352 68.6522 17.9785C68.1473 19.3345 67.9062 20.7896 67.8312 22.2631C67.5581 20.8029 67.6109 19.2805 68.0253 17.8103C68.2304 17.0741 68.5609 16.3575 69.015 15.6949C69.4776 15.0381 70.0934 14.4501 70.8313 14.0139C71.592 13.5832 72.3962 13.3241 73.2475 13.1659C74.0963 13.023 74.9787 13.005 75.8226 13.158C77.5128 13.4519 79.0278 14.3016 80.0605 15.4546Z" fill="#683E57"/>
<path d="M86.3813 24.2114C86.3559 24.15 83.8226 18.0414 78.794 12.0853C77.1128 11.997 64.1474 11.6078 53.3762 19.4423C53.2558 19.7798 52.8767 20.9148 52.8767 21.8551H52.0381C52.0381 20.6133 52.597 19.1573 52.6208 19.0959L52.6597 18.9954L52.7518 18.9279C64.5228 10.3026 78.9058 11.3347 79.0491 11.346L79.2334 11.3608L79.3456 11.4926C84.5301 17.5853 87.1424 23.8885 87.1682 23.9514L86.3813 24.2114Z" fill="#683E57"/>
<path d="M61.1926 20.3179C59.875 20.5394 58.5664 20.7898 57.2639 21.0552C55.961 21.3193 54.668 21.6141 53.386 21.9316C52.1068 22.2577 50.8391 22.6124 49.6026 23.0236C48.3705 23.4409 47.1635 23.9171 46.0678 24.5105L46.3359 24.1408C46.2135 25.4089 46.2475 26.7369 46.3413 28.0293C46.4457 29.3276 46.6578 30.6177 47.0058 31.8717C47.344 33.1269 47.8153 34.351 48.468 35.4868C49.1239 36.6188 49.9387 37.6748 50.9542 38.5581L50.2659 38.5029C50.7888 38.1955 51.3281 37.8268 51.839 37.4582C52.357 37.089 52.8623 36.7031 53.3536 36.3024C54.3343 35.4992 55.265 34.643 56.1465 33.7455C57.9003 31.9425 59.4357 29.9572 60.7038 27.8164C59.7481 30.0855 58.3797 32.2264 56.719 34.1666C55.8931 35.1409 54.9886 36.063 54.0186 36.9293C53.0437 37.7999 52.0381 38.6106 50.8764 39.3434L50.5239 39.5658L50.1877 39.2883C49.0462 38.346 48.0999 37.2177 47.3891 35.9925C46.6714 34.769 46.1522 33.4662 45.7857 32.1398C45.4311 30.8097 45.2243 29.457 45.1293 28.1025C45.0331 26.7421 45.0638 25.401 45.2321 24.0222L45.2624 23.7747L45.5003 23.6522C46.7143 23.0273 47.9959 22.5857 49.2886 22.2123C50.5812 21.8364 51.8923 21.5391 53.2116 21.2924C55.8484 20.796 58.5152 20.4669 61.1926 20.3179Z" fill="#683E57"/>
<path d="M53.2313 37.6241C53.1355 37.8932 53.0675 38.2457 53.0405 38.5672C53.013 38.8965 53.0209 39.229 53.0741 39.5546C53.1768 40.2055 53.468 40.8323 53.9605 41.3406C54.4482 41.8526 55.1213 42.2366 55.8555 42.4977C56.5909 42.7627 57.3856 42.9142 58.1882 43.0019C57.3795 43.0078 56.5606 42.9514 55.7581 42.7663C54.9588 42.5841 54.1653 42.2625 53.5138 41.7384C52.8587 41.2202 52.3878 40.5016 52.1524 39.7357C52.0316 39.3526 51.9644 38.9581 51.9398 38.5623C51.9194 38.1589 51.9276 37.7845 52.0119 37.3462L53.2313 37.6241Z" fill="#683E57"/>
<path d="M53.2696 41.0713C52.9519 41.2347 52.5793 41.4719 52.2648 41.7173C51.9422 41.9662 51.6359 42.2357 51.3632 42.531C50.8227 43.1229 50.3735 43.7919 50.1041 44.5331C49.8375 45.2716 49.6938 46.064 49.7204 46.8706C49.7249 47.6784 49.8724 48.495 50.0816 49.3083C49.6549 48.5655 49.3482 47.7599 49.1808 46.9152C49.0367 46.0713 49.0215 45.1819 49.2484 44.3206C49.467 43.461 49.8757 42.6255 50.4665 41.9072C50.7601 41.5473 51.0856 41.2072 51.4508 40.9025C51.8255 40.597 52.1887 40.3248 52.6735 40.0768L53.2696 41.0713ZM34.9726 55.9866C34.3589 56.6918 33.8638 57.5562 33.5871 58.4439C33.3082 59.3363 33.2636 60.2935 33.5481 61.1935C33.8253 62.0952 34.4231 62.9129 35.1782 63.587C35.9345 64.265 36.8349 64.8149 37.7827 65.2781C36.8037 64.8706 35.8591 64.3728 35.0349 63.7243C34.2135 63.0802 33.5191 62.263 33.1486 61.307C32.7702 60.3542 32.7416 59.2992 32.9757 58.3114C33.2161 57.3167 33.6546 56.3903 34.3085 55.5266L34.9726 55.9866Z" fill="#683E57"/>
<path d="M34.969 55.8184C34.0952 55.9043 33.2673 55.8162 32.4553 55.544C31.6524 55.2737 30.9256 54.7637 30.4511 54.112C29.9724 53.4601 29.7165 52.723 29.6166 51.9724C29.5204 51.2159 29.6387 50.4204 29.9892 49.7167C30.6935 48.2938 32.1458 47.315 33.7132 46.8547C34.5043 46.6249 35.3433 46.5172 36.1892 46.5825C37.0396 46.6431 37.8954 46.943 38.5538 47.4524C39.2167 47.9581 39.6766 48.6376 39.9353 49.3563C40.19 50.0774 40.2793 50.8508 40.0794 51.619C39.9775 51.9961 39.7822 52.3976 39.4276 52.6943C39.1045 52.9662 38.7536 53.1679 38.3868 53.3436C37.6522 53.6845 36.8513 53.9163 35.9955 53.937C35.5701 53.9433 35.1242 53.8893 34.7098 53.719C34.2947 53.5538 33.9356 53.2575 33.7108 52.9091C33.4831 52.5605 33.3701 52.1786 33.3177 51.8062C33.2923 51.6233 33.2784 51.4271 33.28 51.2486C33.2817 51.0532 33.2997 50.8664 33.3398 50.6741C33.4209 50.2947 33.6023 49.9053 33.9323 49.6088C34.2582 49.3097 34.7303 49.1439 35.1885 49.1562C35.6467 49.1699 36.0942 49.3555 36.3727 49.6728C36.6564 49.9884 36.7203 50.4135 36.595 50.7517C36.5475 50.3952 36.3788 50.086 36.1114 49.8969C35.8502 49.7049 35.5115 49.6172 35.1913 49.6366C34.8683 49.6482 34.5677 49.7746 34.3474 49.9769C34.1263 50.1818 33.9925 50.4664 33.9327 50.7723C33.8741 51.0764 33.8852 51.4069 33.9351 51.7314C33.9859 52.0511 34.0886 52.3572 34.2619 52.6114C34.5985 53.1317 35.2724 53.3556 35.9783 53.324C36.6842 53.2981 37.4057 53.0834 38.0453 52.7715C38.363 52.6144 38.6689 52.4273 38.9108 52.2155C39.1287 52.0292 39.2609 51.7608 39.3375 51.4614C39.6139 50.2442 39.0689 48.8214 38.0154 48.0238C36.9561 47.1934 35.3526 47.1809 33.9826 47.5903C32.6081 47.9995 31.3662 48.872 30.806 50.0373C30.5281 50.616 30.4171 51.2534 30.4949 51.8881C30.5739 52.5243 30.7954 53.1613 31.175 53.6815C31.5533 54.2048 32.1098 54.6024 32.7645 54.8295C33.409 55.058 34.1742 55.1368 34.8486 55.0732L34.969 55.8184ZM78.9925 28.8941C78.0483 29.1973 77.1021 29.7039 76.2709 30.2848C75.4335 30.8733 74.6834 31.5691 74.052 32.3486C72.7807 33.9072 72.0248 35.7963 71.7325 37.7376C71.8864 35.7849 72.5059 33.8254 73.7052 32.1372C74.3002 31.2937 75.0302 30.5218 75.8671 29.8517C76.7151 29.1838 77.6242 28.6075 78.7108 28.1848L78.9925 28.8941ZM62.6986 31.5215C62.6306 32.2657 62.7617 33.0253 63.0782 33.7029C63.3898 34.3831 63.9233 34.9697 64.6014 35.363C65.2798 35.7619 66.0717 35.9577 66.8661 36.1082C67.6661 36.2599 68.4924 36.3172 69.333 36.3789L69.3355 36.4164C68.5051 36.5603 67.6456 36.5861 66.794 36.479C65.9435 36.3702 65.1095 36.0741 64.4097 35.61C63.7022 35.1538 63.167 34.4958 62.8829 33.7706C62.6052 33.0422 62.5327 32.2644 62.6568 31.516L62.6986 31.5215ZM82.9278 16.7781C83.831 16.8476 84.6438 17.1847 85.3547 17.6551C86.0663 18.1234 86.6387 18.7571 87.058 19.4347C87.4892 20.1544 87.7033 20.946 87.6976 21.7404C87.6886 22.5338 87.5125 23.3041 87.1145 24.017L86.7329 23.8615C86.8447 23.5323 86.9352 23.1708 86.9769 22.8182C87.0302 22.4649 87.0466 22.1083 87.0195 21.7571C86.9753 21.0576 86.7652 20.364 86.4094 19.7662C86.0282 19.136 85.5373 18.583 84.9415 18.1239C84.6447 17.8945 84.3167 17.6978 83.9686 17.5335C83.6276 17.364 83.2443 17.2316 82.882 17.1524L82.9278 16.7781ZM86.8607 28.493C86.8607 28.8796 86.5118 29.193 86.0811 29.193C85.6503 29.193 85.3014 28.8796 85.3014 28.493C85.3014 28.1063 85.6503 27.7929 86.0811 27.7929C86.5118 27.7929 86.8607 28.1063 86.8607 28.493ZM83.8556 30.7716C83.8556 31.0695 83.587 31.3108 83.2554 31.3108C82.9237 31.3108 82.6547 31.0695 82.6547 30.7716C82.6547 30.4738 82.9237 30.2324 83.2554 30.2324C83.587 30.2324 83.8556 30.4738 83.8556 30.7716ZM87.3586 32.3932C87.3586 32.6271 87.1472 32.8168 86.8869 32.8168C86.6264 32.8168 86.4152 32.6271 86.4152 32.3932C86.4152 32.1594 86.6265 31.9697 86.8869 31.9697C87.1473 31.9697 87.3586 32.1594 87.3586 32.3932ZM19.5845 70.1138C19.9566 70.1421 20.4009 70.1083 20.8099 70.0395C21.2255 69.9693 21.6371 69.8579 22.0322 69.7042C22.8249 69.4003 23.5468 68.9218 24.1384 68.3216C23.6593 68.9964 23.012 69.5952 22.2287 70.0368C21.8389 70.259 21.418 70.4425 20.9766 70.5841C20.5279 70.7238 20.0881 70.8301 19.5706 70.8668L19.5845 70.1138Z" fill="#683E57"/>
<path d="M65.6381 76.698C62.1713 76.698 58.7429 76.5552 55.959 76.2264C49.0744 75.4137 34.8503 74.4756 23.8744 74.377C13.4996 74.2838 5.82597 73.3804 5.7494 73.3713L5.05249 73.288L5.68675 73.015C5.72934 72.9966 9.99995 71.1455 13.1917 68.8032L14.1334 68.1105C16.6164 66.2814 17.3661 65.7295 19.4826 64.7652C21.5364 63.8297 21.6482 63.362 21.649 63.3574L21.6248 63.1594L21.8468 63.1761C21.8873 63.1743 25.9479 62.9873 29.3906 63.4578L29.3275 63.8299C26.2947 63.4153 22.7726 63.5175 22.0159 63.5462C21.8738 63.8195 21.3665 64.3293 19.6726 65.1009C17.5966 66.0466 16.8551 66.5926 14.3996 68.4015L13.457 69.0948C10.9569 70.9296 7.80773 72.4642 6.4909 73.0732C8.5914 73.2929 15.3102 73.9236 23.8785 74.0005C33.6907 74.0885 48.1064 74.9197 56.0139 75.8532C63.4357 76.729 75.4622 76.2793 80.4707 75.3223C84.1657 74.6165 88.0158 74.402 89.6994 74.3391C88.8142 73.9438 87.3303 73.2192 85.9754 72.2661C84.9477 71.5431 84.1558 70.6177 83.3905 69.7227C82.5491 68.7396 81.7547 67.8108 80.6734 67.1262C78.9574 66.0399 78.4807 65.1363 78.3517 64.7779H75.3607V64.4014H78.6986L78.7223 64.5655C78.7235 64.5733 78.9078 65.5478 80.915 66.8185C82.0483 67.536 82.8996 68.5311 83.723 69.4935C84.4727 70.3698 85.2478 71.2762 86.2342 71.9698C88.2852 73.4124 90.6359 74.3201 90.6596 74.3291L91.5715 74.6784L90.5802 74.6906C90.529 74.6911 85.4067 74.7641 80.5583 75.6906C77.3981 76.2945 71.4643 76.698 65.6381 76.698Z" fill="#683E57"/>
<defs>
<linearGradient id="paint0_linear_215_135" x1="27.4626" y1="92.4738" x2="64.6616" y2="51.0477" gradientUnits="userSpaceOnUse">
<stop stop-color="#FF8500"/>
<stop offset="1" stop-color="#E9E41D"/>
</linearGradient>
<linearGradient id="paint1_linear_215_135" x1="18.1652" y1="42.813" x2="89.1689" y2="42.813" gradientUnits="userSpaceOnUse">
<stop stop-color="#DD8968"/>
<stop offset="1" stop-color="#E9CE91"/>
</linearGradient>
<linearGradient id="paint2_linear_215_135" x1="71.0421" y1="22.7881" x2="83.8518" y2="22.7881" gradientUnits="userSpaceOnUse">
<stop stop-color="#ECBCB2"/>
<stop offset="0.605" stop-color="#F8E7E3"/>
<stop offset="1" stop-color="white"/>
</linearGradient>
<linearGradient id="paint3_linear_215_135" x1="83.2549" y1="20.7085" x2="87.3773" y2="20.7085" gradientUnits="userSpaceOnUse">
<stop stop-color="#ECBCB2"/>
<stop offset="0.605" stop-color="#F8E7E3"/>
<stop offset="1" stop-color="white"/>
</linearGradient>
<linearGradient id="paint4_linear_215_135" x1="76.0235" y1="32.4974" x2="92.7273" y2="32.4974" gradientUnits="userSpaceOnUse">
<stop stop-color="#AF533E"/>
<stop offset="1" stop-color="#DE765E"/>
</linearGradient>
<linearGradient id="paint5_linear_215_135" x1="30.1322" y1="51.1375" x2="38.4432" y2="51.1375" gradientUnits="userSpaceOnUse">
<stop stop-color="#DD8968"/>
<stop offset="1" stop-color="#E9CE91"/>
</linearGradient>
<linearGradient id="paint6_linear_215_135" x1="52.5009" y1="36.7038" x2="54.1933" y2="36.7038" gradientUnits="userSpaceOnUse">
<stop stop-color="#DD8968"/>
<stop offset="1" stop-color="#E9CE91"/>
</linearGradient>
</defs>
</svg>
