<svg width="919" height="570" viewBox="0 0 919 570" fill="none" xmlns="http://www.w3.org/2000/svg">
<path d="M275.427 413.628L265.521 411.448L225.703 410.172C225.703 410.172 206.462 409.917 205.717 410.172C204.972 410.427 200.142 414.266 200.142 414.266C200.142 414.266 160.209 427.55 154.277 431.156C148.344 434.762 121.075 449.115 98.7661 458.324C76.4574 467.534 55.2971 473.697 55.2971 473.697C55.2971 473.697 88.299 476.505 110.735 477.486C133.17 478.465 246.353 480.759 246.353 480.759L355.915 483.514C355.915 483.514 461.196 487.964 504.761 491.002C548.326 494.039 618.036 495.95 645.102 495.291C672.168 494.631 729.41 491.758 757.006 488.819C784.602 485.88 806.227 483.284 806.227 483.284C806.227 483.284 851.037 481.558 850.215 482.065C849.393 482.572 811.936 470.904 792.984 458.245C774.031 445.586 775.532 441.499 759.628 434.702C743.724 427.905 736.271 418.365 736.271 418.365L703.753 418.252L275.427 413.628Z" fill="url(#paint0_linear_215_135)"/>
<path d="M835.502 230.777C833.889 244.263 828.033 266.797 812.106 270.259C796.222 273.699 791.073 273.308 791.073 273.308C791.073 273.308 790.838 273.82 790.405 274.674C790.209 275.039 789.971 275.502 789.737 276.015C789.737 276.015 789.737 276.015 789.698 276.015C787.771 279.844 784.035 286.916 780.613 291.696C779.711 292.915 778.843 293.964 778.06 294.793C778.06 294.793 778.137 296.11 778.098 298.475C778.06 310.572 776.052 349.883 753.209 377.977C725.963 411.557 709.291 414.63 709.291 414.63C709.291 414.63 703.04 452.357 704.415 453.429C705.789 454.527 719.708 456.796 722.108 457.941C724.546 459.088 739.682 468.55 732.095 474.183C729.07 476.427 719.708 477.695 709.487 478.377C693.994 479.426 676.538 479.207 676.538 479.207C676.538 479.207 639.186 455.893 636.514 448.894C633.799 441.871 629.671 448.284 624.127 448.919C618.582 449.528 480.967 455.625 420.496 454.088C360.024 452.552 280.915 453.82 266.681 451.016C252.409 448.235 249.932 448.577 249.932 448.577C249.932 448.577 226.103 465.013 205.975 463.282C185.802 461.551 187.848 457.161 187.848 457.161C187.848 457.161 161.623 451.772 172.865 444.163C184.112 436.53 219.971 424.8 226.341 420.239C232.749 415.655 260.272 421.752 275.017 412.314C283.744 406.705 297.429 392.462 307.14 381.806V381.781C307.889 380.952 308.595 380.147 309.301 379.368C314.769 373.295 318.502 368.88 318.502 368.88L323.416 359.321C323.416 359.321 287.719 359.053 283.315 341.177C278.949 323.301 294.442 306.182 330.811 304.085C367.181 301.962 369.381 313.376 371.113 325.13C372.841 336.86 372.841 336.86 372.841 336.86C372.841 336.86 412.866 323.764 429.853 314.156C446.801 304.548 461.545 297.841 461.545 297.841C461.545 297.841 472.592 271.919 486.588 266.602C500.626 261.261 494.728 262.627 493.707 259.725C492.762 256.847 487.809 244.337 487.809 244.337C487.809 244.337 476.524 259.578 468.426 250.14C460.286 240.679 434.848 222.851 432.606 200.147C430.325 177.443 422.538 154.715 431.074 153.642C439.606 152.593 491.936 141.228 491.936 141.228C491.936 141.228 489.775 123.377 510.179 118.232C530.587 113.11 565.621 96.0157 625.935 84.0414C649.564 79.3594 672.291 77.0908 691.244 76.0904C720.691 74.5055 740.941 75.9204 740.941 75.9204C740.941 75.9204 784.468 115.256 797.6 133.253C810.14 150.496 813.446 156.885 813.681 157.397C813.523 157.275 812.932 156.788 812.817 156.739C813.013 157.031 814.783 158.714 821.544 164.737C834.323 176.102 837.114 217.292 835.502 230.777Z" fill="url(#paint1_linear_215_135)"/>
<path d="M786.361 147.633C786.361 169.141 759.471 186.576 726.296 186.576C693.125 186.576 666.236 169.141 666.236 147.633C666.236 126.126 693.125 108.69 726.296 108.69C759.472 108.69 786.361 126.126 786.361 147.633Z" fill="url(#paint2_linear_215_135)"/>
<path d="M742.742 171.514C709.966 171.514 683.342 153.27 684.129 133.332C684.39 126.753 687.416 120.691 692.45 115.471C676.626 122.484 666.236 134.269 666.236 147.633C666.236 169.141 693.125 186.576 726.296 186.576C750.832 186.576 771.897 177.026 781.22 163.359C770.576 168.494 757.122 171.514 742.742 171.514Z" fill="#E2B2AA"/>
<path d="M730.947 178.423C698.171 178.423 671.547 160.179 672.334 140.241C672.595 133.614 675.67 127.515 680.769 122.27C671.723 129.085 666.236 137.938 666.236 147.633C666.236 169.141 693.126 186.576 726.297 186.576C750.832 186.576 771.897 177.026 781.22 163.359C780.61 163.654 779.957 163.916 779.327 164.197C767.923 172.933 750.295 178.423 730.947 178.423Z" fill="#FEFBFB"/>
<path d="M799.919 115.793L780.728 110.824L813.735 157.414C813.735 157.414 820.561 148.929 819.21 138.259C817.858 127.59 799.919 115.793 799.919 115.793Z" fill="url(#paint3_linear_215_135)"/>
<path d="M856.735 216.999C842.854 226.095 838.923 224.364 838.923 224.364C838.923 224.364 834.361 228.827 835.501 233.558C836.289 236.971 829.174 253.847 819.97 264.651C816.434 268.821 812.579 272.088 808.766 273.308C795.004 277.722 770.115 270.406 770.115 270.406L746.524 260.675C746.524 260.675 711.452 258.408 712.946 228.143C714.401 197.855 737.992 190.734 737.992 190.734C737.992 190.734 748.256 184.125 760.208 177.37C769.212 172.321 779.119 167.201 786.353 164.737C803.182 159.031 820.756 157.47 825.084 150.519C829.408 143.594 854.573 145.521 856.381 152.886C858.148 160.251 858.266 169.03 861.53 174.468C864.795 179.906 870.616 207.878 856.735 216.999Z" fill="url(#paint4_linear_215_135)"/>
<path d="M637.296 157.226C632.066 139.375 631.794 119.256 648.542 105.794C654.674 100.893 660.534 96.9424 666.078 93.7961C665.018 100.624 678.661 84.4557 702.605 86.6504C727.494 88.9188 666.236 78.645 637.296 157.226ZM709.563 478.353L709.486 478.377C693.993 479.426 676.538 479.207 676.538 479.207C676.538 479.207 639.185 455.893 636.513 448.893C636.513 448.893 636.513 448.87 636.432 448.698C636.198 448.016 635.216 445.04 631.322 432.432C626.722 417.337 629.943 403.485 630.181 402.461C629.671 403.144 625.071 408.436 594.48 423.873C561.57 440.481 420.495 454.087 420.495 454.087C360.024 452.551 280.914 453.82 266.681 451.016C252.408 448.235 249.932 448.577 249.932 448.577C249.932 448.577 226.103 465.013 205.975 463.281C185.801 461.55 187.848 457.161 187.848 457.161C187.848 457.161 177.626 455.064 172.711 451.625C169.72 449.552 168.66 447.016 172.865 444.163C184.111 436.53 219.97 424.8 226.34 420.239C232.749 415.655 260.272 421.752 275.016 412.313C282.527 407.485 293.731 396.218 302.892 386.39C304.386 384.805 305.803 383.268 307.139 381.806V381.781L311.309 380.44L309.301 379.367C314.769 373.295 318.501 368.88 318.501 368.88L323.416 359.321C323.416 359.321 319.76 359.297 314.611 358.662C303.756 357.345 286.301 353.322 283.314 341.177C278.948 323.301 294.441 306.182 330.811 304.085C338.16 303.645 344.139 303.792 348.973 304.329C368.044 306.596 369.734 315.741 371.112 325.13C372.84 336.86 372.84 336.86 372.84 336.86C372.84 336.86 412.865 323.764 429.852 314.156C446.8 304.548 461.545 297.841 461.545 297.841C461.545 297.841 472.591 271.918 486.588 266.602C500.625 261.261 494.728 262.627 493.706 259.725C492.762 256.847 487.808 244.337 487.808 244.337C487.808 244.337 476.524 259.578 468.425 250.14C460.285 240.679 434.847 222.851 432.605 200.147C430.324 177.443 422.537 154.715 431.073 153.642C439.605 152.593 491.936 141.228 491.936 141.228C491.936 141.228 489.774 123.377 510.179 118.232C526.97 114.013 553.629 101.722 596.13 90.8206C588.071 103.404 578.594 120.475 579.735 129.571C579.735 129.571 556.144 136.571 537.978 173.785C523.825 202.732 519.263 220.608 508.174 232.338C521.897 223.315 540.612 210.877 547.888 204.196C546.748 205.927 521.229 244.581 541.91 260.675C563.024 277.112 635.802 286.867 635.802 286.867C635.802 286.867 592.513 284.428 558.109 281.673C523.706 278.941 506.995 294.183 573.837 306.693C610.087 313.474 647.993 315.864 675.043 316.62C660.653 318.546 646.142 321.13 633.602 324.691C633.602 324.691 633.563 324.691 633.445 324.716C628.959 325.544 540.025 341.542 506.523 333.519C472.081 325.276 470.115 322.838 470.115 322.838C470.115 322.838 464.728 333.812 417.035 349.956C417.035 349.956 366.431 362.467 376.261 386.853C386.091 411.24 454.387 411.24 485.842 405.29C517.297 399.363 546.314 387.17 584.649 390.511C622.985 393.853 644.452 373.222 644.452 373.222V373.196C651.295 367.49 655.737 361.15 655.737 361.15C655.737 361.15 651.61 429.652 672.681 452.868C672.681 452.868 696.706 455.136 702.604 454.38C708.502 453.601 709.251 455.893 709.251 455.893C709.251 455.893 678.779 461.843 679.996 468.403C681.215 474.963 709.563 478.353 709.563 478.353ZM789.736 276.015C789.736 276.015 789.736 276.015 789.698 276.015C788.4 276.381 760.639 283.868 726.473 290.501C726.473 290.501 726.393 290.525 726.197 290.549H726.077C721.243 291.159 671.385 296.817 666.236 274.722C660.81 251.506 684.912 217.974 684.912 217.974L684.086 217.34V217.316C689.904 212.999 693.287 208.415 693.287 208.415C693.287 208.415 721.163 186.467 742.984 185.052C742.984 185.052 703.665 211.072 713.929 238.215C724.231 265.333 751.439 259.627 751.439 259.627C751.439 259.627 774.638 272.991 784.859 273.82C787.927 274.064 789.578 274.381 790.404 274.673C792.332 275.356 789.736 276.015 789.736 276.015Z" fill="#D36E97"/>
<path d="M314.569 319.375C298.373 332.129 311.386 340.372 318.739 343.42C324.242 345.689 326.207 355.37 314.612 358.662C303.757 357.345 286.302 353.322 283.314 341.177C278.949 323.301 294.442 306.181 330.811 304.085C338.161 303.645 344.139 303.791 348.973 304.329L360.534 310.645C360.534 310.645 330.811 306.621 314.569 319.375Z" fill="url(#paint5_linear_215_135)"/>
<path d="M508.175 232.338C504.991 235.678 501.294 238.533 496.732 240.995C486.669 246.41 495.162 240.923 508.175 232.338Z" fill="url(#paint6_linear_215_135)"/>
<path d="M819.225 264.772C819.502 264.724 819.735 264.675 819.97 264.651C816.434 268.821 812.579 272.088 808.766 273.308C795.004 277.722 770.115 270.406 770.115 270.406L746.524 260.675C746.524 260.675 711.452 258.408 712.946 228.143C714.401 197.855 737.992 190.734 737.992 190.734C737.992 190.734 748.256 184.125 760.208 177.37L763.668 175.883C763.668 175.883 737.481 216.315 754.23 235.899C770.902 255.481 829.25 232.338 829.25 232.338C829.25 232.338 806.289 248.751 799.918 253.189C793.549 257.603 810.497 266.602 819.225 264.772ZM813.734 159.979L815.769 157.007C815.769 157.007 853.874 160.993 857.614 159.496C861.354 157.997 856.816 166.304 856.628 166.761C856.439 167.219 855.472 170.648 851.594 170.267C847.716 169.886 813.734 159.979 813.734 159.979Z" fill="#9B3A69"/>
<path d="M848.945 163.332C848.945 165.227 842.839 166.761 835.306 166.761C827.772 166.761 821.667 165.227 821.667 163.332C821.667 161.438 827.772 159.903 835.306 159.903C842.839 159.903 848.945 161.438 848.945 163.332Z" fill="#683E57"/>
<path d="M844.828 149.958C844.828 149.958 851.094 156.931 851.893 158.988C851.893 158.988 851.094 150.148 848.361 149.805C845.627 149.462 844.828 149.958 844.828 149.958ZM836.412 176.669C836.412 176.669 838.008 211.725 819.21 229.406C819.21 229.406 840.466 214.316 842.678 185.052C842.678 185.052 842.678 177.431 836.412 176.669ZM858.183 180.479C858.183 180.479 861.984 203.09 851.594 214.647C851.594 214.647 869.283 199.353 858.183 180.479ZM727.372 159.722C727.372 165.757 719.485 170.648 709.755 170.648C700.026 170.648 692.139 165.757 692.139 159.722C692.139 153.687 700.026 148.795 709.755 148.795C719.485 148.795 727.372 153.687 727.372 159.722Z" fill="#FEFBFB"/>
<path d="M553.687 127.438L559.711 142.929C559.711 142.929 575.566 128.683 605.047 136.278C605.047 136.278 582.17 125.102 589.8 101.273C597.429 77.4448 568.923 110.824 568.923 110.824L553.687 127.438ZM567.448 182.766C567.448 182.766 566.465 194.859 553.687 214.647C540.908 234.435 530.994 240.546 535.951 253.19C540.908 265.834 521.003 252.116 521.003 252.116L536.976 214.647C536.976 214.647 556.144 196.331 567.448 182.766Z" fill="#D36E97"/>
<path d="M450.64 148.795C450.64 148.795 441.467 175.157 450.64 208.962C459.813 242.768 478.866 252.116 478.866 252.116C478.866 252.116 439.474 233.735 432.605 200.147C425.736 166.559 429.998 155.982 429.998 155.982L450.64 148.795ZM512.241 231.183C512.241 231.183 496.671 260.341 521.003 275.636C521.003 275.636 494.958 269.161 492.228 258.898C489.499 248.636 496.732 240.995 496.732 240.995L512.241 231.183Z" fill="#E5B884"/>
<path d="M484.223 270.305L499.297 263.497C499.297 263.497 515.578 273.687 514.89 273.825C514.203 273.963 490.612 278.232 477.507 300.078C464.402 321.923 471.125 323.426 471.125 323.426C471.125 323.426 461.779 306.784 462.271 298.35C462.762 289.915 484.223 270.305 484.223 270.305Z" fill="#E5B884"/>
<path d="M450.31 302.922L459.18 297.178L463.776 304.074C463.776 304.074 444.086 323.752 395.921 341.433C347.756 359.113 328.434 360.004 311.31 380.44C311.31 380.44 318.513 362.009 343.087 349.206C367.661 336.403 381.591 332.55 405.098 323.426C428.605 314.302 450.31 302.922 450.31 302.922ZM310.327 384.732C310.327 384.732 296.503 416.886 280.423 421.909C264.342 426.957 246.668 424.239 223.43 431.164C200.154 438.066 196.694 453.405 175.069 451.893C174.244 451.844 173.456 451.747 172.712 451.625C169.721 449.552 168.661 447.016 172.865 444.163C184.112 436.53 219.971 424.799 226.341 420.239C232.749 415.655 260.272 421.751 275.017 412.313C282.527 407.484 293.732 396.217 302.893 386.39L310.327 384.732ZM632.815 400.266C632.815 400.266 647.321 461.196 685.776 479.2C685.776 479.2 671.196 482.214 656.08 468.144C640.963 454.073 622.985 429.124 632.815 400.266Z" fill="#E5B884"/>
<path d="M671.281 126.218C671.281 126.218 645.071 150.55 652.828 168.792C660.584 187.033 699.465 197.298 719.343 191.86C739.221 186.423 729.468 185.052 729.468 185.052C729.468 185.052 675.889 183.68 667.499 157.006C659.11 130.334 671.281 126.218 671.281 126.218Z" fill="#D36E97"/>
<path d="M729.188 156.264C727.372 149.268 717.239 144.464 706.564 145.531C695.879 146.602 688.698 153.137 690.518 160.129C692.334 167.124 702.464 171.927 713.145 170.86C723.82 169.79 731.004 163.256 729.188 156.264ZM701.031 162.115C691.866 162.115 691.866 153.295 701.031 153.295C710.2 153.295 710.2 162.115 701.031 162.115ZM718.049 166.823C706.718 166.823 706.718 155.927 718.049 155.927C729.376 155.927 729.376 166.823 718.049 166.823ZM205.245 465.734C200.799 465.734 196.852 465.199 193.427 464.128C188.869 462.705 186.4 460.688 185.167 459.338C177.2 458.294 171.847 456.132 169.237 452.903C165.251 447.973 169.601 442.655 169.789 442.43L170.427 441.668L171.694 441.321C171.894 441.267 191.826 435.765 203.675 428.416C217.348 419.935 223.703 417.665 250.185 416.58C273.822 415.612 289.619 399.436 301.956 383.741C304.36 380.678 306.368 377.889 308.234 375.295C316.005 364.49 321.623 356.683 342.964 346.908C349.883 343.739 360.404 339.542 372.587 334.683C405.148 321.694 449.742 303.905 460.793 291.481L467.682 293.837C455.667 307.34 410.109 325.514 376.842 338.785C364.773 343.599 354.353 347.756 347.633 350.833C327.959 359.843 322.967 366.781 315.414 377.282C313.514 379.922 311.471 382.761 309.021 385.877C295.701 402.831 278.353 420.314 250.7 421.447C225.412 422.482 220.919 424.618 209.235 431.864C198.127 438.754 181.324 443.92 176.306 445.377C175.645 446.506 174.689 448.797 176.286 450.74C178.34 453.246 184.058 454.31 188.496 454.763L190.854 455.003L191.595 456.412C191.756 456.687 196.245 463.909 218.4 459.327C242.686 454.307 248.833 447.205 248.895 447.135L250.312 445.433L253.334 445.858C253.764 445.923 296.818 452.302 357.501 451.479C372.902 451.276 393.69 451.435 417.761 451.619C489.99 452.17 588.889 452.923 637.653 444.457L639.773 449.153C589.922 457.81 490.351 457.052 417.665 456.497C393.655 456.313 372.929 456.153 357.67 456.356C304.689 457.036 264.711 452.354 254.205 450.973C250.776 453.815 241.626 459.667 220.888 463.955C215.148 465.14 209.922 465.734 205.245 465.734Z" fill="#683E57"/>
<path d="M634.29 388.377C633.345 392.496 632.727 396.627 632.416 400.764C632.032 404.894 631.94 409.028 632.159 413.145C632.496 421.377 634.009 429.571 637.112 437.478C640.107 445.395 644.999 452.986 651.86 459.744C658.753 466.482 667.814 472.297 678.534 476.666L676.715 476.28H676.726C685.227 476.666 693.905 476.847 702.417 476.719C706.676 476.648 710.922 476.495 715.023 476.156C717.066 475.984 719.078 475.763 720.94 475.453C722.764 475.157 724.6 474.713 725.456 474.274C727.203 473.429 728.401 471.077 728.132 468.922C727.944 466.712 726.681 464.492 724.565 462.706C720.357 459.032 712.639 457.483 704.779 457.775L704.76 457.776L700.916 457.899L700.647 455.5C699.795 447.856 699.922 440.346 700.651 432.786C701.308 425.238 702.805 417.717 704.99 410.27C707.163 402.826 710.116 395.436 714.47 388.341C718.851 381.277 724.442 374.413 732.086 368.563C726.377 375.186 722.215 382.153 719.07 389.277C715.922 396.4 713.583 403.647 711.905 410.962C710.25 418.281 709.367 425.664 708.745 433.05C708.254 440.422 708.093 447.888 708.496 455.179L704.383 452.904H704.403C709.149 452.768 714.114 453.076 718.833 454.185C723.544 455.277 727.894 457.241 730.908 459.825C733.946 462.4 735.708 465.485 735.985 468.67C736.115 470.265 735.873 471.898 735.078 473.519C734.276 475.106 732.89 476.803 730.344 478.095C727.733 479.321 725.325 479.74 722.979 480.165C720.634 480.553 718.345 480.797 716.076 480.989C711.537 481.364 707.071 481.519 702.625 481.595C693.717 481.725 684.963 481.542 676.089 481.141L676.07 481.14L675.083 481.093L674.249 480.754C668.402 478.388 662.922 475.647 658.046 472.533C653.181 469.412 648.965 465.923 645.355 462.238C638.09 454.853 633.671 446.603 630.999 438.304C628.407 429.966 627.731 421.496 628.296 413.122C628.999 404.752 630.784 396.422 634.29 388.377Z" fill="#683E57"/>
<path d="M709.786 417.674L704.645 413.984C705.443 413.555 784.391 370.178 773.886 292.864L781.719 292.454C792.577 372.331 710.615 417.23 709.786 417.674Z" fill="#683E57"/>
<path d="M795.004 273.375C794.186 278.155 791.975 282.381 788.746 286.472C785.497 290.508 781.02 294.174 775.533 297.075C770.062 299.993 763.619 302.098 756.903 303.393C750.176 304.705 743.192 305.25 736.272 305.31C743.153 304.847 749.946 303.892 756.227 302.248C762.509 300.619 768.234 298.27 772.846 295.296C777.472 292.332 780.993 288.784 783.359 284.981C785.697 281.223 787.091 277.017 787.141 273.229L795.004 273.375Z" fill="#683E57"/>
<path d="M791.852 276.263C765.396 276.263 747.757 263.434 746.939 262.826L752.963 259.693C753.159 259.835 772.903 274.089 800.004 270.906C807.53 270.021 814.065 266.954 819.429 261.788C830.587 251.045 833.398 234.159 830.502 226.782L838.143 225.627C841.303 233.679 838.815 252.13 826.041 264.43C819.463 270.763 811.196 274.554 801.47 275.698C798.153 276.088 794.939 276.263 791.852 276.263Z" fill="#683E57"/>
<path d="M755.118 262.961C743.875 262.961 731.35 261.335 721.935 255.642C709.51 248.128 706.008 235.501 711.529 218.112C724.576 177.029 810.263 156.015 813.903 155.14L816.745 159.688C815.892 159.893 731.45 180.621 719.247 219.055C714.271 234.724 717.02 245.858 727.422 252.149C740.665 260.157 763.143 258.102 772.2 256.849C801.544 252.784 828.448 234.994 840.743 211.53C852.98 188.176 842.175 167.535 842.068 167.33L849.525 165.788C850.012 166.689 861.251 188.173 848.223 213.037C835.083 238.109 805.917 257.175 773.913 261.61C768.933 262.299 762.286 262.961 755.118 262.961Z" fill="#683E57"/>
<path d="M836.02 227.301L834.976 222.467C836.024 222.373 861.136 219.889 863.493 198.502C865.916 176.55 850.434 168.772 850.277 168.695L855.042 164.815C855.821 165.179 874.075 174.025 871.341 198.835C868.531 224.303 836.346 227.274 836.02 227.301Z" fill="#683E57"/>
<path d="M851.16 171.189C837.932 171.189 811.499 162.569 808.762 159.344C806.696 156.912 810.586 154.443 811.864 153.632C819.801 148.593 841.046 141.176 853.344 144.967C859.906 146.993 862.318 157.185 862.099 161.939C861.83 167.834 858.378 169.974 855.529 170.731C854.343 171.046 852.861 171.189 851.16 171.189ZM816.664 157.585C822.861 160.726 847.37 167.595 852.435 166.248C852.646 166.191 853.537 165.59 853.99 163.682C855.268 158.289 851.832 150.393 849.662 149.266C846.779 148.39 841.707 148.659 835.567 150.097C826.609 152.192 819.033 155.846 816.664 157.585ZM792.262 146.207C792.247 156.849 784.944 167.428 772.765 174.891C760.635 182.413 743.633 186.799 726.462 186.841C709.283 186.966 692.1 182.63 679.875 175.07C667.534 167.586 660.269 156.933 660.281 146.175C660.097 135.42 667.169 124.669 679.476 117.032C685.592 113.199 692.933 110.11 700.974 108.015C709.034 105.941 717.772 104.915 726.462 104.935C743.867 104.929 761.192 109.404 773.287 117.129C785.516 124.764 792.501 135.48 792.262 146.173V146.207V146.207ZM783.631 146.173C783.566 136.863 777.261 127.728 766.587 121.287C755.981 114.809 741.302 111.041 726.462 111.144C711.648 111.179 697.034 114.913 686.494 121.385C675.897 127.825 669.684 136.926 669.673 146.174C669.511 155.419 675.535 164.617 686.095 171.21C696.569 177.855 711.391 181.759 726.462 181.777C733.984 181.808 741.521 180.936 748.486 179.157C755.44 177.359 761.802 174.698 767.113 171.386C777.837 164.772 783.819 155.502 783.631 146.14V146.173H783.631Z" fill="#683E57"/>
<path d="M750.771 100.104C738.825 94.0964 724.657 90.0384 710.101 88.9749C702.825 88.5022 695.487 88.7118 688.426 89.7836C681.438 90.8113 674.295 92.4628 668.513 94.856C656.456 99.6252 648.573 107.751 643.789 116.452C639.055 125.235 636.793 134.66 636.09 144.204C633.529 134.746 634.025 124.885 637.91 115.362C639.834 110.593 642.933 105.952 647.191 101.66C651.53 97.4058 657.305 93.5974 664.224 90.772C671.358 87.982 678.899 86.3041 686.882 85.2789C694.841 84.3536 703.116 84.2371 711.03 85.2277C726.88 87.1315 741.087 92.6351 750.771 100.104Z" fill="#683E57"/>
<path d="M810.044 156.824C809.806 156.426 786.05 116.859 738.894 78.2794C723.129 77.7077 601.545 75.187 500.537 125.933C499.409 128.119 495.853 135.471 495.853 141.561H487.989C487.989 133.518 493.23 124.087 493.453 123.689L493.818 123.038L494.682 122.601C605.065 66.7326 739.943 73.4175 741.287 73.4912L743.014 73.5866L744.066 74.4403C792.685 113.905 817.182 154.732 817.424 155.14L810.044 156.824Z" fill="#683E57"/>
<path d="M573.837 131.604C561.481 133.039 549.209 134.661 536.996 136.381C524.778 138.091 512.652 140.001 500.63 142.057C488.635 144.17 476.747 146.466 465.151 149.13C453.597 151.833 442.278 154.918 432.003 158.761L434.518 156.366C433.37 164.58 433.689 173.182 434.568 181.554C435.547 189.963 437.536 198.32 440.8 206.442C443.971 214.572 448.391 222.501 454.511 229.858C460.663 237.19 468.303 244.03 477.826 249.751L471.372 249.394C476.275 247.403 481.332 245.014 486.123 242.627C490.981 240.236 495.719 237.736 500.327 235.141C509.523 229.938 518.25 224.393 526.517 218.579C542.963 206.9 557.362 194.041 569.253 180.175C560.291 194.872 547.459 208.739 531.885 221.306C524.141 227.617 515.659 233.59 506.562 239.201C497.42 244.841 487.99 250.092 477.097 254.838L473.791 256.279L470.638 254.481C459.933 248.377 451.06 241.07 444.394 233.133C437.663 225.208 432.794 216.77 429.358 208.178C426.033 199.563 424.094 190.801 423.203 182.028C422.301 173.216 422.588 164.529 424.167 155.599L424.451 153.996L426.681 153.202C438.066 149.154 450.085 146.294 462.206 143.875C474.328 141.44 486.623 139.515 498.994 137.917C523.722 134.701 548.73 132.57 573.837 131.604Z" fill="#683E57"/>
<path d="M499.178 243.702C498.28 245.445 497.642 247.728 497.389 249.81C497.132 251.943 497.205 254.097 497.704 256.206C498.667 260.422 501.398 264.482 506.017 267.774C510.59 271.091 516.902 273.578 523.787 275.269C530.683 276.986 538.136 277.967 545.662 278.535C538.078 278.574 530.399 278.208 522.873 277.009C515.378 275.829 507.937 273.746 501.827 270.351C495.684 266.995 491.268 262.34 489.061 257.379C487.928 254.898 487.298 252.342 487.068 249.778C486.875 247.166 486.952 244.74 487.743 241.902L499.178 243.702Z" fill="#683E57"/>
<path d="M499.539 266.03C496.56 267.088 493.066 268.624 490.116 270.214C487.091 271.826 484.219 273.572 481.661 275.485C476.593 279.319 472.381 283.652 469.854 288.453C467.355 293.236 466.007 298.369 466.257 303.594C466.299 308.826 467.681 314.115 469.643 319.383C465.642 314.572 462.766 309.353 461.196 303.882C459.845 298.416 459.702 292.655 461.83 287.076C463.88 281.509 467.712 276.097 473.253 271.444C476.006 269.113 479.058 266.91 482.483 264.937C485.997 262.958 489.403 261.194 493.949 259.588L499.539 266.03ZM327.958 362.64C322.203 367.208 317.56 372.807 314.965 378.557C312.35 384.338 311.932 390.538 314.6 396.367C317.199 402.207 322.805 407.504 329.886 411.87C336.978 416.262 345.421 419.823 354.31 422.824C345.13 420.184 336.271 416.96 328.542 412.76C320.84 408.587 314.327 403.294 310.853 397.102C307.305 390.931 307.036 384.097 309.232 377.699C311.486 371.256 315.599 365.255 321.731 359.661L327.958 362.64Z" fill="#683E57"/>
<path d="M327.924 361.551C319.73 362.107 311.966 361.537 304.352 359.773C296.823 358.023 290.007 354.719 285.557 350.498C281.068 346.276 278.668 341.501 277.731 336.639C276.829 331.739 277.939 326.586 281.226 322.029C287.83 312.812 301.45 306.472 316.148 303.491C323.567 302.002 331.434 301.304 339.367 301.727C347.342 302.12 355.366 304.062 361.541 307.362C367.757 310.638 372.07 315.039 374.496 319.694C376.884 324.365 377.721 329.374 375.848 334.35C374.892 336.793 373.06 339.393 369.735 341.315C366.705 343.076 363.415 344.383 359.974 345.521C353.086 347.729 345.575 349.23 337.55 349.365C333.561 349.405 329.38 349.055 325.494 347.953C321.6 346.882 318.233 344.963 316.125 342.706C313.99 340.448 312.93 337.975 312.439 335.563C312.201 334.378 312.07 333.107 312.085 331.951C312.101 330.686 312.27 329.476 312.646 328.23C313.407 325.772 315.108 323.25 318.202 321.329C321.259 319.392 325.686 318.318 329.982 318.398C334.279 318.487 338.476 319.689 341.087 321.744C343.748 323.788 344.347 326.542 343.172 328.733C342.726 326.424 341.145 324.421 338.637 323.196C336.187 321.952 333.012 321.384 330.009 321.509C326.979 321.585 324.161 322.404 322.095 323.714C320.022 325.041 318.767 326.885 318.206 328.866C317.657 330.835 317.761 332.976 318.229 335.078C318.705 337.149 319.668 339.132 321.293 340.778C324.449 344.148 330.769 345.598 337.389 345.394C344.008 345.226 350.774 343.835 356.772 341.816C359.752 340.798 362.62 339.585 364.889 338.214C366.932 337.007 368.172 335.269 368.89 333.329C371.482 325.445 366.371 316.23 356.492 311.063C346.558 305.684 331.522 305.603 318.674 308.255C305.785 310.906 294.139 316.557 288.886 324.105C286.279 327.854 285.238 331.982 285.968 336.093C286.709 340.214 288.786 344.34 292.345 347.71C295.894 351.099 301.111 353.674 307.251 355.145C313.295 356.625 320.471 357.136 326.795 356.724L327.924 361.551ZM740.757 187.155C731.903 189.118 723.029 192.4 715.235 196.163C707.382 199.974 700.348 204.482 694.427 209.53C682.505 219.626 675.417 231.862 672.675 244.437C674.119 231.788 679.928 219.096 691.175 208.161C696.754 202.698 703.6 197.698 711.449 193.358C719.401 189.031 727.925 185.298 738.116 182.561L740.757 187.155ZM587.96 204.173C587.323 208.993 588.551 213.914 591.519 218.303C594.441 222.709 599.445 226.508 605.803 229.055C612.165 231.639 619.591 232.908 627.041 233.883C634.543 234.865 642.292 235.237 650.174 235.636L650.198 235.879C642.411 236.811 634.351 236.978 626.364 236.285C618.389 235.579 610.568 233.661 604.006 230.656C597.371 227.701 592.352 223.438 589.688 218.741C587.084 214.023 586.405 208.985 587.568 204.138L587.96 204.173ZM777.66 108.676C786.13 109.126 793.752 111.31 800.418 114.357C807.092 117.39 812.46 121.495 816.392 125.884C820.435 130.546 822.443 135.673 822.389 140.818C822.305 145.958 820.653 150.947 816.921 155.565L813.343 154.557C814.391 152.425 815.24 150.083 815.631 147.8C816.13 145.511 816.284 143.201 816.031 140.926C815.616 136.396 813.646 131.903 810.309 128.031C806.734 123.949 802.131 120.367 796.544 117.394C793.76 115.908 790.685 114.633 787.421 113.569C784.222 112.471 780.628 111.614 777.23 111.1L777.66 108.676ZM814.541 184.557C814.541 187.061 811.269 189.091 807.23 189.091C803.19 189.091 799.919 187.061 799.919 184.557C799.919 182.052 803.19 180.022 807.23 180.022C811.269 180.022 814.541 182.052 814.541 184.557ZM786.361 199.316C786.361 201.245 783.842 202.808 780.732 202.808C777.622 202.808 775.099 201.245 775.099 199.316C775.099 197.387 777.622 195.824 780.732 195.824C783.842 195.824 786.361 197.387 786.361 199.316ZM819.21 209.82C819.21 211.334 817.228 212.563 814.786 212.563C812.344 212.563 810.363 211.334 810.363 209.82C810.363 208.305 812.345 207.076 814.786 207.076C817.229 207.076 819.21 208.305 819.21 209.82ZM183.655 454.146C187.145 454.329 191.311 454.11 195.147 453.665C199.044 453.21 202.903 452.489 206.608 451.493C214.042 449.524 220.812 446.425 226.36 442.537C221.867 446.909 215.797 450.787 208.451 453.647C204.796 455.087 200.849 456.275 196.71 457.192C192.502 458.097 188.377 458.785 183.524 459.023L183.655 454.146Z" fill="#683E57"/>
<path d="M615.525 496.793C583.014 496.793 550.864 495.868 524.758 493.739C460.198 488.475 326.81 482.398 223.883 481.76C126.593 481.156 54.6332 475.305 53.9152 475.245L47.3799 474.706L53.3277 472.938C53.7271 472.818 93.775 460.829 123.706 445.657L132.537 441.17C155.821 429.322 162.851 425.747 182.699 419.502C201.959 413.442 203.007 410.413 203.015 410.383L202.788 409.1L204.869 409.209C205.249 409.197 243.328 407.986 275.612 411.033L275.02 413.443C246.58 410.758 213.551 411.42 206.455 411.606C205.123 413.376 200.365 416.678 184.48 421.676C165.013 427.801 158.059 431.338 135.033 443.055L126.194 447.545C102.748 459.43 73.2173 469.37 60.8687 473.315C80.5662 474.738 143.572 478.823 223.922 479.321C315.936 479.891 451.12 485.275 525.273 491.321C594.871 496.994 707.651 494.082 754.618 487.882C789.268 483.311 825.372 481.922 841.161 481.514C832.86 478.954 818.944 474.26 806.239 468.087C796.601 463.404 789.175 457.41 781.999 451.613C774.108 445.245 766.659 439.229 756.519 434.795C740.427 427.758 735.957 421.905 734.747 419.584H706.699V417.145H738L738.223 418.208C738.234 418.258 739.962 424.571 758.784 432.801C769.412 437.449 777.395 443.894 785.117 450.128C792.147 455.804 799.416 461.675 808.666 466.167C827.899 475.511 849.943 481.391 850.165 481.45L858.716 483.712L849.42 483.791C848.941 483.795 800.906 484.267 755.44 490.269C725.805 494.18 670.16 496.793 615.525 496.793Z" fill="#683E57"/>
<defs>
<linearGradient id="paint0_linear_215_135" x1="257.532" y1="598.978" x2="474.636" y2="248.945" gradientUnits="userSpaceOnUse">
<stop stop-color="#FF8500"/>
<stop offset="1" stop-color="#E9E41D"/>
</linearGradient>
<linearGradient id="paint1_linear_215_135" x1="170.345" y1="277.311" x2="836.186" y2="277.311" gradientUnits="userSpaceOnUse">
<stop stop-color="#DD8968"/>
<stop offset="1" stop-color="#E9CE91"/>
</linearGradient>
<linearGradient id="paint2_linear_215_135" x1="666.201" y1="147.605" x2="786.324" y2="147.605" gradientUnits="userSpaceOnUse">
<stop stop-color="#ECBCB2"/>
<stop offset="0.605" stop-color="#F8E7E3"/>
<stop offset="1" stop-color="white"/>
</linearGradient>
<linearGradient id="paint3_linear_215_135" x1="780.726" y1="134.135" x2="819.384" y2="134.135" gradientUnits="userSpaceOnUse">
<stop stop-color="#ECBCB2"/>
<stop offset="0.605" stop-color="#F8E7E3"/>
<stop offset="1" stop-color="white"/>
</linearGradient>
<linearGradient id="paint4_linear_215_135" x1="712.914" y1="210.495" x2="869.555" y2="210.495" gradientUnits="userSpaceOnUse">
<stop stop-color="#AF533E"/>
<stop offset="1" stop-color="#DE765E"/>
</linearGradient>
<linearGradient id="paint5_linear_215_135" x1="282.567" y1="331.232" x2="360.504" y2="331.232" gradientUnits="userSpaceOnUse">
<stop stop-color="#DD8968"/>
<stop offset="1" stop-color="#E9CE91"/>
</linearGradient>
<linearGradient id="paint6_linear_215_135" x1="492.329" y1="237.741" x2="508.199" y2="237.741" gradientUnits="userSpaceOnUse">
<stop stop-color="#DD8968"/>
<stop offset="1" stop-color="#E9CE91"/>
</linearGradient>
</defs>
</svg>
