<svg width="94" height="103" viewBox="0 0 94 103" fill="none" xmlns="http://www.w3.org/2000/svg">
<path d="M52.382 5.53817C53.3152 2.79294 61.1163 2.44512 67.0123 4.12208C67.605 4.28977 81.2119 8.40762 84.649 21.5251C88.2277 35.1706 78.3798 49.3211 74.026 48.6462C69.2087 47.8926 73.8209 29.3923 60.7985 15.2604C56.4118 10.4883 51.574 7.90868 52.382 5.53817ZM33.035 5.53817C32.1019 2.79294 24.3007 2.44512 18.4047 4.12208C17.812 4.28977 4.2051 8.40762 0.767986 21.5251C-2.81063 35.1706 7.03722 49.3211 11.391 48.6462C16.2083 47.8926 11.5961 29.3923 24.6186 15.2604C29.0052 10.4883 33.843 7.90868 33.035 5.53817ZM63.9279 79.968C65.6137 79.3676 66.6678 83.355 70.7263 84.8063C77.2888 87.154 84.85 80.4152 85.4817 79.8375C87.7945 77.7055 89.589 75.0636 90.7255 72.1173C90.8331 71.8391 91.0293 71.6049 91.2833 71.4517C91.5372 71.2984 91.8345 71.2348 92.1282 71.2708C92.4219 71.3069 92.6953 71.4406 92.9055 71.6508C93.1157 71.861 93.2506 72.1359 93.289 72.432C93.8345 76.5623 93.6725 82.3799 90.0918 87.4397C83.9292 96.1661 70.3448 98.7519 65.827 94.3028C64.5186 93.0151 63.9362 91.1042 63.4747 89.5825C62.3304 85.827 62.2032 80.5808 63.9279 79.968Z" fill="#FBC56D"/>
<path d="M71.6246 78.4338C71.6235 84.9208 69.0704 91.1419 64.5266 95.7289C59.9828 100.316 53.8205 102.893 47.3946 102.895H38.0225C33.6186 102.895 29.298 101.683 25.525 99.3898C21.7521 97.0967 18.6696 93.8088 16.6089 89.8797C14.5481 85.9506 13.5871 81.5289 13.8291 77.0897C14.0711 72.6506 15.5069 68.3619 17.9823 64.6848L24.5715 54.8964L35.3258 38.9219H50.0914L63.4051 58.6934L67.4348 64.6786C70.1657 68.736 71.6255 73.5284 71.6246 78.4338Z" fill="#FCCD7F"/>
<path d="M42.7085 74.3718C38.4699 74.3718 34.4049 76.0716 31.4077 79.0973C28.4106 82.1231 26.7268 86.2268 26.7268 90.5058V100.077C30.2077 101.933 34.0859 102.9 38.0225 102.895H47.3946C51.3312 102.9 55.2094 101.933 58.6903 100.077V90.5058C58.6903 86.2268 57.0065 82.1231 54.0093 79.0973C51.0122 76.0716 46.9472 74.3718 42.7085 74.3718Z" fill="#FEF1DA"/>
<path d="M63.4049 58.6934C58.6163 62.9251 52.4783 65.4633 45.7846 65.4633C37.2697 65.4633 29.6531 61.3558 24.5713 54.9047L35.3256 38.9219H50.0912L63.4049 58.6934Z" fill="#FBC56D"/>
<path d="M42.7085 59.2523C58.0101 59.2523 70.4146 45.9883 70.4146 29.6262C70.4146 13.2641 58.0101 0 42.7085 0C27.4069 0 15.0024 13.2641 15.0024 29.6262C15.0024 45.9883 27.4069 59.2523 42.7085 59.2523Z" fill="#FCCD7F"/>
<path d="M32.9551 25.3965C32.5472 25.3965 32.1559 25.2329 31.8675 24.9417C31.579 24.6505 31.417 24.2555 31.417 23.8437V19.8977C31.417 19.4859 31.579 19.091 31.8675 18.7998C32.1559 18.5086 32.5472 18.345 32.9551 18.345C33.363 18.345 33.7542 18.5086 34.0427 18.7998C34.3311 19.091 34.4932 19.4859 34.4932 19.8977V23.8437C34.4932 24.2555 34.3311 24.6505 34.0427 24.9417C33.7542 25.2329 33.363 25.3965 32.9551 25.3965ZM52.4621 25.3965C52.0542 25.3965 51.663 25.2329 51.3745 24.9417C51.0861 24.6505 50.924 24.2555 50.924 23.8437V19.8977C50.924 19.4859 51.0861 19.091 51.3745 18.7998C51.663 18.5086 52.0542 18.345 52.4621 18.345C52.87 18.345 53.2613 18.5086 53.5497 18.7998C53.8382 19.091 54.0002 19.4859 54.0002 19.8977V23.8437C54.0002 24.2555 53.8382 24.6505 53.5497 24.9417C53.2613 25.2329 52.87 25.3965 52.4621 25.3965ZM50.1058 43.58L44.058 49.6854C43.8273 49.918 43.5146 50.0486 43.1885 50.0486C42.8624 50.0486 42.5497 49.918 42.3189 49.6854L36.2712 43.58C36.0993 43.4063 35.9823 43.1851 35.9349 42.9442C35.8875 42.7034 35.9119 42.4538 36.0049 42.227C36.098 42.0001 36.2555 41.8062 36.4577 41.6697C36.6598 41.5332 36.8975 41.4602 37.1407 41.46H49.2403C49.4832 41.461 49.7203 41.5346 49.9218 41.6714C50.1234 41.8082 50.2803 42.0022 50.3728 42.2289C50.4653 42.4556 50.4894 42.7048 50.4418 42.9452C50.3943 43.1857 50.2774 43.4065 50.1058 43.58Z" fill="#444444"/>
</svg>
