<svg width="60" height="80" viewBox="0 0 132 125" fill="none" xmlns="http://www.w3.org/2000/svg">
<path d="M90.75 80.8005C98.9085 80.8005 106.884 78.4311 113.667 73.9918C120.451 69.5526 125.738 63.243 128.86 55.8608C131.982 48.4786 132.799 40.3554 131.207 32.5186C129.616 24.6817 125.687 17.4831 119.918 11.833C114.149 6.1829 106.799 2.33515 98.7975 0.776298C90.7957 -0.782555 82.5018 0.0175048 74.9643 3.0753C67.4268 6.1331 60.9845 11.3113 56.4519 17.9551C51.9193 24.5989 49.5 32.4099 49.5 40.4003C49.5128 51.1112 53.8629 61.3799 61.596 68.9537C69.3291 76.5274 79.8138 80.7879 90.75 80.8005ZM90.75 4.04004C98.0926 4.04004 105.27 6.17253 111.376 10.1678C117.481 14.1632 122.239 19.8418 125.049 26.4858C127.859 33.1298 128.594 40.4406 127.162 47.4938C125.729 54.547 122.193 61.0258 117.001 66.1108C111.809 71.1959 105.194 74.6589 97.9927 76.0618C90.7912 77.4648 83.3266 76.7448 76.5429 73.9927C69.7592 71.2407 63.961 66.5803 59.8817 60.6009C55.8023 54.6215 53.625 47.5916 53.625 40.4003C53.6357 30.7602 57.5506 21.5179 64.5105 14.7013C71.4705 7.88474 80.9071 4.05057 90.75 4.04004ZM90.75 46.4603C91.669 46.4555 92.5751 46.2479 93.4009 45.853L101.409 53.696C101.797 54.0685 102.32 54.2759 102.863 54.2732C103.406 54.2705 103.927 54.0579 104.311 53.6816C104.695 53.3053 104.912 52.7958 104.915 52.2636C104.917 51.7315 104.706 51.2198 104.325 50.8397L96.3173 42.9966C96.7206 42.1878 96.9326 41.3004 96.9375 40.4003C96.9336 39.1511 96.535 37.9337 95.7964 36.9153C95.0578 35.8969 94.0155 35.1274 92.8125 34.7123V26.2602C92.8125 25.7244 92.5952 25.2106 92.2084 24.8318C91.8216 24.453 91.297 24.2402 90.75 24.2402C90.203 24.2402 89.6784 24.453 89.2916 24.8318C88.9048 25.2106 88.6875 25.7244 88.6875 26.2602V34.7123C87.3118 35.186 86.1517 36.1215 85.413 37.3529C84.6742 38.5843 84.4045 40.0321 84.6516 41.4396C84.8988 42.8472 85.6467 44.1236 86.763 45.0426C87.8793 45.9616 89.2917 46.4639 90.75 46.4603ZM90.75 38.3803C91.1579 38.3803 91.5567 38.4987 91.8959 38.7207C92.235 38.9426 92.4994 39.2581 92.6555 39.6272C92.8116 39.9964 92.8524 40.4025 92.7729 40.7944C92.6933 41.1862 92.4968 41.5461 92.2084 41.8286C91.92 42.1111 91.5525 42.3035 91.1524 42.3815C90.7523 42.4594 90.3376 42.4194 89.9607 42.2665C89.5838 42.1136 89.2617 41.8547 89.0351 41.5225C88.8084 41.1903 88.6875 40.7998 88.6875 40.4003C88.6886 39.8649 88.9062 39.3517 89.2928 38.9731C89.6793 38.5945 90.2033 38.3813 90.75 38.3803ZM67.4139 63.2556C67.4428 63.2839 67.4819 63.2931 67.5121 63.3195C73.6835 69.3401 82.0393 72.7205 90.75 72.7205C99.4606 72.7205 107.816 69.3401 113.988 63.3195C114.018 63.2931 114.057 63.284 114.086 63.2556C114.115 63.2273 114.124 63.189 114.151 63.1595C120.299 57.1152 123.75 48.9315 123.75 40.4003C123.75 31.8691 120.299 23.6854 114.151 17.6411C114.124 17.6115 114.115 17.5733 114.086 17.545C114.057 17.5166 114.018 17.5075 113.988 17.4811C107.816 11.4605 99.4606 8.08008 90.75 8.08008C82.0393 8.08008 73.6835 11.4605 67.5121 17.4811C67.4819 17.5075 67.4429 17.5166 67.4139 17.545C67.385 17.5733 67.3756 17.6115 67.3487 17.6411C61.2014 23.6854 57.75 31.8691 57.75 40.4003C57.75 48.9315 61.2014 57.1152 67.3487 63.1595C67.3757 63.189 67.385 63.2273 67.4139 63.2556ZM63.9375 38.3803H61.9795C62.4188 32.2945 64.8666 26.5136 68.9537 21.9095L70.3304 23.2578C70.7185 23.6303 71.241 23.8377 71.7843 23.835C72.3276 23.8323 72.8479 23.6197 73.2321 23.2434C73.6163 22.8672 73.8334 22.3576 73.8361 21.8254C73.8389 21.2933 73.6271 20.7816 73.2468 20.4015L71.8701 19.0532C76.5711 15.0502 82.4737 12.6528 88.6875 12.2224V14.1401C88.6875 14.6758 88.9048 15.1896 89.2916 15.5685C89.6784 15.9473 90.203 16.1601 90.75 16.1601C91.297 16.1601 91.8216 15.9473 92.2084 15.5685C92.5952 15.1896 92.8125 14.6758 92.8125 14.1401V12.2224C99.0262 12.6527 104.929 15.0501 109.63 19.053L108.253 20.4013C108.058 20.5882 107.903 20.811 107.797 21.0568C107.691 21.3027 107.636 21.5667 107.634 21.8337C107.633 22.1007 107.686 22.3652 107.789 22.6121C107.893 22.859 108.045 23.0834 108.238 23.2721C108.431 23.4609 108.66 23.6104 108.912 23.7119C109.164 23.8135 109.434 23.865 109.707 23.8637C109.979 23.8623 110.249 23.8081 110.5 23.7041C110.751 23.6 110.979 23.4483 111.169 23.2576L112.546 21.9093C116.633 26.5135 119.081 32.2944 119.521 38.3803H117.562C117.015 38.3803 116.491 38.5931 116.104 38.9719C115.717 39.3507 115.5 39.8645 115.5 40.4003C115.5 40.936 115.717 41.4498 116.104 41.8286C116.491 42.2075 117.015 42.4203 117.562 42.4203H119.521C119.081 48.506 116.633 54.2869 112.546 58.8911L111.17 57.5427C110.781 57.1703 110.259 56.9628 109.716 56.9655C109.172 56.9682 108.652 57.1808 108.268 57.5571C107.884 57.9334 107.667 58.443 107.664 58.9751C107.661 59.5073 107.873 60.019 108.253 60.399L109.63 61.7474C104.929 65.7503 99.0263 68.1478 92.8125 68.5781V66.6604C92.8125 66.1247 92.5952 65.6109 92.2084 65.2321C91.8216 64.8532 91.297 64.6404 90.75 64.6404C90.203 64.6404 89.6784 64.8532 89.2916 65.2321C88.9048 65.6109 88.6875 66.1247 88.6875 66.6604V68.5781C82.4737 68.1478 76.5713 65.7504 71.8703 61.7475L73.247 60.3992C73.6273 60.0191 73.8391 59.5074 73.8363 58.9753C73.8336 58.4431 73.6165 57.9335 73.2323 57.5573C72.8481 57.181 72.3278 56.9684 71.7845 56.9657C71.2411 56.963 70.7187 57.1704 70.3306 57.5429L68.9539 58.8912C64.8667 54.287 62.4189 48.5061 61.9795 42.4203H63.9375C64.4845 42.4203 65.0091 42.2075 65.3959 41.8286C65.7827 41.4498 66 40.936 66 40.4003C66 39.8645 65.7827 39.3507 65.3959 38.9719C65.0091 38.5931 64.4845 38.3803 63.9375 38.3803ZM116.576 98.1127L74.9267 101.51C73.3318 101.643 71.727 101.408 70.2418 100.823L70.0281 100.739L70.0766 100.717C71.5641 99.731 72.7355 98.3522 73.4549 96.7406C74.1744 95.129 74.4123 93.3506 74.1411 91.6118C73.8699 89.873 73.1006 88.2453 71.9227 86.9176C70.7448 85.5898 69.2065 84.6165 67.4864 84.1107L31.5296 73.545C31.4591 73.5345 31.388 73.528 31.3166 73.5253C30.3835 72.1151 29.1054 70.9556 27.5984 70.1522C26.0914 69.3488 24.4033 68.927 22.6875 68.9251H2.0625C1.7916 68.9249 1.52333 68.977 1.27303 69.0785C1.02272 69.18 0.795294 69.3288 0.603742 69.5164C0.41219 69.704 0.260273 69.9267 0.156679 70.1719C0.0530839 70.417 -0.000156909 70.6798 3.47347e-07 70.9451V115.385C-0.000156909 115.651 0.0530839 115.913 0.156679 116.159C0.260273 116.404 0.41219 116.626 0.603742 116.814C0.795294 117.002 1.02272 117.15 1.27303 117.252C1.52333 117.353 1.7916 117.406 2.0625 117.405H22.6875C24.1784 117.4 25.6503 117.077 27.0004 116.457C28.3505 115.838 29.5463 114.937 30.5044 113.818L65.3393 124.057C69.816 125.38 74.6014 125.309 79.0356 123.856L119.222 110.738C120.315 110.38 121.294 109.749 122.063 108.908C122.831 108.066 123.362 107.043 123.603 105.939C123.844 104.835 123.787 103.689 123.438 102.613C123.089 101.538 122.459 100.57 121.611 99.8051C120.94 99.1928 120.145 98.7257 119.277 98.4341C118.41 98.1425 117.489 98.033 116.576 98.1127ZM16.5 113.365H4.125V72.9651H16.5V113.365ZM28.875 107.305C28.8732 108.912 28.2207 110.452 27.0607 111.588C25.9007 112.725 24.328 113.364 22.6875 113.365H20.625V72.9651H22.6875C24.328 72.9668 25.9007 73.6059 27.0607 74.742C28.2207 75.8781 28.8732 77.4184 28.875 79.0251V107.305ZM117.913 106.903L77.7305 120.021C74.1025 121.211 70.1874 121.27 66.5237 120.191L33 110.335V78.1914L66.3021 87.9771C66.9969 88.1807 67.6424 88.5201 68.1996 88.9748C68.7568 89.4295 69.2141 89.9901 69.544 90.6227C69.8739 91.2553 70.0694 91.9468 70.1189 92.6554C70.1684 93.3641 70.0707 94.0752 69.8319 94.7459C69.593 95.4166 69.2178 96.0329 68.729 96.5576C68.2402 97.0824 67.6479 97.5047 66.9879 97.799C66.3278 98.0934 65.6137 98.2537 64.8887 98.2703C64.1636 98.2869 63.4426 98.1595 62.7693 97.8957L52.3278 93.8043C52.0764 93.7049 51.8074 93.6551 51.5362 93.6577C51.265 93.6603 50.997 93.7153 50.7476 93.8196C50.4982 93.9238 50.2722 94.0752 50.0827 94.2652C49.8931 94.4551 49.7437 94.6798 49.643 94.9264C49.5423 95.173 49.4923 95.4366 49.4958 95.7022C49.4993 95.9678 49.5563 96.2301 49.6635 96.474C49.7707 96.718 49.926 96.9388 50.1206 97.1238C50.3151 97.3089 50.545 97.4545 50.7971 97.5524L61.2385 101.644L68.711 104.571C70.7933 105.378 73.0367 105.708 75.2691 105.534L116.918 102.137C117.613 102.095 118.297 102.325 118.819 102.776C119.075 103.005 119.279 103.283 119.417 103.594C119.556 103.904 119.627 104.24 119.625 104.579C119.625 105.093 119.459 105.594 119.152 106.011C118.845 106.428 118.411 106.74 117.913 106.903Z" fill="black"/>
</svg>
