<svg width="71" height="71" viewBox="0 0 71 71" fill="none" xmlns="http://www.w3.org/2000/svg">
<path d="M26.1581 52.3177H7.47389C6.97835 52.3177 6.50311 52.1209 6.15272 51.7705C5.80232 51.4202 5.60547 50.945 5.60547 50.4495V33.6355C5.60547 30.6626 6.78657 27.8114 8.88896 25.7093C10.9913 23.6071 13.8428 22.4261 16.816 22.4261C19.7892 22.4261 22.6406 23.6071 24.743 25.7093C26.8454 27.8114 28.0265 30.6626 28.0265 33.6355V50.4495C28.0265 50.945 27.8297 51.4202 27.4793 51.7705C27.1289 52.1209 26.6536 52.3177 26.1581 52.3177ZM9.34231 48.5813H24.2897V33.6355C24.2897 31.6536 23.5023 29.7528 22.1007 28.3514C20.6991 26.9499 18.7981 26.1626 16.816 26.1626C14.8338 26.1626 12.9329 26.9499 11.5313 28.3514C10.1297 29.7528 9.34231 31.6536 9.34231 33.6355V48.5813Z" fill="#FFF3F3"/>
<path d="M7.47391 70.9999H3.73707C3.24154 70.9999 2.7663 70.8031 2.4159 70.4527C2.0655 70.1023 1.86865 69.6272 1.86865 69.1317C1.86865 68.6362 2.0655 68.161 2.4159 67.8106C2.7663 67.4603 3.24154 67.2634 3.73707 67.2634H5.60549V50.4494C5.60549 49.954 5.80234 49.4788 6.15274 49.1284C6.50314 48.778 6.97838 48.5812 7.47391 48.5812C7.96945 48.5812 8.44469 48.778 8.79509 49.1284C9.14548 49.4788 9.34233 49.954 9.34233 50.4494V69.1317C9.34233 69.6272 9.14548 70.1023 8.79509 70.4527C8.44469 70.8031 7.96945 70.9999 7.47391 70.9999ZM29.895 70.9999H26.1581C25.6626 70.9999 25.1873 70.8031 24.8369 70.4527C24.4865 70.1023 24.2897 69.6272 24.2897 69.1317V50.4494C24.2897 49.954 24.4865 49.4788 24.8369 49.1284C25.1873 48.778 25.6626 48.5812 26.1581 48.5812C26.6537 48.5812 27.1289 48.778 27.4793 49.1284C27.8297 49.4788 28.0265 49.954 28.0265 50.4494V67.2634H29.895C30.3905 67.2634 30.8657 67.4603 31.2161 67.8106C31.5665 68.161 31.7634 68.6362 31.7634 69.1317C31.7634 69.6272 31.5665 70.1023 31.2161 70.4527C30.8657 70.8031 30.3905 70.9999 29.895 70.9999ZM16.816 42.9765C16.3205 42.9765 15.8452 42.7797 15.4948 42.4294C15.1444 42.079 14.9476 41.6038 14.9476 41.1083V29.899C14.9476 29.4035 15.1444 28.9283 15.4948 28.578C15.8452 28.2276 16.3205 28.0308 16.816 28.0308C17.3116 28.0308 17.7868 28.2276 18.1372 28.578C18.4876 28.9283 18.6844 29.4035 18.6844 29.899V41.1083C18.6844 41.6038 18.4876 42.079 18.1372 42.4294C17.7868 42.7797 17.3116 42.9765 16.816 42.9765Z" fill="#FFF3F3"/>
<path d="M18.6844 31.7671H14.9476C14.452 31.7671 13.9768 31.5703 13.6264 31.2199C13.276 30.8696 13.0792 30.3944 13.0792 29.8989C13.0792 29.4034 13.276 28.9282 13.6264 28.5779C13.9768 28.2275 14.452 28.0307 14.9476 28.0307H18.6844C19.1799 28.0307 19.6552 28.2275 20.0056 28.5779C20.356 28.9282 20.5528 29.4034 20.5528 29.8989C20.5528 30.3944 20.356 30.8696 20.0056 31.2199C19.6552 31.5703 19.1799 31.7671 18.6844 31.7671ZM16.816 26.1624C13.8428 26.1624 10.9913 24.9815 8.88896 22.8793C6.78657 20.7771 5.60547 17.926 5.60547 14.9531V11.2167C5.60547 8.24376 6.78657 5.39262 8.88896 3.29046C10.9913 1.18831 13.8428 0.00732422 16.816 0.00732422C19.7892 0.00732422 22.6406 1.18831 24.743 3.29046C26.8454 5.39262 28.0265 8.24376 28.0265 11.2167V14.9531C28.0265 17.926 26.8454 20.7771 24.743 22.8793C22.6406 24.9815 19.7892 26.1624 16.816 26.1624ZM16.816 3.74377C14.8338 3.74377 12.9329 4.53109 11.5313 5.93253C10.1297 7.33397 9.34231 9.23473 9.34231 11.2167V14.9531C9.34231 16.935 10.1297 18.8358 11.5313 20.2372C12.9329 21.6387 14.8338 22.426 16.816 22.426C18.7981 22.426 20.6991 21.6387 22.1007 20.2372C23.5023 18.8358 24.2897 16.935 24.2897 14.9531V11.2167C24.2897 9.23473 23.5023 7.33397 22.1007 5.93253C20.6991 4.53109 18.7981 3.74377 16.816 3.74377Z" fill="#FFF3F3"/>
<path d="M1.86842 54.186C1.37288 54.186 0.897645 53.9892 0.547248 53.6388C0.196851 53.2884 0 52.8132 0 52.3178V39.2402C0 34.7808 1.77166 30.5041 4.92523 27.3509C8.0788 24.1977 12.356 22.4262 16.8158 22.4262C20.436 22.4262 23.9524 23.6359 26.8062 25.8632C29.66 28.0905 31.6875 31.2076 32.5666 34.7191L32.7721 35.5785L41.6471 26.7044C41.9989 26.3526 42.4761 26.155 42.9737 26.155C43.4712 26.155 43.9484 26.3526 44.3003 26.7044C44.6521 27.0562 44.8497 27.5334 44.8497 28.0309C44.8497 28.5284 44.6521 29.0055 44.3003 29.3573L33.0897 40.5666C32.8501 40.8068 32.5495 40.9771 32.2203 41.0594C31.8912 41.1417 31.5458 41.1328 31.2213 41.0337C30.904 40.9447 30.616 40.7734 30.3863 40.5372C30.1566 40.301 29.9934 40.0082 29.9134 39.6886L28.8858 35.6158C28.2153 32.9205 26.6634 30.5264 24.4767 28.8137C22.2899 27.101 19.5935 26.168 16.8158 26.1626C13.347 26.1626 10.0204 27.5405 7.56758 29.993C5.1148 32.4455 3.73684 35.7718 3.73684 39.2402V52.3178C3.73684 52.8132 3.53999 53.2884 3.18959 53.6388C2.8392 53.9892 2.36396 54.186 1.86842 54.186ZM42.9737 24.2944H39.2368C37.2547 24.2944 35.3537 23.5071 33.9521 22.1057C32.5506 20.7042 31.7631 18.8035 31.7631 16.8215C31.7631 14.8396 32.5506 12.9388 33.9521 11.5374C35.3537 10.136 37.2547 9.34863 39.2368 9.34863H42.9737C43.4692 9.34863 43.9445 9.54546 44.2948 9.89582C44.6452 10.2462 44.8421 10.7214 44.8421 11.2169V22.4262C44.8421 22.9217 44.6452 23.3969 44.2948 23.7472C43.9445 24.0976 43.4692 24.2944 42.9737 24.2944ZM39.2368 13.0851C38.2458 13.0851 37.2953 13.4787 36.5945 14.1795C35.8937 14.8802 35.5 15.8306 35.5 16.8215C35.5 17.8125 35.8937 18.7629 36.5945 19.4636C37.2953 20.1643 38.2458 20.558 39.2368 20.558H41.1053V13.0851H39.2368Z" fill="#FFF3F3"/>
<path d="M58.8174 0.250294C58.5333 0.0863235 58.2111 0 57.8831 0C57.5552 0 57.233 0.0863235 56.9489 0.250294L42.0016 9.59141C41.7234 9.76069 41.4943 9.99973 41.337 10.2848C41.1797 10.5699 41.0996 10.8912 41.1047 11.2168V22.4261C41.1041 22.7436 41.1844 23.056 41.338 23.3339C41.4917 23.6117 41.7136 23.8458 41.9829 24.0141L44.8416 25.8823L48.4102 28.0308L56.9302 33.3552C57.2276 33.5395 57.5707 33.6366 57.9205 33.6354C58.2362 33.6393 58.5468 33.5552 58.8174 33.3926C59.1094 33.2328 59.3535 32.9978 59.5243 32.7121C59.6952 32.4263 59.7865 32.1001 59.7889 31.7672V1.87565C59.7865 1.54274 59.6952 1.21653 59.5243 0.930773C59.3535 0.645013 59.1094 0.410084 58.8174 0.250294ZM56.0521 28.4044L55.4542 28.0308L46.3176 22.314L44.8416 21.3986V12.2443L56.0521 5.23845V28.4044Z" fill="#FFF3F3"/>
<path d="M42.9736 35.5036C42.5819 35.5046 42.1998 35.3825 41.8813 35.1546C41.5628 34.9266 41.3239 34.6043 41.1986 34.2332L37.4618 23.0239C37.3032 22.5532 37.3381 22.0388 37.5589 21.5938C37.7796 21.1489 38.1681 20.8098 38.6389 20.6513C39.1096 20.4927 39.6241 20.5276 40.0691 20.7484C40.5141 20.9691 40.8532 21.3575 41.0118 21.8282L44.7486 33.0376C44.8425 33.2761 44.8863 33.5313 44.8773 33.7875C44.8682 34.0436 44.8066 34.2952 44.6962 34.5265C44.5858 34.7578 44.429 34.9639 44.2355 35.132C44.042 35.3001 43.816 35.4266 43.5715 35.5036C43.373 35.5293 43.1721 35.5293 42.9736 35.5036ZM69.1315 18.6896H63.5262C63.0307 18.6896 62.5555 18.4928 62.2051 18.1424C61.8547 17.7921 61.6578 17.3169 61.6578 16.8214C61.6578 16.3259 61.8547 15.8507 62.2051 15.5004C62.5555 15.15 63.0307 14.9532 63.5262 14.9532H69.1315C69.627 14.9532 70.1023 15.15 70.4527 15.5004C70.8031 15.8507 70.9999 16.3259 70.9999 16.8214C70.9999 17.3169 70.8031 17.7921 70.4527 18.1424C70.1023 18.4928 69.627 18.6896 69.1315 18.6896ZM63.5262 11.2167C63.2803 11.2182 63.0366 11.171 62.8089 11.0781C62.5813 10.9851 62.3742 10.8481 62.1997 10.675C62.0245 10.5013 61.8855 10.2947 61.7907 10.067C61.6958 9.83933 61.647 9.59515 61.647 9.34852C61.647 9.10189 61.6958 8.8577 61.7907 8.63004C61.8855 8.40238 62.0245 8.19576 62.1997 8.02208L65.9365 4.28563C66.1107 4.11144 66.3175 3.97327 66.5451 3.879C66.7727 3.78473 67.0167 3.73621 67.2631 3.73621C67.5094 3.73621 67.7534 3.78473 67.981 3.879C68.2086 3.97327 68.4154 4.11144 68.5897 4.28563C68.7639 4.45983 68.9021 4.66662 68.9963 4.89421C69.0906 5.1218 69.1391 5.36573 69.1391 5.61207C69.1391 5.85842 69.0906 6.10235 68.9963 6.32994C68.9021 6.55753 68.7639 6.76432 68.5897 6.93851L64.8528 10.675C64.6782 10.8481 64.4712 10.9851 64.2435 11.0781C64.0159 11.171 63.7721 11.2182 63.5262 11.2167ZM67.2631 29.899C67.0172 29.9004 66.7734 29.8533 66.5458 29.7603C66.3181 29.6673 66.1111 29.5303 65.9365 29.3572L62.1997 25.6207C62.0254 25.4465 61.8873 25.2398 61.793 25.0122C61.6987 24.7846 61.6502 24.5406 61.6502 24.2943C61.6502 24.048 61.6987 23.804 61.793 23.5764C61.8873 23.3488 62.0254 23.1421 62.1997 22.9679C62.3739 22.7937 62.5807 22.6555 62.8083 22.5612C63.0359 22.467 63.2799 22.4184 63.5262 22.4184C63.7726 22.4184 64.0166 22.467 64.2442 22.5612C64.4718 22.6555 64.6786 22.7937 64.8528 22.9679L68.5897 26.7043C68.7648 26.878 68.9038 27.0846 68.9986 27.3123C69.0935 27.5399 69.1423 27.7841 69.1423 28.0307C69.1423 28.2774 69.0935 28.5216 68.9986 28.7492C68.9038 28.9769 68.7648 29.1835 68.5897 29.3572C68.4151 29.5303 68.208 29.6673 67.9804 29.7603C67.7527 29.8533 67.509 29.9004 67.2631 29.899Z" fill="#FFF3F3"/>
<path opacity="0.5" d="M56.0528 28.0309V11.2169C56.0493 13.9316 55.0606 16.5528 53.2703 18.5938C51.48 20.6347 49.0097 21.9567 46.3183 22.3141L55.4549 28.0309H56.0528ZM41.1054 13.0851C41.1054 14.5715 40.5149 15.9971 39.4637 17.0482C38.4125 18.0993 36.9868 18.6897 35.5002 18.6897V20.558H41.1054V13.0851ZM24.2897 5.61218C24.2897 9.57605 22.7148 13.3776 19.9117 16.1804C17.1085 18.9833 13.3066 20.558 9.34229 20.558V22.4262H24.2897V5.61218ZM24.2897 31.7673C24.2897 35.7312 22.7148 39.5327 19.9117 42.3356C17.1085 45.1384 13.3066 46.7131 9.34229 46.7131V48.5813H24.2897V31.7673Z" fill="#FFF3F3"/>
</svg>
