<svg width="1000" height="1000" viewBox="0 0 1000 1000" fill="none" xmlns="http://www.w3.org/2000/svg">
<path d="M255.289 717C288.739 707.68 320.349 677.83 320.699 641.84C321.319 577.3 286.389 518.84 295.769 454.16C302.399 408.16 323.229 355.08 358.269 320.42C378.149 300.75 402.599 287 431.659 283.88C496.369 276.88 565.979 313.25 600.319 367.94C613.319 388.71 620.789 412.36 620.789 436.4V436.73C620.761 447.018 619.352 457.256 616.599 467.17C615.739 470.26 614.769 473.39 613.799 476.55C613.734 476.701 613.684 476.858 613.649 477.02C613.349 477.93 613.059 478.88 612.759 479.79C607.759 495.87 602.759 512.21 607.759 527.87C608.029 528.73 608.349 529.58 608.669 530.41C613.309 542.09 623.219 551.29 634.309 557.34C652.089 567.04 671.739 571.91 691.439 576.6C716.369 582.53 741.349 588.25 762.699 603.18C797.889 627.78 817.699 668.86 822.579 710.84C827.459 752.82 820.279 796.53 806.059 836.67" stroke="#CCDDE2" stroke-width="4.42" stroke-miterlimit="10"/>
<path d="M97.0015 948C52.0715 894.35 49.7315 806.71 110.141 764.09" stroke="#CCDDE2" stroke-width="4.42" stroke-miterlimit="10"/>
<path d="M518.031 298.41V375.05" stroke="#CCDDE2" stroke-width="4.42" stroke-miterlimit="10"/>
<path d="M518.031 404.34V419.11" stroke="#CCDDE2" stroke-width="4.42" stroke-miterlimit="10"/>
<path d="M616.6 467.21C611.02 487.21 601.44 508.12 607.78 527.91C608.04 528.77 608.37 529.62 608.69 530.45H383.57C376.86 530.45 370.424 527.784 365.68 523.039C360.935 518.295 358.27 511.86 358.27 505.15V320.46C378.15 300.79 402.6 287.04 431.66 283.92C496.37 276.92 565.98 313.29 600.32 367.98C618.93 397.6 626.1 433.17 616.6 467.21Z" stroke="#CCDDE2" stroke-width="4.42" stroke-miterlimit="10"/>
<g opacity="0.67">
<path opacity="0.67" d="M283.73 606.569C283.73 606.629 283.73 606.689 283.67 606.749C283.26 608.339 282.85 609.94 282.49 611.53C282.37 612.03 282.26 612.529 282.17 612.969C281.78 614.629 281.43 616.279 281.17 617.969C281.164 617.984 281.16 617.999 281.16 618.015C281.16 618.03 281.164 618.045 281.17 618.059C280.87 619.649 280.61 621.209 280.37 622.809C280.25 623.429 280.16 624.049 280.1 624.659C279.84 626.259 279.66 627.819 279.48 629.409C278.48 638.469 280.87 648.589 278.25 657.409C276.51 663.159 271.76 667.969 266.51 672.659C265.71 673.359 264.88 674.069 264.09 674.809L261.61 676.96C260.4 678.05 259.19 679.139 258.04 680.239C257.66 680.589 257.27 680.94 256.92 681.33C256.57 681.72 256.18 682.07 255.8 682.45C252.23 686.17 249.4 690.119 248.54 694.659C248.226 696.332 248.185 698.044 248.42 699.729C248.451 700.09 248.511 700.448 248.6 700.799C248.642 701.158 248.712 701.512 248.81 701.859C248.87 702.089 248.93 702.329 248.98 702.559C249.22 703.449 249.49 704.329 249.81 705.219C250.787 707.703 251.889 710.136 253.11 712.509C253.35 712.979 253.59 713.42 253.79 713.89C254.97 716.19 256.12 718.52 257.04 720.89C257.24 721.42 257.42 721.949 257.63 722.489C257.84 723.029 257.89 723.369 258.04 723.809L258.22 724.52C258.36 725.08 258.48 725.64 258.6 726.2C258.72 726.759 258.75 727.119 258.81 727.559C258.81 727.679 258.81 727.819 258.81 727.969C258.98 729.514 258.909 731.076 258.6 732.599C257.77 736.969 255.12 740.68 251.6 744.189C248.58 747.061 245.377 749.733 242.01 752.189C240.3 753.49 238.59 754.779 236.94 756.109C235.29 757.439 233.7 758.769 232.19 760.109C231.84 760.469 231.45 760.819 231.1 761.169C229.373 762.831 227.84 764.683 226.53 766.689C220.04 776.749 223.08 788.28 219.71 799.02C219.229 800.575 218.61 802.084 217.86 803.53C217.611 804.06 217.323 804.571 217 805.059C216.766 805.547 216.488 806.012 216.17 806.45C215.778 807.114 215.348 807.756 214.88 808.369C214.43 808.989 213.96 809.61 213.46 810.2C213.149 810.611 212.815 811.005 212.46 811.38C212.13 811.79 211.78 812.169 211.4 812.559C211.291 812.678 211.171 812.785 211.04 812.88C210.54 813.439 210.01 813.97 209.45 814.469C208.51 815.359 207.45 816.24 206.45 817.07C205.95 817.48 205.45 817.87 204.89 818.28C204.74 818.4 204.59 818.49 204.42 818.63C204.25 818.77 204.12 818.84 203.94 818.96C203.53 819.25 203.12 819.549 202.68 819.809C202.5 819.959 202.29 820.08 202.12 820.2L201.29 820.729C200.99 820.929 200.67 821.109 200.35 821.289C199.7 821.699 199.02 822.109 198.35 822.499C197.85 822.759 197.35 823.06 196.79 823.32C196.311 823.604 195.817 823.861 195.31 824.09C194.87 824.33 194.43 824.529 193.96 824.739C193.28 825.059 192.63 825.36 191.96 825.65C191.29 825.94 190.57 826.24 189.9 826.51L188.21 827.13C187.68 827.359 187.15 827.539 186.62 827.719L186.33 827.809C185.33 828.16 184.26 828.479 183.23 828.809C182.938 828.905 182.641 828.982 182.34 829.039C182.05 829.159 181.72 829.219 181.43 829.309C180.81 828.809 180.16 828.309 179.51 827.719C179.437 827.667 179.37 827.607 179.31 827.539C179.31 827.539 179.25 827.539 179.25 827.479C179.25 827.419 179.19 827.479 179.16 827.419C178.83 827.129 178.54 826.829 178.16 826.539C176.96 825.419 175.72 824.15 174.48 822.76L173.74 821.939C173.65 821.85 173.56 821.73 173.47 821.64C173.355 821.483 173.228 821.336 173.09 821.2C172.03 819.99 171 818.689 169.99 817.359C169.55 816.859 169.17 816.36 168.81 815.83C168.602 815.589 168.415 815.331 168.25 815.059C167.81 814.469 167.4 813.879 166.99 813.289C166.81 813.059 166.66 812.849 166.51 812.619L165.81 811.619C165.75 811.559 165.72 811.469 165.66 811.419L164 809.099C168.564 801.497 172.277 793.415 175.07 784.999C175.27 784.38 175.42 783.76 175.57 783.14C175.847 781.934 176.044 780.711 176.16 779.479V779.33C176.359 776.622 176.248 773.901 175.83 771.219C175.446 768.699 174.935 766.199 174.3 763.729C173.97 762.459 173.65 761.22 173.3 759.96L172.3 756.179C171.469 753.075 170.827 749.922 170.38 746.739C170.33 746.359 170.3 745.97 170.27 745.59L170.18 744.739C170.18 744.319 170.12 743.909 170.09 743.469C170.06 743.029 170.09 742.73 170.09 742.38V742.229C170.09 741.339 170.03 740.459 170.03 739.599C170.03 738.739 170.03 737.889 170.09 737.039C170.09 736.649 170.09 736.239 170.15 735.859C170.15 735.179 170.21 734.499 170.27 733.859C170.33 733.219 170.36 732.499 170.41 731.859C170.46 731.219 170.53 730.499 170.62 729.859C170.71 729.219 170.77 728.499 170.83 727.859C171.06 725.859 171.3 723.789 171.54 721.749C171.54 721.629 171.54 721.479 171.54 721.369C171.68 720.159 171.83 718.92 171.95 717.71V717.65C172.07 716.41 172.18 715.2 172.27 713.96C172.257 713.863 172.257 713.766 172.27 713.669C172.363 712.549 172.423 711.429 172.45 710.309C172.45 710.099 172.45 709.889 172.45 709.689V709.539C172.45 708.769 172.45 708.03 172.45 707.27C173.89 706.06 175.37 704.939 176.9 703.819C180.926 700.932 184.77 697.8 188.41 694.439C189.11 693.789 189.73 693.109 190.35 692.439C195.81 686.309 198.29 679.55 199.82 672.53C202.21 661.76 202.39 650.469 207.76 640.169C208.2 639.319 208.67 638.489 209.2 637.669C209.795 636.686 210.446 635.738 211.15 634.83C212.49 633.067 213.946 631.397 215.51 629.83C218.329 627.06 221.403 624.562 224.69 622.369C226.75 620.979 228.96 619.679 231.23 618.439C233.5 617.199 235.89 616.079 238.34 615.049C240.79 614.019 243.39 613.049 246.01 612.159C246.9 611.869 247.78 611.569 248.67 611.309C248.67 611.309 248.67 611.309 248.73 611.309C251.38 610.539 254.12 609.83 256.9 609.21C257.81 609.04 258.75 608.83 259.7 608.65C267.609 607.074 275.668 606.376 283.73 606.569Z" fill="#3FBDF1"/>
<path opacity="0.67" d="M283.73 606.569C283.73 606.629 283.73 606.689 283.67 606.749C283.26 608.339 282.85 609.94 282.49 611.53C282.37 612.03 282.26 612.529 282.17 612.969C281.78 614.629 281.43 616.279 281.17 617.969C281.164 617.984 281.16 617.999 281.16 618.015C281.16 618.03 281.164 618.045 281.17 618.059C280.87 619.649 280.61 621.209 280.37 622.809C280.25 623.429 280.16 624.049 280.1 624.659C279.87 626.259 279.66 627.819 279.48 629.409C278.48 638.469 280.87 648.589 278.25 657.409C276.51 663.159 271.76 667.969 266.51 672.659C265.71 673.359 264.88 674.069 264.09 674.809L261.61 676.96C260.4 678.05 259.19 679.139 258.04 680.239C257.66 680.589 257.27 680.94 256.92 681.33C256.57 681.72 256.18 682.07 255.8 682.45C252.23 686.17 249.4 690.119 248.54 694.659C248.226 696.332 248.185 698.044 248.42 699.729C248.451 700.09 248.511 700.448 248.6 700.799C248.642 701.158 248.712 701.512 248.81 701.859C248.87 702.089 248.93 702.329 248.98 702.559C249.22 703.449 249.49 704.329 249.81 705.219C250.787 707.703 251.889 710.136 253.11 712.509C253.35 712.979 253.59 713.42 253.79 713.89C254.97 716.19 256.12 718.52 257.04 720.89C257.24 721.42 257.42 721.949 257.63 722.489C257.84 723.029 257.89 723.369 258.04 723.809L258.22 724.52C258.36 725.08 258.48 725.64 258.6 726.2C258.72 726.759 258.75 727.119 258.81 727.559C258.81 727.679 258.81 727.819 258.81 727.969C258.98 729.514 258.909 731.076 258.6 732.599C257.77 736.969 255.12 740.68 251.6 744.189C248.58 747.061 245.377 749.733 242.01 752.189C240.3 753.49 238.59 754.779 236.94 756.109C235.29 757.439 233.7 758.769 232.19 760.109C231.84 760.469 231.45 760.819 231.1 761.169C229.373 762.831 227.84 764.683 226.53 766.689C220.04 776.749 223.08 788.28 219.71 799.02C219.229 800.575 218.61 802.084 217.86 803.53C217.611 804.06 217.323 804.571 217 805.059C216.766 805.547 216.488 806.012 216.17 806.45C215.778 807.114 215.348 807.756 214.88 808.369C214.43 808.989 213.96 809.61 213.46 810.2C213.149 810.611 212.815 811.005 212.46 811.38C212.13 811.79 211.78 812.169 211.4 812.559C211.291 812.678 211.171 812.785 211.04 812.88C210.54 813.439 210.01 813.97 209.45 814.469C208.51 815.359 207.45 816.24 206.45 817.07C205.95 817.48 205.45 817.87 204.89 818.28C204.74 818.4 204.59 818.49 204.42 818.63C204.25 818.77 204.12 818.84 203.94 818.96C203.53 819.25 203.12 819.549 202.68 819.809C202.5 819.959 202.29 820.08 202.12 820.2L201.29 820.729C200.99 820.929 200.67 821.109 200.35 821.289C199.7 821.699 199.02 822.109 198.35 822.499C197.85 822.759 197.35 823.06 196.79 823.32C196.523 823.477 196.245 823.618 195.96 823.739L195.31 824.09C194.87 824.33 194.43 824.529 193.96 824.739C193.28 825.059 192.63 825.36 191.96 825.65C191.29 825.94 190.57 826.209 189.9 826.479L188.21 827.099C187.68 827.299 187.15 827.479 186.62 827.659L186.33 827.749C185.33 828.1 184.26 828.419 183.23 828.749C182.938 828.845 182.641 828.922 182.34 828.979C182.05 829.099 181.72 829.16 181.43 829.249C180.81 828.749 180.16 828.249 179.51 827.659C179.437 827.607 179.37 827.547 179.31 827.479C179.31 827.479 179.31 827.479 179.25 827.479C179.19 827.479 179.19 827.479 179.16 827.419C178.83 827.129 178.54 826.829 178.16 826.539C176.96 825.419 175.72 824.15 174.48 822.76L173.74 821.939C173.65 821.85 173.56 821.73 173.47 821.64C173.355 821.483 173.228 821.336 173.09 821.2C172.03 819.99 171 818.689 169.99 817.359C169.55 816.859 169.17 816.36 168.81 815.83C168.602 815.589 168.415 815.331 168.25 815.059C167.81 814.469 167.4 813.879 166.99 813.289C166.81 813.059 166.66 812.849 166.51 812.619L165.81 811.619C165.75 811.559 165.72 811.469 165.66 811.419L164 809.099C168.564 801.497 172.277 793.415 175.07 784.999C175.27 784.38 175.42 783.76 175.57 783.14C175.847 781.934 176.044 780.711 176.16 779.479V779.33C176.359 776.622 176.248 773.901 175.83 771.219C175.45 768.749 174.92 766.219 174.3 763.729C173.97 762.459 173.65 761.22 173.3 759.96L172.3 756.179C171.469 753.075 170.827 749.922 170.38 746.739C170.33 746.359 170.3 745.97 170.27 745.59L170.18 744.739C170.18 744.319 170.12 743.909 170.09 743.469C170.06 743.029 170.09 742.73 170.09 742.38V742.229C170.09 741.339 170.03 740.459 170.03 739.599C170.03 738.739 170.03 737.889 170.09 737.039C170.09 736.649 170.09 736.239 170.15 735.859C170.15 735.179 170.21 734.499 170.27 733.859C170.33 733.219 170.36 732.499 170.41 731.859C170.46 731.219 170.53 730.499 170.62 729.859C170.71 729.219 170.77 728.499 170.83 727.859C171.03 725.859 171.3 723.789 171.54 721.749C171.54 721.629 171.54 721.479 171.54 721.369C171.68 720.159 171.8 718.92 171.95 717.71V717.65C172.07 716.41 172.18 715.2 172.27 713.96C172.257 713.863 172.257 713.766 172.27 713.669C172.33 712.549 172.42 711.429 172.45 710.309C172.45 710.099 172.45 709.889 172.45 709.689V709.539C172.45 708.769 172.45 708.03 172.45 707.27C173.89 706.06 175.37 704.939 176.9 703.819C180.926 700.932 184.77 697.8 188.41 694.439C189.11 693.789 189.73 693.109 190.35 692.439C195.81 686.309 198.29 679.55 199.82 672.53C202.21 661.76 202.39 650.469 207.76 640.169C208.2 639.319 208.67 638.489 209.2 637.669C209.795 636.686 210.446 635.738 211.15 634.83C212.49 633.067 213.946 631.397 215.51 629.83C218.329 627.06 221.403 624.562 224.69 622.369C226.75 620.979 228.96 619.679 231.23 618.439C233.5 617.199 235.89 616.079 238.34 615.049C240.79 614.019 243.39 613.049 246.01 612.159C246.9 611.869 247.78 611.569 248.67 611.309C248.67 611.309 248.67 611.309 248.73 611.309C251.38 610.539 254.12 609.83 256.9 609.21C257.81 609.04 258.75 608.83 259.7 608.65C267.609 607.074 275.668 606.376 283.73 606.569Z" fill="#3FBDF1"/>
<path opacity="0.67" d="M199.72 665C198.19 672 195.72 678.77 190.26 684.91C189.64 685.59 189.02 686.26 188.31 686.91C184.678 690.275 180.837 693.408 176.81 696.29C175.21 697.47 173.65 698.65 172.15 699.89C171.26 698.45 171.59 696.13 170.41 694.22C169.492 692.602 168.667 690.932 167.94 689.22C167.94 689.13 167.46 686.89 167.37 686.83C164.497 682.809 161.367 678.977 158 675.36C152.43 669.61 144.24 663.23 143.56 662.52L143.5 662.46C143.5 662.46 145.17 613.46 172.77 597.96C196.51 584.57 199.4 647.1 199.72 665Z" fill="#3FBDF1"/>
<path opacity="0.67" d="M278.19 657.35C273.94 671.48 251.25 680.09 248.48 694.61C246.03 707.47 261.08 719.47 258.57 732.54C255.95 746.54 234.38 754.31 226.48 766.73C219.99 776.73 223.03 788.32 219.66 799.05C215.66 812.05 201.52 823.45 183.06 828.85C182.47 829.02 181.85 829.2 181.26 829.35C175.66 825.01 169.26 817.35 164 809.08C168.561 801.484 172.274 793.408 175.07 785C179.07 772.47 172.07 759.58 170.43 746.75C168.52 731.29 174.3 714.95 172.06 699.94C178.19 695.01 185.3 690.41 190.26 684.94C204.09 669.46 198.78 649.67 207.66 632.68C218.46 611.94 252.46 597.46 285.88 599.37C282.716 609.156 280.552 619.238 279.42 629.46C278.42 638.42 280.81 648.53 278.19 657.35Z" stroke="black" stroke-width="4.42" stroke-linecap="round" stroke-linejoin="round"/>
<path opacity="0.67" d="M265.48 615.55C215.65 666.38 192.21 773.55 183.09 828.84C182.35 833.51 181.67 837.78 181.09 841.63" stroke="black" stroke-width="4.42" stroke-linecap="round" stroke-linejoin="round"/>
<path opacity="0.67" d="M172 699.93C178.16 694.93 185.3 690.35 190.23 684.84C204.08 669.35 198.76 649.57 207.63 632.58C218.45 611.83 252.46 597.37 285.88 599.27C282.706 609.051 280.538 619.129 279.41 629.35C278.41 638.43 280.79 648.54 278.18 657.35C273.92 671.51 251.23 680.09 248.47 694.62C246.03 707.46 261.06 719.47 258.57 732.54C255.93 746.54 234.39 754.31 226.46 766.72C219.98 776.8 223.02 788.34 219.67 799.07C215.6 812.01 201.52 823.46 183.05 828.84C182.46 829.03 181.83 829.21 181.24 829.37C175.63 825.02 169.24 817.37 164 809.09" stroke="black" stroke-width="4.42" stroke-linecap="round" stroke-linejoin="round"/>
<path opacity="0.67" d="M265.48 615.55C215.65 666.38 192.21 773.55 183.09 828.84C182.35 833.51 181.67 837.78 181.09 841.63" stroke="black" stroke-width="4.42" stroke-linecap="round" stroke-linejoin="round"/>
<path opacity="0.67" d="M229.999 860.56L216.059 938.49C215.671 940.676 214.525 942.657 212.823 944.083C211.12 945.51 208.97 946.291 206.749 946.29H133.999C131.756 946.291 129.585 945.495 127.874 944.045C126.163 942.594 125.024 940.583 124.659 938.37L111.809 860.56H229.999Z" stroke="black" stroke-width="4.42" stroke-linecap="round" stroke-linejoin="round"/>
<path opacity="0.67" d="M243.271 851.87C243.08 854.238 242.003 856.448 240.255 858.059C238.508 859.669 236.217 860.562 233.841 860.56H108.181C105.828 860.558 103.56 859.681 101.818 858.098C100.077 856.516 98.9868 854.342 98.7607 852C98.6368 850.687 98.7882 849.364 99.2052 848.114C99.6221 846.863 100.295 845.714 101.182 844.739C102.069 843.764 103.149 842.984 104.354 842.451C105.559 841.917 106.863 841.641 108.181 841.64H233.841C235.148 841.639 236.441 841.91 237.639 842.435C238.836 842.96 239.912 843.727 240.798 844.688C241.684 845.649 242.361 846.784 242.787 848.02C243.212 849.256 243.377 850.567 243.271 851.87Z" stroke="black" stroke-width="4.42" stroke-linecap="round" stroke-linejoin="round"/>
<g opacity="0.36">
<path opacity="0.36" d="M176.16 779.3V779.36C176.01 781.265 175.644 783.147 175.07 784.97C172.277 793.386 168.564 801.468 164 809.07L165.54 811.43L149.46 831.72C149.219 831.652 148.982 831.572 148.75 831.48C148.31 831.34 147.87 831.19 147.43 831.01C146.823 830.806 146.231 830.559 145.66 830.27L143.86 824.46C143.456 824.296 143.063 824.109 142.68 823.9C141.68 823.46 140.68 822.96 139.79 822.46C138.9 821.96 137.93 821.46 137.01 820.89C133.45 818.788 130.127 816.307 127.1 813.49C126.37 812.81 125.63 812.1 124.95 811.4C123.089 809.49 121.393 807.426 119.88 805.23C119.673 804.971 119.486 804.697 119.32 804.41C117.73 802.056 116.389 799.542 115.32 796.91C115.02 796.21 114.76 795.5 114.52 794.79C114.165 793.856 113.867 792.901 113.63 791.93C110.39 779.51 113.31 766.12 107.12 754.47C105.043 750.795 102.461 747.429 99.45 744.47C99.06 744.06 98.68 743.67 98.27 743.29C97.27 742.29 96.27 741.37 95.27 740.43C92.27 737.6 89.07 734.79 86.21 731.87C81.29 726.87 77.27 721.43 76.21 714.87C76.15 714.55 76.12 714.2 76.09 713.87C77.39 701.31 87.42 689.45 86.01 676.94C85.9867 676.625 85.9466 676.311 85.89 676C83.23 659.19 61.43 649.24 57.36 632.82C56.2981 627.895 55.9013 622.85 56.18 617.82C56.24 613.25 56.51 608.62 56.36 604.16C56.36 602.9 56.3 601.66 56.18 600.42C55.1344 588.636 53.0666 576.966 50 565.54C50.41 565.54 50.86 565.48 51.27 565.48C82.95 563.77 114.92 580.41 125.19 604.12C133.71 623.8 130.19 644.55 143.52 662.46L143.58 662.52C146.88 666.94 152.89 671.08 157.16 675C160.686 678.203 163.866 681.765 166.65 685.63C166.74 685.69 170.89 688.07 167.94 688.51C168.46 689.14 168.932 689.808 169.35 690.51C169.88 691.37 168.35 693.51 168.75 694.32C168.75 694.32 170.35 692.97 170.35 693C172.03 696.42 171.5 701.34 172.06 704.91C172.317 706.623 172.474 708.349 172.53 710.08C172.15 720.63 169.7 731.55 170.11 742.14V742.29C169.951 745.427 170.058 748.571 170.43 751.69C171.59 761 175.51 770.19 176.16 779.3Z" fill="#3FBDF1"/>
<path opacity="0.36" d="M170.109 742.2C169.699 731.61 172.109 720.69 172.529 710.14C172.999 720.58 170.459 731.49 170.109 742.2Z" fill="#3FBDF1"/>
<path opacity="0.36" d="M175.07 790C172.602 797.444 169.41 804.628 165.54 811.45L164 809.1C168.564 801.498 172.277 793.415 175.07 785C175.644 783.177 176.01 781.295 176.16 779.39C176.48 782.963 176.11 786.565 175.07 790Z" fill="#3FBDF1"/>
<path opacity="0.36" d="M150.701 841.62L145.701 830.3L143.901 824.49V824.43L69.6914 584.43C116.201 641.71 138.801 760.79 148.091 826.21C148.351 828.01 148.591 829.78 148.821 831.49C149.151 833.79 149.441 836.04 149.711 838.19C150.001 841.22 150.411 839 150.701 841.62Z" fill="#3FBDF1"/>
</g>
<path opacity="0.67" d="M176.16 779.3C176.012 781.215 175.647 783.107 175.07 784.94C172.27 793.372 168.558 801.474 164 809.1C162.44 811.75 160.82 814.29 159.17 816.65C158.28 817.89 157.4 819.1 156.54 820.25C155.98 821.01 155.39 821.72 154.8 822.43C154.21 823.14 153.62 823.81 153.06 824.43C152.8 824.79 152.47 825.11 152.18 825.43C151.62 825.99 151.06 826.55 150.52 827.05C149.93 826.84 149.34 826.67 148.75 826.43C148.497 826.366 148.252 826.276 148.02 826.16C147.22 825.9 146.42 825.57 145.66 825.25L145.27 825.07C144.8 824.9 144.33 824.69 143.86 824.48C143.456 824.315 143.062 824.128 142.68 823.92C141.68 823.48 140.68 822.98 139.79 822.48C138.9 821.98 137.93 821.48 137.01 820.91C133.449 818.808 130.126 816.327 127.1 813.51C126.37 812.83 125.63 812.12 124.95 811.42C123.088 809.51 121.392 807.446 119.88 805.25C119.673 804.991 119.485 804.717 119.32 804.43C117.729 802.076 116.389 799.562 115.32 796.93C115.02 796.23 114.76 795.52 114.52 794.81C114.164 793.876 113.867 792.921 113.63 791.95C110.39 779.53 113.31 766.14 107.12 754.49C105.043 750.815 102.461 747.449 99.4495 744.49C99.0595 744.08 98.6795 743.69 98.2695 743.31C94.3695 739.44 90.0395 735.76 86.2695 731.89C81.3495 726.89 77.3295 721.45 76.2695 714.89C76.2095 714.57 76.1795 714.22 76.1495 713.89C74.7695 701.18 84.7695 689.29 86.0695 676.96C86.2904 674.963 86.25 672.946 85.9495 670.96C83.2895 654.15 61.4895 644.21 57.4195 627.78C56.6533 624.501 56.2575 621.147 56.2395 617.78C56.0995 613.27 56.3595 608.67 56.4195 604.12C56.5406 601.189 56.4804 598.253 56.2395 595.33C55.3396 585.27 53.6849 575.292 51.2895 565.48C50.9095 563.83 50.4595 562.15 50.0195 560.48C71.7295 558.98 93.7295 566.17 108.89 578.41C110.89 580.043 112.75 581.727 114.47 583.46C118.975 587.958 122.616 593.246 125.21 599.06C133.73 618.73 128.6 641.68 141.93 659.59C144.301 662.665 146.938 665.526 149.81 668.14C150.96 669.23 152.11 670.29 153.29 671.39C155.65 673.54 158.01 675.69 160.19 677.9C162.91 680.563 165.325 683.521 167.39 686.72C167.74 687.31 168.09 687.93 168.39 688.55C168.63 689 168.86 689.47 169.07 689.94C169.28 690.41 169.57 691 169.78 691.56C169.99 692.12 170.16 692.56 170.34 693.01C170.34 693.07 170.34 693.13 170.4 693.18C170.57 693.72 170.75 694.25 170.9 694.78C171.05 695.31 171.22 695.93 171.37 696.52C171.52 697.11 171.6 697.52 171.69 697.99C171.78 698.46 171.96 699.26 172.05 699.88C172.518 703.262 172.675 706.679 172.52 710.09C172.17 720.65 169.69 731.56 170.1 742.18C170.1 743.71 170.25 745.18 170.42 746.69C171.82 757.62 177.07 768.6 176.16 779.3Z" stroke="black" stroke-width="4.42" stroke-linecap="round" stroke-linejoin="round"/>
<path opacity="0.67" d="M69.6016 579.32C117.442 638.2 139.952 762.32 148.752 826.42C149.502 831.97 150.182 837.07 150.752 841.63" stroke="black" stroke-width="4.42" stroke-linecap="round" stroke-linejoin="round"/>
<path opacity="0.67" d="M278.19 657.37C273.94 671.49 251.25 680.11 248.48 694.62C246.03 707.48 261.08 719.49 258.57 732.55C255.95 746.55 234.38 754.32 226.48 766.74C219.99 776.8 223.03 788.33 219.66 799.07C215.86 811.28 203.09 822.16 186.19 827.86C185.19 828.21 184.12 828.53 183.09 828.86C182.5 829.04 181.88 829.21 181.29 829.36C176.22 825.44 170.49 818.8 165.57 811.46L164 809.1C162.44 811.75 160.82 814.29 159.17 816.65C158.28 817.89 157.4 819.1 156.54 820.25C155.98 821.01 155.39 821.72 154.8 822.43C154.21 823.14 153.62 823.81 153.06 824.43C152.8 824.79 152.47 825.11 152.18 825.43C151.62 826.02 151.06 826.58 150.52 827.08C149.93 826.87 149.34 826.7 148.75 826.46L148.02 826.19C147.215 825.922 146.427 825.609 145.66 825.25L145.27 825.07C144.774 824.888 144.293 824.671 143.83 824.42C143.45 824.28 143.06 824.1 142.68 823.92C141.68 823.48 140.68 822.98 139.79 822.48C138.9 821.98 137.93 821.48 137.01 820.91C133.449 818.808 130.126 816.327 127.1 813.51C126.37 812.83 125.63 812.12 124.95 811.42C123.088 809.51 121.392 807.446 119.88 805.25C119.673 804.991 119.485 804.717 119.32 804.43C117.729 802.076 116.389 799.562 115.32 796.93C115.02 796.23 114.76 795.52 114.52 794.81C114.164 793.876 113.867 792.921 113.63 791.95C110.39 779.53 113.31 766.14 107.12 754.49C105.043 750.815 102.461 747.449 99.4495 744.49C99.0595 744.08 98.6795 743.69 98.2695 743.31C94.3695 739.47 90.0395 735.79 86.2695 731.89C81.3495 726.89 77.3295 721.45 76.2695 714.89C76.2095 714.57 76.1795 714.22 76.1495 713.89C74.7695 701.18 84.7695 689.29 86.0695 676.96C86.2904 674.963 86.25 672.946 85.9495 670.96C83.2895 654.15 61.4895 644.21 57.4195 627.78C56.6533 624.501 56.2575 621.147 56.2395 617.78C56.0995 613.27 56.3595 608.67 56.4195 604.12C56.5406 601.189 56.4804 598.253 56.2395 595.33C55.3396 585.27 53.6849 575.292 51.2895 565.48C50.9095 563.83 50.4595 562.15 50.0195 560.48C71.7295 558.98 93.7295 566.17 108.89 578.41C110.844 579.985 112.707 581.671 114.47 583.46C118.975 587.958 122.616 593.246 125.21 599.06C133.73 618.73 128.6 641.68 141.93 659.59C144.301 662.665 146.938 665.526 149.81 668.14C150.96 669.23 152.11 670.32 153.29 671.39C155.65 673.54 158.01 675.69 160.19 677.9C162.91 680.563 165.325 683.521 167.39 686.72C167.74 687.31 168.09 687.93 168.39 688.55C168.63 689 168.86 689.47 169.07 689.94C169.28 690.41 169.57 691 169.78 691.56C169.99 692.12 170.16 692.56 170.34 693.01C170.34 693.07 170.34 693.13 170.4 693.18C170.57 693.72 170.75 694.25 170.9 694.78C171.05 695.31 171.22 695.93 171.37 696.52C171.52 697.11 171.6 697.52 171.69 697.99C171.78 698.46 171.96 699.26 172.05 699.88C178.18 694.95 185.29 690.35 190.25 684.88C204.08 669.39 198.77 649.6 207.65 632.61C218.45 611.87 252.45 597.39 285.87 599.31C282.707 609.093 280.543 619.171 279.41 629.39C278.42 638.43 280.81 648.55 278.19 657.37Z" stroke="black" stroke-width="4.42" stroke-linecap="round" stroke-linejoin="round"/>
<path opacity="0.67" d="M141.898 659.609C141.898 659.609 145.188 608.439 172.788 592.889C200.388 577.339 199.788 664.549 199.788 664.549" stroke="black" stroke-width="4.42" stroke-linecap="round" stroke-linejoin="round"/>
<path opacity="0.67" d="M172 699.93C172 699.93 166.36 670.66 176.25 641.93" stroke="black" stroke-width="4.42" stroke-linecap="round" stroke-linejoin="round"/>
</g>
<path d="M756.268 925.97L756.238 926" stroke="#CCDDE2" stroke-width="4.42" stroke-miterlimit="10"/>
<path d="M475 423.72C475 423.72 497.51 409.21 488 393.78C478.49 378.35 475 423.72 475 423.72Z" fill="#3FBDF1"/>
<path d="M707.57 517C694.97 523.46 681.4 523 668.4 518.06C656.6 513.55 646.07 506.14 636.6 497.91L572.6 449.42C558.779 441.046 546.375 430.531 535.85 418.27C520.78 400.6 496.47 396.74 490.72 396.06L486.59 388.13C494.29 385 502.34 380.96 510.59 379.87C527.08 377.63 544.39 384.62 556.4 395.62C563.06 401.75 568.88 408.8 575.51 414.97C592.09 430.42 615.69 435.97 637.51 440.71C648.51 443.1 660.63 443.86 671.81 445.01C682.921 446.114 693.752 449.16 703.81 454.01C710.42 457.08 714.67 463.07 719.81 468.91C723.746 474.327 726.113 480.725 726.65 487.4C727.42 500.44 718.72 511.24 707.57 517Z" fill="#3FBDF1"/>
<path d="M475.002 423.72C471.964 425.485 468.376 426.052 464.942 425.31H464.852C463.852 425.02 462.852 424.78 461.992 424.6C461.609 424.515 461.234 424.398 460.872 424.25C450.812 420.59 444.942 422.01 446.872 432.75C449.112 445.4 432.592 447.05 421.712 445.1C402.512 436.46 397.252 402.75 412.482 381.98C412.862 381.45 413.302 380.89 413.742 380.33C414.182 379.77 414.662 379.24 415.132 378.71C416.268 377.475 417.48 376.313 418.762 375.23C419.202 374.84 419.642 374.46 420.112 374.11C420.582 373.76 421.242 373.25 421.802 372.84C422.345 372.409 422.916 372.015 423.512 371.66C428.66 368.27 434.446 365.965 440.515 364.885C446.584 363.805 452.81 363.974 458.812 365.38L459.122 365.47C461.211 366.253 463.248 367.168 465.222 368.21C465.788 368.494 466.339 368.808 466.872 369.15C467.105 369.265 467.332 369.391 467.552 369.53C468.082 369.86 468.612 370.18 469.142 370.53C470.202 371.21 471.262 371.94 472.272 372.74C475.948 375.557 479.205 378.883 481.942 382.62C482.409 383.236 482.843 383.877 483.242 384.54C483.563 384.982 483.857 385.442 484.122 385.92C484.532 386.57 484.922 387.22 485.272 387.92C485.622 388.62 486.132 389.54 486.512 390.37C486.812 391.02 487.102 391.67 487.372 392.37C487.572 392.87 487.782 393.37 487.962 393.84C488.56 395.408 489.051 397.015 489.432 398.65C489.554 399.045 489.645 399.45 489.702 399.86C489.84 400.332 489.947 400.813 490.022 401.3C490.112 401.77 490.202 402.3 490.292 402.78L475.002 423.72Z" fill="#3FBDF1"/>
<path d="M483.109 383.74C490.799 380.6 498.849 376.57 507.109 375.46C523.579 373.24 540.919 380.22 552.899 391.22C559.589 397.36 565.389 404.4 572.029 410.59C588.619 426 610.119 434.47 631.999 439.24C642.983 441.548 654.087 443.244 665.259 444.32C676.859 445.53 687.349 445.88 698.089 450.89C712.089 457.37 725.579 471.27 726.609 487.37C727.439 500.43 718.739 511.22 707.609 516.95C694.999 523.41 681.409 523 668.389 518C656.589 513.49 646.059 506.09 636.579 497.83" stroke="black" stroke-width="4.42" stroke-miterlimit="10"/>
<path d="M406.141 380.12C406.531 379.59 406.971 379.03 407.411 378.47C407.851 377.91 408.331 377.38 408.801 376.85C410.345 375.188 412.016 373.65 413.801 372.25C414.361 371.8 414.921 371.39 415.481 370.98L415.841 370.71C416.311 370.39 416.751 370.06 417.221 369.8C430.171 361.25 445.511 360.45 458.811 365.35C459.392 365.532 459.963 365.745 460.521 365.99C462.123 366.632 463.689 367.363 465.211 368.18C465.781 368.462 466.335 368.775 466.871 369.12C467.104 369.234 467.331 369.361 467.551 369.5C468.111 369.83 468.641 370.15 469.141 370.5C470.218 371.182 471.26 371.919 472.261 372.71C475.943 375.524 479.203 378.851 481.941 382.59C482.408 383.206 482.842 383.847 483.241 384.51C483.562 384.951 483.856 385.412 484.121 385.89C484.541 386.54 484.921 387.19 485.271 387.89C485.621 388.59 486.131 389.51 486.511 390.34C486.811 390.99 487.101 391.64 487.371 392.34C487.571 392.84 487.781 393.34 487.961 393.81C488.559 395.378 489.05 396.985 489.431 398.62C489.553 399.015 489.644 399.42 489.701 399.83C489.834 400.303 489.941 400.784 490.021 401.27C490.111 401.74 490.201 402.27 490.291 402.75C490.381 403.23 490.431 403.81 490.491 404.37" stroke="black" stroke-width="4.42" stroke-miterlimit="10"/>
<path d="M548.111 927.35H625.001L626.001 947.78H525.251C525.251 947.78 507.441 935.63 527.781 927.35H548.111Z" fill="#3FBDF1"/>
<path d="M454 548.13C454 548.13 507.59 511.47 572.6 578.29C572.6 578.29 563.83 631.12 535.82 653.36C535.82 653.36 700.35 629.17 717.65 689.99C717.65 689.99 723.37 583.99 633.54 494.82C543.71 405.65 491.75 436.07 474.98 482.82C458.21 529.57 459.91 510.65 454 548.13Z" fill="#2E2E2E"/>
<path d="M809.111 925.68V836.75L838.971 837.75V947.75H788.511C788.511 947.75 781.691 937.5 792.291 934.18C802.891 930.86 809.111 936 809.111 925.68Z" fill="#3FBDF1"/>
<path d="M355.81 829.91C358.919 829.91 361.44 827.39 361.44 824.28C361.44 821.171 358.919 818.65 355.81 818.65C352.7 818.65 350.18 821.171 350.18 824.28C350.18 827.39 352.7 829.91 355.81 829.91Z" fill="#3FBDF1"/>
<path d="M555.488 440.67C651.298 485.37 717.678 582.57 717.678 695.26C717.763 752.84 700.063 809.04 666.998 856.18C661.517 864 655.646 871.539 649.408 878.77" stroke="black" stroke-width="4.42" stroke-linecap="round" stroke-linejoin="round"/>
<path d="M613.921 649.16C613.921 649.16 428.091 639.01 428.921 733.82C429.243 752.204 436.368 769.815 448.921 783.25L554.521 898.25C560.691 904.95 564.141 910.34 565.991 914.56C566.594 915.954 566.84 917.476 566.708 918.989C566.575 920.502 566.067 921.958 565.23 923.226C564.394 924.493 563.254 925.533 561.915 926.249C560.576 926.966 559.079 927.337 557.561 927.33H527.791C525.078 927.341 522.48 928.423 520.562 930.341C518.643 932.259 517.561 934.858 517.551 937.57C517.552 938.913 517.818 940.242 518.334 941.482C518.849 942.721 519.604 943.847 520.555 944.794C521.506 945.742 522.635 946.492 523.877 947.003C525.118 947.514 526.448 947.774 527.791 947.77H626.001C625.091 874.62 596.891 823.36 573.231 793.12C565.849 783.624 557.68 774.766 548.811 766.64" stroke="black" stroke-width="4.42" stroke-linecap="round" stroke-linejoin="round"/>
<path d="M667 856.18C667 856.18 740.72 831.47 839 837.76V947.76H793.14C791.331 947.76 789.597 947.041 788.318 945.762C787.039 944.483 786.32 942.748 786.32 940.94C786.32 939.273 786.931 937.664 788.036 936.417C789.141 935.169 790.665 934.37 792.32 934.17L802.81 932.84C804.559 932.62 806.168 931.769 807.333 930.447C808.499 929.125 809.142 927.422 809.14 925.66C809.14 924.608 808.911 923.57 808.468 922.616C808.026 921.662 807.382 920.816 806.579 920.136C805.777 919.457 804.836 918.96 803.823 918.681C802.809 918.402 801.747 918.347 800.71 918.52L626 947.78" stroke="black" stroke-width="4.42" stroke-linecap="round" stroke-linejoin="round"/>
<path d="M573.211 793.16C578.841 781.75 583.831 772.43 587.021 766.68" stroke="black" stroke-width="4.42" stroke-linecap="round" stroke-linejoin="round"/>
<path d="M538.501 927.35C534.611 915.28 535.671 899.26 539.501 881.93" stroke="black" stroke-width="4.42" stroke-linecap="round" stroke-linejoin="round"/>
<path d="M361.161 824.26C361.165 825 361.022 825.732 360.742 826.416C360.462 827.101 360.05 827.723 359.528 828.247C359.007 828.771 358.387 829.187 357.704 829.47C357.022 829.754 356.29 829.9 355.551 829.9C354.64 829.914 353.739 829.701 352.931 829.28C353.076 830.166 353.147 831.063 353.141 831.96V836.15C353.143 840.411 351.454 844.498 348.445 847.513C345.435 850.528 341.351 852.225 337.091 852.23H327.681L327.591 892.4C327.211 919.45 313.001 920 313.001 920V934.57H314.621C315.502 934.569 316.374 934.745 317.185 935.089C317.996 935.432 318.729 935.936 319.341 936.57C320.293 937.517 320.938 938.729 321.192 940.047C321.446 941.366 321.298 942.73 320.766 943.963C320.234 945.196 319.344 946.241 318.21 946.961C317.077 947.681 315.753 948.043 314.411 948C311.061 947.89 307.731 947.444 304.471 946.67C303.168 947.595 301.597 948.062 300.001 948C289.831 947.62 271.421 943.75 260.951 922.1C254.111 926.88 252.341 929.68 243.341 929.68C233.726 929.688 224.391 926.446 216.851 920.48V934.58H218.511C219.392 934.596 220.261 934.785 221.069 935.137C221.877 935.489 222.608 935.996 223.22 936.631C223.832 937.265 224.313 938.013 224.636 938.833C224.958 939.654 225.116 940.529 225.101 941.41C225.085 942.292 224.896 943.161 224.544 943.969C224.192 944.777 223.685 945.508 223.051 946.12C222.416 946.732 221.668 947.213 220.848 947.536C220.027 947.858 219.152 948.016 218.271 948C214.421 947.894 210.597 947.33 206.881 946.32V946.26C207.586 945.633 208.148 944.863 208.531 944C208.914 943.138 209.108 942.204 209.101 941.26C209.116 941.037 209.116 940.813 209.101 940.59L206.911 946.22C205.68 947.348 204.07 947.97 202.401 947.96H202.191C186.191 947.52 143.191 937.73 155.851 861.18C164.851 806.97 213.851 811.45 237.091 833.18C243.221 838.96 244.821 845.83 243.491 852.09H255.941V831.34C255.943 819.544 260.63 808.232 268.972 799.891C277.313 791.55 288.625 786.863 300.421 786.86H308.121C311.368 786.863 314.584 787.505 317.583 788.75C320.582 789.996 323.307 791.819 325.602 794.118C327.896 796.416 329.716 799.144 330.956 802.145C332.196 805.146 332.833 808.363 332.831 811.61C336.412 811.629 339.926 812.583 343.025 814.377C346.125 816.171 348.701 818.744 350.501 821.84C351.057 820.698 351.984 819.776 353.13 819.226C354.276 818.676 355.574 818.529 356.814 818.809C358.054 819.09 359.163 819.78 359.961 820.77C360.759 821.759 361.199 822.989 361.211 824.26H361.161Z" fill="white"/>
<path d="M209.079 941.33C209.087 942.274 208.893 943.208 208.51 944.07C208.127 944.933 207.564 945.703 206.859 946.33L209.049 940.7C209.073 940.909 209.083 941.12 209.079 941.33Z" fill="white"/>
<path d="M209.079 941.33C209.087 942.274 208.893 943.208 208.51 944.07C208.127 944.933 207.564 945.703 206.859 946.33L209.049 940.7C209.073 940.909 209.083 941.12 209.079 941.33Z" fill="white"/>
<path d="M214.101 892.4C219.101 915.02 200.751 920.04 200.751 920.04V934.61H202.371C204.15 934.613 205.855 935.32 207.113 936.578C208.371 937.836 209.079 939.541 209.081 941.32C209.08 942.22 208.899 943.111 208.548 943.939C208.196 944.768 207.683 945.518 207.036 946.144C206.39 946.771 205.625 947.262 204.786 947.587C203.947 947.913 203.051 948.067 202.151 948.04C186.091 947.58 143.151 937.8 155.821 861.25C164.821 807.02 213.821 811.51 237.031 833.25C257.141 852.16 228.441 882.89 207.891 864.45C205.127 861.939 202.544 859.235 200.161 856.36" stroke="black" stroke-width="4.42" stroke-linecap="round" stroke-linejoin="round"/>
<path d="M216.82 920.5V934.61H218.44C219.325 934.605 220.203 934.775 221.022 935.111C221.84 935.448 222.585 935.943 223.211 936.569C223.837 937.195 224.332 937.939 224.668 938.758C225.005 939.577 225.175 940.455 225.17 941.34C225.169 942.24 224.987 943.13 224.635 943.958C224.283 944.785 223.767 945.534 223.12 946.158C222.472 946.782 221.705 947.27 220.865 947.591C220.025 947.913 219.129 948.062 218.23 948.03C214.38 947.92 210.556 947.352 206.84 946.34" stroke="black" stroke-width="4.42" stroke-linecap="round" stroke-linejoin="round"/>
<path d="M304.48 946.69C307.734 947.482 311.063 947.928 314.41 948.02C315.308 948.054 316.202 947.906 317.041 947.585C317.879 947.264 318.644 946.777 319.289 946.153C319.935 945.529 320.448 944.781 320.797 943.954C321.146 943.127 321.324 942.238 321.32 941.34C321.303 939.553 320.585 937.843 319.32 936.58C318.705 935.946 317.968 935.442 317.154 935.098C316.339 934.755 315.464 934.578 314.58 934.58H313V920.05C313 920.05 327.22 919.45 327.6 892.39L327.69 852.21" stroke="black" stroke-width="4.42" stroke-linecap="round" stroke-linejoin="round"/>
<path d="M255.892 852.21H243.422" stroke="black" stroke-width="4.42" stroke-linecap="round" stroke-linejoin="round"/>
<path d="M312.261 892.4C317.301 915 298.911 914 298.911 914V934.59H300.531C302.321 934.611 304.032 935.329 305.301 936.59C306.123 937.424 306.717 938.456 307.023 939.586C307.33 940.716 307.339 941.906 307.051 943.04C306.615 944.554 305.676 945.875 304.389 946.784C303.102 947.693 301.544 948.136 299.971 948.04C289.791 947.66 271.381 943.81 260.891 922.15C254.051 926.94 252.301 929.75 243.291 929.75C236.926 929.751 230.641 928.324 224.901 925.574C219.16 922.824 214.109 918.821 210.121 913.86" stroke="black" stroke-width="4.42" stroke-linecap="round" stroke-linejoin="round"/>
<path d="M313.129 852.21H337.129C341.378 852.194 345.447 850.495 348.446 847.485C351.445 844.475 353.129 840.399 353.129 836.15V832C353.133 831.096 353.066 830.193 352.929 829.3" stroke="black" stroke-width="4.42" stroke-linecap="round" stroke-linejoin="round"/>
<path d="M350.462 821.86C349.553 820.29 348.444 818.844 347.162 817.56C345.275 815.67 343.033 814.172 340.565 813.151C338.097 812.13 335.452 811.606 332.782 811.61C332.782 805.052 330.178 798.762 325.543 794.123C320.907 789.484 314.62 786.875 308.062 786.87H300.362C288.567 786.873 277.256 791.56 268.916 799.902C260.577 808.243 255.892 819.555 255.892 831.35V859C255.828 862.043 256.372 865.068 257.493 867.898C258.613 870.728 260.287 873.305 262.417 875.48C264.547 877.654 267.089 879.382 269.894 880.561C272.7 881.741 275.713 882.348 278.757 882.348C281.8 882.348 284.813 881.741 287.619 880.561C290.425 879.382 292.967 877.654 295.096 875.48C297.226 873.305 298.9 870.728 300.02 867.898C301.141 865.068 301.685 862.043 301.622 859V823.56" stroke="black" stroke-width="4.42" stroke-linecap="round" stroke-linejoin="round"/>
<path d="M352.931 829.27C353.734 829.698 354.631 829.918 355.541 829.91C356.552 829.915 357.545 829.648 358.417 829.136C359.288 828.625 360.006 827.888 360.495 827.004C360.984 826.119 361.226 825.119 361.195 824.109C361.164 823.099 360.862 822.116 360.321 821.262C359.779 820.409 359.017 819.718 358.116 819.26C357.215 818.803 356.207 818.596 355.199 818.663C354.19 818.729 353.218 819.065 352.384 819.637C351.551 820.208 350.886 820.994 350.461 821.91" stroke="black" stroke-width="4.42" stroke-linecap="round" stroke-linejoin="round"/>
<path d="M315.59 815.85C315.59 815.85 317.59 810.35 325.81 811.53" stroke="black" stroke-width="4.42" stroke-linecap="round" stroke-linejoin="round"/>
<path d="M265.419 791C265.419 791 264.039 803.3 272.049 801.15C280.059 799 280.159 792.89 281.459 798.15C282.759 803.41 290.209 807.15 295.209 800.96C300.209 794.77 297.269 803.47 300.099 805.13C302.929 806.79 310.319 807.47 313.289 801.77C316.259 796.07 318.529 795.69 320.369 800.6C322.209 805.51 339.139 793.67 339.129 792.35C339.119 791.03 349.889 786 349.889 786L345.319 769.15C345.319 769.15 338.809 765.22 337.209 764.85C335.609 764.48 332.539 764.6 330.939 763.74C329.339 762.88 311.799 758.37 311.799 758.37C311.799 758.37 265.899 770.11 265.419 791Z" fill="white"/>
<path d="M283.109 790C282.909 790.53 282.699 791.09 282.489 791.62C282.472 791.714 282.441 791.805 282.399 791.89C281.523 793.86 281.198 796.03 281.459 798.17C281.869 800.38 283.529 803.68 285.829 804.24C292.549 805.93 295.829 801.24 298.039 795.9C299.389 792.65 300.399 789.17 301.579 786.72C303.08 783.613 305.185 780.836 307.769 778.55" stroke="black" stroke-width="4.42" stroke-linecap="round" stroke-linejoin="round"/>
<path d="M283.44 789C283.35 789.33 283.23 789.62 283.11 790C282.934 790.551 282.727 791.092 282.49 791.62C282.473 791.714 282.443 791.805 282.4 791.89C280.46 796.4 277.12 800.47 272.05 801.18C266.33 801.94 262.73 792.83 267.98 783.51C267.973 783.491 267.973 783.47 267.98 783.45" stroke="black" stroke-width="4.42" stroke-linecap="round" stroke-linejoin="round"/>
<path d="M298.001 795.88C298.001 795.88 296.381 807.88 305.581 806.88C316.261 805.73 313.041 793.37 326.731 783.13" stroke="black" stroke-width="4.42" stroke-linecap="round" stroke-linejoin="round"/>
<path d="M317.422 795.17C318.952 798.8 322.142 801.01 326.122 800.54C331.782 799.83 334.972 794.93 338.802 791.33C338.922 791.25 339.012 791.13 339.132 791.04C341.355 789.016 344.001 787.514 346.878 786.642C349.755 785.77 352.79 785.551 355.762 786C355.762 786 389.712 795.08 437.232 766.68" stroke="black" stroke-width="4.42" stroke-linecap="round" stroke-linejoin="round"/>
<path d="M549 623.75C572.983 588.796 585.797 547.39 585.75 505" stroke="black" stroke-width="4.42" stroke-linecap="round" stroke-linejoin="round"/>
<path d="M283.441 789C283.441 789 286.891 781.31 291.781 777.68" stroke="black" stroke-width="4.42" stroke-linecap="round" stroke-linejoin="round"/>
<path d="M490.27 402.72L555.48 440.72C469.48 414.47 449.95 551.45 445.48 612.09C445.48 612.09 441.48 698.54 356.19 738.3L343.75 743.98C332.923 748.869 321.673 752.762 310.14 755.61C273.33 764.83 268 783.48 268 783.48" stroke="black" stroke-width="4.42" stroke-linecap="round" stroke-linejoin="round"/>
<path d="M482.482 469.73L474.602 457.96" stroke="black" stroke-width="4.42" stroke-linecap="round" stroke-linejoin="round"/>
<path d="M421.66 445.07L436.74 459.64C436.944 459.839 437.187 459.993 437.455 460.09C437.723 460.188 438.008 460.227 438.292 460.205C438.576 460.183 438.852 460.101 439.102 459.964C439.352 459.827 439.569 459.638 439.74 459.41L441.51 457.04C441.78 457.04 477.05 476.04 481.03 443.04" stroke="black" stroke-width="4.42" stroke-linecap="round" stroke-linejoin="round"/>
<path d="M489.41 395.87C489.41 395.87 518.61 398.09 535.82 418.24C546.346 430.499 558.755 441.007 572.58 449.37" stroke="black" stroke-width="4.42" stroke-miterlimit="10"/>
<path d="M417.189 369.8C389.319 387.07 392.509 433.2 415.549 443.35C424.339 447.23 449.549 448.18 446.819 432.71C444.899 421.99 450.819 420.57 460.819 424.22C467.049 426.47 473.879 426.13 478.819 421.34C479.795 420.393 480.667 419.343 481.419 418.21" stroke="black" stroke-width="4.42" stroke-miterlimit="10"/>
<path d="M950 947.76C945.2 947.76 85.8398 947.76 85.8398 947.76" stroke="black" stroke-width="4.42" stroke-linecap="round" stroke-linejoin="round"/>
<path d="M717.63 696.41C717.63 715.039 710.23 732.905 697.057 746.077C683.885 759.25 666.019 766.65 647.39 766.65H522" stroke="black" stroke-width="4.42" stroke-linecap="round" stroke-linejoin="round"/>
<path d="M526.47 867.75C526.47 867.75 517 900.83 522 910.69C527 920.55 535.15 912.76 536 904.64" stroke="black" stroke-width="4.42" stroke-linecap="round" stroke-linejoin="round"/>
</svg>
