<svg width="316" height="48" viewBox="0 0 316 48" fill="none" xmlns="http://www.w3.org/2000/svg">
<path d="M0.744 36H0.12L4.296 2.4H5.88L15.96 33.456L25.992 2.4H27.576L31.752 36H27.768L24.456 9.12L15.768 36H12.744L3.96 9.456L0.744 36ZM41.4803 44.592C40.4563 46.864 39.1923 48 37.6883 48C37.0163 48 36.2323 47.888 35.3363 47.664V47.28C36.0723 47.472 36.7283 47.568 37.3043 47.568C38.9363 47.568 40.1843 46.576 41.0483 44.592L45.0803 36H45.0323L36.1043 12H39.4643L46.9043 32.016L54.2483 16.8C54.6323 16.128 54.8243 15.328 54.8243 14.4C54.8243 13.472 54.5683 12.768 54.0563 12.288L54.3443 12C54.4723 12.064 54.6323 12.256 54.8243 12.576C55.0483 12.896 55.1763 13.184 55.2083 13.44C55.2723 13.696 55.3043 13.936 55.3043 14.16C55.3043 15.024 55.1123 15.904 54.7283 16.8L45.5123 36L41.4803 44.592ZM78.5438 2.448C79.9518 2.384 81.3278 2.352 82.6718 2.352C84.0478 2.352 85.4878 2.496 86.9918 2.784C88.5278 3.072 90.0318 3.616 91.5038 4.416C93.0078 5.184 94.2718 6.192 95.2958 7.44C96.3518 8.656 97.1998 10.272 97.8398 12.288C98.4798 14.304 98.7998 16.752 98.7998 19.632C98.7998 22.512 98.3198 25.104 97.3598 27.408C96.4318 29.68 95.1518 31.424 93.5198 32.64C90.3518 35.008 86.5278 36.192 82.0478 36.192C80.4798 36.192 78.8318 36.128 77.1038 36H74.7038V2.448H78.5438ZM78.6878 35.616C79.3598 35.68 80.2078 35.712 81.2318 35.712C82.2558 35.712 83.0238 35.696 83.5358 35.664C84.0478 35.632 84.7518 35.504 85.6478 35.28C86.5438 35.024 87.3758 34.688 88.1438 34.272C88.9118 33.856 89.7118 33.248 90.5438 32.448C91.4078 31.616 92.1438 30.64 92.7518 29.52C94.1278 26.896 94.8158 23.472 94.8158 19.248C94.8158 16.24 94.4478 13.648 93.7118 11.472C92.9758 9.264 92.1278 7.632 91.1678 6.576C90.2398 5.52 89.1038 4.688 87.7598 4.08C86.4158 3.44 85.3438 3.072 84.5438 2.976C83.7438 2.88 82.8158 2.832 81.7598 2.832C80.7038 2.832 79.6798 2.88 78.6878 2.976V35.616ZM114.499 36.192C111.139 36.192 108.403 35.232 106.291 33.312C104.179 31.392 103.123 28.432 103.123 24.432C103.123 20.432 104.211 17.328 106.387 15.12C108.595 12.912 111.379 11.808 114.739 11.808C118.131 11.808 120.883 12.768 122.995 14.688C125.107 16.608 126.163 19.568 126.163 23.568C126.163 27.568 125.059 30.672 122.851 32.88C120.675 35.088 117.891 36.192 114.499 36.192ZM114.835 12.192C112.403 12.192 110.387 13.28 108.787 15.456C107.187 17.6 106.387 20.608 106.387 24.48C106.387 28.32 107.123 31.168 108.595 33.024C110.067 34.88 112.019 35.808 114.451 35.808C116.883 35.808 118.899 34.736 120.499 32.592C122.099 30.416 122.899 27.408 122.899 23.568C122.899 19.696 122.163 16.832 120.691 14.976C119.219 13.12 117.267 12.192 114.835 12.192ZM129.743 24.864C129.743 20.704 130.751 17.488 132.767 15.216C134.783 12.944 137.807 11.808 141.839 11.808C144.815 11.808 147.839 12.336 150.911 13.392V36.576C150.879 44.192 147.551 48 140.927 48C137.279 48 134.159 46.816 131.567 44.448L131.903 44.16C134.655 46.464 137.663 47.616 140.927 47.616C145.343 47.616 147.551 43.936 147.551 36.576V31.824C146.943 32.944 145.935 33.936 144.527 34.8C143.119 35.664 141.455 36.096 139.535 36.096C133.007 35.936 129.743 32.192 129.743 24.864ZM139.583 35.712C141.727 35.712 143.567 35.136 145.103 33.984C146.639 32.832 147.455 31.696 147.551 30.576V13.632C145.247 12.672 143.295 12.192 141.695 12.192C138.847 12.192 136.703 13.312 135.263 15.552C133.823 17.76 133.103 20.864 133.103 24.864C133.103 32.096 135.263 35.712 139.583 35.712ZM168.514 13.68C168.002 13.264 167.17 12.912 166.018 12.624C164.898 12.336 164.05 12.192 163.474 12.192C162.898 12.192 162.562 12.192 162.466 12.192C160.738 12.224 159.49 12.672 158.722 13.536C157.954 14.368 157.57 15.312 157.57 16.368C157.57 17.424 157.906 18.32 158.578 19.056C159.25 19.76 160.082 20.32 161.074 20.736C162.098 21.12 163.186 21.568 164.338 22.08C165.522 22.592 166.61 23.12 167.602 23.664C168.626 24.176 169.474 24.944 170.146 25.968C170.818 26.96 171.154 28.208 171.154 29.712C171.154 31.216 170.626 32.496 169.57 33.552C168.514 34.608 167.33 35.312 166.018 35.664C164.738 36.016 163.346 36.192 161.842 36.192C158.578 36.192 156.13 35.472 154.498 34.032L154.786 33.744C155.426 34.352 156.37 34.848 157.618 35.232C158.898 35.616 160.13 35.808 161.314 35.808C163.202 35.808 164.754 35.296 165.97 34.272C167.218 33.216 167.842 31.92 167.842 30.384C167.842 28.816 167.378 27.568 166.45 26.64C165.522 25.68 164.386 24.944 163.042 24.432C161.73 23.888 160.402 23.36 159.058 22.848C157.714 22.304 156.578 21.568 155.65 20.64C154.722 19.68 154.258 18.576 154.258 17.328C154.258 16.08 154.546 15.072 155.122 14.304C155.698 13.504 156.466 12.944 157.426 12.624C159.058 12.08 160.69 11.808 162.322 11.808C165.074 11.808 167.218 12.32 168.754 13.344L168.514 13.68Z" fill="black"/>
<path d="M193.556 36H189.572V2.4H193.556V17.856H209.156V2.4H213.14V36H209.156V18.336H193.556V36ZM220.715 24.288C220.715 28.256 221.403 31.168 222.779 33.024C224.187 34.88 226.027 35.808 228.299 35.808C231.499 35.808 234.347 35.328 236.843 34.368L236.987 34.704C234.427 35.696 231.531 36.192 228.299 36.192C225.099 36.192 222.491 35.232 220.475 33.312C218.459 31.392 217.451 28.432 217.451 24.432C217.451 20.432 218.507 17.328 220.619 15.12C222.731 12.912 225.419 11.808 228.683 11.808C231.307 11.808 233.515 12.592 235.307 14.16C237.099 15.728 237.995 18.048 237.995 21.12C237.995 21.28 237.995 21.44 237.995 21.6H220.859C220.763 22.464 220.715 23.36 220.715 24.288ZM234.731 21.216C234.699 18.144 234.107 15.872 232.955 14.4C231.803 12.928 230.315 12.192 228.491 12.192C226.667 12.192 225.035 12.992 223.595 14.592C222.187 16.192 221.291 18.4 220.907 21.216H234.731ZM261.228 36C259.052 36 257.564 35.584 256.764 34.752C256.028 34.048 255.66 33.44 255.66 32.928V31.92C254.092 34.768 251.58 36.192 248.124 36.192C244.092 36.192 241.804 34.368 241.26 30.72C241.196 30.336 241.164 29.952 241.164 29.568C241.164 29.152 241.228 28.704 241.356 28.224C241.484 27.744 241.852 27.216 242.46 26.64C243.676 25.488 246.348 24.784 250.476 24.528C251.5 24.432 252.444 24.384 253.308 24.384C254.172 24.384 254.956 24.416 255.66 24.48V16.512C255.596 16.48 255.596 16.336 255.66 16.08C255.724 15.792 255.66 15.44 255.468 15.024C255.308 14.576 255.084 14.144 254.796 13.728C254.508 13.312 253.996 12.96 253.26 12.672C252.524 12.352 251.564 12.192 250.38 12.192C249.196 12.192 247.804 12.416 246.204 12.864C244.636 13.28 243.484 13.696 242.748 14.112L242.556 13.776C245.404 12.464 248.3 11.808 251.244 11.808C254.54 11.808 256.716 12.4 257.772 13.584C258.604 14.512 259.02 15.488 259.02 16.512V32.592C259.02 33.52 259.196 34.24 259.548 34.752C259.932 35.232 260.316 35.488 260.7 35.52L261.228 35.616H262.716V36H261.228ZM248.892 35.808C250.588 35.808 252.108 35.232 253.452 34.08C254.828 32.896 255.564 31.76 255.66 30.672V24.864C254.796 24.8 253.916 24.768 253.02 24.768C252.156 24.768 251.292 24.816 250.428 24.912C247.996 25.2 246.412 25.744 245.676 26.544C244.94 27.344 244.572 28.448 244.572 29.856C244.572 30.112 244.588 30.4 244.62 30.72C244.908 34.112 246.332 35.808 248.892 35.808ZM272.391 36C269.575 36 267.799 35.264 267.063 33.792C266.903 33.472 266.823 33.184 266.823 32.928V0.0479994H270.183V32.592C270.183 33.52 270.359 34.24 270.711 34.752C271.095 35.232 271.479 35.488 271.863 35.52L272.391 35.616H273.879V36H272.391ZM277.258 12.384V12H278.266V7.2H281.626V12H288.97V12.384H281.626V29.856C281.626 31.936 281.85 33.44 282.298 34.368C282.778 35.296 283.754 35.76 285.226 35.76C286.73 35.76 288.25 35.456 289.786 34.848L289.93 35.232C288.33 35.84 286.49 36.144 284.41 36.144C282.362 36.144 280.826 35.728 279.802 34.896C278.778 34.032 278.266 32.336 278.266 29.808V12.384H277.258ZM312.236 36C310.924 36 309.916 35.712 309.212 35.136C308.54 34.56 308.188 33.984 308.156 33.408L308.108 32.592V17.52C308.108 14.992 307.436 13.376 306.092 12.672C305.452 12.352 304.636 12.192 303.644 12.192C301.66 12.192 299.868 13.008 298.268 14.64C296.7 16.24 295.916 17.68 295.916 18.96V36H292.556V0.0479994H295.916V17.472C296.428 16.096 297.404 14.816 298.844 13.632C300.284 12.416 301.9 11.808 303.692 11.808C306.796 11.808 308.86 12.352 309.884 13.44C310.94 14.496 311.468 15.872 311.468 17.568V32.592C311.468 33.52 311.644 34.24 311.996 34.752C312.38 35.232 312.748 35.488 313.1 35.52L313.676 35.616H315.164V36H312.236Z" fill="#319795"/>
</svg>
