<svg width="709" height="91" viewBox="0 0 709 91" fill="none" xmlns="http://www.w3.org/2000/svg">
<path d="M0.454546 0.181816H10.5455L34.2727 58.1364H35.0909L58.8182 0.181816H68.9091V70H61V16.9545H60.3182L38.5 70H30.8636L9.04546 16.9545H8.36364V70H0.454546V0.181816ZM89.9517 89.6364C88.5881 89.6364 87.3722 89.5227 86.304 89.2955C85.2358 89.0909 84.4972 88.8864 84.0881 88.6818L86.1335 81.5909C88.0881 82.0909 89.8153 82.2727 91.3153 82.1364C92.8153 82 94.1449 81.3295 95.304 80.125C96.4858 78.9432 97.5653 77.0227 98.5426 74.3636L100.043 70.2727L80.679 17.6364H89.4062L103.861 59.3636H104.406L118.861 17.6364H127.588L105.361 77.6364C104.361 80.3409 103.122 82.5795 101.645 84.3523C100.168 86.1477 98.4517 87.4773 96.4972 88.3409C94.5653 89.2045 92.3835 89.6364 89.9517 89.6364ZM187.844 70H166.298V0.181816H188.798C195.571 0.181816 201.366 1.57954 206.185 4.375C211.003 7.14772 214.696 11.1364 217.264 16.3409C219.832 21.5227 221.116 27.7273 221.116 34.9545C221.116 42.2273 219.821 48.4886 217.23 53.7386C214.639 58.9659 210.866 62.9886 205.912 65.8068C200.957 68.6023 194.935 70 187.844 70ZM174.753 62.5H187.298C193.071 62.5 197.855 61.3864 201.651 59.1591C205.446 56.9318 208.276 53.7614 210.139 49.6477C212.003 45.5341 212.935 40.6364 212.935 34.9545C212.935 29.3182 212.014 24.4659 210.173 20.3977C208.332 16.3068 205.582 13.1705 201.923 10.9886C198.264 8.78409 193.707 7.68182 188.253 7.68182H174.753V62.5ZM255.48 71.0909C250.753 71.0909 246.605 69.9659 243.037 67.7159C239.491 65.4659 236.719 62.3182 234.719 58.2727C232.741 54.2273 231.753 49.5 231.753 44.0909C231.753 38.6364 232.741 33.875 234.719 29.8068C236.719 25.7386 239.491 22.5795 243.037 20.3295C246.605 18.0795 250.753 16.9545 255.48 16.9545C260.207 16.9545 264.344 18.0795 267.889 20.3295C271.457 22.5795 274.23 25.7386 276.207 29.8068C278.207 33.875 279.207 38.6364 279.207 44.0909C279.207 49.5 278.207 54.2273 276.207 58.2727C274.23 62.3182 271.457 65.4659 267.889 67.7159C264.344 69.9659 260.207 71.0909 255.48 71.0909ZM255.48 63.8636C259.071 63.8636 262.026 62.9432 264.344 61.1023C266.662 59.2614 268.378 56.8409 269.491 53.8409C270.605 50.8409 271.162 47.5909 271.162 44.0909C271.162 40.5909 270.605 37.3295 269.491 34.3068C268.378 31.2841 266.662 28.8409 264.344 26.9773C262.026 25.1136 259.071 24.1818 255.48 24.1818C251.889 24.1818 248.935 25.1136 246.616 26.9773C244.298 28.8409 242.582 31.2841 241.469 34.3068C240.355 37.3295 239.798 40.5909 239.798 44.0909C239.798 47.5909 240.355 50.8409 241.469 53.8409C242.582 56.8409 244.298 59.2614 246.616 61.1023C248.935 62.9432 251.889 63.8636 255.48 63.8636ZM312.625 90.7273C308.739 90.7273 305.398 90.2273 302.602 89.2273C299.807 88.25 297.477 86.9545 295.614 85.3409C293.773 83.75 292.307 82.0455 291.216 80.2273L297.625 75.7273C298.352 76.6818 299.273 77.7727 300.386 79C301.5 80.25 303.023 81.3295 304.955 82.2386C306.909 83.1705 309.466 83.6364 312.625 83.6364C316.852 83.6364 320.341 82.6136 323.091 80.5682C325.841 78.5227 327.216 75.3182 327.216 70.9545V60.3182H326.534C325.943 61.2727 325.102 62.4545 324.011 63.8636C322.943 65.25 321.398 66.4886 319.375 67.5795C317.375 68.6477 314.67 69.1818 311.261 69.1818C307.034 69.1818 303.239 68.1818 299.875 66.1818C296.534 64.1818 293.886 61.2727 291.932 57.4545C290 53.6364 289.034 49 289.034 43.5455C289.034 38.1818 289.977 33.5114 291.864 29.5341C293.75 25.5341 296.375 22.4432 299.739 20.2614C303.102 18.0568 306.989 16.9545 311.398 16.9545C314.807 16.9545 317.511 17.5227 319.511 18.6591C321.534 19.7727 323.08 21.0455 324.148 22.4773C325.239 23.8864 326.08 25.0455 326.67 25.9545H327.489V17.6364H335.261V71.5C335.261 76 334.239 79.6591 332.193 82.4773C330.17 85.3182 327.443 87.3977 324.011 88.7159C320.602 90.0568 316.807 90.7273 312.625 90.7273ZM312.352 61.9545C315.58 61.9545 318.307 61.2159 320.534 59.7386C322.761 58.2614 324.455 56.1364 325.614 53.3636C326.773 50.5909 327.352 47.2727 327.352 43.4091C327.352 39.6364 326.784 36.3068 325.648 33.4205C324.511 30.5341 322.83 28.2727 320.602 26.6364C318.375 25 315.625 24.1818 312.352 24.1818C308.943 24.1818 306.102 25.0455 303.83 26.7727C301.58 28.5 299.886 30.8182 298.75 33.7273C297.636 36.6364 297.08 39.8636 297.08 43.4091C297.08 47.0455 297.648 50.2614 298.784 53.0568C299.943 55.8295 301.648 58.0114 303.898 59.6023C306.17 61.1705 308.989 61.9545 312.352 61.9545ZM387.08 29.3636L379.852 31.4091C379.398 30.2045 378.727 29.0341 377.841 27.8977C376.977 26.7386 375.795 25.7841 374.295 25.0341C372.795 24.2841 370.875 23.9091 368.534 23.9091C365.33 23.9091 362.659 24.6477 360.523 26.125C358.409 27.5795 357.352 29.4318 357.352 31.6818C357.352 33.6818 358.08 35.2614 359.534 36.4205C360.989 37.5795 363.261 38.5455 366.352 39.3182L374.125 41.2273C378.807 42.3636 382.295 44.1023 384.591 46.4432C386.886 48.7614 388.034 51.75 388.034 55.4091C388.034 58.4091 387.17 61.0909 385.443 63.4545C383.739 65.8182 381.352 67.6818 378.284 69.0455C375.216 70.4091 371.648 71.0909 367.58 71.0909C362.239 71.0909 357.818 69.9318 354.318 67.6136C350.818 65.2955 348.602 61.9091 347.67 57.4545L355.307 55.5455C356.034 58.3636 357.409 60.4773 359.432 61.8864C361.477 63.2955 364.148 64 367.443 64C371.193 64 374.17 63.2045 376.375 61.6136C378.602 60 379.716 58.0682 379.716 55.8182C379.716 54 379.08 52.4773 377.807 51.25C376.534 50 374.58 49.0682 371.943 48.4545L363.216 46.4091C358.42 45.2727 354.898 43.5114 352.648 41.125C350.42 38.7159 349.307 35.7045 349.307 32.0909C349.307 29.1364 350.136 26.5227 351.795 24.25C353.477 21.9773 355.761 20.1932 358.648 18.8977C361.557 17.6023 364.852 16.9545 368.534 16.9545C373.716 16.9545 377.784 18.0909 380.739 20.3636C383.716 22.6364 385.83 25.6364 387.08 29.3636Z" fill="#121111"/>
<path d="M428.236 70V0.181816H436.69V31.2727H473.918V0.181816H482.372V70H473.918V38.7727H436.69V70H428.236ZM520.162 71.0909C515.116 71.0909 510.764 69.9773 507.105 67.75C503.469 65.5 500.662 62.3636 498.685 58.3409C496.73 54.2955 495.753 49.5909 495.753 44.2273C495.753 38.8636 496.73 34.1364 498.685 30.0455C500.662 25.9318 503.412 22.7273 506.935 20.4318C510.48 18.1136 514.616 16.9545 519.344 16.9545C522.071 16.9545 524.764 17.4091 527.423 18.3182C530.082 19.2273 532.503 20.7045 534.685 22.75C536.866 24.7727 538.605 27.4545 539.901 30.7955C541.196 34.1364 541.844 38.25 541.844 43.1364V46.5455H501.48V39.5909H533.662C533.662 36.6364 533.071 34 531.889 31.6818C530.73 29.3636 529.071 27.5341 526.912 26.1932C524.776 24.8523 522.253 24.1818 519.344 24.1818C516.139 24.1818 513.366 24.9773 511.026 26.5682C508.707 28.1364 506.923 30.1818 505.673 32.7045C504.423 35.2273 503.798 37.9318 503.798 40.8182V45.4545C503.798 49.4091 504.48 52.7614 505.844 55.5114C507.23 58.2386 509.151 60.3182 511.605 61.75C514.06 63.1591 516.912 63.8636 520.162 63.8636C522.276 63.8636 524.185 63.5682 525.889 62.9773C527.616 62.3636 529.105 61.4545 530.355 60.25C531.605 59.0227 532.571 57.5 533.253 55.6818L541.026 57.8636C540.207 60.5 538.832 62.8182 536.901 64.8182C534.969 66.7955 532.582 68.3409 529.741 69.4545C526.901 70.5455 523.707 71.0909 520.162 71.0909ZM569.491 71.2273C566.173 71.2273 563.162 70.6023 560.457 69.3523C557.753 68.0795 555.605 66.25 554.014 63.8636C552.423 61.4545 551.628 58.5455 551.628 55.1364C551.628 52.1364 552.219 49.7045 553.401 47.8409C554.582 45.9545 556.162 44.4773 558.139 43.4091C560.116 42.3409 562.298 41.5455 564.685 41.0227C567.094 40.4773 569.514 40.0455 571.946 39.7273C575.128 39.3182 577.707 39.0114 579.685 38.8068C581.685 38.5795 583.139 38.2045 584.048 37.6818C584.98 37.1591 585.446 36.25 585.446 34.9545V34.6818C585.446 31.3182 584.526 28.7045 582.685 26.8409C580.866 24.9773 578.105 24.0455 574.401 24.0455C570.56 24.0455 567.548 24.8864 565.366 26.5682C563.185 28.25 561.651 30.0455 560.764 31.9545L553.128 29.2273C554.491 26.0455 556.31 23.5682 558.582 21.7955C560.878 20 563.378 18.75 566.082 18.0455C568.81 17.3182 571.491 16.9545 574.128 16.9545C575.81 16.9545 577.741 17.1591 579.923 17.5682C582.128 17.9545 584.253 18.7614 586.298 19.9886C588.366 21.2159 590.082 23.0682 591.446 25.5455C592.81 28.0227 593.491 31.3409 593.491 35.5V70H585.446V62.9091H585.037C584.491 64.0455 583.582 65.2614 582.31 66.5568C581.037 67.8523 579.344 68.9545 577.23 69.8636C575.116 70.7727 572.537 71.2273 569.491 71.2273ZM570.719 64C573.901 64 576.582 63.375 578.764 62.125C580.969 60.875 582.628 59.2614 583.741 57.2841C584.878 55.3068 585.446 53.2273 585.446 51.0455V43.6818C585.105 44.0909 584.355 44.4659 583.196 44.8068C582.06 45.125 580.741 45.4091 579.241 45.6591C577.764 45.8864 576.321 46.0909 574.912 46.2727C573.526 46.4318 572.401 46.5682 571.537 46.6818C569.446 46.9545 567.491 47.3977 565.673 48.0114C563.878 48.6023 562.423 49.5 561.31 50.7045C560.219 51.8864 559.673 53.5 559.673 55.5455C559.673 58.3409 560.707 60.4545 562.776 61.8864C564.866 63.2955 567.514 64 570.719 64ZM616.222 0.181816V70H608.176V0.181816H616.222ZM653.73 17.6364V24.4545H626.594V17.6364H653.73ZM634.503 5.09091H642.548V55C642.548 57.2727 642.878 58.9773 643.537 60.1136C644.219 61.2273 645.082 61.9773 646.128 62.3636C647.196 62.7273 648.321 62.9091 649.503 62.9091C650.389 62.9091 651.116 62.8636 651.685 62.7727C652.253 62.6591 652.707 62.5682 653.048 62.5L654.685 69.7273C654.139 69.9318 653.378 70.1364 652.401 70.3409C651.423 70.5682 650.185 70.6818 648.685 70.6818C646.412 70.6818 644.185 70.1932 642.003 69.2159C639.844 68.2386 638.048 66.75 636.616 64.75C635.207 62.75 634.503 60.2273 634.503 57.1818V5.09091ZM675.003 38.5V70H666.957V0.181816H675.003V25.8182H675.685C676.912 23.1136 678.753 20.9659 681.207 19.375C683.685 17.7614 686.98 16.9545 691.094 16.9545C694.662 16.9545 697.787 17.6705 700.469 19.1023C703.151 20.5114 705.23 22.6818 706.707 25.6136C708.207 28.5227 708.957 32.2273 708.957 36.7273V70H700.912V37.2727C700.912 33.1136 699.832 29.8977 697.673 27.625C695.537 25.3295 692.571 24.1818 688.776 24.1818C686.139 24.1818 683.776 24.7386 681.685 25.8523C679.616 26.9659 677.98 28.5909 676.776 30.7273C675.594 32.8636 675.003 35.4545 675.003 38.5Z" fill="#319795"/>
</svg>
