<svg width="130" height="150" viewBox="0 0 150 144" fill="none" xmlns="http://www.w3.org/2000/svg">
<path d="M84.3199 52.6487C84.3114 51.1164 83.5623 49.6494 82.2367 48.5696C80.9112 47.4897 79.1175 46.8852 77.2492 46.8886H72.7508C70.8825 46.8852 69.0888 47.4897 67.7633 48.5696C66.4377 49.6494 65.6885 51.1164 65.6801 52.6487V64.4113H51.1572C49.2889 64.4079 47.4953 65.0125 46.1698 66.0923C44.8444 67.1722 44.0952 68.6391 44.0868 70.1714V73.8218C44.0952 75.354 44.8444 76.821 46.1698 77.9008C47.4953 78.9807 49.2889 79.5853 51.1572 79.5819H65.6801V91.3444C65.6885 92.8767 66.4377 94.3437 67.7633 95.4236C69.0888 96.5034 70.8825 97.108 72.7508 97.1046H77.2492C79.1175 97.108 80.9112 96.5034 82.2367 95.4236C83.5623 94.3437 84.3114 92.8767 84.3199 91.3444V79.5819H98.8428C100.711 79.5853 102.505 78.9807 103.83 77.9008C105.156 76.821 105.905 75.354 105.913 73.8218V70.1714C105.905 68.6391 105.156 67.1722 103.83 66.0923C102.505 65.0125 100.711 64.4079 98.8428 64.4113H84.3199V52.6487ZM98.8428 68.6302C99.3472 68.6256 99.8333 68.7852 100.194 69.0742C100.556 69.3631 100.762 69.7577 100.769 70.1714V73.8218C100.762 74.2355 100.556 74.6301 100.194 74.919C99.8333 75.2079 99.3472 75.3676 98.8428 75.363H81.7479C81.4101 75.3629 81.0756 75.4175 80.7636 75.5235C80.4515 75.6295 80.168 75.7849 79.9291 75.9808C79.6903 76.1767 79.5008 76.4092 79.3716 76.6651C79.2423 76.9211 79.1758 77.1954 79.1758 77.4724V91.3444C79.1689 91.7582 78.9622 92.1528 78.601 92.4417C78.2398 92.7306 77.7537 92.8902 77.2492 92.8856H72.7508C72.2463 92.8902 71.7602 92.7306 71.399 92.4417C71.0378 92.1528 70.8311 91.7582 70.8241 91.3444V77.4724C70.8242 77.1954 70.7577 76.9211 70.6284 76.6651C70.4992 76.4092 70.3097 76.1767 70.0709 75.9808C69.832 75.7849 69.5485 75.6295 69.2364 75.5235C68.9244 75.4175 68.5899 75.3629 68.2521 75.363H51.1572C50.6527 75.3676 50.1667 75.2079 49.8055 74.919C49.4444 74.6301 49.2377 74.2355 49.2309 73.8218V70.1714C49.2377 69.7577 49.4444 69.3631 49.8055 69.0742C50.1667 68.7852 50.6527 68.6256 51.1572 68.6302H68.2521C68.5899 68.6302 68.9244 68.5757 69.2364 68.4697C69.5485 68.3637 69.832 68.2083 70.0709 68.0124C70.3097 67.8165 70.4992 67.584 70.6284 67.328C70.7577 67.0721 70.8242 66.7978 70.8241 66.5207V52.6487C70.8311 52.235 71.0378 51.8404 71.399 51.5515C71.7602 51.2626 72.2463 51.1029 72.7508 51.1076H77.2492C77.7537 51.1029 78.2398 51.2626 78.601 51.5515C78.9622 51.8404 79.1689 52.235 79.1758 52.6487V66.5207C79.1758 66.7978 79.2423 67.0721 79.3716 67.328C79.5008 67.584 79.6903 67.8165 79.9291 68.0124C80.168 68.2083 80.4515 68.3637 80.7636 68.4697C81.0756 68.5757 81.4101 68.6302 81.7479 68.6302H98.8428ZM133.84 31.0895C121.716 30.5995 109.803 28.3014 98.683 24.3079C90.8528 21.4942 83.4982 17.8632 76.8018 13.5048C76.3404 13.2044 75.7673 13.0431 75.1783 13.0476C74.5893 13.0522 74.02 13.2224 73.5656 13.5298C67.2089 17.8305 60.1956 21.4331 52.7031 24.2464C41.2217 28.5518 28.814 30.9488 16.1967 31.2991C15.5312 31.3189 14.9009 31.5496 14.4385 31.9428C13.9762 32.336 13.7178 32.861 13.7178 33.4072V60.0794C13.6771 71.8129 17.0372 83.3863 23.521 93.8456C34.1338 110.934 52.188 124.129 74.1045 130.814C74.6822 130.99 75.3178 130.99 75.8955 130.814C97.8121 124.129 115.866 110.934 126.479 93.8456C132.963 83.3863 136.323 71.8129 136.282 60.0794V33.1962C136.282 32.6553 136.029 32.135 135.574 31.7429C135.12 31.3508 134.499 31.1169 133.84 31.0895ZM131.138 60.0794C131.177 71.1504 128.007 82.0704 121.89 91.9394C112.012 107.84 95.3097 120.179 75 126.581C54.6905 120.179 37.9879 107.839 28.1098 91.9394C21.9928 82.0704 18.8231 71.1504 18.8619 60.0794V35.4175C31.3069 34.8238 43.5087 32.3364 54.8444 28.0824C62.1153 25.3523 68.9605 21.9164 75.2331 17.8484C81.8363 21.9742 89.0155 25.4399 96.6187 28.1722C107.555 32.1017 119.229 34.4713 131.138 35.1788L131.138 60.0794ZM148.224 22.2671C147.662 21.8325 146.998 21.496 146.273 21.2779C145.547 21.0599 144.776 20.9649 144.004 20.9986C130.359 21.6194 116.726 19.6208 104.187 15.1619C94.8532 11.8079 86.3238 7.11456 79.0004 1.30252C77.924 0.454712 76.4851 -0.0128789 74.9928 0.000269987C73.5006 0.0134189 72.0742 0.506258 71.0204 1.37284C64.0993 7.13183 55.9575 11.8091 46.9934 15.1759C31.0844 21.1492 15.9834 21.6749 6.11529 21.0651C5.33492 21.0163 4.55068 21.1003 3.81171 21.3117C3.07274 21.5231 2.39498 21.8574 1.8209 22.2937C1.24681 22.7299 0.788784 23.2587 0.475516 23.847C0.162249 24.4352 0.00049547 25.0701 0.000392822 25.712V61.2388C-0.0448729 74.7392 3.82252 88.0551 11.2838 100.089C17.7121 110.447 26.5864 119.655 37.391 127.176C48.1955 134.697 60.715 140.383 74.2217 143.901C74.7281 144.033 75.2719 144.033 75.7783 143.901C89.285 140.383 101.804 134.697 112.609 127.176C123.414 119.655 132.288 110.447 138.716 100.089C146.177 88.055 150.045 74.7391 150 61.2388V25.6519C149.998 25.0185 149.84 24.3919 149.535 23.8101C149.23 23.2283 148.784 22.7034 148.224 22.2671ZM144.856 61.2388C144.899 74.0766 141.222 86.739 134.127 98.1824C121.895 117.889 100.631 132.811 75 139.674C49.3691 132.811 28.1047 117.889 15.8726 98.1824C8.77802 86.739 5.10094 74.0766 5.14442 61.2388V25.712C5.1436 25.6514 5.15841 25.5913 5.18791 25.5358C5.2174 25.4802 5.2609 25.4303 5.31555 25.3895C5.41501 25.3127 5.54664 25.2701 5.68327 25.2706C5.69802 25.2706 5.71307 25.2712 5.72848 25.272C16.1984 25.9194 32.2287 25.3591 49.1347 19.0119C58.6648 15.4329 67.3208 10.4607 74.6792 4.33846C74.779 4.25797 74.9133 4.21282 75.0533 4.21271C75.1932 4.21261 75.3277 4.25756 75.4277 4.3379C83.1896 10.4977 92.2299 15.4718 102.123 19.026C115.4 23.7501 129.837 25.8679 144.287 25.211C144.36 25.2083 144.433 25.2175 144.502 25.2381C144.571 25.2588 144.634 25.2905 144.688 25.3313C144.741 25.3722 144.784 25.4218 144.813 25.477C144.842 25.5322 144.856 25.5918 144.856 25.6519L144.856 61.2388Z" fill="black"/>
</svg>
