<svg width="497" height="411" viewBox="0 0 497 411" fill="none" xmlns="http://www.w3.org/2000/svg">
<path fill-rule="evenodd" clip-rule="evenodd" d="M451.638 388.739C454.441 390.343 457.062 390.342 459.819 391.59C462.555 392.83 463.269 397.969 465.609 398.582C454.761 399.852 444.076 402.542 433.096 401.204C434.047 396.895 432.339 392.484 434.627 388.44C440.741 382.005 444.717 384.777 451.638 388.739ZM405.829 92.5434C405.97 95.5734 406.171 96.7776 408.105 98.7323C409.62 100.264 410.472 97.9806 410.616 100.972C410.699 102.697 409.087 103.563 408.463 104.958C405.353 111.906 407.5 120.88 409.028 127.801C412.127 141.835 419.696 157.094 414.363 171.358C413.825 172.797 413.393 175.915 412.355 177.016C410.985 176.211 409.985 176.563 409.354 178.071C408.976 178.545 408.597 179.018 408.219 179.49C405.822 181.956 403.271 182.873 400.089 181.562C393.675 178.921 392.614 170.633 392.581 164.109C392.543 156.919 393.92 149.388 395.392 142.383C396.101 139.01 397.192 135.094 395.16 131.912C393.241 128.907 390.87 130.601 388.981 129.259C386.969 127.831 389.867 117.336 387.885 114.553C384.424 109.693 383.219 121.581 383.163 124.009C383.103 126.668 383.233 129.771 384.36 132.182C385.245 134.076 388.126 135.738 388.621 137.65C389.083 139.437 387.055 144.079 386.742 145.997C386.26 148.951 386.092 151.97 385.954 154.964C385.486 165.081 386.913 175.728 393.173 183.579C395.918 187.022 400.57 190.931 404.923 190.304C408.764 189.751 412.625 187.443 416.208 185.875C418.617 196.172 422.237 206.144 426.093 215.868C429.445 224.32 432.595 232.977 436.117 241.326C443.537 258.924 455.582 273.916 464.993 290.187C474.079 305.896 479.174 323.923 480.396 342.469C480.685 346.854 479.534 352.855 480.452 356.955C481.313 360.799 482.069 362.469 481.505 366.661C480.879 371.32 479.665 375.616 480.187 380.356C480.649 384.562 482.451 390.828 480.482 394.724C478.116 391.921 475.756 390.601 474.321 386.861C472.864 383.066 473.437 379.947 470.135 378.28C467.314 376.855 465.29 377.165 462.801 374.832C459.777 371.999 457.716 368.536 456.226 364.479C453.683 357.557 453.315 350.052 455.465 342.943C457.189 337.243 462.224 326.573 469.283 330.392C468.234 327.997 467.537 325.392 465.536 323.836C463.794 322.48 461.19 322.039 459.244 320.497C457.069 318.774 454.607 316.935 452.18 315.675C451.237 315.186 450.345 314.94 449.371 314.606C448.204 314.205 445.989 314.492 445.844 314.468C441.675 313.767 437.025 311.534 434.479 308.17C432.563 305.637 430.869 303.273 429.406 300.375C427.506 296.614 426.775 296.841 423.131 295.948C417.835 294.651 414.475 293.766 410.239 289.395C405.54 284.548 402.102 278.508 398.664 272.56C396.65 269.075 394.88 268.862 391.597 267.471C389.688 266.662 387.045 263.041 385.308 262.772C384.806 262.695 382.404 263.911 381.592 264.056C380.139 264.318 378.879 264.271 377.424 264.101C374.085 263.712 371.134 262.728 368.89 259.822C361.977 250.874 359.87 229.78 369.334 222.167C371.137 220.717 373.649 220.049 374.713 217.64C375.933 214.876 375.378 209.669 375.28 206.754C375.169 203.428 375.028 199.808 374.582 196.529C374.376 195.022 374.223 194.389 373.67 192.88C372.573 189.887 372.252 190.323 369.993 189.603C366.771 188.578 365.314 188.981 363.339 185.579C361.763 182.865 361.026 179.447 360.883 176.238C360.749 173.244 361.963 170.478 360.949 167.766C359.465 163.798 356.714 160.795 355.508 156.453C354.491 152.796 351.865 144.633 354.453 141.259C355.613 139.747 357.673 139.526 358.822 137.502C360.826 133.979 361.635 132.052 364.608 129.275C366.802 127.226 368.908 124.173 371.553 122.92C374.153 121.688 376.607 123.671 378.718 123.127C381.02 122.534 380.414 116.597 381.053 113.924C381.914 110.319 383.761 106.561 385.997 103.748C386.744 102.808 387.675 102.628 388.256 101.379C389.045 99.6872 388.732 97.2769 389.346 95.4274C390.079 93.2172 391.859 89.4124 393.849 88.2009C399.661 84.6612 401.407 93.7823 405.829 92.5434ZM392.227 354.293C393.047 356.75 392.593 360.701 393.537 362.816C394.289 364.502 397.308 365.571 398.788 367.581C401.957 371.885 403.164 378.799 402.014 384.113C398.135 383.048 395.542 382.367 391.599 382.928C391.201 373.296 391.573 363.922 392.227 354.293ZM344.295 361.552C346.934 364.825 348.243 368.682 347.862 373.058C347.725 374.615 347.297 376.799 346.885 378.295C346.432 379.937 344.179 383.012 345.053 383.892C342.592 383.728 339.7 384.046 337.926 382.276C336.334 380.686 335.22 376.59 334.574 374.42C335.817 371.66 337.06 368.901 338.303 366.142C339.112 367.57 341.489 371.3 343.451 370.106C344.929 369.208 343.736 363.368 344.295 361.552ZM436.905 336.04C439.925 339.161 440.957 344.788 440.803 349.156C440.853 355.177 438.979 367.228 431.943 367.632C426.288 367.956 420.257 358.948 419.621 353.38C418.924 347.276 420.739 332.679 427.933 331.423C430.582 330.961 434.997 334.066 436.905 336.04ZM386.362 343.824C386.483 347.771 386.542 351.568 386.261 355.501C386.026 358.789 386.808 362.673 386.147 365.821C381.964 360.615 376.453 354.946 376.62 347.294C376.778 340.06 382.165 340.675 386.362 343.824ZM344.201 256.85L347.703 261.119C347.803 267.118 347.696 273.049 349.338 278.833C351.066 284.919 353.961 290.784 356.827 296.287C362.398 306.983 363.727 317.071 364.398 329.303C353.921 324.081 348.206 306.238 344.749 295.076C342.919 289.168 341.02 283.254 339.294 277.308C337.591 271.444 334.582 263.783 336.563 257.606C340.369 260.719 342.015 262.323 344.201 256.85ZM409.494 298.952C414.61 303.478 414.997 310.404 416.834 316.733C415.775 317.674 414.612 318.503 413.655 319.575C413.064 320.238 411.672 322.951 411.218 323.23C409.405 324.344 407.822 322.913 406.051 321.115C402.565 317.574 400.389 310.058 400.552 304.86C400.743 298.789 404.602 294.623 409.494 298.952ZM481.079 272.355C487.729 276.593 485.994 288.317 485.165 294.931C484.644 299.076 485.798 303.293 485.717 307.237C485.628 311.688 483.552 310.766 482.224 313.528C481.071 310.178 478.956 306.145 478.475 302.632L477.71 300.409C478.358 300.121 478.701 299.618 478.741 298.902C479.013 297.2 479.009 295.464 479.095 293.728C479.447 286.555 479.934 279.429 481.079 272.355ZM379.758 280.273C379.022 283.395 378.483 289.269 374.348 287.459C371.084 286.029 370.297 280.261 370.289 277.045C370.284 274.406 370.674 269.556 373.994 269.398C378.068 269.203 379.523 277.224 379.758 280.273ZM348.281 193.36C345.53 198.261 343.621 205.5 344.92 211.303C346.285 217.396 350.528 218.871 354.302 214.387C357.417 219.842 351.031 229.557 345.322 224.37C344.088 223.25 343.26 221.105 341.734 220.406C340.483 219.834 339.375 220.612 338.097 220.289C334.168 219.295 332.685 215.003 331.141 211.4C331.565 208.463 332.014 205.552 332.585 202.644C332.889 201.098 333.206 199.554 333.513 198.009C334.037 195.383 333.874 195.711 335.585 194.41C340.099 190.979 343.203 190.81 348.281 193.36ZM350.611 196.005L353.912 204.172C352.114 203.689 350.154 209.694 348.979 210.864C348.429 205.867 349.746 200.864 350.611 196.005ZM348.781 168.111C351.767 169.51 352.36 175.572 352.466 178.505C351.645 181.592 350.879 185.542 347.409 183.368C345.095 181.916 344.102 177.136 344.023 174.525C343.924 171.251 345.029 166.352 348.781 168.111Z" fill="#FF5678"/>
<path fill-rule="evenodd" clip-rule="evenodd" d="M326.42 97.1914C325.191 97.8063 327.537 102.401 327.902 103.244C328.855 105.445 330.017 109.991 332.273 108.74C330.322 104.891 328.371 101.041 326.42 97.1914ZM37.7155 363.789C36.0709 362.978 33.8713 369.957 33.5783 371.374C32.7609 375.325 33.4449 377.978 36.2874 380.532C35.1108 374.887 36.5203 369.264 37.7155 363.789ZM417.361 64.9317C415.316 61.9784 412.361 56.4949 408.229 59.3978C406.597 60.5448 405.341 64.2214 404.334 66.0174C402.754 68.8369 401.224 71.5513 400.021 74.5868C402.064 73.6526 403.269 71.6212 405.095 70.5107C406.344 69.7523 407.482 69.6793 408.684 69.1264C411.343 67.9052 414.984 66.7076 417.361 64.9317ZM83.8867 355.921C84.9934 360.739 86.0169 365.543 86.8731 370.423C87.4521 373.726 89.398 378.391 88.3827 381.622C91.0131 381.229 93.6435 380.836 96.274 380.443C94.3226 375.503 93.2958 370.232 92.7163 364.895C92.3614 361.629 92.8163 360.698 90.6041 358.881C88.8912 357.474 85.8753 356.797 83.8867 355.921ZM69.3376 171.504C74.3951 177.136 78.8183 183.555 84.1929 188.801C86.9857 191.528 89.8485 194.178 92.7146 196.808C95.1449 199.037 99.0099 203.953 102.173 204.635C102.564 202.839 103.488 199.896 103.241 198.054C104.164 196.992 103.877 196.217 102.381 195.726C101.466 194.944 100.561 194.148 99.6649 193.338C96.1493 190.074 92.8223 186.528 89.491 183.036C86.1793 179.566 83.1158 175.935 80.241 172.014C78.7265 169.949 77.8407 167.879 75.3568 167.272C72.406 166.551 71.424 169.111 69.3376 171.504ZM170.416 380.593C170.273 383.653 177.038 385.528 179.094 385.712C184.65 386.208 188.258 383.497 190.17 378.153C194.15 367.028 200.523 357.227 203.188 345.529C203.979 342.058 204.664 340.479 201.846 338.71C200.69 337.985 197.679 336.368 196.422 337.291C195.225 338.17 194.245 342.124 193.475 343.561C192.253 345.844 190.864 348.016 189.538 350.225C183.332 360.558 177.079 370.621 170.416 380.593ZM90.1301 227.39L116.103 243.91C117.186 239.751 117.684 235.414 118.7 231.222C119.422 228.243 121.282 224.034 121.164 221.418C120.989 217.513 118.27 212.329 117.085 208.606C115.607 203.967 114.13 199.327 112.653 194.688C110.652 196.816 108.348 198.303 108.324 201.075C108.31 202.66 109.26 203.649 108.709 205.445C108.323 206.704 106.679 208.377 105.885 209.313C103.567 212.05 103.639 212.186 101.202 209.627C97.5118 215.548 93.8207 221.469 90.1301 227.39ZM118.705 304.847C119.076 300.867 119.554 297.052 120.358 293.146C120.853 290.747 122.943 285.82 122.256 283.56C121.751 281.899 118.748 280.455 117.578 279.551C114.195 276.936 110.891 274.185 107.541 271.517C104.604 269.178 101.623 266.894 98.7415 264.47C96.0722 262.226 94.0574 259.434 90.8272 258.472C88.001 257.63 84.4149 258.18 81.4876 258.071C77.5591 257.926 73.57 257.878 69.6454 258.091C56.4747 258.809 41.72 257.784 29.0489 261.87C23.0604 263.801 19.1997 264.938 15.8519 271.248C11.9804 278.546 8.67252 286.128 5.8562 294.011C5.44504 295.163 4.51556 296.823 4.5501 298.081C4.61889 300.482 5.39146 299.929 7.46201 301.299C9.69933 302.778 11.8924 304.535 14.0296 306.201C17.6945 309.059 22.2446 312.042 26.0467 314.27C30.6214 316.951 35.23 319.355 39.8834 322.055C42.8321 323.766 45.884 325.165 48.7764 327.045C51.9164 329.086 55.432 329.668 58.817 331.262C69.2982 336.198 79.4422 340.76 89.7277 346.392C99.7672 351.889 109.922 356.535 120.194 361.384C133.47 367.65 146.614 373.446 160.46 377.779C161.473 378.097 163.605 379.216 164.606 379.165C166.746 379.055 167.231 377.315 168.517 375.354C171.044 371.501 173.478 367.574 175.896 363.635C181.138 355.091 186.265 346.451 191.91 338.224C175.915 333.259 161.083 324.099 147.023 314.698C146.424 316.57 145.947 320.716 144.028 321.342C141.655 322.116 139.931 318.459 138.868 316.778C137.861 319.566 136.139 328.969 132.917 328.764C128.466 328.479 129.252 320.686 128.698 317.594C126.244 321.222 123.4 325.393 120.065 319.814C117.754 315.947 118.011 309.159 118.705 304.847ZM304.032 260.406C301.969 259.689 299.92 259.051 297.903 258.248C297.372 256.996 296.491 256.617 295.261 257.109C294.252 257.21 293.272 257.071 292.319 256.692C288.105 255.891 283.437 254.851 279.411 253.5C275.825 252.296 272.444 251.233 268.801 250.329C266.638 249.792 257.002 246.759 255.577 248.544C255.139 249.093 255.893 255.751 255.787 256.937C255.598 259.047 255.505 262.52 254.303 264.277C253.842 264.951 252.087 265.698 251.453 266.222C249.392 267.927 247.488 270.045 245.438 271.813C240.963 275.672 236.603 279.676 232.036 283.409C228.809 286.046 225.114 287.352 221.529 289.269C224.08 289.776 229.071 287.046 231.646 286.199C234.981 285.102 238.253 283.882 241.663 282.878C248.656 280.818 255.821 278.493 262.928 276.299C267.293 274.953 271.904 273.55 276.135 271.767C278.012 270.975 279.486 269.136 280.726 271.008C281.715 272.503 280.518 274.469 279.757 275.576C275.321 282.035 263.271 283.607 256.822 286.287C249.544 289.31 242.362 292.494 234.868 294.618C226.115 297.099 216.615 298.997 208.459 303.354C201.693 306.968 194.027 308.369 186.833 310.49C180.077 312.482 172.064 312.881 165.679 316.263C168.437 318.686 172.518 319.949 175.733 321.579C179.669 323.573 183.645 325.392 187.538 327.506C189.194 328.405 190.928 329.742 192.604 330.489C194.732 331.439 194.46 330.938 196.657 330.745C200.078 330.446 204.694 329.762 207.473 332.533C210.825 335.875 208.701 339.536 209.193 343.625C209.531 346.428 209.703 345.979 212.501 346.407C215.077 346.8 217.65 347.26 220.191 347.872C223.328 348.629 226.538 349.897 229.593 350.991C234.331 352.687 234.846 354.683 239.784 352.494C253.848 346.259 268.395 341.133 282.549 335.233C289.068 332.516 295.616 327.274 301.752 323.336C309.626 318.283 316.744 312.817 322.075 304.405C324.505 300.571 327.039 294.094 326.528 289.334C326.071 285.077 323.24 280.345 321.415 276.684C319.084 272.011 317.032 270.198 313.466 267.093C310.987 264.935 307.158 260.377 304.032 260.406ZM147.401 296.58C147.62 298.93 146.385 308.617 147.608 310.107C149.699 312.655 154.829 309.681 156.814 308.922C163.261 306.457 170.755 306.996 177.32 305.044C183.69 303.15 189.919 300.696 196.324 298.767C199.76 297.731 203.021 296.108 206.4 294.875C210.162 293.503 214.362 292.75 217.851 290.686C217.419 289.492 202.323 292.364 200.607 292.519C194.648 293.057 189.038 292.035 183.165 290.833C170.21 288.183 158.004 281.898 145.216 277.821C145.815 284.381 162.412 285.687 160.434 293.3C159.883 295.422 152.458 298.89 150.003 297.559C145.014 294.853 151.117 291.045 153.603 290.096C149.818 287.682 146.196 285.063 142.741 282.088C139.042 278.904 137.451 274.436 135.468 269.826C131.324 260.187 121.518 254.58 113.9 248.58C105.663 242.092 96.8929 236.576 88.661 230.103C87.1918 228.947 86.5057 229.477 85.9895 227.367C85.4373 225.108 87.4663 222.237 88.451 220.514C91.0394 215.983 94.0542 211.694 97.4736 207.902C93.064 204.563 88.3007 201.808 84.1656 198.029C79.9742 194.199 76.5055 189.523 72.8079 185.138C66.9007 199.436 58.6218 212.697 52.1203 226.719C49.5522 232.257 48.1946 240.633 52.1001 246C56.21 251.648 63.8739 249.45 69.6755 249.749C75.7986 250.065 81.3842 250.837 87.4237 252.769C90.1558 253.643 92.643 253.385 95.269 254.788C98.3489 256.434 101.378 258.548 104.308 260.499C110.07 264.336 115.454 269.139 120.895 273.516C123.127 275.312 135.229 285.956 125.657 284.312C125.657 294.273 124.088 304.473 123.264 314.386C125.535 311.37 127.154 308.306 128.527 304.683C129.344 302.527 129.354 297.027 132.077 298.331C136.172 300.291 132.982 314.701 132.982 318.599C133.997 316.418 134.708 314.069 135.438 311.758C135.991 310.007 136.683 305.043 137.838 303.868C141.703 299.938 142.245 310.657 142.245 312.894C143.497 308.942 143.727 304.725 143.853 300.55C143.902 298.903 143.536 296.34 143.91 294.747C144.533 292.091 144.459 292.264 146.959 291.141C147.107 292.954 147.254 294.767 147.401 296.58ZM266.815 380.637C267.122 384.007 268.294 386.446 266.302 389.477C270.153 389.171 273.943 388.794 277.8 388.903C280.896 388.991 285.527 389.778 288.416 388.303C289.594 387.702 289.994 388.736 290.599 387.588C291.174 386.497 289.824 382.876 289.661 381.978C288.883 377.667 288.503 373.245 287.796 368.907C287.31 365.926 285.883 360.062 287.677 357.245C290.316 353.099 291.478 358.939 292.165 361.532C294.429 370.074 294.298 378.187 294.298 386.964C297.708 386.964 302.189 385.307 305.477 384.308C310.014 382.929 314.858 381.512 319.253 379.711C323.399 378.014 327.049 375.537 329.671 371.55C331.631 368.567 335.978 361.208 334.898 357.911C333.574 353.868 327.262 351.088 323.89 350.643C319.516 350.066 315.034 351.043 310.558 351.454C305.767 351.893 301.118 353.08 296.378 353.651C291.774 354.205 285.595 355.914 281.123 354.633C281.006 356.68 282.545 359.431 283.081 361.514C283.783 364.246 284.41 367.003 284.981 369.772C285.591 372.736 289.372 383.393 285.934 385.523C281.898 388.024 279.972 377.315 279.469 374.705C278.271 368.481 277.241 362.262 278.496 356.005C273.345 354.972 267.132 356.506 261.82 356.913C263.799 364.667 265.076 372.788 266.815 380.637ZM44.9562 384.008C46.7474 384.894 49.2089 384.418 51.1558 384.589C54.1985 384.854 57.2724 385.466 60.3353 385.357C65.0089 385.192 69.9084 384.534 74.5859 383.94C71.9177 378.587 70.2988 373.519 69.9658 367.384C69.8461 365.181 68.7947 351.513 72.4503 352.098C74.2141 352.38 73.8396 364.05 74.1818 366.2C74.6794 369.319 75.3213 372.512 76.1026 375.565C76.6696 377.779 78.5985 381.096 78.1043 383.491C80.4624 383.066 82.8211 382.641 85.1798 382.215C83.346 378.148 82.0064 374.504 81.3197 369.967C80.9878 367.778 81.1994 365.053 80.5559 362.973C80.1502 361.663 79.2251 360.43 79.1015 359.331C78.9588 358.063 80.2076 354.947 79.7456 353.821C79.2918 352.713 76.1321 351.689 75.0249 351.078C71.9735 349.397 70.1851 348.971 66.7651 349.938C60.1685 351.803 49.7753 353.126 44.8556 358.156C39.9818 363.139 38.2082 379.947 44.9562 384.008ZM333.051 141.102C334.877 140.872 336.684 140.731 338.52 140.625C335.838 136.428 333.402 132.04 331.179 127.524C330.089 125.311 329.06 123.063 328.075 120.791C326.943 118.184 326.975 116.481 324.517 115.963C321.115 115.246 316.564 116.679 313.064 116.516C310.36 116.39 304.288 113.559 302.109 114.585C304.096 119.114 302.501 126.16 302.579 131.034C302.657 135.882 302.115 140.568 301.348 145.349C305.989 145.349 311.797 143.567 316.481 142.77C321.934 141.844 327.495 141.796 333.051 141.102ZM259.388 389.964C261.176 389.71 262.875 389.63 264.679 389.63C260.614 382.3 257.545 374.102 257.51 365.367C257.506 364.225 258.741 357.659 258.332 357.114C257.535 356.05 254.231 356.89 253.326 356.99C249.624 357.402 245.508 357.371 242.023 358.854C239.618 359.878 239.591 359.26 238.635 362.408C238.069 364.271 237.662 366.398 237.651 368.356C237.628 372.313 238.763 376.939 240.229 380.501C241.626 383.893 243.832 387.531 246.866 389.353C250.362 391.453 255.289 390.203 259.388 389.964ZM296.349 117.629C295.646 114.709 295.95 115.368 293.613 115.005C293.121 114.929 287.767 115.053 287.459 115.402C287.105 115.805 287.24 121.751 287.194 122.431C287.035 124.764 286.801 127.09 286.572 129.415C285.645 138.854 283.887 147.992 282.568 157.353C285.826 155.104 290.536 158.171 293.319 155.736C295.519 153.812 295.189 147.656 295.353 144.94C295.902 135.849 296.09 126.735 296.349 117.629ZM414.007 106.606C413.714 107.13 413.421 107.654 413.128 108.177C414.266 108.989 420.927 100.735 422.408 99.2581C424.38 97.2918 427.502 94.6662 428.392 91.7913C429.426 88.4505 428.409 83.1763 428.159 79.7217C427.98 77.2494 428.36 73.8302 426.548 72.1029C424.88 70.5137 420.772 70.5563 418.797 70.8963C412.87 71.9168 409.306 77.3382 406.314 82.5042C409.352 82.0888 420.061 76.6504 421.305 79.5916C423.112 83.8647 411.865 87.6854 410.753 91.4349C413.055 92.3393 418.133 88.8312 416.705 94.668C416.461 95.4848 416.035 96.1611 415.43 96.697C414.378 97.1111 414.129 97.8914 414.683 99.0385C414.212 101.325 414.308 104.217 414.007 106.606ZM482.224 313.529C482.255 314.914 482.37 316.239 483.388 317.218C485.646 309.263 486.351 301.305 487.287 293.033C488.223 284.759 489.219 276.28 489.367 268.013C489.533 258.749 488.746 248.671 487.399 239.517C486.346 232.361 485.53 223.556 481.694 217.465C483.873 233.249 483.195 248.213 481.727 264.051C480.947 272.461 479.846 280.806 479.342 289.253C479.208 291.484 479.165 293.741 478.991 295.968C478.889 297.28 477.721 299.765 477.71 300.409C477.653 303.985 481.094 310.245 482.224 313.529ZM366.335 301.236C368.147 305.872 370.206 310.439 371.293 315.37C372.439 320.576 371.946 325.424 372.129 330.7C372.434 339.452 371.803 348.153 371.913 356.918C372.007 364.389 371.75 371.672 371.817 379.064C371.86 383.74 371.63 388.398 371.644 393.071C371.644 393.057 371.811 397.266 371.522 397.479C370.224 398.438 368.807 397.077 368.409 395.766L364.563 400.606C366.579 400.043 369.058 398.866 371.13 398.762C371.924 398.437 372.714 398.428 373.501 398.734C374.282 399.26 374.861 399.992 375.238 400.932C380.668 402.219 383.927 396.843 384.902 392.036C387.017 381.608 386.255 371.312 386.102 360.783C385.769 337.91 389.036 315.174 388.727 292.3C388.668 287.873 388.516 283.499 389.114 279.081C390.224 270.873 391.863 278.386 392.126 282.26C392.916 293.899 394.293 305.91 393.536 317.621C392.855 328.174 392.917 338.824 392.445 349.408C391.943 360.658 391.133 371.669 391.599 382.928C394.315 382.542 403.05 381.966 403.96 386.21C404.754 389.911 401.561 388.542 399.903 388.385C397.214 388.132 394.587 388.834 391.648 388.247C391.864 393.226 392.482 399.903 388.482 403.264C386.515 404.918 383.257 406.41 380.958 407.385C378.706 408.341 374.89 410.459 372.544 410.343C370.883 410.261 370.244 409.267 368.422 409.425C365.719 409.662 363.379 411.673 360.513 410.012C355.078 406.861 357.75 397.696 361.181 394.023C362.066 393.075 363.06 392.04 364.247 391.578C364.812 391.358 367.173 391.624 367.445 391.294C368.45 390.081 367.195 382.984 367.061 381.636C366.357 374.57 365.589 367.354 365.3 360.257C365.028 353.584 364.726 346.897 364.519 340.222C364.474 338.768 365.054 335.779 364.507 334.509C363.596 332.397 359.602 331.053 357.869 330.07C359.414 346.893 361.682 364.976 356.093 381.001C354.983 384.183 353.738 388.725 350.924 390.495C348.272 392.164 342.026 391.928 338.848 392.126C335.431 392.339 332.086 391.452 330.203 387.883C328.721 385.074 329.609 381.705 332.651 380.48C334.472 379.747 334.827 380.218 336.422 381.09C336.769 381.715 337.011 382.387 337.152 383.106H338.378C340.04 383.931 346.683 384.853 348.51 383.537C350.627 382.013 351.088 377.893 351.99 375.445C353.667 370.896 354.111 367.205 354.719 362.343C355.672 354.734 354.707 345.91 354.725 337.982C354.73 335.749 354.739 333.516 354.741 331.283C354.745 327.911 355.009 327.931 353.279 325.503C350.673 321.845 347.7 318.105 344.91 314.598C346.422 324.845 345.803 335.635 345.202 345.844C344.865 351.58 344.168 357.421 343.848 363.08C343.752 364.781 344.85 369.47 343.075 370.222C341.273 370.985 339.031 367.427 338.303 366.142C334.332 374.958 329.591 383.461 321.397 388.022C317.184 390.367 312.797 391.425 308.199 392.344C303.939 393.197 300.002 394.751 295.803 395.485C287.11 397.002 279.104 397.217 270.357 396.886C262.105 396.573 254.203 398.268 245.977 396.134C242.767 395.301 239.523 393.772 237.328 391.038C236.131 389.546 235.601 387.198 234.393 385.823C234.121 384.043 233.18 383.494 231.569 384.176C230.558 384.226 229.55 384.189 228.546 384.064C220.296 383.582 211.127 384.119 203.132 381.498C200.098 380.503 196.71 378.864 198.224 374.639C199.547 370.947 203.198 372.068 206.192 372.391C214.889 373.328 223.451 375.038 232.273 375.898C231.989 370.77 232.234 365.539 234.041 360.743C227.92 359.888 221.575 358.599 215.752 356.426C213.953 355.754 212.163 355.057 210.379 354.339C207.439 353.156 208.05 352.85 206.347 354.914C204.207 357.508 202.897 362.919 201.346 366.052C199.602 369.578 197.928 373.065 196.457 376.745C195.066 380.229 194.028 384.895 191.908 387.897C187.244 394.501 176.472 395.073 170.133 392.479C167.028 391.208 165.907 391.009 164.026 387.913C161.964 384.522 161.451 384.323 157.653 383.863C150.794 383.032 144.321 381.116 137.895 378.472C131.107 375.679 124.136 373.501 117.367 370.485C111.031 367.661 104.907 364.821 98.3505 362.616C97.5725 368.117 100.796 374.32 100.796 379.991C104.611 379.566 108.168 379.194 111.949 378.519C113.298 378.278 121.793 376.158 122.622 377.409C126.076 382.625 110.356 385.078 107.899 385.767C100.025 387.977 91.9962 390.031 84.0726 391.74C75.985 393.483 68.1008 395.22 59.8908 395.533C45.9983 396.063 26.8362 395.17 27.4994 374.867C27.7597 366.911 30.7062 358.277 36.3443 353.089C39.8523 349.86 44.2268 348.086 48.5156 346.625C50.1001 346.085 58.4474 344.823 58.7011 344.129C56.3489 342.254 52.3286 341.765 49.538 340.32C46.8775 338.941 44.0699 338.428 41.3465 337.039C35.9047 334.264 30.6488 330.871 25.617 327.44C21.6153 324.71 17.5693 321.697 13.8853 318.452C10.958 315.875 8.15256 313.396 5.81246 310.449C4.58773 308.908 2.41985 307.542 1.43897 306.215C-2.00558 301.552 1.62705 292.273 3.094 286.844C5.23672 278.909 8.09625 270.466 12.3134 263.592C16.1915 257.27 20.5152 253.012 27.4716 251.531C33.8921 250.164 40.3482 249.731 46.9147 249.348C45.8113 244.678 44.258 241.383 44.6522 236.262C45.024 231.432 47.2165 226.633 48.9371 222.234C52.1362 214.057 55.1543 206.053 59.5294 198.524C61.934 194.386 64.635 190.459 67.2599 186.494C67.6831 185.855 70.3141 182.931 70.2135 182.107C70.1134 181.288 67.4715 178.796 67.0669 178.225C64.3501 174.389 62.472 170.258 65.6623 166.152C67.3255 164.011 72.2157 159.688 74.5695 162.408C77.1146 156.687 81.5663 152.787 85.0322 147.92C89.3532 141.852 93.479 135.691 97.5239 129.334C101.551 123.005 104.841 116.207 110.18 111.106C116.129 105.423 121.729 105.914 129.036 108.344C129.453 105.209 130.033 105.626 132.759 104.579C134.823 103.787 136.828 102.846 138.857 101.952C141.014 101 143.196 100.46 145.401 99.7118C148.338 98.7155 148.779 99.0409 149.256 94.7988C149.833 89.673 147.861 84.2534 146.59 79.4249C145.962 77.0426 145.526 74.0771 144.113 72.4745C142.836 71.0252 140.57 70.3653 139.173 68.7627C127.132 54.9562 126.942 25.4771 139.768 12.6455C142.261 10.1513 144.317 6.79594 147.42 5.11186C150.826 3.26235 155.32 1.76681 159.072 0.895269C166.807 -0.900111 175.481 -0.330236 181.595 5.71762C184.61 8.70019 186.449 13.441 187.477 17.6759C188.459 21.721 188.248 28.5582 184.526 22.3066C182.179 18.3637 180.139 14.3424 176.166 12.3919C172.616 10.6494 168.28 9.70857 164.412 10.0783C155.295 10.9493 147.907 13.927 141.597 21.4327C134.619 29.7314 134.264 42.9809 135.768 53.5336C137.094 50.4124 137.991 45.4702 141.707 44.8742C144.804 44.3773 149.686 48.7757 148.024 52.5623C140.482 50.4239 138.277 63.1096 144.798 63.8735C146.772 64.1046 149.272 60.1951 151.09 61.1056C154.49 62.8073 149.934 68.6715 149.036 70.6025C148.558 70.9291 148.081 71.2557 147.604 71.5829C148.074 72.7981 148.549 74.0114 149.028 75.2223C149.609 76.7665 150.163 78.3144 150.673 79.8896C151.916 83.723 153.205 87.6757 153.954 91.669C154.715 95.7293 155.11 100.471 153.311 104.285C151.333 108.478 149.47 107.962 147.951 103.974C143.974 106.763 139.975 109.736 135.3 110.836C140.202 119.986 146.549 127.852 156.092 130.73C164.18 133.169 174.361 133.08 182.079 129.044C190.087 124.857 194.494 115.07 193.54 105.333C193.231 102.179 191.581 91.2257 195.507 99.1492C197.659 103.495 197.817 110.544 197.326 115.309C194.979 138.103 174.207 146.63 156.296 141.143C147.108 138.328 140.487 130.792 135.557 121.922C134.407 119.853 133.355 117.718 132.328 115.572C131.917 114.715 131.556 113.517 131.008 112.765C128.861 109.817 130.97 111.46 128.691 111.09C125.163 110.52 119.612 113.525 116.993 115.906C109.885 122.366 105.949 132.699 100.494 140.84C94.6862 149.507 87.3105 157.221 79.9118 164.136C88.281 173.671 96.6496 183.206 105.019 192.741C106.748 190.613 110.034 185.747 110.494 182.901C110.764 181.232 109.554 175.742 113.275 178.185C115.787 179.836 116.74 186.899 117.524 189.789C118.734 194.251 120.772 198.454 122.09 202.871C124.534 211.066 127.545 219.188 130.049 227.441C131.067 230.797 133.969 234.962 131.18 237.803C126.941 242.12 125.681 233.621 124.559 230.374C122.995 232.791 123.198 236.711 122.392 239.531C121.9 241.253 120.402 243.934 120.451 245.631C120.536 248.533 122.904 249.396 125.038 251.018C129.008 254.034 133.082 256.979 136.718 260.493C138.236 261.958 139.632 263.441 140.739 265.327C141.705 266.973 141.996 270.684 143.065 271.83C144.462 273.327 149.628 272.284 152.356 272.61C156.911 273.155 161.527 274.957 165.949 276.251C173.774 278.542 181.822 281.84 190.018 283.064C198.066 284.266 205.618 283.669 213.64 282.068C218.021 281.194 222.727 280.149 226.726 277.805C231.331 275.106 235.415 270.787 239.717 267.526C241.642 266.067 243.611 264.687 245.58 263.303C248.211 261.454 247.523 261.854 247.694 258.917C247.893 255.516 249.169 249.023 247.127 245.997C246.274 244.734 243.658 243.81 242.426 242.891C240.636 241.554 239.03 240 237.111 238.924C235.016 237.75 234.954 238.68 233.982 235.799C233.098 233.182 232.515 230.442 231.704 227.798C227.994 215.705 227.036 203.424 225.498 190.798C224.784 184.933 223.031 176.952 225.016 171.239C227.776 163.293 230.085 174.406 230.668 177.254C233.303 172.234 234.816 166.651 237.557 161.694C239.156 158.805 239.937 157.328 240.838 154.162C241.203 152.88 241.349 151.815 242.119 150.75C243.75 148.497 243.992 149.781 245.687 149.726C251.022 149.552 256.265 149.704 261.605 149.979C264.556 150.131 267.507 150.212 270.479 150.2C271.926 150.193 273.392 150.115 274.838 150.207C275.618 150.198 276.394 150.263 277.166 150.401C278.759 151.229 279.367 150.516 278.99 148.262C280.378 145.035 280.285 139.885 280.776 136.363C281.27 132.819 281.729 129.268 282.142 125.71C282.362 123.808 284.216 116.632 283.232 115.07C282.257 113.521 277.177 113.868 275.674 113.59C265.682 111.742 256.387 107.162 247.041 103.41C242.439 101.562 238.072 99.0683 233.658 96.8022C231.361 95.6223 229.19 93.1926 226.768 92.436C223.712 91.4811 219.656 93.0077 216.61 93.5824C210.806 94.6778 205.208 95.6369 199.32 95.9933C197.239 96.1192 193.282 96.7681 191.405 95.1777C187.634 91.9835 191.927 90.1157 194.392 89.7125C205.292 87.9293 216.16 86.9045 227.143 86.16C227.658 86.1254 229.545 85.699 230.172 85.9192C231.603 86.4216 231.026 87.0042 231.883 87.5224C233.471 88.4821 235.283 89.1888 237.298 89.7842C243.05 91.4835 248.842 94.3347 254.614 96.5753C264.999 100.606 277.406 107.034 287.793 105.904C290.356 105.625 292.463 105.269 295.143 105.558C298.281 105.896 300.113 107.687 302.524 108.208C305.755 108.905 310.375 108.381 313.775 108.515C317.018 108.642 320.262 108.81 323.506 108.81C320.657 102.438 318.923 96.4561 317.322 89.6134C316.448 85.8815 315.135 82.492 315.704 78.5619C315.973 76.7069 316.639 74.9639 317.366 73.2883C318.463 70.7588 318.774 71.2879 319.164 68.4866C319.699 64.6313 318.931 60.5661 319.352 56.6993C319.784 52.7308 322.48 49.1936 322.78 45.3997C322.941 43.3811 321.925 41.7335 322.229 39.5562C322.501 37.6087 323.538 35.567 324.469 33.9274C326.637 30.1067 329.278 27.9403 332.942 26.384C335.888 25.1329 339.647 23.9853 342.624 26.0111C345.66 28.0778 345.441 32.2372 346.896 35.2721C350.025 41.798 357.243 47.6299 362.997 50.9628C368.283 54.0244 373.977 55.9585 379.645 57.9552C383.094 59.1703 386.641 60.037 390.031 61.4255C392.471 62.4254 396.451 64.8502 398.936 63.3772C401.101 62.0933 403.627 58.1753 405.771 56.3562C408.279 54.2282 411.623 52.1512 414.781 54.005C417.938 55.8581 417.679 62.6893 420.135 63.9738C420.991 64.4215 423.532 63.1102 424.699 63.317C426.583 63.6503 427.88 64.9475 429.01 66.5447C433.229 72.5128 434.535 81.9793 434.72 89.3366C434.812 93.0113 434.732 97.5819 432.714 100.702C430.361 104.341 425.907 104.431 422.886 106.992C420.47 109.041 418.758 112.39 416.306 114.572C414.795 115.918 414.212 114.884 413.587 116.981C413.18 118.344 414.003 121.005 414.245 122.324C415.747 130.463 418.56 137.969 421.229 145.723C422.487 149.376 423.554 153.03 424.128 156.902C424.504 159.442 424.07 161.663 424.252 164.108C424.381 165.848 425.046 167.351 424.9 169.135C424.59 172.914 422.745 176.251 421.572 179.575C420.234 183.364 422.072 189.926 423.419 193.845C426.647 203.233 431.186 212.717 435.22 221.737C439.182 230.598 442.129 240.034 446.744 248.547C451.227 256.813 456.502 264.907 461.602 272.726C464.439 277.075 467.45 281.212 470.021 285.773C470.583 286.771 474.42 295.043 475.416 294.756C474.195 280.321 475.429 265.308 475.975 250.882C476.657 232.824 474.591 216.467 470.023 199.23C468.955 195.2 468.003 191.076 467.252 186.958C466.726 184.075 465.241 181.705 468.886 182.966C474.922 185.053 480.234 197.727 483.303 203.244C490.175 215.601 495.916 232.079 496.686 246.572C497.442 260.798 496.79 274.409 495.192 288.425C494.403 295.34 493.129 303.048 491.181 309.661C490.18 313.062 488.977 316.585 487.643 319.845C487.079 321.221 485.843 322.775 485.629 324.286C485.292 326.684 486.871 329.92 487.266 332.288C488.558 340.037 488.855 348.068 488.415 355.932C488.179 360.15 487.655 363.922 486.418 367.888C484.842 372.942 485.574 376.802 486.23 382.011C486.932 387.586 487.605 400.257 482.394 403.425C482.026 403.383 481.657 403.34 481.288 403.298C480.357 402.104 479.53 402.175 478.809 403.511C477.461 404 476.144 405.26 474.725 405.802C471.431 407.06 467.876 407.137 464.441 407.689C457.716 408.773 451.014 410.683 444.407 410.914C436.584 411.188 428.423 410.847 420.774 409.321C419.193 409.006 417.345 408.172 415.764 408.012C413.618 407.795 412.111 409.382 409.896 409.009C406.462 408.43 404.293 404.388 404.068 401.076C403.353 390.521 408.617 385.682 417.22 383.807C411.661 374.955 405.261 367.692 403.782 356.323C402.326 345.138 405.484 332.192 411.218 323.23C416.723 314.627 426.116 308.875 435.803 311.058C440.299 312.072 461.509 319.037 457.409 326.939C456.5 323.324 450.908 324.024 448.207 323.502C443.725 322.636 439.243 321.33 434.696 321.599C425.752 322.128 417.108 328.013 412.777 336.921C407.784 347.191 410.063 357.441 416.074 366.21C421.57 374.227 427.236 382.651 434.627 388.44C433.198 390.967 433.715 391.76 430.876 391.308C428.928 390.997 427.105 389.307 425.136 388.886C421.052 388.014 414.624 391.736 412.101 395.458C410.61 397.657 410.665 398.744 413.414 400.099C415.443 401.098 418.637 400.582 420.816 400.798C426.236 401.336 431.76 401.516 437.197 401.495C446.61 401.457 455.363 399.777 464.678 398.689C468.807 398.207 473.125 398.763 477.164 397.073C482.635 394.784 481.295 388.062 480.586 382.616C479.883 377.222 480.598 373.038 481.36 367.697C481.691 365.376 482.307 362.698 481.871 360.362C481.352 357.588 480.422 356.36 480.541 353.266C480.963 342.253 479.721 330.655 477.097 320.027C471.398 296.942 457.482 278.722 445.876 259.101C442.598 253.559 439.152 248.308 436.542 242.306C434.071 236.62 432.368 230.607 429.913 224.905C424.502 212.338 419.37 199.392 416.208 185.875C412.625 187.443 408.764 189.751 404.923 190.304C400.57 190.931 395.918 187.022 393.173 183.579C386.914 175.728 385.486 165.081 385.954 154.965C386.092 151.97 386.26 148.952 386.742 145.997C387.055 144.079 389.083 139.438 388.621 137.651C388.126 135.739 385.245 134.076 384.36 132.182C383.233 129.772 383.103 126.669 383.163 124.009C383.219 121.581 384.424 109.693 387.885 114.552C389.867 117.336 386.969 127.831 388.981 129.26C390.791 130.545 393.284 128.974 395.161 131.912C397.188 135.088 396.102 139.002 395.392 142.383C393.922 149.376 392.543 156.927 392.581 164.109C392.614 170.649 393.665 178.917 400.089 181.562C403.335 182.898 405.798 181.979 408.219 179.491C408.774 178.78 409.34 178.081 409.917 177.394C410.446 176.381 411.259 176.255 412.355 177.017C413.165 176.3 414.367 171.349 414.773 170.243C419.748 156.68 411.904 141.108 409.028 127.801C407.269 119.662 405.736 111.497 409.296 103.642C409.872 102.37 411.46 101.265 410.508 99.4405C410.257 98.9606 407.86 98.7356 407.292 98.1779C405.443 96.3625 405.829 92.9779 405.829 90.5542C401.552 92.0212 400.32 88.3203 400.876 83.7844C397.686 84.347 395.471 85.432 394.29 81.3268C393.243 77.6861 394.824 73.9737 395.873 70.5812C381.115 68.8217 365.175 66.5672 353.413 55.239C350.513 52.4456 348.102 48.9296 346.092 45.2872C345.729 44.6285 344.019 39.9916 343.452 39.7496C341.767 39.0301 340.354 42.6963 338.857 43.6043C337.526 44.4108 335.634 44.8553 334.156 45.3468C332.764 45.8096 327.859 45.902 326.989 46.7055C324.814 48.7149 324.986 60.332 324.969 63.0281C324.91 72.314 326.773 81.5676 330.22 90.0221C333.465 97.9845 338.431 108.934 344.923 114.145C346.563 115.463 348.04 116.146 350.119 116.037C351.604 115.96 353.076 114.803 354.622 115.404C358.535 116.927 357.136 119.953 354.128 121.383C345.529 125.474 338.283 116.481 333.31 110.199C331.854 117.653 338.606 126.473 342.178 132.555C344.454 136.431 346.705 140.311 348.87 144.266C350.443 147.139 353.534 152.443 348.044 150.224C345.395 165.686 338.127 179.208 334.415 194.233C330.604 209.657 327.282 227.268 327.282 243.331C330.184 241.084 331.647 230.845 335.55 238.682C335.972 239.529 335.84 240.933 336.396 241.673C337.166 242.698 338.092 242.414 339.272 243.144C341.142 244.301 342.348 246.609 340.676 248.61C342.829 248.053 345.084 248.337 345.548 251.169C345.809 252.759 343.716 260.123 342.154 260.725C337.394 262.558 332.115 251.986 330.826 248.624C327.852 251.944 324.426 254.498 321.685 249.127C319.642 245.125 320.827 239.071 321.116 234.714C321.696 225.938 322.454 217.378 323.592 208.686C325.727 192.388 331.145 177.893 337.799 163.223C339.631 159.185 341.661 155.052 343.298 150.92C345.766 144.687 341.904 146.158 338.129 147.062C330.734 148.837 322.99 150.213 315.518 150.841C311.617 151.169 306.622 151.364 302.874 152.618C300.239 153.5 300.691 152.891 299.633 156.031C299.159 157.436 298.625 158.93 297.79 160.133C293.532 166.271 282.503 165.244 276.412 164.786C276.781 162.198 277.146 159.608 277.528 157.022C272.839 158.248 267.27 159.101 262.441 159.038C259.841 159.006 257.076 158.565 254.483 158.324C252.571 158.147 248.946 156.64 247.147 157.226C245.06 157.907 241.905 166.298 240.712 169.004C238.472 174.085 234.469 179.73 233.056 185.081C231.803 189.824 234.36 198.008 235.163 202.729C236.324 209.554 237.382 216.392 239.327 223.01C240.738 227.808 242.363 234.422 246.694 236.815C251.009 239.2 254.11 240.542 258.781 240.057C267.005 239.202 275.755 240.606 283.874 242.384C292.235 244.216 299.891 245.04 307.831 248.304C325.838 255.707 337.305 278.513 330.515 299.406C326.61 311.423 320.177 320.353 310.74 327.787C305.932 331.576 300.25 334.649 294.979 337.568C292.558 338.909 290.179 340.535 287.712 341.726C285.909 342.596 282.811 344.599 280.852 344.819C283.026 345.969 284.949 344.892 287.211 344.535C290.412 344.028 293.679 343.92 296.891 343.478C301.891 342.79 306.816 342.271 311.817 341.58C316.085 340.991 320.902 340.782 325.144 341.461C327.193 341.788 330.278 342.435 332.103 343.534C333.538 344.397 334.854 346.387 336.397 347.373C338.095 339.618 337.301 330.059 337.38 322.09C337.445 315.584 337.706 309.223 338.257 302.748C338.873 295.506 334.891 287.271 333.42 280.178C332.044 273.54 328.377 265.126 329.726 258.197C331.428 249.463 335.883 265.154 336.495 267.397C338.413 274.417 340.639 281.268 342.763 288.205C345.291 296.456 347.838 304.451 351.519 312.183C354.582 318.617 358.103 326.165 364.399 329.303C363.879 319.841 363.303 311.08 359.766 302.356C356.413 294.084 351.299 286.727 349.063 277.863C347.953 273.457 347.79 268.953 347.735 264.403C347.698 261.342 347.824 257.227 350.775 260.527C353.116 263.144 353.57 271.492 354.595 275.016C355.089 276.712 355.772 278.269 356.317 279.918C356.563 280.661 358.216 284.28 358.216 284.766C359.92 290.486 363.687 295.972 366.335 301.236Z" fill="black"/>
<path fill-rule="evenodd" clip-rule="evenodd" d="M185.6 92.7046C185.763 94.9202 186.918 100.663 185.438 102.416C183.477 104.743 182.548 101.75 181.7 99.391C179.927 94.461 179.046 84.9143 182.549 80.8059C186.205 76.5157 193.43 76.4002 197.332 72.1276C198.899 70.4113 198.748 70.7696 198.612 68.0862C198.535 66.5712 197.654 64.5581 197.228 63.1964C196.121 59.6579 194.906 56.162 193.748 52.6442C191.725 53.6703 188.813 56.8353 186.819 54.1824C184.977 51.7295 188.043 47.7106 190.178 46.9935C189.063 44.2828 183.811 44.784 182.811 40.8021C181.941 37.3415 184.439 38.7167 184.985 37.3537C185.628 35.7499 184.311 33.5817 184.989 32.1038C187.34 26.9725 189.945 36.4074 191.116 38.0914C193.295 41.2236 197.09 41.9078 197.424 46.6456C197.63 49.5625 197.433 50.9188 198.513 53.7834C199.508 56.4205 200.69 58.9494 201.524 61.6631C202.78 65.752 204.717 73.1932 202.262 77.1525C200.192 80.4921 195.166 83.038 191.898 84.466C190.261 85.1806 187.991 85.6161 186.667 87.0083C184.939 88.8243 185.477 89.9403 185.6 92.7046ZM355.421 216.348C355.049 215.695 354.675 215.042 354.302 214.388C351.716 217.461 348.851 218.724 346.237 214.82C343.545 210.801 344.556 204.775 345.603 200.385C346.141 198.127 348.866 189.221 350.611 196.005C350.996 197.503 349.708 200.837 349.475 202.302C349.017 205.178 348.656 207.936 348.979 210.865C352.011 207.845 353.496 200.191 356.574 208.139C357.69 211.021 357.812 215.768 360.783 211.39C362.37 209.052 362.471 204.736 363.214 201.982C368.278 203.329 367.355 211.66 365.665 215.719C362.973 222.182 359.31 220.101 355.421 216.348ZM373.154 71.3608C374.956 74.7028 371.548 80.8146 370.93 84.246C373.948 83.8573 381.416 75.7605 383.518 77.0955C387.893 79.8737 378.651 89.5634 376.875 90.9835C362.682 102.331 365.24 69.5065 373.154 71.3608ZM355.356 108.578C360.658 106.936 367.809 117.522 364.369 122.764C361.902 126.525 358.853 124.374 358.08 121.064C357.686 119.376 358.036 117.341 357.52 115.458C356.886 113.14 356.036 110.882 355.356 108.578Z" fill="black"/>
<path fill-rule="evenodd" clip-rule="evenodd" d="M192.264 62.9468C196.297 66.717 188.057 75.9086 183.926 68.7112C182.79 66.7316 182.583 64.9246 184.268 64.1936C185.118 63.825 187.125 65.0323 188.325 64.8188C189.641 64.5847 191.071 63.555 192.264 62.9468ZM178.407 47.8709C176.843 45.6997 172.445 32.3438 177.895 35.3184C180.631 36.8122 182.892 48.2297 178.407 47.8709ZM358.333 335.127C358.179 333.442 358.024 331.756 357.869 330.07C359.881 331.211 363.918 332.338 364.619 334.893C365.934 339.693 359.825 335.854 358.333 335.127ZM416.742 131.83C415.543 130.03 411.816 115.008 415.049 115.351C415.616 120.801 415.732 126.46 416.742 131.83ZM366.335 301.236C363.687 295.972 359.92 290.486 358.215 284.765C362.21 288.363 365.331 295.714 366.335 301.236ZM474.932 289.034C475.093 290.942 475.254 292.849 475.415 294.756C473.016 295.445 474.784 289.663 474.932 289.034Z" fill="black"/>
<path fill-rule="evenodd" clip-rule="evenodd" d="M358.221 284.774C357.085 283.399 356.599 281.708 356.318 279.918C356.952 281.536 357.586 283.155 358.221 284.774ZM371.954 371.138C371.996 369.44 372.038 367.743 372.081 366.05C372.038 367.748 371.996 369.443 371.954 371.138ZM192.554 95.714C193.57 95.8545 194.586 95.995 195.603 96.1355C194.801 96.5533 192.911 97.1086 192.554 95.714ZM395.185 388.953C396.242 388.776 397.303 388.371 398.342 389.022C397.287 388.999 396.236 388.976 395.185 388.953ZM364.975 350.606C364.989 351.863 365.004 353.12 365.016 354.373C365.001 353.115 364.988 351.861 364.975 350.606ZM386.82 331.043C386.754 332.384 386.687 333.725 386.621 335.063C386.688 333.721 386.754 332.383 386.82 331.043ZM372.437 336.291C372.38 335.124 372.323 333.958 372.266 332.793C372.323 333.961 372.381 335.126 372.437 336.291ZM403.854 346.582C403.797 347.621 403.74 348.66 403.684 349.697C403.74 348.657 403.797 347.619 403.854 346.582ZM214.032 372.83C213.003 373.406 211.975 373.464 210.95 372.823C211.978 372.825 213.005 372.827 214.032 372.83ZM319.297 58.8772C319.311 59.9044 319.326 60.9317 319.34 61.9546C319.325 60.9262 319.311 59.902 319.297 58.8772ZM217.167 86.9045C216.114 86.9933 215.06 87.0815 214.008 87.1703C215.061 87.0815 216.114 86.9933 217.167 86.9045ZM434.728 90.8577C434.722 89.8439 434.717 88.83 434.712 87.818C435.196 88.83 435.205 89.8426 434.728 90.8577ZM185.6 92.7046C185.552 91.6274 185.504 90.5509 185.457 89.4757C185.505 90.5534 185.553 91.6287 185.6 92.7046Z" fill="black"/>
<path fill-rule="evenodd" clip-rule="evenodd" d="M444.407 410.914C445.118 410.919 445.83 410.925 446.535 410.93C445.821 410.925 445.114 410.919 444.407 410.914Z" fill="black"/>
<path fill-rule="evenodd" clip-rule="evenodd" d="M164.426 0.181364C163.49 0.27016 162.555 0.358956 161.619 0.447144C162.555 0.358956 163.49 0.27016 164.426 0.181364ZM256.694 397.514C257.298 397.513 257.901 397.512 258.497 397.513C257.891 397.514 257.293 397.514 256.694 397.514ZM350.118 116.037C349.204 115.936 348.289 115.833 347.375 115.731C348.289 115.833 349.204 115.936 350.118 116.037ZM391.697 395.738C391.753 394.899 391.809 394.061 391.865 393.225C391.809 394.065 391.753 394.902 391.697 395.738ZM292.681 105.299C291.781 105.29 290.88 105.281 289.98 105.273C290.885 104.69 291.784 104.857 292.681 105.299ZM172.525 0.46168C171.617 0.429446 170.658 0.955531 169.821 0.155151C170.723 0.257328 171.624 0.359504 172.525 0.46168ZM148.01 99.446C147.14 99.5348 146.27 99.6236 145.401 99.7118C146.271 99.623 147.14 99.5348 148.01 99.446ZM202.818 371.961C201.901 372.067 200.984 372.173 200.069 372.28C200.985 372.173 201.902 372.067 202.818 371.961ZM225.629 86.2906C224.736 86.3119 223.842 86.3332 222.949 86.3545C223.835 85.9598 224.722 85.5875 225.629 86.2906ZM371.921 358.211C371.916 357.349 371.911 356.487 371.906 355.627C371.911 356.489 371.916 357.35 371.921 358.211ZM475.26 285.131C475.164 286.172 475.067 287.214 474.971 288.255C475.067 287.214 475.164 286.172 475.26 285.131ZM359.302 352.275C359.236 351.388 359.17 350.502 359.103 349.617C359.17 350.505 359.236 351.39 359.302 352.275ZM58.701 344.129C58.5375 345.013 57.9579 345.187 56.9623 344.651L58.701 344.129ZM392.663 344.522C392.61 343.751 392.557 342.981 392.505 342.212C392.558 342.983 392.61 343.753 392.663 344.522ZM205.42 88.1469C204.669 88.2607 203.916 88.3738 203.164 88.4875C203.917 88.3738 204.669 88.2607 205.42 88.1469ZM364.522 337.954C364.521 338.711 364.52 339.467 364.519 340.221C364.52 339.464 364.521 338.709 364.522 337.954ZM319.162 66.3432C319.162 67.0591 319.163 67.7743 319.164 68.4865C319.163 67.77 319.162 67.0566 319.162 66.3432ZM44.8749 234.002C44.8005 234.756 44.7262 235.511 44.6523 236.262C44.7267 235.506 44.8005 234.754 44.8749 234.002ZM495.364 285.851C495.324 285.141 495.284 284.43 495.245 283.724C495.284 284.435 495.324 285.143 495.364 285.851ZM106.967 379.605C106.191 379.591 105.414 379.577 104.637 379.563C105.423 378.964 106.198 379.093 106.967 379.605ZM197.443 47.7123C197.431 47.0001 197.418 46.2879 197.406 45.5782C197.805 46.2831 197.933 46.991 197.443 47.7123ZM135.409 38.6794C135.463 37.977 135.517 37.2745 135.571 36.5763C135.517 37.28 135.463 37.9794 135.409 38.6794ZM392.206 284.581C392.179 283.807 392.152 283.033 392.126 282.26C392.153 283.035 392.179 283.808 392.206 284.581ZM387.204 324.579C387.185 325.309 387.166 326.039 387.146 326.765C387.164 326.034 387.185 325.306 387.204 324.579ZM297.778 394.998C298.265 394.997 298.752 394.995 299.233 394.996C298.745 394.998 298.261 394.998 297.778 394.998ZM60.8728 395.368C61.3588 395.382 61.8444 395.397 62.3244 395.412C61.8367 395.398 61.3545 395.383 60.8728 395.368ZM354.741 331.283C350.003 327.21 345.871 321.119 344.91 314.598C346.947 317.159 348.66 320.017 350.699 322.576C351.509 323.592 352.502 324.468 353.28 325.503C355.053 327.865 354.741 327.97 354.741 331.283ZM338.094 303.751C335.82 297.923 333.845 290.854 334.242 284.424C335.811 290.262 339.451 297.595 338.094 303.751ZM345.725 338.02C345.686 339.712 345.648 341.404 345.611 343.092C345.65 341.398 345.687 339.709 345.725 338.02ZM44.9563 384.008C46.5107 384.11 48.0657 384.213 49.6201 384.316C48.0586 384.339 46.4763 384.76 44.9563 384.008ZM345.717 332.431C345.722 333.873 345.728 335.317 345.733 336.756C345.728 335.312 345.722 333.872 345.717 332.431ZM281.848 165.15C280.972 165.1 280.097 165.049 279.229 164.998C280.106 165.049 280.977 165.1 281.848 165.15ZM296.083 129.265C296.08 128.094 296.077 126.923 296.074 125.755C296.076 126.926 296.08 128.096 296.083 129.265ZM277.29 158.634C277.25 157.811 276.855 157.396 276.106 157.391C277.61 156.487 278.005 156.902 277.29 158.634ZM321.878 223.768C321.936 222.726 321.995 221.684 322.054 220.645C321.995 221.687 321.936 222.728 321.878 223.768ZM67.0264 384.744C68.0751 384.663 69.1238 384.582 70.1725 384.501C69.1232 384.582 68.0751 384.663 67.0264 384.744ZM287.279 243.3L290.399 243.276C289.359 243.284 288.319 243.292 287.279 243.3ZM317.064 116.344C316.338 116.351 315.612 116.357 314.893 116.363C315.622 116.357 316.342 116.351 317.064 116.344ZM468.332 398.252C469.242 398.247 470.151 398.243 471.061 398.239C470.154 398.876 469.244 398.859 468.332 398.252ZM86.4132 258.186C85.7965 258.205 85.1798 258.225 84.569 258.244C85.188 258.225 85.8003 258.205 86.4132 258.186ZM414.007 106.607C414.591 107.233 413.824 108.673 413.128 108.177C413.421 107.653 413.714 107.13 414.007 106.607ZM128.863 321.6C128.888 320.714 128.915 319.827 128.94 318.943C128.914 319.83 128.888 320.715 128.863 321.6ZM337.38 322.09C337.423 321.165 337.465 320.241 337.506 319.318C337.464 320.243 337.422 321.166 337.38 322.09ZM482.898 225.741C482.933 226.666 482.968 227.592 483.002 228.515C482.967 227.588 482.932 226.665 482.898 225.741ZM201.902 330.573C202.834 330.662 203.765 330.75 204.697 330.838C203.765 330.75 202.833 330.662 201.902 330.573ZM329.659 259.575C329.704 258.655 329.75 257.736 329.795 256.818C329.749 257.738 329.704 258.657 329.659 259.575ZM167.796 277.067C168.725 277.163 169.653 277.258 170.581 277.353C169.653 277.257 168.725 277.162 167.796 277.067ZM249.949 357.474C249.351 357.475 248.753 357.475 248.162 357.475C248.762 357.474 249.356 357.474 249.949 357.474ZM302.686 132.723C302.65 133.583 302.615 134.442 302.58 135.297C302.616 134.437 302.651 133.58 302.686 132.723ZM315.932 341.165C316.851 340.439 317.745 340.918 318.642 341.233C317.738 341.211 316.835 341.188 315.932 341.165ZM208.489 95.2819C207.884 95.2546 207.28 95.2266 206.682 95.1962C207.289 95.2235 207.889 95.2527 208.489 95.2819ZM354.997 356.968C354.943 356.112 354.889 355.257 354.835 354.404C354.889 355.261 354.943 356.115 354.997 356.968ZM305.514 260.392C305.016 260.396 304.518 260.399 304.026 260.404C304.526 260.401 305.02 260.396 305.514 260.392ZM326.526 291.468C326.526 290.754 326.527 290.04 326.527 289.33C326.527 290.045 326.526 290.757 326.526 291.468ZM294.655 343.801C295.401 343.694 296.147 343.586 296.892 343.478C296.146 343.586 295.4 343.694 294.655 343.801ZM262.401 239.982C263.209 239.977 264.017 239.971 264.825 239.965C264.02 240.493 263.211 240.394 262.401 239.982ZM304.263 152.633C303.796 152.628 303.329 152.623 302.868 152.619C303.337 152.623 303.8 152.628 304.263 152.633ZM166.261 285.005C165.779 284.998 165.298 284.99 164.823 284.982C165.307 284.99 165.784 284.998 166.261 285.005ZM73.2257 249.876C74.0322 249.885 74.8386 249.895 75.6451 249.904C74.8337 250.411 74.0272 250.424 73.2257 249.876ZM482.976 251.36C482.925 252.044 482.874 252.729 482.825 253.41C482.876 252.723 482.926 252.042 482.976 251.36ZM277.664 361.362C277.733 360.614 277.802 359.867 277.87 359.122C277.801 359.87 277.733 360.616 277.664 361.362ZM147.263 272.311C148.078 272.324 148.893 272.337 149.708 272.35C148.885 272.981 148.075 272.583 147.263 272.311ZM333.051 141.102C333.844 141.002 334.636 140.902 335.429 140.803C334.636 140.902 333.844 141.002 333.051 141.102ZM266.815 380.637C266.887 381.422 266.959 382.207 267.03 382.99C266.958 382.204 266.886 381.421 266.815 380.637ZM337.394 328.997C337.392 328.264 337.391 327.532 337.39 326.803C337.391 327.537 337.392 328.267 337.394 328.997ZM50.0058 384.42C50.7729 384.533 51.54 384.645 52.3065 384.757C51.5394 384.645 50.7723 384.533 50.0058 384.42ZM64.3968 384.765C65.154 384.077 65.9228 384.288 66.6942 384.729C65.9282 384.741 65.1622 384.753 64.3968 384.765ZM202.774 283.856C203.524 283.753 204.274 283.651 205.023 283.549C204.273 283.651 203.523 283.753 202.774 283.856ZM286.123 388.644C286.888 388.53 287.652 388.416 288.416 388.302C287.652 388.416 286.888 388.53 286.123 388.644ZM259.388 389.965C260.168 389.853 260.947 389.742 261.727 389.631C260.947 389.742 260.168 389.853 259.388 389.965ZM302.306 137.917C302.272 138.617 302.237 139.318 302.204 140.014C302.238 139.312 302.272 138.614 302.306 137.917ZM118.704 304.848C118.774 304.104 118.843 303.36 118.913 302.62C118.843 303.364 118.774 304.106 118.704 304.848ZM296.287 119.809C296.307 119.08 296.327 118.351 296.348 117.625C296.328 118.356 296.308 119.083 296.287 119.809ZM147.401 296.58C147.47 297.325 147.539 298.069 147.607 298.81C147.539 298.065 147.47 297.323 147.401 296.58ZM149.985 272.318C150.775 272.416 151.566 272.512 152.356 272.61C151.565 272.512 150.775 272.416 149.985 272.318ZM275.843 380.836C276.293 382.306 276.127 385.726 274.849 386.762C272.197 388.913 271.924 384.985 271.398 382.864C269.937 376.98 267.586 370.409 266.986 364.359C266.803 362.504 266.703 359.028 268.91 358.402C271.04 357.799 272.119 361.552 272.854 363.48C274.891 368.83 276.073 375.036 275.843 380.836Z" fill="black"/>
<path fill-rule="evenodd" clip-rule="evenodd" d="M275.843 380.836C275.873 380.076 275.903 379.317 275.933 378.56C275.902 379.321 275.873 380.079 275.843 380.836Z" fill="black"/>
</svg>
