<svg width="60" height="80" viewBox="0 0 134 144" fill="none" xmlns="http://www.w3.org/2000/svg">
<path d="M132.037 139.659H94.3025V128.337H98.3827C102.377 128.332 106.207 126.575 109.032 123.451C111.857 120.328 113.446 116.092 113.45 111.675V104.992C113.45 104.707 113.4 104.425 113.301 104.161C113.203 103.898 113.058 103.658 112.876 103.457C112.693 103.255 112.477 103.095 112.239 102.986C112 102.877 111.745 102.821 111.487 102.822H105.444C103.345 102.82 101.27 103.305 99.3505 104.244C97.4316 105.184 95.712 106.558 94.3025 108.277V92.0871C116.365 90.9497 134 70.7454 134 46.0696C134 20.6674 115.311 2.25335e-05 92.3396 2.25335e-05C83.1725 0.00594145 74.262 3.34908 66.9843 9.5132C59.7253 3.33523 50.8203 -0.0100174 41.6604 2.25335e-05C18.6893 -0.00287165 0 20.6645 0 46.0667C0 70.7454 17.6346 90.9497 39.6975 92.0842V108.274C38.288 106.555 36.5684 105.181 34.6495 104.241C32.7305 103.302 30.6548 102.817 28.5561 102.819H22.5078C22.2499 102.818 21.9945 102.874 21.7562 102.983C21.5179 103.092 21.3014 103.252 21.1191 103.454C20.9367 103.655 20.7922 103.895 20.6936 104.158C20.5951 104.422 20.5446 104.704 20.5449 104.989V111.672C20.5491 116.09 22.1378 120.325 24.9626 123.449C27.7873 126.572 31.6173 128.329 35.6121 128.334H39.6923V139.659H1.96289C1.4423 139.659 0.943031 139.887 0.574917 140.294C0.206804 140.702 0 141.254 0 141.829C0 142.405 0.206804 142.957 0.574917 143.364C0.943031 143.771 1.4423 144 1.96289 144H132.037C132.558 144 133.057 143.771 133.425 143.364C133.793 142.957 134 142.405 134 141.829C134 141.254 133.793 140.702 133.425 140.294C133.057 139.887 132.558 139.659 132.037 139.659ZM39.6975 123.995H35.6173C32.6633 123.992 29.831 122.693 27.7422 120.383C25.6534 118.074 24.4787 114.942 24.4759 111.675V107.163H28.5561C31.5102 107.166 34.3424 108.465 36.4312 110.775C38.52 113.085 39.6947 116.217 39.6975 119.483V123.995ZM105.444 107.163H109.524V111.675C109.521 114.942 108.347 118.074 106.258 120.383C104.169 122.693 101.337 123.992 98.3827 123.995H94.3025V119.483C94.3053 116.217 95.48 113.085 97.5688 110.775C99.6576 108.465 102.49 107.166 105.444 107.163ZM3.92578 46.0667C3.92578 23.058 20.8537 4.3384 41.6604 4.3384C62.467 4.3384 79.3976 23.058 79.3976 46.0667C79.4063 53.9219 77.3968 61.6182 73.6032 68.2593C73.466 68.4315 73.3547 68.627 73.2734 68.8381C69.8478 74.6594 65.1624 79.4431 59.642 82.7554C54.1217 86.0677 47.941 87.8039 41.6604 87.8066C20.8537 87.7979 3.92578 69.0783 3.92578 46.0667ZM111.202 32.7101C111.608 32.7108 111.997 32.8894 112.284 33.2068C112.571 33.5241 112.732 33.9544 112.733 34.4032V40.9816L97.9456 49.6092C97.6524 48.8563 97.1663 48.2148 96.5473 47.7638C95.9283 47.3127 95.2034 47.0719 94.4621 47.071H90.2171C89.4755 47.0721 88.7504 47.3129 88.131 47.7639C87.5116 48.2149 87.025 48.8563 86.731 49.6092L83.2972 47.6064C83.3129 47.0941 83.3234 46.5819 83.3234 46.0667C83.3251 41.5415 82.7227 37.0408 81.5359 32.7101H111.202ZM82.1038 28.3688V26.7075C82.1041 26.4311 82.1538 26.1575 82.2499 25.9023C82.3461 25.6472 82.4868 25.4155 82.664 25.2206C82.8412 25.0256 83.0515 24.8713 83.2828 24.7664C83.514 24.6615 83.7618 24.6081 84.0117 24.6092H100.686C101.189 24.61 101.671 24.8313 102.027 25.2247C102.382 25.618 102.583 26.1513 102.583 26.7075V28.3688H82.1038ZM94.3313 51.4123V55.8172H90.3479V51.4123H94.3313ZM82.9387 52.3037L86.4221 54.3296V55.9561C86.4228 57.0689 86.8229 58.1358 87.5344 58.9227C88.246 59.7095 89.2108 60.1519 90.2171 60.1527H94.4621C95.4682 60.1511 96.4326 59.7085 97.144 58.9218C97.8554 58.1352 98.2557 57.0686 98.2571 55.9561V54.3296L112.733 45.8873V65.8311C112.732 66.2799 112.571 66.7101 112.284 67.0274C111.997 67.3448 111.608 67.5234 111.202 67.5242H78.5156C80.7868 62.7772 82.284 57.625 82.9387 52.3037ZM43.6233 119.483C43.6267 116.217 44.8017 113.085 46.8903 110.776C48.979 108.466 51.8108 107.167 54.7646 107.163H58.8475V111.675C58.844 114.941 57.6691 118.073 55.5804 120.383C53.4917 122.692 50.6599 123.992 47.7061 123.995H43.6233V119.483ZM90.3767 123.995H86.2939C83.3401 123.992 80.5083 122.692 78.4196 120.383C76.3309 118.073 75.156 114.941 75.1525 111.675V107.163H79.2354C82.1892 107.167 85.021 108.466 87.1097 110.776C89.1983 113.085 90.3733 116.217 90.3767 119.483V123.995ZM90.3767 108.277C88.967 106.558 87.2474 105.184 85.3285 104.245C83.4096 103.305 81.334 102.82 79.2354 102.822H73.1896C72.9318 102.821 72.6764 102.877 72.4381 102.986C72.1998 103.095 71.9832 103.255 71.8009 103.457C71.6186 103.658 71.474 103.898 71.3755 104.161C71.277 104.425 71.2264 104.707 71.2268 104.992V111.675C71.2309 116.092 72.8197 120.328 75.6444 123.451C78.4692 126.575 82.2991 128.332 86.2939 128.337H90.3767V139.659H43.6233V128.337H47.7061C51.7009 128.332 55.5308 126.575 58.3556 123.451C61.1803 120.328 62.7691 116.092 62.7732 111.675V104.992C62.7736 104.707 62.7231 104.425 62.6245 104.161C62.526 103.898 62.3814 103.658 62.1991 103.457C62.0168 103.255 61.8002 103.095 61.5619 102.986C61.3236 102.877 61.0682 102.821 60.8104 102.822H54.7646C52.666 102.82 50.5904 103.305 48.6715 104.245C46.7526 105.184 45.033 106.558 43.6233 108.277V92.0871C52.103 91.6528 60.2576 88.3492 66.9843 82.6231C73.7291 88.3368 81.89 91.6385 90.3767 92.0871V108.277ZM70.0569 79.7492C72.352 77.3835 74.3993 74.74 76.1602 71.8683H111.204C112.651 71.866 114.038 71.2295 115.061 70.0984C116.083 68.9672 116.659 67.4337 116.661 65.834V34.4032C116.659 32.8034 116.083 31.2699 115.061 30.1387C114.038 29.0076 112.651 28.3711 111.204 28.3688H106.493V26.7075C106.492 25.0001 105.878 23.3631 104.786 22.1558C103.694 20.9484 102.214 20.2695 100.67 20.268H84.0117C82.8043 20.2695 81.6272 20.6855 80.6427 21.4584C79.6582 22.2314 78.915 23.3232 78.5156 24.5832C76.3322 20.0277 73.4769 15.9067 70.0673 12.39C76.5357 7.16288 84.3386 4.3434 92.3501 4.3384C113.146 4.3384 130.074 23.058 130.074 46.0667C130.074 69.0754 113.146 87.7979 92.3396 87.7979C84.3286 87.7929 76.5259 84.9746 70.0569 79.7492ZM60.5225 28.3688H55.8115V26.7075C55.8101 25.0001 55.1962 23.3631 54.1044 22.1558C53.0126 20.9484 51.5323 20.2695 49.9883 20.268H33.3246C31.7807 20.2695 30.3003 20.9484 29.2085 22.1558C28.1168 23.3631 27.5028 25.0001 27.5014 26.7075V28.3688H22.7905C21.3439 28.3711 19.9571 29.0076 18.9342 30.1387C17.9113 31.2699 17.3357 32.8034 17.3336 34.4032V65.834C17.3357 67.4337 17.9113 68.9672 18.9342 70.0984C19.9571 71.2295 21.3439 71.866 22.7905 71.8683H60.5225C61.9693 71.8668 63.3564 71.2305 64.3795 70.0992C65.4025 68.9679 65.9779 67.4339 65.9793 65.834V34.4032C65.9772 32.8034 65.4016 31.2699 64.3787 30.1387C63.3558 29.0076 61.9691 28.3711 60.5225 28.3688ZM31.4272 26.7075C31.4279 26.1513 31.628 25.618 31.9837 25.2247C32.3394 24.8313 32.8216 24.61 33.3246 24.6092H49.9883C50.4913 24.61 50.9735 24.8313 51.3292 25.2247C51.6849 25.618 51.885 26.1513 51.8857 26.7075V28.3688H31.4272V26.7075ZM62.0483 65.834C62.0483 66.283 61.887 66.7136 61.5998 67.0312C61.3127 67.3487 60.9233 67.5271 60.5172 67.5271H22.7983C22.3925 67.5263 22.0034 67.3477 21.7165 67.0303C21.4295 66.713 21.268 66.2828 21.2673 65.834V45.8873L35.7429 54.3325V55.959C35.7443 57.0715 36.1446 58.1381 36.856 58.9247C37.5674 59.7114 38.5318 60.154 39.5379 60.1556H43.7829C44.7892 60.1548 45.754 59.7124 46.4656 58.9256C47.1771 58.1387 47.5772 57.0718 47.5779 55.959V54.3325L62.0535 45.8873L62.0483 65.834ZM39.6635 55.8172V51.4123H43.6468V55.8172H39.6635ZM62.0483 40.9816L47.2638 49.6092C46.9698 48.8563 46.4832 48.2149 45.8638 47.7639C45.2444 47.3129 44.5193 47.0721 43.7777 47.071H39.5379C38.7966 47.0719 38.0717 47.3127 37.4527 47.7638C36.8337 48.2148 36.3476 48.8563 36.0544 49.6092L21.2673 40.9816V34.4032C21.268 33.9544 21.4295 33.5241 21.7165 33.2068C22.0034 32.8894 22.3925 32.7108 22.7983 32.7101H60.5225C60.9283 32.7108 61.3173 32.8894 61.6043 33.2068C61.8913 33.5241 62.0528 33.9544 62.0535 34.4032L62.0483 40.9816Z" fill="black"/>
</svg>
