<svg width="429" height="396" viewBox="0 0 429 396" fill="none" xmlns="http://www.w3.org/2000/svg">
<path fill-rule="evenodd" clip-rule="evenodd" d="M354.721 70.0762C356.891 78.1936 357.823 86.1286 359.644 94.3063C361.65 103.307 363.762 112.667 366.507 121.402C371.636 137.728 380.007 148.756 387.9 163.758C394.056 175.462 411.075 215.02 414.241 221.259C416.219 225.158 417.49 230.907 418.848 235.141C419.617 237.536 420.444 243.583 420.079 246.042C414.143 245.284 407.832 244.455 402.024 246.042C400.135 246.559 393.653 251.009 391.832 250.488C389.824 249.914 391.012 246.425 390.251 244.3C388.09 238.272 385.676 232.112 384.098 225.875C382.485 219.499 371.702 179.959 365.596 167.111C362.457 160.508 360.109 153.847 356.611 147.485C352.973 140.868 349.958 134.519 343.985 130.329C344.604 124.599 347.456 118.347 349.109 112.874C350.725 107.519 351.487 102.844 352.078 97.1381C352.642 91.719 354.443 86.4136 353.755 80.8903C353.397 78.0173 351.752 76.0941 351.145 73.5539C350.795 72.0919 349.853 73.3776 351.185 71.5434C351.808 70.6881 353.927 70.6852 354.721 70.0762ZM349.738 74.3094C350.771 80.7342 347.369 89.5867 346.148 95.9235C344.869 102.56 343.339 109.043 341.961 115.635C341.277 118.905 339.964 121.78 339.117 124.947C338.168 128.5 337.729 132.208 336.755 135.775C334.813 142.885 332.136 149.705 332.898 157.272C333.559 163.854 334.351 170.948 336.236 177.198C338.473 184.615 340.577 191.62 341.08 199.524C341.559 207.041 339.964 214.867 338.241 222.071C337.631 224.622 333.028 243.118 331.632 242.852C330.571 234.47 324.897 226.262 321.242 218.996C317.038 210.639 310.882 203.404 304.784 196.749C306.496 195.984 308.12 191.939 308.944 190.032C310.083 187.399 311.406 184.732 312.711 182.207C315.1 177.583 321.838 159.204 323.894 154.601C326.33 149.152 342.576 94.1327 342.214 88.4308C342.052 85.8815 341.922 84.9381 343.106 83.009C344.656 80.4816 347.965 76.7553 349.738 74.3094ZM312.124 71.7591C312.124 74.2964 312.323 74.7576 311.001 76.4576C309.882 77.896 308.433 78.9351 307.347 80.49C304.913 83.9767 302.777 87.7549 301.043 91.7567C297.674 99.536 295.444 108.74 294.332 117.321C293.106 126.793 293.82 136.509 293.279 146.04C293.077 149.582 292.545 153.766 290.492 156.618C288.656 159.169 285.314 161.038 282.788 162.497C277.007 165.835 272.135 170.246 267.729 175.776C266.654 177.124 266.358 180.197 265.138 181.315C263.905 182.444 260.156 185.794 258.713 186.531C255.358 188.246 242.288 186.624 238.741 185.914C235.204 185.206 230.171 181.829 227.05 180.055C222.621 177.537 217.028 172.197 210.271 164.037C229.405 155.667 251.482 147.773 268.568 134.37C268.665 135.966 271.095 140.377 271.344 139.061C272.941 130.651 274.013 122.129 275.589 113.722C276.008 111.489 276.425 109.249 277.181 107.141C277.559 106.085 273.129 105.275 271.344 106.083C264.695 109.098 257.795 110.569 250.794 112.337C237.892 115.594 223.223 116.843 212.072 125.742C207.314 129.539 202.577 134.387 198.718 139.179C194.433 144.5 190.45 153.272 189.865 160.678C182.119 156.683 171.995 158.408 164.01 159.235C166.908 150.882 176.349 142.645 182.172 136.952C186.983 132.249 191.688 127.376 196.994 123.38C208.835 114.463 220.774 106.022 234.431 100.973C241.191 98.4743 247.942 95.9509 254.978 94.6553C258.815 93.9485 262.708 93.7321 266.566 93.2876C270.329 92.8533 271.762 91.9323 274.544 88.9018C279.742 83.2415 286.887 81.9794 293.585 79.9479C300.168 77.9514 306.493 76.2536 312.124 71.7591ZM195.98 44.2229L204.768 49.3203C201.211 50.9724 198.45 52.0943 196.485 52.6861C193.538 53.5739 189.493 66.5715 185.7 66.5715C181.907 66.5715 181.877 55.231 183.752 50.5908C185.003 47.4973 189.079 45.3747 195.98 44.2229Z" fill="#FF5678"/>
<path fill-rule="evenodd" clip-rule="evenodd" d="M163.893 207.604C164.445 207.821 164.649 207.412 164.503 206.377C163.951 206.095 163.747 206.504 163.893 207.604ZM355.486 50.0688C354.611 50.1605 355.106 51.1499 355.625 51.5197C355.579 51.0363 355.532 50.5529 355.486 50.0688ZM304.503 195.511C305.024 195.054 304.838 194.667 303.947 194.352C303.439 194.825 303.625 195.212 304.503 195.511ZM106.886 193.027C104.052 192.506 101.855 187.587 99.5175 188.622C96.592 189.919 93.9134 195.77 91.9146 198.405C93.4557 199.823 95.1613 201.097 96.7932 202.374C98.4765 203.692 98.0443 204.158 99.741 202.592C100.976 201.453 101.966 199.402 102.99 198.003C104.22 196.32 105.784 194.824 106.886 193.027ZM172.214 379.387C172.716 379.436 173.056 366.468 173.463 364.684C174.367 360.722 175.944 356.734 177.689 353.173C178.434 351.653 179.765 349.691 180.33 348.131C181.201 345.727 179.792 344.086 179.394 341.326C178.548 335.441 179.671 330.241 181.471 324.784C178.156 323.922 174.959 322.501 171.588 321.909C171.588 327.116 171.138 331.481 169.264 336.256C168.794 337.453 167.849 338.425 168.254 339.889C168.385 340.365 169.543 340.674 169.821 341.113C171.383 343.582 171.634 345.544 171.718 348.623C172 358.965 171.013 369.117 172.214 379.387ZM148.739 200.488C150.571 202.261 156.419 189.748 158.431 189.82C162.707 189.972 156.632 202.274 156.26 203.779C157.97 203.08 159.588 198.647 160.503 196.928C161.287 195.455 164.169 188.223 165.817 187.777C169.028 186.907 167.603 193.594 167.154 195.162C166.144 198.69 165.155 202.181 164.273 205.755C166.149 204.583 167.541 197.565 168.384 195.272C169.547 192.103 170.479 188.628 172.294 185.855C173.533 183.964 175.571 181.297 177.807 181.163C180.525 181.001 181.547 184.318 183.996 184.938C184.323 177.87 183.715 170.766 184.437 163.72C179.603 163.836 174.743 164.092 169.97 165.035C167.283 165.565 165.499 165.544 164.175 168.423C163.149 170.654 162.347 172.985 161.378 175.248C157.653 183.949 153.67 192.59 148.739 200.488ZM87.585 174.11C84.0558 178.257 80.8649 182.546 77.5401 186.896C74.2064 191.256 69.5703 194.053 66.4213 198.555C63.544 202.671 61.384 207.407 58.6406 211.656C55.604 216.36 53.091 221.628 50.5051 226.675C53.1704 227.233 53.8273 227.296 55.5538 225.029C56.9833 223.152 58.1531 220.893 59.5959 219.001C62.9499 214.6 66.1833 211.016 70.3745 207.568C74.4711 204.199 79.7478 201.25 84.6474 199.535C86.5579 198.867 87.26 199.036 88.3181 197.035C89.0772 195.602 89.354 193.806 90.1239 192.339C91.787 189.169 94.4142 187.389 97.0255 185.38C94.0746 181.401 90.5378 178.151 87.585 174.11ZM323.276 53.3674C322.308 54.1967 322.178 57.3111 321.733 58.6048C320.917 60.9811 319.759 63.211 318.744 65.4803C316.964 69.464 315.485 73.9239 315.55 78.4937C315.617 83.1909 318.798 85.8883 322.62 86.7401C326.82 87.6763 330.043 85.7856 333.734 83.7639C337.397 81.7567 340.42 78.5855 343.333 75.3829C345.639 72.8486 347.109 68.7207 349.723 67.2989C352.204 65.9484 355.251 64.7545 355.997 60.7474C356.507 58.01 355.536 58.3311 353.439 58.915C351.208 59.5353 349.592 61.1769 347.522 62.0586C348.675 59.0518 348.951 56.5838 347.533 53.6375C346.716 51.9405 345.183 49.1325 343.327 49.0648C342.104 49.0204 340.642 50.5514 339.515 51.0443C338.134 51.6464 336.605 51.9238 335.184 52.3722C330.974 53.7038 327.6 53.9593 323.276 53.3674ZM331.571 242.747C332.984 243.016 337.532 224.58 338.157 221.963C339.876 214.759 341.463 206.927 340.986 199.413C340.484 191.489 338.349 184.53 336.159 177.085C334.311 170.803 333.504 163.756 332.832 157.157C332.061 149.579 334.735 142.772 336.675 135.658C337.572 132.372 338.043 129.009 338.831 125.704C339.659 122.226 341.122 119.072 341.864 115.516C343.238 108.92 344.758 102.438 346.035 95.8018C347.251 89.4883 350.571 81.9737 349.544 75.562C347.815 77.9557 345.726 80.043 344.017 82.3945C342.276 84.7941 342.881 84.9819 343.092 88.3082C343.44 93.8012 342.431 100.182 341.314 105.518C338.984 116.644 334.864 126.748 331.858 137.542C330.313 143.091 329.699 149.349 327.513 154.587C325.553 159.283 322.842 163.459 320.764 167.997C318.485 172.972 315.818 177.668 313.326 182.507C312.146 184.798 310.919 187.043 309.871 189.421C308.989 191.425 308.012 196.257 306.283 197.033C312.367 203.696 317.025 210.521 321.218 218.888C324.867 226.171 330.512 234.345 331.571 242.747ZM344.231 130.265C349.973 134.296 352.851 140.219 356.375 146.574C359.891 152.915 363.183 159.406 366.312 166.007C372.538 179.137 377.118 192.178 380.558 206.617C382.11 213.129 384.368 219.452 385.98 225.828C387.47 231.72 387.954 237.714 390.098 243.359C390.69 244.918 391.148 248.365 392.718 248.915C394.567 249.564 399.53 246.659 401.401 246.123C407.477 244.388 413.813 244.038 420.043 244.835C420.407 242.378 417.944 237.531 417.176 235.137C415.907 231.18 414.766 226.96 413.065 223.219C410.134 216.777 406.747 210.51 403.357 204.439C399.765 198.007 396.81 191.107 393.137 184.834C391.442 181.939 389.018 178.034 387.904 174.815C387.353 173.225 387.181 172.611 386.516 171.262C385.937 170.084 385.259 168.922 384.647 167.756C376.924 153.065 371.219 138.154 366.254 122.14C363.536 113.373 361.264 104.55 359.113 95.5775C357.091 87.1463 356.709 78.4515 354.463 70.0486C353.142 71.0621 350.926 70.9201 350.967 72.9287C350.974 73.3233 352.827 76.1357 353.03 76.6824C353.44 77.7912 353.692 78.9626 353.879 80.1442C354.792 85.8854 352.96 91.4555 352.314 97.094C351.688 102.551 351.125 107.019 349.499 112.139C347.74 117.683 344.858 124.453 344.231 130.265ZM211.992 164.191C217.605 169.778 222.805 176.048 229.449 179.823C232.57 181.595 235.051 184.107 238.588 184.814C242.138 185.523 245.8 185.122 249.363 184.832C253.005 184.536 256.301 184.487 259.655 182.773C261.099 182.036 263.294 181.323 264.526 180.195C265.747 179.078 266.516 177.266 267.59 175.919C271.996 170.394 276.87 165.986 282.649 162.653C289.091 158.935 292.656 154.714 293.139 146.209C293.68 136.687 292.967 126.979 294.193 117.517C295.306 108.93 297.532 99.7528 300.904 91.9745C302.637 87.9762 304.773 84.2014 307.207 80.7178C308.293 79.1642 309.742 78.1254 310.861 76.689C312.183 74.9905 311.984 74.5296 311.984 71.9947C306.354 76.4844 300.028 78.1814 293.445 80.1762C286.77 82.1994 279.585 83.4865 274.406 89.1222C271.624 92.15 270.19 93.0702 266.428 93.5034C262.57 93.9482 258.677 94.1644 254.84 94.8699C247.802 96.1658 241.056 98.6855 234.294 101.182C220.638 106.227 208.699 114.661 196.858 123.569C191.549 127.565 186.85 132.428 182.037 137.13C176.214 142.818 168.385 150.438 165.487 158.783C173.466 157.958 181.567 155.321 189.31 159.312C189.898 151.893 194.294 144.675 198.582 139.355C202.384 134.637 207.034 129.923 211.686 126.128C222.821 117.046 237.669 114.692 250.63 111.424C257.636 109.657 264.167 108.279 270.821 105.265C272.506 104.502 277.421 101.088 278.349 103.122C278.941 104.422 277.421 106.29 277.042 107.345C276.388 109.168 276.015 111.063 275.636 112.988C273.926 121.675 272.861 130.528 271.206 139.237C270.963 140.52 270.638 146.321 268.624 145.532C267.282 145.007 268.527 136.15 268.43 134.549C251.342 147.944 231.129 155.827 211.992 164.191ZM231.199 313.719C227.402 313.906 223.535 316.246 219.853 317.31C214.891 318.745 209.683 320.206 205.089 322.779C202.644 324.149 202.621 324.95 203.29 328.073C203.816 330.527 204.423 332.903 204.866 335.401C205.964 341.601 207.191 347.723 208.558 353.851C222.701 340.34 240.755 332.699 258.399 327.494C260.894 326.757 263.437 326.531 265.968 326.027C268.184 325.587 270.71 325.9 272.811 325.402C274.161 325.081 275.382 324.039 276.762 323.673C279.747 322.881 283.305 322.818 286.178 321.602C290.022 319.976 294.321 317.825 298.125 315.609C302.277 313.188 305.618 311.419 306.463 306.212C307.133 302.083 308.815 298.225 309.337 294.172C310.017 288.886 309.173 284.19 308.888 278.906C308.229 266.679 306.675 254.32 303.959 242.395C301.355 230.96 299.496 219.254 297.701 207.663C297.352 205.404 296.653 203.322 296.195 201.102C295.432 197.408 293.916 198.356 290.986 198.573C285.507 198.977 279.713 196.476 275.164 193.099C273.015 191.505 270.299 187.86 267.842 187.077C265.654 186.379 263.42 189.763 261.331 190.897C256.338 193.606 250.217 194.339 244.768 194.766C232.882 195.698 223.874 186.843 215.775 177.836C210.338 184.796 204.446 191.414 198.133 197.328C192.93 202.201 188.509 208.53 184.179 214.332C180.11 219.785 176.821 228.266 171.296 232.086C168.074 234.314 165.673 232.904 162.562 230.664C160.093 228.885 157.37 227.915 154.884 226.273C143.406 218.692 132.567 210.129 121.353 202.091C118.901 200.334 115.046 196.198 112.16 195.901C110.021 195.681 110.19 196.293 108.953 198.319C107.755 200.283 106.54 202.234 105.35 204.205C100.687 211.93 95.7173 219.905 91.9387 228.248C100.165 226.003 107.942 225.657 116.038 226.984C123.485 228.205 132.993 229.678 139.586 234.287C142.403 236.255 145.168 238.466 147.978 240.704C151.504 243.513 154.242 247.44 158.146 249.559C161.512 251.386 165.156 252.213 168.655 253.574C172.587 255.102 178.166 257.952 182.342 256.714C185.9 255.659 188.879 252.047 191.558 249.558C195.043 246.321 199.278 244.108 202.805 241.09C209.055 235.743 215.579 231.173 222.301 226.395C230.328 220.687 238.028 214.128 246.359 209.103C247.997 208.115 249.617 207.43 251.142 206.249C252.575 205.139 253.607 203.107 255.332 204.555C256.865 205.841 256.195 208.211 255.731 209.861C255.297 211.407 254.894 211.902 255.175 213.251C255.436 214.507 257.123 216.433 257.703 217.661C260.441 223.457 262.397 229.68 265.02 235.543C267.573 241.244 270.454 246.73 272.828 252.54C277.513 264.007 284.056 274.168 288.206 286.004C286.294 286.9 286.056 285.055 284.574 284.881C282.954 284.689 283.54 285.042 281.931 286.37C279.774 288.152 277.459 289.278 275.144 290.668C269.989 293.762 264.711 297.403 259.148 299.541C249.593 303.214 240.787 309.706 231.199 313.719ZM395.607 260.181C395.277 262.895 394.852 265.588 394.507 268.297C394.263 270.212 393.327 272.987 393.54 274.882C396.001 273.551 398.65 269.091 400.55 273.97C401.683 276.875 400.263 282.643 399.929 285.77C402.711 285.124 402.083 277.301 406.528 279.826C409.946 281.767 407.554 291.632 410.226 292.592C412.072 289.26 411.768 281.701 412.372 277.735C412.656 275.876 412.25 273.379 414.151 273.258C415.798 273.153 417.101 275.884 417.88 277.133C418.622 272.6 420.625 268.577 419.751 264.404C419.211 261.823 418.657 259.24 418.079 256.668C417.739 255.155 417.377 250.508 416.227 249.468C414.087 247.531 406.268 250.979 403.904 251.757C401.747 252.467 398.997 253.139 397.012 254.336C394.927 255.593 395.566 257.403 395.607 260.181ZM326.323 104.173C329.526 103.772 332.301 101.551 334.758 99.2351C338.785 95.4399 339.396 92.4674 340.161 86.6199C334.996 89.5014 331.182 91.885 325.355 92.0051C318.684 92.1427 315.405 87.6654 312.338 81.5048C311.515 82.9405 310.34 84.4635 309.74 86.0368C308.981 88.0243 309.077 87.6115 309.298 89.6289C309.637 92.7433 310.992 96.7344 312.37 99.4674C315.343 105.368 321.188 106.167 326.323 104.173ZM194.478 341.236H200.534C200.187 338.696 199.84 336.157 199.492 333.617C199.19 331.4 199.692 328.282 197.789 327.896C196.213 327.576 194.649 329.575 193.046 329.396C191.216 329.192 190.164 327.69 188.042 328.294C185.023 329.156 185.626 332.941 185.581 336.117C185.564 337.365 185.145 339.241 185.485 340.454C186.079 342.571 185.583 341.726 187.421 341.932C189.578 342.175 192.256 341.374 194.478 341.236ZM344.612 35.3248C346.831 35.7289 352.576 41.1337 354.198 39.8444C356.4 38.0949 350.07 33.2616 348.773 32.5008C342.434 28.7821 330.579 31.7204 326.318 38.5099C329.11 38.8208 332.522 35.8927 335.387 35.4114C338.456 34.896 341.529 35.3335 344.612 35.3248ZM343.065 175.202C344.872 183.533 348.115 192.461 348.096 201.122C348.075 210.125 346.339 218.295 343.156 226.538C341.564 230.662 340.139 234.832 338.329 238.841C337.492 240.698 336.722 242.973 335.563 244.593C334.134 246.591 333.691 246.443 331.992 244.857C331.233 247.08 330.436 249.372 327.855 247.877C325.996 246.801 326.036 244.132 325.427 242.149C323.796 236.832 320.309 232.247 317.848 227.404C315.323 222.438 313.193 217.096 310.4 212.323C309.056 210.024 307.454 207.884 306.018 205.653C304.929 203.961 303.266 200.05 301.754 199.057C301.554 201.287 303.631 204.534 304.399 206.712C305.406 209.572 306.271 212.511 306.998 215.479C308.411 221.244 309.264 227.268 310.34 233.128C312.262 243.605 314.53 254.013 315.817 264.646C317.014 274.538 317.333 284.759 316.423 294.695C316.033 298.963 313.847 302.572 312.374 306.458C310.371 311.742 307.937 315.037 303.914 318.785C296.608 325.592 288.52 329.665 279.622 332.703C277.962 333.269 276.42 333.023 274.863 333.408C273.115 333.838 271.725 334.857 269.826 335.197C264.924 336.074 259.939 337.106 255.206 338.697C251.477 339.951 247.793 341.257 244.103 342.56C241.291 343.553 237.827 344.477 235.119 345.94C228.442 349.551 222.179 353.787 215.982 358.276C214.166 359.593 212.826 360.39 211.487 362.337C210.037 364.444 210.247 365.934 209.457 368.337C208.72 370.58 207.433 371.843 205.685 369.979C204.051 368.236 204.697 364.558 204.564 362.402C204.364 359.15 202.681 346.717 200.726 345.677C199.314 344.927 195.186 346.541 193.474 346.756C191.256 347.035 189.257 347.028 187.048 346.681C187.778 350.162 185.111 354.87 183.991 357.93C182.081 363.15 180.594 368.235 179.802 373.79C179.263 377.578 179.436 381.381 178.928 385.212C178.404 389.168 179.198 395.369 174.506 395.962C167.058 396.905 165.158 379.845 164.312 374.125C162.982 365.154 164.034 356.314 164.818 347.294C164.882 346.563 165.207 343.35 164.918 342.766C164.682 342.292 162.588 341.471 162.319 341.252C159.958 339.331 160.919 338.31 161.622 335.448C162.965 329.981 162.575 323.149 165.801 318.368C168.269 314.711 173.81 316.933 177.002 317.92C179.381 318.656 181.732 319.646 184.043 320.627C185.642 321.304 187.427 323.332 188.826 323.659C191.618 324.312 193.675 320.23 195.758 318.785C199.515 316.178 203.434 313.78 207.482 312.032C214.921 308.819 222.619 306.975 230.25 304.271C234.923 302.617 239.537 300.808 243.976 298.416C247.256 296.65 250.563 294.163 254.112 292.966C258.581 291.458 263.117 289.362 267.479 287.279C272.119 285.063 277.196 283.643 281.958 281.847C272.044 265.232 263.572 247.459 256.764 228.895C255.978 226.754 255.224 224.602 254.529 222.42C254.175 221.31 253.305 216.333 252.384 215.63C250.708 214.355 243.976 220.135 242.101 221.542C235.305 226.639 228.787 232.21 221.707 236.843C215.576 240.854 209.791 245.507 203.927 249.809C200.698 252.179 197.695 255.2 194.411 257.593C191.137 259.979 187.283 264.423 183.404 265.454C181.956 265.839 179.504 265.369 178.041 265.233C175.978 265.041 173.676 264.829 171.67 264.173C167.738 262.888 163.583 261.428 159.74 259.828C152.832 256.952 147.478 249.857 141.251 245.477C133.745 240.197 125.242 238.882 116.854 235.963C107.675 232.771 97.4952 232.423 87.8078 233.252C87.8078 223.133 92.0745 215.544 96.7304 207.239C93.377 204.719 91.9622 203.148 88.2089 205.48C85.4243 207.21 82.8574 208.766 80.2746 210.699C77.469 212.8 74.4832 214.412 71.689 216.716C68.6524 219.22 65.996 221.877 63.1917 224.68C61.0831 226.787 58.6812 228.703 56.4755 230.609C54.297 232.49 52.0786 232.218 49.2927 230.935C48.4713 230.557 45.9057 229.236 45.4715 228.6C44.5962 227.317 45.2437 226.422 45.9705 224.731C47.6519 220.817 49.7999 216.844 51.9942 213.265C53.953 210.071 56.4952 207.404 58.546 204.288C60.4934 201.333 61.8854 197.901 64.1413 195.222C66.6638 192.226 69.6553 189.821 72.0369 186.629C73.2245 185.036 74.5778 183.339 74.6717 181.46C74.7441 180.018 73.3419 178.622 73.3286 177.587C73.2988 175.159 76.9327 172.69 78.4497 170.904C80.677 168.28 82.8771 166.014 86.3174 167.139C88.843 167.965 92.6426 171.609 94.5246 173.727C96.8922 176.393 98.8549 179.479 101.297 182.116C102.67 183.599 104.133 184.953 105.552 186.375C106.391 187.215 107.721 189.625 108.649 190.117C109.479 190.557 110.289 190.141 111.448 190.105C110.926 190.12 113.57 190.63 113.429 190.586C114.681 190.97 115.916 191.386 117.149 191.842C122.22 193.717 126.891 196.881 131.466 200.032C143.085 208.035 153.989 216.563 165.369 225.092C168.74 227.618 169.667 227.439 172.255 223.823C174.67 220.449 176.673 216.7 178.941 213.202C182.68 207.439 186.895 201.834 191.309 196.713C195.853 191.443 201.091 187.03 205.948 182.154C207.297 180.8 212.855 176.227 212.504 174.513C212.306 173.545 210.509 171.91 209.94 170.919C209.09 169.441 208.21 167.773 207.583 166.143C203.894 156.547 213.469 155.889 219.071 152.923C225.91 149.302 232.681 145.302 239.672 142.069C243.182 140.446 246.696 138.964 250.24 137.459C253.502 136.074 256.473 133.828 259.683 132.299C262.048 131.173 267.185 130.743 268.761 128.347C269.691 126.934 269.29 122.471 269.453 120.825C269.723 118.092 270.121 115.375 270.745 112.718C269.573 112.476 267.373 113.95 266.308 114.516C264.255 115.607 262.469 116.681 260.192 117.367C255.32 118.833 250.219 119 245.419 120.592C238.114 123.015 230.324 124.417 223.179 127.895C214.952 131.899 207.868 138.941 202.089 146.542C199.105 150.465 196.733 154.237 194.698 158.895C194.17 160.101 193.545 164.143 192.734 164.984C191.702 166.056 188.978 164.928 187.805 164.707C187.805 168.274 187.87 171.846 187.758 175.407C187.639 179.166 188.231 184.932 187.095 188.399C186.029 191.654 184.04 190.981 181.932 189.362C179.132 187.211 177.695 185.977 175.185 189.31C170.818 195.107 169.166 204.113 166.17 210.899C165.189 213.121 162.77 217.775 161.447 213.207C160.484 209.877 162.082 205.631 161.335 202.342C160.314 204.394 157.262 210.499 154.848 210.482C151.525 210.459 152.609 204.553 152.72 202.146C150.761 204.539 145.012 212.361 143.62 206.092C142.551 201.279 145.535 196.504 147.654 192.715C150.119 188.306 152.543 183.83 155.101 179.497C157.604 175.256 159.28 170.45 161.818 166.184C159.883 166.49 156.139 165.766 157.328 162.338C157.951 160.546 159.919 161.299 160.88 160.186C161.881 159.027 162.42 155.737 162.981 154.218C165.74 146.735 169.699 140.583 174.276 134.498C182.364 123.745 192.69 115.16 203.101 107.958C215.506 99.3786 228.294 94.1608 242.184 89.9667C248.766 87.9799 255.441 87.0662 262.095 85.6349C264.857 85.0408 267.658 84.706 269.844 82.7024C273.102 79.7146 275.25 77.5029 279.178 75.5962C282.351 74.0557 285.363 73.3451 288.825 72.687C292.535 71.9808 296.792 72.92 300.357 71.7209C303.319 70.7235 306.772 68.5584 309.463 66.8257C310.818 65.9535 313.218 65.4621 313.95 64.7202C315.363 63.2889 316.297 59.7202 317.199 57.7982C314.968 58.4672 314.118 56.6523 313.521 54.4536C312.527 50.7975 312.517 52.0126 309.416 50.4815C307.58 49.5744 306.986 47.1537 305.53 46.2947C303.969 45.3723 301.493 47.3612 299.65 46.7147C298.155 46.1898 296.694 44.3509 296.776 42.3932C296.81 41.5764 297.562 40.8512 297.575 40.1858C297.607 38.6264 296.495 37.7651 296.657 36.0557C296.909 33.4101 298.083 33.8571 297.086 30.9902C296.094 28.1363 296.481 27.5735 296.779 24.6156C296.862 23.798 296.495 22.481 296.994 21.7857C297.284 21.3795 298.349 21.3169 298.457 21.1116C298.864 20.345 298.876 19.7152 298.958 18.3094C299.005 17.5086 298.789 15.9069 299.517 15.3143C300.149 14.7996 301.046 15.7562 301.599 15.4534C302.08 15.1906 302.496 13.8809 303.285 13.7229C306.199 13.139 305.31 16.5338 306.799 12.2967C307.661 9.84251 308.323 8.83784 309.869 7.44221C310.542 7.79749 310.961 7.65407 311.128 7.0105C311.353 6.54529 311.581 6.08081 311.807 5.61633C313.013 5.28945 313.187 6.32397 314.12 5.30765C315.688 3.60189 314.075 -0.17583 317.241 0.835396C319.537 1.56852 320.095 4.93927 322.497 5.74883C322.828 4.65097 322.785 1.44184 324.18 1.11714C325.6 0.786618 326.681 3.74968 327.198 4.71722C327.534 3.88509 328.09 1.39306 328.643 0.783706C330.233 -0.967192 329.752 0.729103 331.159 0.962071C331.38 1.25838 331.602 1.55541 331.823 1.85245C332.559 1.44111 333.283 1.00721 333.997 0.547825C335.54 0.213662 334.99 0.396398 336.336 1.01959C337.412 1.51828 336.768 2.08832 338.076 2.4021C339.025 2.62852 339.829 1.50008 340.886 1.84589C341.193 1.99951 341.501 2.15385 341.809 2.30746C342.244 3.41333 342.912 3.60917 343.814 2.89425C344.876 3.39586 346.31 5.41175 347.441 5.3455C349.604 5.21664 349.095 1.80876 351.466 1.97548C352.345 2.03664 354.618 4.74343 355.245 5.54717C356.125 6.67488 355.876 7.64897 356.977 8.91719C358.573 10.754 357.637 9.76898 359.16 10.6004C361.43 11.8402 362.267 11.3714 363.202 14.3555C364.016 16.9509 364.471 20.1797 364.48 22.9295C364.485 24.6454 363.408 28.4297 365.488 27.5997C366.948 27.0173 366.703 22.8741 368.269 24.1737C369.461 25.1609 367.11 30.4398 367.083 31.6781C367.004 35.2411 367.501 35.5265 365.572 38.1889C364.658 39.4498 362.563 41.7736 362.099 43.4073C361.55 45.3395 363.008 48.6862 363.344 50.4124C364.073 54.1588 363.457 54.9502 361.296 57.8943C361.064 58.053 360.832 58.2124 360.6 58.3711C359.446 58.3682 359.126 59.0271 359.639 60.3463C359.18 61.8176 359.235 63.2358 358.585 64.7144C358.229 65.5225 356.66 67.1584 356.58 67.9578C356.438 69.3832 357.056 69.6329 358.104 71.1108C362.33 77.069 364.266 84.7897 366.357 91.9564C370.039 104.58 374.577 116.892 378.973 129.246C380.686 134.062 382.422 138.687 384.2 143.557C386.413 149.619 389.522 155.155 392.153 161.03C393.971 165.091 395.826 169.549 398.098 173.052C400.956 177.461 402.562 183.126 405.068 187.898C407.746 192.994 410.872 198.016 413.454 203.26C415.923 208.276 418.974 212.868 421.319 218.02C424.246 224.452 427.655 232.18 428.46 239.469C428.745 242.052 429.632 246.312 428.232 248.522C426.782 250.81 422.791 251.767 420.765 250.059C422.791 255.457 424.05 261.506 424.959 267.279C425.351 269.773 425.898 271.975 425.418 274.524C424.989 276.802 425.701 275.475 424.094 276.807C422.749 277.923 423.371 274.778 422.313 277.984C422.09 278.66 422.528 280.536 422.512 281.321C422.451 284.471 422.246 287.678 422.139 290.847C422.057 293.251 422.396 295.278 419.816 295.024C417.748 294.82 416.724 292.306 415.806 290.532C415.462 293.357 415.264 296.177 414.979 299.009C414.727 301.522 415.231 304.005 412.421 303.734C407.812 303.289 405.995 293.727 404.827 289.732C402.728 292.899 401.707 299.187 400.783 303.06C399.904 306.747 398.879 314.593 394.386 309.766C391.392 306.549 392.552 300.222 393.089 296.106C393.266 294.748 395.794 282.818 394.612 282.13C392.922 284.2 390.954 287.581 388.172 285.756C385.671 284.117 386.485 280.473 386.684 277.844C387.251 270.362 389.493 263.191 391.156 255.942C390.21 255.699 387.91 255.484 387.131 254.678C386.132 253.645 386.748 253.143 386.309 251.823C385.716 250.036 384.651 248.22 383.81 246.522C381.07 240.99 380.226 235.475 378.81 229.455C377.443 223.641 374.867 218.523 373.501 212.634C371.986 206.109 370.373 199.698 368.587 193.2C364.685 179.004 359.066 165.488 352.606 152.612C351.757 150.922 344.807 132.662 343.76 133.202C343.014 133.587 342.586 138.312 342.301 139.589C341.641 142.545 341.511 145.654 341.356 148.701C338.809 155.809 341.52 168.074 343.065 175.202Z" fill="black"/>
<path fill-rule="evenodd" clip-rule="evenodd" d="M108.186 151.138C110.78 151.847 111.708 144.923 111.999 142.78C112.469 139.305 113.008 136.316 114.643 133.277C115.438 131.799 116.389 130.28 117.42 129.006C118.022 128.264 119.53 127.297 119.845 126.501C120.716 124.3 119.704 118.766 119.715 116.29C119.723 114.699 118.815 107.299 120.445 106.782C122.564 106.11 123.116 112.86 123.35 114.379C123.618 116.119 123.574 117.796 123.736 119.518C123.886 121.124 124.65 122.119 124.943 123.19C125.779 126.25 123.793 128.819 122.369 131.576C120.784 134.644 119.069 137.624 117.956 140.974C116.749 144.607 116.827 148.435 115.883 152.113C114.348 158.092 107.914 161.352 102.702 159.598C99.931 158.666 100.514 156.522 99.6358 154.052C99.3032 153.114 98.3694 152.594 98.0914 151.348C97.7969 150.03 98.0667 148.315 98.2926 146.984C99.3889 140.54 101.168 133.793 102.886 127.523C93.5331 133.421 83.6282 137.307 72.8581 137.085C67.5051 136.975 63.6051 135.66 59.7273 140.897C56.7223 144.955 56.7261 152.093 55.4998 157.14C54.1687 162.619 52.9683 169.637 49.9379 174.221C46.2823 179.754 41.2911 178.843 40.9185 171.465C40.6005 165.176 43.3332 159.214 42.8749 152.829C42.6444 149.617 41.5393 146.786 41.6072 143.532C41.6656 140.736 42.1449 138.11 42.5968 135.357C37.2476 136.099 33.1045 138.616 29.3042 142.839C25.7456 146.792 24.2616 151.673 21.3232 156.195C18.642 160.32 16.2692 165.997 10.9765 165.856C4.22067 165.676 3.79538 156.152 6.32874 151.062C7.62366 148.461 9.4226 146.424 11.0685 144.133C12.891 141.596 13.1062 139.559 13.4819 136.319C13.7676 133.848 13.8463 130.584 15.788 128.955C17.5343 127.488 19.7268 128.201 21.3423 126.257C22.8879 124.399 24.108 121.585 25.4962 119.531C27.2297 116.965 29.0242 114.315 30.5661 111.592C33.8834 105.73 38.243 101.651 42.838 97.0643C41.1718 95.8759 36.7786 97.1894 34.7149 96.8134C31.3246 96.1945 26.9371 94.3463 24.3104 91.6887C18.8578 86.1697 16.2375 78.9917 15.969 70.6958C15.7106 62.728 16.8024 53.1178 21.9739 47.1966C24.6094 44.1782 27.9838 41.5366 31.3138 39.6121C33.5311 38.3313 38.0976 35.5376 40.6614 36.6911C46.5806 39.3568 33.1934 49.9583 31.4281 51.6544C25.8041 57.0585 22.5286 62.2741 22.6594 70.9184C22.7857 79.3234 29.8589 83.3193 35.775 86.0999C38.8435 87.5422 42.5499 88.6994 45.9776 88.5939C49.8618 88.4753 52.5037 85.921 56.0419 84.4227C63.0059 81.4741 70.1502 79.4914 77.3288 77.5051C84.3976 75.5478 92.0871 75.99 99.326 74.7121C106.131 73.5106 112.49 72.029 118.923 69.1954C125.584 66.2613 130.722 57.5101 137.987 56.5893C142.493 56.0191 140.29 59.671 138.343 61.5439C136.014 63.7848 133.484 65.7369 131.153 67.9851C125.216 73.7106 118.996 77.0789 111.47 79.2616C106.004 80.8464 100.11 82.3287 94.3006 83.2742C86.9665 84.4685 79.5848 84.0954 72.3801 86.2701C68.1145 87.5574 63.972 89.1968 59.9476 91.2886C58.2991 92.1454 54.8897 93.5179 54.5844 95.0416C54.1883 97.0141 55.567 96.9749 53.9052 98.7917C51.1059 101.853 47.4649 104.018 44.6376 107.194C41.4885 110.732 38.4931 114.164 35.9419 118.313C33.4117 122.429 31.3913 126.418 27.6442 129.257C26.402 130.198 24.2933 131.849 22.8816 132.281C21.5822 132.68 20.9887 132.07 19.8766 132.898C16.9186 135.098 18.6908 141.969 17.9101 145.37C16.9116 149.727 14.3547 152.998 12.7627 157.039C14.9901 156.487 16.5453 152.264 17.6904 150.272C18.9739 148.038 20.5996 146.533 22.2328 144.602C25.6669 140.542 26.5759 134.991 30.6581 131.169C38.0532 124.246 49.5482 124.843 55.7181 115.563C56.7172 114.06 57.6561 109.715 58.8551 108.769C61.0514 107.037 60.8655 112.212 60.6395 113.748C59.867 118.992 57.0422 125.19 53.3492 128.5C51.6778 129.999 49.34 130.685 47.8895 132.631C47.5341 132.791 47.1799 132.954 46.8244 133.115C47.0364 133.979 47.1519 134.858 47.1691 135.75C47.2027 137.309 46.8726 138.83 46.8174 140.403C46.6797 144.362 47.4446 147.746 48.1371 151.538C48.6328 154.247 47.2992 159.893 48.3618 162.101C50.4616 154.034 52.9309 144.716 56.9089 137.546C57.849 135.85 59.7133 134.45 60.4535 132.703C60.8051 132.256 61.1568 131.808 61.5085 131.361C60.8921 130.707 60.3551 129.978 59.8974 129.174C57.512 123.434 62.7387 126.983 64.8239 127.47C68.1761 128.254 72.3535 126.644 75.8345 126.523C79.2267 126.405 82.572 126.276 85.888 125.673C89.4687 125.023 93.184 124.039 96.6873 122.964C100.205 121.884 103.455 119.661 106.873 118.684C103.456 116.01 102.374 112.528 101.192 108.18C100.415 105.321 97.6541 98.3837 99.3914 95.4824C101.275 92.3353 101.947 97.1749 102.558 98.8892C103.591 101.788 105.155 106.733 107.07 108.907C108.102 110.08 109.496 109.951 110.418 111.515C111.096 112.665 111.188 114.255 111.294 115.589C111.608 119.528 110.248 122.681 109.035 126.266C106.206 134.626 105.062 143.567 101.362 151.521C103.613 151.768 105.942 151.398 108.186 151.138Z" fill="black"/>
<path fill-rule="evenodd" clip-rule="evenodd" d="M155.528 85.27C157.334 84.784 163.017 84.0739 161.368 80.2837C159.7 76.45 155.259 82.6499 155.528 85.27ZM209.326 55.0867C208.266 54.7098 206.583 53.8315 205.448 53.9247C204.102 54.0353 203.102 55.1514 201.737 55.2991C198.951 55.6003 196.797 54.2397 194.977 57.6449C198.85 57.6449 206.596 59.1482 209.326 55.0867ZM136.262 134.507C139.948 135.096 141.779 116.46 141.974 114.019C140.321 113.826 135.865 117.542 135.476 119.254C135.049 121.135 136.519 124.153 136.698 126.108C136.962 129.002 136.682 131.658 136.262 134.507ZM156.8 28.1338C152.362 28.6286 147.397 30.273 143.325 27.4477C140.023 25.1579 138.8 20.3266 136.018 17.4904C136.018 25.6702 142.443 32.1153 148.981 34.7107C152.31 36.032 157.41 34.0391 160.352 36.1928C161.204 36.8171 163.023 39.6613 163.089 40.8364C163.317 44.8412 160.824 41.257 159.412 41.3807C157.449 41.5524 154.717 47.4751 153.081 49.276C151.85 50.6308 150.461 51.7302 149.071 52.8944C148.613 53.2785 146.258 54.6421 146.141 55.3013C146.037 55.8863 147.328 58.0364 147.6 58.5908C149.472 62.4093 151.727 65.1458 154.686 67.8395C156.144 69.1666 157.662 69.9059 159.124 71.0082C159.601 71.3691 161.54 74.3923 160.976 74.265C161.791 71.4324 164.111 68.1516 165.654 65.6472C167.236 63.0794 169.322 60.3895 171.974 59.3497C173.139 58.8928 175.069 58.5006 176.282 58.3885C177.133 58.3543 177.977 58.4344 178.812 58.6287C180.028 59.2428 180.504 58.7487 180.239 57.1443C181.516 54.1073 180.764 50.2837 182.388 47.1986C184.294 43.5766 187.412 41.9358 190.985 42.344C192.591 42.5274 194.32 43.3161 195.91 42.9945C197.485 42.6758 199.27 41.2206 200.812 40.5934C206.8 38.1559 214.189 35.1938 218.884 30.1158C219.597 29.346 221.609 27.2098 221.767 26.1031C221.348 25.0233 220.93 23.945 220.511 22.866C220.401 21.2841 219.729 20.8527 218.494 21.5723C217.04 21.5373 214.283 23.4473 212.827 23.9937C210.98 24.6879 209.122 25.2983 207.304 26.082C204.148 27.4419 201.077 28.8389 197.764 29.648C194.334 30.4847 192.701 30.9948 190.896 27.2745C189.13 23.6379 189.381 21.5111 185.272 22.043C181.61 22.516 178.54 24.0978 175.164 25.7669C172.922 26.8751 170 28.916 167.72 29.3533C166.03 29.6778 164.206 28.924 162.577 28.5355C160.521 28.0458 158.891 28.1317 156.8 28.1338ZM199.341 49.2541H201.186C199.756 48.2922 198.325 47.3296 196.895 46.3677C194.882 50.0873 189.851 48.4698 186.801 50.6861C184.296 52.5065 181.944 60.2643 184.349 63.0896C187.692 67.0165 189.337 58.3034 190.286 56.2959C192.217 52.2104 195.126 49.1508 199.341 49.2541ZM140.877 57.5816C139.381 54.3481 140.362 51.2572 142.583 49.5415C145.788 47.0669 149.013 44.3559 152.155 41.6142C146.815 40.6553 142.987 38.6332 138.633 34.9042C133.609 30.6012 132.179 26.6248 132.32 19.3567C132.39 15.7085 131.945 5.33931 137.089 8.34943C141.338 10.8364 141.924 17.7909 146.496 20.1483C151.012 22.4767 156.333 20.0617 161.083 21.8749C162.434 22.3916 166.051 26.0252 167.149 26.0085C168.608 25.9852 172.274 22.2933 173.653 21.4166C177.116 19.2177 181.593 17.0735 185.45 16.4397C187.872 16.0417 188.661 15.7565 190.416 17.8003C192.382 20.0887 192.998 22.9176 193.699 25.8906C201.157 22.3755 208.689 19.0948 216.357 16.2287C218.793 15.3185 220.465 14.1543 222.542 12.6874C225.517 10.5876 227.172 11.5596 227.713 15.9013C228.666 23.5499 224.583 28.4416 221.035 34.1664C219.078 37.3235 217.742 39.5537 214.561 41.166C211.25 42.8439 207.264 42.3033 203.668 43.5642C204.591 44.8507 205.078 47.8462 205.891 48.7506C206.552 49.4855 209.714 49.3633 210.781 50.005C213.978 51.9288 213.598 55.1398 211.617 58.315C209.383 61.8963 206.079 62.5563 202.469 62.8684C200.853 63.0074 199.413 63.0329 197.795 62.9019C196.749 62.8175 193.106 61.5231 192.317 61.9065C191.383 62.3598 191.166 64.7195 190.741 65.797C190.065 67.5098 189.313 69.243 187.722 70.0346C186.345 70.7186 184.794 70.5338 183.542 69.5944C181.865 68.3364 182.325 66.8514 181.269 65.2361C181.169 63.5349 180.536 63.2126 179.368 64.2676C178.476 64.6249 177.586 64.9858 176.697 65.3503C174.857 66.1172 173.139 66.8572 171.52 68.1458C168.419 70.6131 166.541 74.7757 163.086 76.5104C165.341 80.9226 163.932 86.9254 160.138 89.2166C159.282 89.7325 158.234 90.3669 157.325 90.7016C156.648 90.9512 154.876 90.7489 154.419 91.1819C153.756 91.8098 153.392 97.7536 152.928 99.0779C151.332 103.631 147.944 105.897 145.939 110.027C143.983 114.057 144.403 120.312 143.834 124.852C143.129 130.475 142.681 136.377 140.577 141.595C139.17 145.086 134.949 149.225 131.222 148.536C125.742 147.525 128.124 139.51 129.805 136.056C132.398 130.728 132.395 126.697 131.737 120.804C129.573 121.172 124.213 123.595 124.471 118.875C124.647 115.656 130.718 112.705 132.845 111.089C137.655 107.434 142.576 103.182 146.638 98.5002C148.316 96.5647 150.719 92.9907 151.573 90.3437C152.195 88.4119 152.062 86.5332 152.197 84.5133C152.322 82.6543 153.747 80.1011 153.676 78.4764C153.571 76.0665 148.029 72.216 146.444 69.6643C144.186 66.0292 142.288 61.7304 140.877 57.5816ZM251.895 65.6739C253.594 65.4194 260.122 63.3484 261.244 65.2871C263.289 68.8237 257.276 69.4822 255.764 69.8028C249.082 71.2174 242.545 73.0987 236.066 75.2061C223.176 79.3976 210.035 84.6576 198.03 91.4856C196.15 92.555 190.625 96.9063 188.744 94.7081C186.313 91.8687 192.211 88.7182 193.562 87.8336C199.549 83.9118 205.877 80.3942 212.303 77.5061C224.962 71.8186 238.337 67.3851 251.895 65.6739ZM90.7886 252.356C100.377 250.719 110.794 253.135 120.1 256.468C123.081 257.535 126.189 258.775 128.918 260.516C130.388 261.452 133.884 263.12 134.716 264.872C136.104 267.794 134.551 269.04 132.317 268.559C130.193 268.102 127.584 266.704 125.368 266.066C115.218 263.141 105.129 260.947 94.8485 259.776C92.3894 259.496 90.6032 259.823 88.2327 260.317C86.461 260.687 81.7826 262.891 80.4509 261.599C75.6371 256.928 88.4973 252.646 90.7886 252.356ZM239.974 274.83C240.623 278.995 238.774 279.383 235.683 281.329C232.527 283.317 229.373 284.95 226.039 286.555C222.447 288.284 218.682 290.057 214.94 291.319C211.77 292.388 206.882 294.784 203.59 294.429C202.262 294.286 201.403 294.484 201.393 292.6C201.383 290.556 203.062 290.678 204.447 290.227C208.687 288.846 212.792 286.772 216.961 285.127C224.812 282.03 232.677 279.416 239.974 274.83ZM2.1312 71.1865C-0.327747 66.5395 -0.278307 60.3447 0.402089 55.0939C0.63136 53.3239 4.36149 40.2395 6.61526 42.9592C7.95195 44.5726 3.40176 54.8484 2.9253 57.1967C2.35058 60.0279 2.05519 62.8284 2.43401 65.7223C2.53721 66.5045 4.06795 71.4698 2.1312 71.1865Z" fill="black"/>
<path fill-rule="evenodd" clip-rule="evenodd" d="M130.996 97.5638C129.195 94.7445 131.606 88.436 132.335 85.4391C132.785 83.592 134.158 76.6547 136.336 78.1355C138.45 79.5728 136.083 86.0752 135.66 87.8706C135.032 90.5344 134.119 97.4967 130.996 97.5638Z" fill="black"/>
<path fill-rule="evenodd" clip-rule="evenodd" d="M330.755 247.804C331.085 246.902 331.417 246.001 331.747 245.099C332.588 245.831 333.762 246.19 332.906 247.3C332.38 247.983 331.494 247.981 330.755 247.804ZM300.374 71.9147C298.9 72.1733 297.915 72.1873 296.454 72.1481C297.761 72.0701 299.068 71.9927 300.374 71.9147ZM348.155 203.026C348.152 201.904 348.148 200.782 348.145 199.66C348.148 200.784 348.152 201.905 348.155 203.026ZM110.991 118.881C110.988 117.758 110.985 116.635 110.982 115.515C110.985 116.638 110.988 117.759 110.991 118.881ZM156.802 20.5729C155.822 20.5657 154.842 20.5595 153.862 20.5522C154.847 20.0961 155.825 20.3155 156.802 20.5729ZM163.436 366.269C163.424 367.017 163.412 367.766 163.398 368.513C163.411 367.763 163.423 367.015 163.436 366.269ZM39.6905 97.2738C40.1826 97.2799 40.6735 97.2855 41.1606 97.2928C40.6674 97.2872 40.1793 97.2805 39.6905 97.2738ZM316.312 295.586C316.304 294.837 316.296 294.088 316.287 293.342C316.295 294.093 316.303 294.84 316.312 295.586ZM341.244 148.612C341.274 147.863 341.305 147.115 341.336 146.368C341.305 147.118 341.274 147.865 341.244 148.612ZM296.753 35.2961C296.717 36.0447 296.682 36.7939 296.646 37.5399C296.681 36.7907 296.717 36.044 296.753 35.2961ZM422.621 281.562C422.628 280.813 422.634 280.064 422.64 279.318C422.634 280.068 422.628 280.815 422.621 281.562ZM227.636 22.9547C227.618 22.2054 227.6 21.4561 227.58 20.7108C227.599 21.4609 227.617 22.2078 227.636 22.9547ZM22.7437 71.1982C22.7716 70.4492 22.799 69.7001 22.827 68.9543C22.7985 69.7041 22.7716 70.4515 22.7437 71.1982ZM199.433 63.0677C199.925 63.0655 200.416 63.0627 200.903 63.0605C200.409 63.0627 199.921 63.0655 199.433 63.0677ZM364.368 25.1986C364.336 24.4494 364.304 23.7017 364.272 22.9547C364.304 23.704 364.337 24.4509 364.368 25.1986ZM41.4048 141.319C41.4058 142.069 41.4063 142.818 41.4063 143.563C41.4053 142.813 41.4053 142.066 41.4048 141.319ZM425.631 271.465C425.591 270.716 425.551 269.968 425.511 269.221C425.551 269.97 425.591 270.717 425.631 271.465ZM181.793 265.601C182.284 265.583 182.776 265.566 183.263 265.548C182.769 265.566 182.281 265.584 181.793 265.601ZM341.347 163.758C341.309 163.009 341.27 162.261 341.232 161.514C341.27 162.263 341.309 163.011 341.347 163.758ZM106.331 252.104C105.678 252.109 105.024 252.114 104.371 252.118C105.025 252.114 105.678 252.109 106.331 252.104ZM90.6513 252.006C89.9977 252.076 89.3442 252.146 88.6912 252.217C89.3448 252.146 89.9983 252.076 90.6513 252.006ZM340.822 158.71C340.807 158.148 340.792 157.587 340.778 157.027C340.793 157.588 340.807 158.149 340.822 158.71ZM362.891 49.3203C362.863 48.7585 362.836 48.1973 362.809 47.6374C362.837 48.1992 362.864 48.7598 362.891 49.3203ZM212.902 54.3691C212.906 53.8076 212.91 53.2469 212.914 52.6861C212.91 53.2483 212.906 53.8083 212.902 54.3691ZM144.722 208.76C144.992 208.777 145.261 208.795 145.532 208.813C144.928 209.41 144.221 208.796 144.722 208.76ZM174.442 265.023C174.771 265.017 175.098 265.01 175.422 265.004C175.093 265.011 174.768 265.017 174.442 265.023ZM425.136 266.977C425.099 266.415 425.063 265.854 425.026 265.294C425.063 265.856 425.099 266.416 425.136 266.977ZM42.9378 156.466C42.8962 157.027 42.8545 157.589 42.8134 158.149C42.855 157.586 42.8967 157.026 42.9378 156.466ZM267.544 84.2327C266.957 84.7326 266.25 84.4532 265.584 84.4358C266.237 84.3679 266.891 84.3006 267.544 84.2327ZM422.129 288.855C422.137 288.293 422.145 287.731 422.152 287.172C422.145 287.735 422.137 288.295 422.129 288.855ZM311.342 309.611C311.38 309.048 311.419 308.487 311.457 307.928C311.419 308.491 311.38 309.051 311.342 309.611ZM34.3005 96.6895C34.6288 96.7114 34.9566 96.7327 35.2805 96.7551C34.9516 96.7338 34.626 96.7114 34.3005 96.6895ZM251.864 65.7781C251.21 65.8387 250.557 65.8992 249.903 65.9598C250.557 65.8992 251.21 65.8387 251.864 65.7781ZM204.644 363.464C204.599 364.025 204.556 364.587 204.512 365.147C204.556 364.583 204.599 364.024 204.644 363.464ZM108.291 151.052C107.638 151.108 106.985 151.164 106.331 151.221C106.985 151.164 107.638 151.108 108.291 151.052ZM190.613 341.394C191.919 341.335 193.226 341.275 194.533 341.217C193.226 341.275 191.919 341.335 190.613 341.394ZM309.881 288.855C309.913 287.919 309.946 286.983 309.978 286.05C309.945 286.986 309.913 287.92 309.881 288.855ZM336.145 35.6784C336.961 35.6105 337.778 35.5426 338.595 35.4747C337.778 35.5426 336.961 35.6105 336.145 35.6784ZM102.901 226.217C103.718 226.276 104.535 226.337 105.351 226.396C104.535 226.336 103.718 226.276 102.901 226.217ZM160.992 204.709C160.647 203.868 160.665 203.12 161.047 202.465C161.252 203.229 161.234 203.977 160.992 204.709ZM395.669 258.001C395.677 258.751 395.683 259.5 395.692 260.245C395.685 259.495 395.678 258.748 395.669 258.001ZM199.199 331.488C199.191 330.739 199.184 329.99 199.176 329.245C199.184 329.996 199.192 330.742 199.199 331.488ZM175.912 256.505C176.566 256.567 177.22 256.63 177.872 256.693C177.219 256.63 176.566 256.567 175.912 256.505ZM163.694 207.468C163.592 206.566 163.735 206.232 164.121 206.463C164.222 207.31 164.08 207.645 163.694 207.468ZM187.927 169.368C187.921 169.93 187.914 170.491 187.908 171.051C187.915 170.489 187.921 169.928 187.927 169.368ZM412.837 275.952C412.833 275.391 412.829 274.83 412.825 274.269C412.828 274.831 412.832 275.392 412.837 275.952ZM342.515 35.5785C343.168 35.5774 343.821 35.5763 344.475 35.5746C343.821 35.5757 343.168 35.5774 342.515 35.5785ZM326.345 104.105L328.305 103.925L326.345 104.105ZM295.474 198.267C295.146 198.261 294.818 198.255 294.494 198.249C294.823 198.255 295.149 198.261 295.474 198.267ZM306.944 305.123C306.975 304.562 307.004 304 307.034 303.44C307.004 304.002 306.974 304.563 306.944 305.123ZM231.283 313.797C230.955 313.811 230.627 313.825 230.303 313.839C230.632 313.825 230.958 313.81 231.283 313.797ZM187.912 171.612C187.916 172.174 187.919 172.737 187.923 173.295C187.92 172.732 187.916 172.171 187.912 171.612ZM158.272 27.7224C157.781 27.723 157.289 27.7235 156.802 27.7235C157.296 27.7235 157.784 27.723 158.272 27.7224ZM160.602 72.3201C161.295 72.8357 161.398 73.3969 160.91 74.003C160.123 73.9324 160.022 73.3718 160.602 72.3201ZM197.473 49.023C198.126 49.0342 198.78 49.0454 199.433 49.0567C198.779 49.0454 198.125 49.0342 197.473 49.023ZM183.51 58.2958C183.508 58.8575 183.507 59.4192 183.505 59.9788C183.507 59.4157 183.508 58.8561 183.51 58.2958ZM171.502 59.236L173.462 59.0386L171.502 59.236Z" fill="#CF536D"/>
<path fill-rule="evenodd" clip-rule="evenodd" d="M260.114 162.303C255.313 162.907 249.208 162.382 244.871 159.707C241.864 157.851 240.47 151.772 244.837 150.917C247.288 150.437 250.23 152.909 252.398 153.864C254.978 155 257.67 155.535 260.326 156.331C262.129 156.872 264.749 158.236 263.103 161.187C262.805 161.719 260.148 163.325 260.114 162.303ZM327.815 189.343C327.344 192.872 327.274 196.769 325.795 199.994C323.663 204.644 323.243 199.663 323.579 197.109C324.074 193.342 324.342 189.486 324.095 185.679C323.893 182.56 322.06 178.908 323.402 176.1C327.066 178.817 327.14 184.891 327.815 189.343ZM327.982 79.599C325.955 79.0679 322.64 77.5341 325.496 75.3705C326.657 74.4912 328.944 74.9131 330.24 74.0891C331.025 73.5906 331.47 72.5227 332.256 72.1355C334.864 70.8513 335.131 73.0439 334.15 75.8322C333.112 78.7814 330.619 79.7423 327.982 79.599ZM326.809 61.033C330.139 58.1828 329.686 61.7435 327.926 64.2514C327.272 65.0969 326.616 65.9417 325.96 66.7858L326.536 67.5922C326.436 68.7395 327.373 69.588 326.225 70.3391C324.33 71.5801 322.906 68.6473 322.915 67.0234C322.928 64.3289 325.247 62.6393 326.809 61.033Z" fill="black"/>
<path fill-rule="evenodd" clip-rule="evenodd" d="M326.38 61.262C323.271 64.7513 323.387 57.7264 325.04 56.212C328.212 53.3046 326.169 60.0488 326.38 61.262ZM332.324 63.9017C332.102 62.6639 332.074 56.8025 334.227 57.1925C336.568 57.6164 333.99 64.086 332.324 63.9017Z" fill="black"/>
<path fill-rule="evenodd" clip-rule="evenodd" d="M328.305 79.8696C328.633 79.8854 328.961 79.9016 329.285 79.9168C328.955 79.9016 328.63 79.8854 328.305 79.8696Z" fill="#CF536D"/>
<path fill-rule="evenodd" clip-rule="evenodd" d="M179.018 35.857C176.366 30.6854 182.418 21.855 185.448 29.0021C185.859 29.9701 186.79 32.579 185.67 33.3815C184.468 34.243 184.726 32.991 183.737 32.8025C182.558 32.5775 182.943 31.9478 181.574 32.6319C180.601 33.1177 179.69 34.965 179.018 35.857Z" fill="black"/>
</svg>
