<svg width="60" height="80" viewBox="0 0 159 145" fill="none" xmlns="http://www.w3.org/2000/svg">
<path d="M71.7277 110.146L71.7281 87.6721C71.7186 84.0239 70.901 80.415 69.3247 77.062C67.7483 73.7089 65.4455 70.6809 62.5545 68.1594L36.4897 45.4909C35.712 44.8195 34.772 44.3245 33.7457 44.0458C32.7194 43.7671 31.6357 43.7125 30.582 43.8864L32.7478 15.052C32.8839 13.1219 32.237 11.2135 30.9303 9.69016C29.6235 8.16684 27.7481 7.13502 25.6611 6.79115C23.5742 6.44728 21.4215 6.81539 19.6129 7.82537C17.8042 8.83536 16.466 10.4167 15.8531 12.2683L0.621654 58.5763C-0.0873147 60.7161 -0.191762 62.9846 0.318015 65.1711C0.827792 67.3575 1.93525 69.391 3.53751 71.0826L29.9444 99.1169C32.0782 101.381 33.2524 104.267 33.2545 107.253V110.265C31.6919 111.095 30.395 112.284 29.4928 113.714C28.5906 115.143 28.1146 116.763 28.112 118.413V142.876C28.112 143.439 28.3574 143.98 28.7942 144.378C29.2309 144.776 29.8233 145 30.441 145C31.0586 145 31.651 144.776 32.0878 144.378C32.5245 143.98 32.7699 143.439 32.7699 142.876V121.708H72.4389V142.876C72.4389 143.439 72.6843 143.98 73.121 144.378C73.5578 144.776 74.1502 145 74.7678 145C75.3855 145 75.9779 144.776 76.4146 144.378C76.8514 143.98 77.0968 143.439 77.0968 142.876V118.413C77.094 116.723 76.5945 115.065 75.6502 113.611C74.7058 112.157 73.3513 110.96 71.7277 110.146ZM7.07062 68.3144C5.97914 67.1625 5.22461 65.7776 4.87711 64.2885C4.52962 62.7993 4.60044 61.2543 5.083 59.7968L20.3144 13.4888C20.5658 12.7444 21.0717 12.0929 21.7581 11.6296C22.4446 11.1663 23.2756 10.9154 24.1295 10.9137C24.6772 10.911 25.2195 11.0123 25.722 11.2109C26.2246 11.4095 26.6763 11.7012 27.0487 12.0675C27.4192 12.4256 27.704 12.85 27.8851 13.3138C28.0662 13.7776 28.1397 14.2706 28.1008 14.7616L25.6875 46.8921C23.6255 49.2981 22.6054 52.3116 22.8212 55.3591C23.0371 58.4065 24.4739 61.2753 26.8581 63.4194L41.3188 76.4264C41.5365 76.6225 41.7945 76.7775 42.0779 76.8827C42.3613 76.9878 42.6647 77.041 42.9707 77.0392C43.2767 77.0374 43.5793 76.9806 43.8611 76.8721C44.143 76.7635 44.3987 76.6054 44.6136 76.4067C44.8285 76.208 44.9983 75.9727 45.1134 75.7141C45.2285 75.4555 45.2866 75.1788 45.2843 74.8998C45.2821 74.6207 45.2196 74.3448 45.1004 74.0878C44.9812 73.8307 44.8077 73.5977 44.5896 73.4019L30.1289 60.3948C29.2876 59.6381 28.618 58.7375 28.1584 57.7446C27.6989 56.7517 27.4584 55.6859 27.4508 54.6081C27.4432 53.5304 27.6686 52.4619 28.114 51.4636C28.5595 50.4654 29.2163 49.557 30.0469 48.7904L30.246 48.6065C30.6456 48.2411 31.1858 48.0324 31.7515 48.0247C32.3173 48.017 32.864 48.211 33.2754 48.5653L59.3401 71.2337C61.7759 73.3578 63.7161 75.9088 65.0445 78.7335C66.3728 81.5582 67.0619 84.5986 67.0703 87.6721L67.0699 108.973C66.9466 108.969 66.8234 108.964 66.6991 108.964H38.5096C38.309 108.964 38.1101 108.971 37.9123 108.981V107.253C37.9101 103.251 36.3368 99.3832 33.4775 96.3485L7.07062 68.3144ZM32.8708 117.46C33.1217 116.264 33.8222 115.186 34.8515 114.41C35.8808 113.635 37.1745 113.211 38.5096 113.212H66.6991C68.0342 113.211 69.3279 113.635 70.3573 114.41C71.3866 115.186 72.0871 116.264 72.338 117.46H32.8708ZM129.056 99.1169L155.462 71.0826C157.065 69.391 158.172 67.3575 158.682 65.1711C159.192 62.9846 159.087 60.7161 158.378 58.5763L143.147 12.2683C142.536 10.4142 141.199 8.83004 139.39 7.81793C137.58 6.80582 135.426 6.43664 133.337 6.78081C131.248 7.12498 129.371 8.15842 128.065 9.68396C126.758 11.2095 126.113 13.1204 126.252 15.052L128.418 43.8866C127.364 43.7128 126.281 43.7674 125.254 44.0461C124.228 44.3248 123.288 44.8198 122.51 45.491L96.4455 68.1594C93.5545 70.6809 91.2517 73.7089 89.6753 77.062C88.099 80.415 87.2815 84.0239 87.2719 87.6721V110.146C85.6484 110.961 84.2939 112.157 83.3497 113.611C82.4055 115.065 81.906 116.723 81.9032 118.413V142.876C81.9032 143.439 82.1486 143.98 82.5854 144.378C83.0221 144.776 83.6145 145 84.2321 145C84.8498 145 85.4422 144.776 85.8789 144.378C86.3157 143.98 86.5611 143.439 86.5611 142.876V121.708H126.23V142.876C126.23 143.439 126.475 143.98 126.912 144.378C127.349 144.776 127.941 145 128.559 145C129.177 145 129.769 144.776 130.206 144.378C130.643 143.98 130.888 143.439 130.888 142.876V118.413C130.885 116.763 130.409 115.143 129.507 113.714C128.605 112.284 127.308 111.095 125.746 110.265V107.253C125.748 104.267 126.922 101.381 129.056 99.1169ZM126.129 117.46H86.662C86.9129 116.264 87.6134 115.186 88.6428 114.41C89.6721 113.635 90.9658 113.211 92.3009 113.212H120.49C121.826 113.211 123.119 113.635 124.148 114.41C125.178 115.186 125.878 116.264 126.129 117.46ZM125.522 96.3485C122.663 99.3832 121.09 103.251 121.088 107.253V108.981C120.89 108.971 120.691 108.964 120.49 108.964H92.3009C92.1764 108.964 92.0532 108.969 91.9297 108.973V87.6721C91.9382 84.5985 92.6272 81.5582 93.9555 78.7335C95.2839 75.9088 97.2241 73.3578 99.6599 71.2337L125.724 48.5654C126.136 48.2111 126.682 48.0171 127.248 48.0247C127.814 48.0322 128.354 48.2408 128.753 48.606L128.954 48.791C129.784 49.5576 130.441 50.466 130.886 51.4642C131.332 52.4624 131.557 53.5309 131.549 54.6085C131.541 55.6862 131.301 56.7519 130.841 57.7448C130.382 58.7376 129.712 59.6381 128.871 60.3948L114.41 73.4019C114.192 73.5977 114.019 73.8307 113.9 74.0878C113.78 74.3448 113.718 74.6207 113.716 74.8998C113.713 75.1788 113.772 75.4555 113.887 75.7141C114.002 75.9727 114.172 76.208 114.386 76.4067C114.601 76.6054 114.857 76.7635 115.139 76.8721C115.421 76.9806 115.723 77.0374 116.029 77.0392C116.335 77.041 116.639 76.9878 116.922 76.8827C117.206 76.7775 117.463 76.6225 117.681 76.4264L132.142 63.4194C134.526 61.2752 135.963 58.4064 136.179 55.3589C136.395 52.3114 135.374 49.2979 133.312 46.8918L130.899 14.7616C130.86 14.2706 130.934 13.7775 131.115 13.3138C131.296 12.85 131.581 12.4256 131.951 12.0675C132.324 11.7012 132.775 11.4095 133.278 11.2109C133.781 11.0123 134.323 10.911 134.87 10.9136C135.724 10.9154 136.555 11.1663 137.242 11.6296C137.928 12.0929 138.434 12.7444 138.686 13.4888L153.917 59.7968C154.4 61.2543 154.47 62.7993 154.123 64.2885C153.775 65.7776 153.021 67.1625 151.929 68.3144L125.522 96.3485ZM113.042 34.2581C117.169 30.4947 119.487 25.3903 119.487 20.0679C119.487 14.7456 117.169 9.64121 113.042 5.87774C108.916 2.11427 103.319 -1.30121e-05 97.4829 0C91.6471 1.30122e-05 86.0504 2.11432 81.9238 5.87781L79.5 8.0884L77.0762 5.87781C72.9496 2.11432 67.3529 1.30122e-05 61.5171 0C55.6813 -1.30121e-05 50.0845 2.11427 45.958 5.87774C41.8314 9.64121 39.5132 14.7456 39.5131 20.0679C39.5131 25.3903 41.8314 30.4947 45.9579 34.2581L75.359 61.0727C76.4581 62.0729 77.9474 62.6346 79.5 62.6346C81.0527 62.6346 82.5419 62.0729 83.641 61.0727L113.042 34.2581ZM78.6526 58.0689L49.2514 31.2544C46.0031 28.2866 44.1796 24.2641 44.1816 20.0708C44.1836 15.8774 46.011 11.8564 49.2622 8.89124C52.5134 5.92611 56.9223 4.25951 61.5202 4.25771C66.1181 4.2559 70.5286 5.91902 73.7826 8.8816L76.3567 11.2292C77.1904 11.9895 78.321 12.4167 79.5 12.4167C80.679 12.4167 81.8096 11.9895 82.6433 11.2292L85.2174 8.8816C86.8278 7.41105 88.7401 6.24431 90.845 5.44805C92.95 4.65179 95.2064 4.24161 97.4852 4.24094C99.764 4.24028 102.021 4.64915 104.126 5.4442C106.232 6.23924 108.145 7.40487 109.756 8.87448C111.368 10.3441 112.646 12.0889 113.517 14.0091C114.389 15.9294 114.838 17.9875 114.837 20.0659C114.836 22.1442 114.386 24.2021 113.513 26.1218C112.64 28.0416 111.361 29.7857 109.749 31.2544L80.3474 58.0689C80.1225 58.2736 79.8177 58.3886 79.5 58.3886C79.1823 58.3886 78.8775 58.2736 78.6526 58.0689ZM91.2999 24.9465H86.4868V20.5568C86.4851 19.2428 85.9121 17.9831 84.8933 17.054C83.8746 16.1249 82.4933 15.6023 81.0526 15.6008H77.9474C76.5067 15.6023 75.1254 16.1249 74.1067 17.054C73.0879 17.9831 72.5149 19.2428 72.5132 20.5568V24.9465H67.7001C66.2594 24.948 64.8782 25.4706 63.8594 26.3997C62.8407 27.3288 62.2676 28.5885 62.266 29.9025V32.7345C62.2676 34.0485 62.8407 35.3082 63.8594 36.2374C64.8782 37.1665 66.2594 37.6891 67.7001 37.6906H72.5132V42.0803C72.5149 43.3942 73.0879 44.6539 74.1067 45.5831C75.1254 46.5122 76.5067 47.0348 77.9474 47.0363H81.0526C82.4933 47.0348 83.8746 46.5122 84.8933 45.5831C85.9121 44.6539 86.4851 43.3942 86.4868 42.0803V37.6906H91.2999C92.7406 37.6891 94.1219 37.1665 95.1406 36.2374C96.1593 35.3082 96.7324 34.0485 96.734 32.7345V29.9025C96.7324 28.5885 96.1593 27.3288 95.1406 26.3997C94.1219 25.4706 92.7406 24.948 91.2999 24.9465ZM92.0762 32.7345C92.076 32.9223 91.9941 33.1022 91.8486 33.2349C91.703 33.3677 91.5057 33.4423 91.2999 33.4426H84.1579C83.5402 33.4426 82.9478 33.6663 82.5111 34.0647C82.0743 34.463 81.8289 35.0033 81.8289 35.5666V42.0803C81.8287 42.268 81.7468 42.4479 81.6013 42.5806C81.4558 42.7134 81.2584 42.788 81.0526 42.7883H77.9474C77.7416 42.788 77.5443 42.7134 77.3987 42.5806C77.2532 42.4479 77.1713 42.268 77.1711 42.0803V35.5666C77.1711 35.0033 76.9257 34.463 76.489 34.0647C76.0522 33.6663 75.4598 33.4426 74.8422 33.4426H67.7001C67.4943 33.4423 67.297 33.3677 67.1515 33.2349C67.0059 33.1022 66.9241 32.9223 66.9238 32.7345V29.9025C66.9241 29.7148 67.0059 29.5349 67.1515 29.4021C67.297 29.2694 67.4943 29.1947 67.7001 29.1945H74.8422C75.4598 29.1945 76.0522 28.9707 76.489 28.5724C76.9257 28.1741 77.1711 27.6338 77.1711 27.0705V20.5568C77.1713 20.3691 77.2532 20.1891 77.3987 20.0564C77.5443 19.9237 77.7416 19.849 77.9474 19.8488H81.0526C81.2584 19.849 81.4558 19.9237 81.6013 20.0564C81.7468 20.1891 81.8287 20.3691 81.8289 20.5568V27.0705C81.8289 27.6338 82.0743 28.1741 82.5111 28.5724C82.9478 28.9707 83.5402 29.1945 84.1579 29.1945H91.2999C91.5057 29.1947 91.703 29.2694 91.8486 29.4021C91.9941 29.5349 92.076 29.7148 92.0762 29.9025V32.7345Z" fill="black"/>
</svg>
