<svg width="421" height="64" viewBox="0 0 421 64" fill="none" xmlns="http://www.w3.org/2000/svg">
<path d="M0.992 48H0.16L5.728 3.2H7.84L21.28 44.608L34.656 3.2H36.768L42.336 48H37.024L32.608 12.16L21.024 48H16.992L5.28 12.608L0.992 48ZM55.307 59.456C53.9417 62.4853 52.2563 64 50.251 64C49.355 64 48.3097 63.8507 47.115 63.552V63.04C48.0963 63.296 48.971 63.424 49.739 63.424C51.915 63.424 53.579 62.1013 54.731 59.456L60.107 48H60.043L48.139 16H52.619L62.539 42.688L72.331 22.4C72.843 21.504 73.099 20.4373 73.099 19.2C73.099 17.9627 72.7577 17.024 72.075 16.384L72.459 16C72.6297 16.0853 72.843 16.3413 73.099 16.768C73.3977 17.1947 73.5683 17.5787 73.611 17.92C73.6963 18.2613 73.739 18.5813 73.739 18.88C73.739 20.032 73.483 21.2053 72.971 22.4L60.683 48L55.307 59.456ZM104.725 3.264C106.602 3.17866 108.437 3.136 110.229 3.136C112.064 3.136 113.984 3.328 115.989 3.712C118.037 4.096 120.042 4.82133 122.005 5.888C124.01 6.912 125.696 8.256 127.061 9.92C128.469 11.5413 129.6 13.696 130.453 16.384C131.306 19.072 131.733 22.336 131.733 26.176C131.733 30.016 131.093 33.472 129.813 36.544C128.576 39.5733 126.869 41.8987 124.693 43.52C120.469 46.6773 115.37 48.256 109.397 48.256C107.306 48.256 105.109 48.1707 102.805 48H99.605V3.264H104.725ZM104.917 47.488C105.813 47.5733 106.944 47.616 108.309 47.616C109.674 47.616 110.698 47.5947 111.381 47.552C112.064 47.5093 113.002 47.3387 114.197 47.04C115.392 46.6987 116.501 46.2507 117.525 45.696C118.549 45.1413 119.616 44.3307 120.725 43.264C121.877 42.1547 122.858 40.8533 123.669 39.36C125.504 35.8613 126.421 31.296 126.421 25.664C126.421 21.6533 125.93 18.1973 124.949 15.296C123.968 12.352 122.837 10.176 121.557 8.768C120.32 7.36 118.805 6.25067 117.013 5.44C115.221 4.58666 113.792 4.096 112.725 3.968C111.658 3.84 110.421 3.776 109.013 3.776C107.605 3.776 106.24 3.84 104.917 3.968V47.488ZM152.666 48.256C148.186 48.256 144.538 46.976 141.722 44.416C138.906 41.856 137.498 37.9093 137.498 32.576C137.498 27.2427 138.948 23.104 141.85 20.16C144.794 17.216 148.506 15.744 152.986 15.744C157.508 15.744 161.178 17.024 163.994 19.584C166.81 22.144 168.218 26.0907 168.218 31.424C168.218 36.7573 166.746 40.896 163.802 43.84C160.9 46.784 157.188 48.256 152.666 48.256ZM153.114 16.256C149.871 16.256 147.183 17.7067 145.05 20.608C142.916 23.4667 141.85 27.4773 141.85 32.64C141.85 37.76 142.831 41.5573 144.794 44.032C146.756 46.5067 149.359 47.744 152.602 47.744C155.844 47.744 158.532 46.3147 160.666 43.456C162.799 40.5547 163.866 36.544 163.866 31.424C163.866 26.2613 162.884 22.4427 160.922 19.968C158.959 17.4933 156.356 16.256 153.114 16.256ZM172.99 33.152C172.99 27.6053 174.334 23.3173 177.022 20.288C179.71 17.2587 183.742 15.744 189.118 15.744C193.086 15.744 197.118 16.448 201.214 17.856V48.768C201.171 58.9227 196.734 64 187.902 64C183.038 64 178.878 62.4213 175.422 59.264L175.87 58.88C179.539 61.952 183.55 63.488 187.902 63.488C193.79 63.488 196.734 58.5813 196.734 48.768V42.432C195.923 43.9253 194.579 45.248 192.702 46.4C190.825 47.552 188.606 48.128 186.046 48.128C177.342 47.9147 172.99 42.9227 172.99 33.152ZM186.11 47.616C188.969 47.616 191.422 46.848 193.47 45.312C195.518 43.776 196.606 42.2613 196.734 40.768V18.176C193.662 16.896 191.059 16.256 188.926 16.256C185.129 16.256 182.27 17.7493 180.35 20.736C178.43 23.68 177.47 27.8187 177.47 33.152C177.47 42.7947 180.35 47.616 186.11 47.616ZM224.686 18.24C224.003 17.6853 222.894 17.216 221.358 16.832C219.864 16.448 218.734 16.256 217.966 16.256C217.198 16.256 216.75 16.256 216.622 16.256C214.318 16.2987 212.654 16.896 211.63 18.048C210.606 19.1573 210.094 20.416 210.094 21.824C210.094 23.232 210.542 24.4267 211.438 25.408C212.334 26.3467 213.443 27.0933 214.766 27.648C216.131 28.16 217.582 28.7573 219.118 29.44C220.696 30.1227 222.147 30.8267 223.47 31.552C224.835 32.2347 225.966 33.2587 226.862 34.624C227.758 35.9467 228.206 37.6107 228.206 39.616C228.206 41.6213 227.502 43.328 226.094 44.736C224.686 46.144 223.107 47.0827 221.358 47.552C219.651 48.0213 217.795 48.256 215.79 48.256C211.438 48.256 208.174 47.296 205.998 45.376L206.382 44.992C207.235 45.8027 208.494 46.464 210.158 46.976C211.864 47.488 213.507 47.744 215.086 47.744C217.603 47.744 219.672 47.0613 221.294 45.696C222.958 44.288 223.79 42.56 223.79 40.512C223.79 38.4213 223.171 36.7573 221.934 35.52C220.696 34.24 219.182 33.2587 217.39 32.576C215.64 31.8507 213.87 31.1467 212.078 30.464C210.286 29.7387 208.771 28.7573 207.534 27.52C206.296 26.24 205.678 24.768 205.678 23.104C205.678 21.44 206.062 20.096 206.83 19.072C207.598 18.0053 208.622 17.2587 209.902 16.832C212.078 16.1067 214.254 15.744 216.43 15.744C220.099 15.744 222.958 16.4267 225.006 17.792L224.686 18.24Z" fill="black"/>
<path d="M258.075 48H252.763V3.2H258.075V23.808H278.875V3.2H284.187V48H278.875V24.448H258.075V48ZM294.287 32.384C294.287 37.6747 295.204 41.5573 297.039 44.032C298.916 46.5067 301.37 47.744 304.399 47.744C308.666 47.744 312.463 47.104 315.791 45.824L315.983 46.272C312.57 47.5947 308.708 48.256 304.399 48.256C300.132 48.256 296.655 46.976 293.967 44.416C291.279 41.856 289.935 37.9093 289.935 32.576C289.935 27.2427 291.343 23.104 294.159 20.16C296.975 17.216 300.559 15.744 304.911 15.744C308.41 15.744 311.354 16.7893 313.743 18.88C316.132 20.9707 317.327 24.064 317.327 28.16C317.327 28.3733 317.327 28.5867 317.327 28.8H294.479C294.351 29.952 294.287 31.1467 294.287 32.384ZM312.975 28.288C312.932 24.192 312.143 21.1627 310.607 19.2C309.071 17.2373 307.087 16.256 304.655 16.256C302.223 16.256 300.047 17.3227 298.127 19.456C296.25 21.5893 295.055 24.5333 294.543 28.288H312.975ZM348.305 48C345.403 48 343.419 47.4453 342.353 46.336C341.371 45.3973 340.881 44.5867 340.881 43.904V42.56C338.79 46.3573 335.441 48.256 330.833 48.256C325.457 48.256 322.406 45.824 321.681 40.96C321.595 40.448 321.553 39.936 321.553 39.424C321.553 38.8693 321.638 38.272 321.809 37.632C321.979 36.992 322.47 36.288 323.281 35.52C324.902 33.984 328.465 33.0453 333.969 32.704C335.334 32.576 336.593 32.512 337.745 32.512C338.897 32.512 339.942 32.5547 340.881 32.64V22.016C340.795 21.9733 340.795 21.7813 340.881 21.44C340.966 21.056 340.881 20.5867 340.625 20.032C340.411 19.4347 340.113 18.8587 339.729 18.304C339.345 17.7493 338.662 17.28 337.681 16.896C336.699 16.4693 335.419 16.256 333.841 16.256C332.262 16.256 330.406 16.5547 328.273 17.152C326.182 17.7067 324.646 18.2613 323.665 18.816L323.409 18.368C327.206 16.6187 331.067 15.744 334.993 15.744C339.387 15.744 342.289 16.5333 343.697 18.112C344.806 19.3493 345.361 20.6507 345.361 22.016V43.456C345.361 44.6933 345.595 45.6533 346.065 46.336C346.577 46.976 347.089 47.3173 347.601 47.36L348.305 47.488H350.289V48H348.305ZM331.857 47.744C334.118 47.744 336.145 46.976 337.937 45.44C339.771 43.8613 340.753 42.3467 340.881 40.896V33.152C339.729 33.0667 338.555 33.024 337.361 33.024C336.209 33.024 335.057 33.088 333.905 33.216C330.662 33.6 328.55 34.3253 327.569 35.392C326.587 36.4587 326.097 37.9307 326.097 39.808C326.097 40.1493 326.118 40.5333 326.161 40.96C326.545 45.4827 328.443 47.744 331.857 47.744ZM363.188 48C359.433 48 357.065 47.0187 356.084 45.056C355.871 44.6293 355.764 44.2453 355.764 43.904V0.0639992H360.244V43.456C360.244 44.6933 360.479 45.6533 360.948 46.336C361.46 46.976 361.972 47.3173 362.484 47.36L363.188 47.488H365.172V48H363.188ZM369.678 16.512V16H371.022V9.6H375.502V16H385.294V16.512H375.502V39.808C375.502 42.5813 375.8 44.5867 376.398 45.824C377.038 47.0613 378.339 47.68 380.302 47.68C382.307 47.68 384.334 47.2747 386.382 46.464L386.574 46.976C384.44 47.7867 381.987 48.192 379.214 48.192C376.483 48.192 374.435 47.6373 373.07 46.528C371.704 45.376 371.022 43.1147 371.022 39.744V16.512H369.678ZM416.315 48C414.566 48 413.222 47.616 412.283 46.848C411.387 46.08 410.918 45.312 410.875 44.544L410.811 43.456V23.36C410.811 19.9893 409.915 17.8347 408.123 16.896C407.27 16.4693 406.182 16.256 404.859 16.256C402.214 16.256 399.824 17.344 397.691 19.52C395.6 21.6533 394.555 23.5733 394.555 25.28V48H390.075V0.0639992H394.555V23.296C395.238 21.4613 396.539 19.7547 398.459 18.176C400.379 16.5547 402.534 15.744 404.923 15.744C409.062 15.744 411.814 16.4693 413.179 17.92C414.587 19.328 415.291 21.1627 415.291 23.424V43.456C415.291 44.6933 415.526 45.6533 415.995 46.336C416.507 46.976 416.998 47.3173 417.467 47.36L418.235 47.488H420.219V48H416.315Z" fill="#319795"/>
</svg>
