<svg width="500" height="420" viewBox="0 0 500 420" fill="none" xmlns="http://www.w3.org/2000/svg">
<path fill-rule="evenodd" clip-rule="evenodd" d="M228.291 46.4097L228.17 46.3461L228.036 46.3663L228.098 46.8069C228.036 46.3663 228.036 46.3663 228.036 46.3663H228.035L228.034 46.3669L228.026 46.3681L227.999 46.3723C227.975 46.3758 227.941 46.3818 227.896 46.3889C227.805 46.4037 227.673 46.4263 227.504 46.4566C227.166 46.5165 226.683 46.608 226.096 46.7333C224.923 46.9832 223.334 47.3692 221.673 47.9101C220.016 48.451 218.272 49.1516 216.798 50.0363C215.333 50.915 214.08 52.0081 213.479 53.3601C212.347 55.9067 211.808 60.2185 212.1 63.8825C212.246 65.7172 212.603 67.4367 213.229 68.7121C213.856 69.9893 214.802 70.9066 216.133 70.9066C217.439 70.9066 218.673 69.9043 219.794 68.5933C220.937 67.2586 222.063 65.4803 223.141 63.7032C223.376 63.3155 223.609 62.9284 223.839 62.5454C224.673 61.1566 225.475 59.8213 226.245 58.7193C226.734 58.0181 227.2 57.4273 227.64 56.9873C228.085 56.5414 228.47 56.2843 228.796 56.1953C230.534 55.7191 232.962 54.8213 234.943 54.0483C235.936 53.6605 236.822 53.3025 237.46 53.0413C237.778 52.9106 238.035 52.8043 238.212 52.7301C238.3 52.6933 238.369 52.6648 238.416 52.6452L238.469 52.6227L238.483 52.6167L238.486 52.6155L238.487 52.6149H238.487C238.487 52.6149 238.487 52.6149 238.327 52.2023L238.487 52.6149L239.358 52.2474L238.52 51.8051L228.291 46.4097ZM227.648 47.3341C227.812 47.305 227.94 47.2831 228.027 47.2688L237.289 52.1542L237.146 52.2124C236.512 52.4724 235.631 52.8287 234.643 53.214C232.662 53.9871 230.27 54.8706 228.578 55.3343C228.045 55.4798 227.533 55.8586 227.047 56.3449C226.555 56.8371 226.056 57.4754 225.553 58.1956C224.764 59.3255 223.94 60.6971 223.103 62.0894V62.09C222.875 62.4694 222.646 62.85 222.418 63.2276C221.338 65.0077 220.245 66.7272 219.156 68.0014C218.046 69.2987 217.035 70.016 216.133 70.016C215.257 70.016 214.544 69.4335 213.991 68.3066C213.437 67.1778 213.094 65.5896 212.952 63.8095C212.669 60.244 213.204 56.0985 214.255 53.7342C214.746 52.6298 215.817 51.6525 217.225 50.8076C218.624 49.968 220.302 49.2905 221.929 48.7603C223.554 48.2307 225.113 47.8519 226.267 47.6055C226.844 47.4826 227.318 47.3929 227.648 47.3341ZM404.245 125.068C402.587 129.323 400.856 133.765 400.359 137.945C406.592 141.921 410.057 147.733 413.758 153.938L413.76 153.941C414.186 154.657 414.617 155.378 415.055 156.103C417.54 160.214 419.527 164.442 421.529 168.703C422.806 171.422 424.089 174.154 425.512 176.876C432.618 190.475 445.169 232.325 447.046 239.074C448.53 244.406 450.649 249.685 452.734 254.88C453.23 256.117 453.725 257.348 454.208 258.575C454.543 259.426 454.554 260.484 454.563 261.503C454.58 263.177 454.595 264.747 456.048 265.125C457.385 265.473 460.881 263.726 463.832 262.253H463.833C465.559 261.39 467.099 260.621 467.91 260.419C474.606 258.755 481.875 259.6 488.726 260.396L488.924 260.419C489.349 257.817 488.387 251.417 487.492 248.881C487.024 247.554 486.565 246.087 486.091 244.571C484.963 240.968 483.75 237.093 482.13 234.188C480.692 231.61 476.797 223.659 472.156 214.187L472.156 214.186C464.908 199.39 455.84 180.879 451.471 173.327C448.657 168.463 445.791 163.994 442.997 159.637C436.67 149.771 430.714 140.482 426.573 128.496C423.378 119.25 420.919 109.344 418.585 99.8169C417.712 96.2496 417.013 92.7257 416.318 89.2137V89.2131C415.326 84.2048 414.339 79.2215 412.855 74.171C412.454 74.4501 411.764 74.6092 411.052 74.7731C410.12 74.9874 409.151 75.2107 408.74 75.7237C407.829 76.8643 407.831 76.8655 408.071 76.9854C408.239 77.0697 408.525 77.2134 408.693 77.8517C408.999 79.0178 409.533 80.061 410.073 81.1167C410.778 82.4954 411.495 83.8949 411.73 85.6167C412.265 89.5201 411.508 93.3207 410.751 97.123C410.375 99.0153 409.998 100.908 409.78 102.814C409.091 108.854 408.204 113.802 406.323 119.469C405.725 121.27 404.993 123.15 404.245 125.068ZM257.309 168.745C253.039 170.38 248.827 171.993 244.731 173.622C244.731 173.622 256.528 186.579 264.261 190.576C265.007 190.962 265.846 191.419 266.746 191.909C270.225 193.803 274.596 196.182 277.867 196.777C281.996 197.529 297.208 199.246 301.112 197.431C302.792 196.65 307.155 193.104 308.59 191.909C309.354 191.273 309.807 190.037 310.257 188.809C310.644 187.755 311.028 186.706 311.606 186.047C316.734 180.194 322.405 175.525 329.133 171.993L329.468 171.817C332.363 170.299 336.043 168.369 338.1 165.769C340.489 162.751 341.109 158.323 341.343 154.573C341.59 150.612 341.612 146.62 341.635 142.626V142.625C341.668 136.448 341.703 130.264 342.569 124.177C343.863 115.095 346.46 105.352 350.38 97.1183C352.398 92.8825 354.884 88.8836 357.717 85.1934C358.408 84.2939 359.225 83.557 360.036 82.8255H360.037C360.71 82.2187 361.379 81.6155 361.97 80.9255C363.314 79.3533 363.307 78.7821 363.284 76.8732C363.28 76.5965 363.276 76.2919 363.276 75.9523C357.172 80.3834 350.367 82.246 343.27 84.1882C342.748 84.3313 342.224 84.475 341.699 84.6193C340.504 84.9494 339.297 85.2599 338.087 85.5704C331.408 87.2888 324.661 89.0243 319.539 94.0967C316.3 97.3041 314.632 98.2791 310.252 98.7386C308.824 98.8882 307.39 99.0135 305.956 99.1394H305.955C302.884 99.4078 299.81 99.6762 296.766 100.186C288.745 101.529 281.043 104.119 273.338 106.71L272.852 106.873C256.956 112.217 243.06 121.152 229.279 130.59C224.07 134.157 219.359 138.384 214.652 142.607H214.652C213.778 143.392 212.905 144.175 212.028 144.955C211.175 145.714 210.254 146.515 209.291 147.354L209.29 147.355C202.603 153.178 193.837 160.812 190.889 168.54C191.888 168.446 192.915 168.341 193.966 168.233C202.684 167.342 212.935 166.293 220.981 170.067C221.663 162.228 226.298 152.943 231.285 147.312C235.777 142.24 241.291 137.109 246.828 133.089C256.939 125.751 269.534 123.328 281.706 120.985C285.158 120.321 288.577 119.663 291.896 118.901C293.073 118.631 294.249 118.367 295.421 118.104C302.36 116.546 309.194 115.012 315.814 112.282C317.891 111.426 323.048 112.284 322.607 113.402C321.735 115.613 321.251 117.961 320.768 120.304L320.754 120.367C319.855 124.731 319.097 129.124 318.338 133.518C317.55 138.083 316.761 142.651 315.814 147.187C315.524 148.58 312.695 143.911 312.582 142.222C296.354 153.799 276.257 161.492 257.309 168.745ZM373.889 231.793C368.997 222.948 361.831 215.29 354.734 208.246C356.584 207.493 358.347 203.747 359.357 201.6C359.435 201.435 359.508 201.28 359.576 201.136C360.901 198.35 362.441 195.526 363.96 192.854C365.622 189.93 369.09 181.808 372.123 174.704C374.166 169.919 376.013 165.596 376.976 163.635C379.811 157.867 398.72 99.6334 398.298 93.5979C398.289 93.4655 398.28 93.3367 398.271 93.212C398.098 90.799 398.027 89.8009 399.337 87.8593C400.438 86.2253 402.305 84.1169 404.062 82.1332C405.18 80.8709 406.253 79.6585 407.056 78.6515C407.914 83.506 406.141 89.6703 404.54 95.2403C403.898 97.4727 403.284 99.6097 402.877 101.529C401.956 105.876 400.923 110.161 399.889 114.449C399.252 117.09 398.615 119.733 398.004 122.392C397.546 124.381 396.847 126.233 396.148 128.084V128.084C395.631 129.453 395.113 130.822 394.694 132.247C394.153 134.09 393.754 135.972 393.355 137.857V137.857C392.939 139.819 392.523 141.784 391.944 143.709C391.53 145.087 391.088 146.455 390.646 147.819L390.646 147.822C388.677 153.906 386.732 159.92 387.455 166.462C388.225 173.428 389.146 180.937 391.341 187.553C393.944 195.403 396.393 202.816 396.979 211.182C397.536 219.139 395.679 227.423 393.675 235.048C392.965 237.747 387.607 257.324 385.983 257.043C385.045 250.313 381.019 243.69 377.274 237.528L377.273 237.526C376.08 235.565 374.916 233.65 373.889 231.793Z" fill="#319795"/>
<path fill-rule="evenodd" clip-rule="evenodd" d="M190.752 219.735C191.395 219.965 191.632 219.531 191.463 218.436C190.82 218.138 190.583 218.57 190.752 219.735ZM413.745 52.9944C412.727 53.0917 413.302 54.1385 413.907 54.5304C413.853 54.0186 413.799 53.5068 413.745 52.9944ZM354.407 206.936C355.014 206.452 354.797 206.042 353.759 205.709C353.169 206.209 353.385 206.619 354.407 206.936ZM124.403 204.307C121.104 203.755 118.548 198.548 115.827 199.644C112.421 201.016 109.304 207.21 106.978 209.998C108.772 211.499 110.757 212.848 112.656 214.2C114.615 215.595 114.112 216.088 116.087 214.43C117.525 213.225 118.676 211.054 119.869 209.573C121.3 207.792 123.12 206.209 124.403 204.307ZM200.437 401.556C201.021 401.608 201.417 387.882 201.89 385.994C202.943 381.801 204.778 377.58 206.809 373.81C207.677 372.201 209.225 370.125 209.883 368.474C210.897 365.93 209.257 364.192 208.795 361.271C207.809 355.042 209.116 349.538 211.211 343.763C207.353 342.849 203.632 341.346 199.709 340.719C199.709 346.231 199.185 350.85 197.003 355.905C196.457 357.172 195.357 358.2 195.828 359.749C195.981 360.253 197.328 360.581 197.652 361.045C199.469 363.659 199.762 365.736 199.861 368.994C200.189 379.94 199.039 390.686 200.437 401.556ZM173.115 212.203C175.247 214.079 182.054 200.836 184.395 200.911C189.372 201.073 182.301 214.094 181.868 215.686C183.859 214.947 185.742 210.254 186.806 208.435C187.719 206.877 191.074 199.221 192.991 198.749C196.73 197.828 195.071 204.906 194.548 206.566C193.372 210.3 192.221 213.995 191.195 217.778C193.378 216.537 194.999 209.11 195.979 206.683C197.333 203.328 198.418 199.65 200.531 196.716C201.973 194.714 204.345 191.89 206.947 191.75C210.11 191.577 211.299 195.088 214.15 195.745C214.53 188.264 213.823 180.745 214.663 173.287C209.038 173.409 203.381 173.681 197.826 174.678C194.698 175.24 192.621 175.218 191.08 178.264C189.886 180.626 188.953 183.093 187.825 185.488C183.489 194.698 178.854 203.844 173.115 212.203ZM101.939 184.284C97.8312 188.673 94.1173 193.213 90.2477 197.817C86.3673 202.432 80.9716 205.392 77.3062 210.158C73.9573 214.513 71.4434 219.527 68.2508 224.024C64.7166 229.003 61.7914 234.578 58.7819 239.921C61.8838 240.511 62.6486 240.578 64.6578 238.178C66.3214 236.192 67.6833 233.801 69.3623 231.798C73.2661 227.14 77.0296 223.347 81.9075 219.697C86.6753 216.131 92.817 213.009 98.5196 211.195C100.743 210.487 101.56 210.666 102.792 208.549C103.675 207.032 103.997 205.131 104.894 203.578C106.829 200.224 109.887 198.339 112.926 196.213C109.492 192.001 105.375 188.561 101.939 184.284ZM376.256 56.4862C375.13 57.3638 374.979 60.6603 374.461 62.0294C373.511 64.5446 372.163 66.9047 370.982 69.3065C368.91 73.5233 367.189 78.2436 367.264 83.0803C367.342 88.0523 371.044 90.9071 375.492 91.8084C380.381 92.7994 384.132 90.7984 388.428 88.6585C392.691 86.5341 396.21 83.1776 399.601 79.7879C402.284 77.1054 403.995 72.7365 407.037 71.2314C409.925 69.8022 413.471 68.5381 414.34 64.297C414.933 61.4001 413.803 61.7397 411.363 62.3578C408.766 63.0139 406.886 64.7518 404.476 65.6852C405.817 62.5027 406.139 59.8902 404.488 56.7718C403.537 54.9757 401.754 52.0034 399.593 51.9321C398.17 51.8846 396.468 53.5056 395.156 54.0269C393.549 54.6646 391.77 54.9579 390.116 55.4323C385.216 56.8419 381.288 57.1126 376.256 56.4862ZM385.911 256.931C387.555 257.216 392.849 237.703 393.576 234.934C395.576 227.309 397.423 219.019 396.869 211.066C396.284 202.678 393.799 195.313 391.251 187.432C389.099 180.784 388.161 173.325 387.378 166.341C386.481 158.32 389.593 151.115 391.852 143.585C392.895 140.107 393.444 136.547 394.361 133.049C395.324 129.368 397.027 126.03 397.89 122.266C399.49 115.285 401.259 108.424 402.745 101.4C404.16 94.7178 408.025 86.7639 406.829 79.9773C404.817 82.5109 402.385 84.7202 400.397 87.2092C398.37 89.7487 399.074 89.9476 399.32 93.4685C399.724 99.2825 398.551 106.036 397.25 111.684C394.539 123.459 389.744 134.154 386.245 145.578C384.447 151.453 383.732 158.076 381.187 163.62C378.907 168.591 375.751 173.01 373.332 177.814C370.68 183.079 367.575 188.05 364.676 193.171C363.303 195.597 361.874 197.973 360.655 200.489C359.628 202.61 358.49 207.725 356.479 208.546C363.56 215.599 368.981 222.822 373.861 231.679C378.108 239.387 384.678 248.038 385.911 256.931ZM400.645 137.877C407.329 142.144 410.678 148.412 414.78 155.139C418.872 161.851 422.703 168.721 426.345 175.707C433.591 189.604 438.923 203.408 442.927 218.69C444.732 225.583 447.361 232.276 449.237 239.025C450.971 245.26 451.534 251.604 454.03 257.58C454.718 259.229 455.251 262.878 457.078 263.46C459.231 264.147 465.007 261.072 467.185 260.505C474.256 258.668 481.631 258.298 488.882 259.141C489.306 256.541 486.439 251.411 485.544 248.877C484.068 244.689 482.74 240.223 480.761 236.262C477.35 229.444 473.406 222.811 469.461 216.385C465.28 209.577 461.842 202.274 457.567 195.634C455.593 192.571 452.773 188.436 451.476 185.03C450.834 183.347 450.634 182.697 449.861 181.27C449.186 180.022 448.398 178.792 447.685 177.559C438.696 162.009 432.056 146.227 426.278 129.276C423.114 119.998 420.47 110.659 417.966 101.162C415.613 92.2389 415.168 83.0357 412.554 74.1419C411.017 75.2143 408.438 75.064 408.485 77.1903C408.494 77.6077 410.65 80.5847 410.887 81.163C411.364 82.3369 411.657 83.5766 411.875 84.8271C412.937 90.9041 410.806 96.7994 410.053 102.768C409.325 108.544 408.669 113.272 406.777 118.692C404.729 124.56 401.376 131.726 400.645 137.877ZM246.735 173.785C253.268 179.698 259.32 186.335 267.053 190.331C270.684 192.206 273.572 194.866 277.688 195.613C281.82 196.364 286.083 195.939 290.23 195.632C294.469 195.319 298.305 195.267 302.209 193.453C303.889 192.673 306.443 191.918 307.878 190.725C309.299 189.542 310.194 187.625 311.445 186.199C316.572 180.351 322.245 175.686 328.971 172.157C336.469 168.222 340.618 163.755 341.181 154.753C341.81 144.674 340.98 134.399 342.407 124.383C343.703 115.295 346.293 105.582 350.218 97.3493C352.235 93.117 354.721 89.1217 357.554 85.4345C358.818 83.7904 360.504 82.6908 361.807 81.1702C363.345 79.3723 363.113 78.8848 363.113 76.2017C356.56 80.9534 349.199 82.7501 341.537 84.8609C333.767 87.0026 325.405 88.3652 319.376 94.33C316.139 97.5345 314.471 98.5088 310.091 98.9672C305.602 99.4381 301.07 99.6667 296.604 100.414C288.412 101.785 280.561 104.452 272.691 107.094C256.797 112.434 242.901 121.361 229.12 130.79C222.941 135.019 217.472 140.166 211.87 145.143C205.093 151.163 195.98 159.229 192.608 168.061C201.894 167.188 211.323 164.397 220.335 168.621C221.02 160.769 226.136 153.13 231.126 147.498C235.552 142.505 240.964 137.515 246.379 133.498C259.337 123.885 276.619 121.394 291.704 117.935C299.859 116.064 307.46 114.606 315.204 111.416C317.165 110.609 322.886 106.995 323.966 109.148C324.656 110.524 322.886 112.501 322.445 113.618C321.684 115.547 321.25 117.552 320.809 119.591C318.818 128.785 317.578 138.155 315.652 147.373C315.369 148.731 314.992 154.871 312.648 154.036C311.085 153.481 312.534 144.105 312.421 142.412C292.532 156.589 269.007 164.933 246.735 173.785ZM269.089 332.051C264.67 332.249 260.168 334.725 255.884 335.851C250.108 337.371 244.046 338.917 238.7 341.641C235.854 343.09 235.827 343.938 236.606 347.243C237.218 349.841 237.925 352.356 238.44 355C239.718 361.562 241.147 368.042 242.737 374.527C259.199 360.227 280.211 352.14 300.746 346.63C303.651 345.851 306.611 345.611 309.556 345.078C312.136 344.612 315.075 344.944 317.521 344.416C319.092 344.076 320.513 342.974 322.119 342.587C325.593 341.749 329.734 341.682 333.078 340.394C337.552 338.673 342.556 336.397 346.983 334.051C351.815 331.488 355.704 329.617 356.687 324.105C357.468 319.735 359.424 315.652 360.033 311.361C360.825 305.767 359.841 300.796 359.511 295.203C358.743 282.262 356.935 269.181 353.774 256.559C350.743 244.456 348.579 232.066 346.49 219.797C346.083 217.406 345.27 215.203 344.737 212.853C343.849 208.944 342.084 209.946 338.675 210.176C332.297 210.604 325.554 207.957 320.259 204.382C317.758 202.695 314.597 198.838 311.738 198.009C309.191 197.27 306.591 200.851 304.159 202.052C298.348 204.919 291.224 205.695 284.882 206.147C271.048 207.134 260.564 197.761 251.137 188.228C244.809 195.595 237.951 202.599 230.604 208.858C224.549 214.016 219.402 220.715 214.363 226.856C209.628 232.628 205.799 241.604 199.368 245.647C195.619 248.006 192.824 246.514 189.203 244.143C186.329 242.259 183.161 241.233 180.267 239.495C166.909 231.47 154.293 222.407 141.241 213.9C138.387 212.04 133.9 207.663 130.541 207.349C128.052 207.115 128.248 207.763 126.809 209.908C125.414 211.987 124 214.051 122.615 216.137C117.188 224.314 111.403 232.755 107.006 241.586C116.58 239.209 125.632 238.843 135.055 240.247C143.723 241.54 154.789 243.099 162.462 247.977C165.741 250.061 168.959 252.401 172.229 254.769C176.333 257.742 179.52 261.899 184.064 264.142C187.982 266.075 192.222 266.95 196.295 268.391C200.872 270.009 207.364 273.024 212.224 271.715C216.366 270.598 219.834 266.775 222.951 264.141C227.008 260.715 231.937 258.372 236.042 255.178C243.316 249.518 250.909 244.682 258.733 239.624C268.075 233.583 277.037 226.64 286.733 221.322C288.64 220.276 290.526 219.551 292.3 218.301C293.968 217.126 295.17 214.976 297.177 216.508C298.962 217.869 298.182 220.377 297.642 222.123C297.136 223.76 296.668 224.284 296.994 225.712C297.298 227.041 299.262 229.08 299.937 230.38C303.124 236.515 305.4 243.101 308.453 249.307C311.425 255.341 314.777 261.147 317.54 267.297C322.993 279.433 330.609 290.189 335.438 302.716C333.214 303.665 332.937 301.712 331.212 301.527C329.326 301.324 330.008 301.698 328.135 303.104C325.624 304.99 322.931 306.181 320.236 307.653C314.236 310.927 308.093 314.781 301.618 317.044C290.498 320.932 280.248 327.803 269.089 332.051ZM460.441 275.384C460.057 278.257 459.563 281.107 459.161 283.974C458.877 286.002 457.787 288.939 458.035 290.944C460.9 289.535 463.983 284.815 466.195 289.979C467.513 293.054 465.861 299.158 465.472 302.468C468.709 301.785 467.978 293.505 473.152 296.177C477.13 298.232 474.346 308.673 477.457 309.69C479.605 306.163 479.251 298.162 479.954 293.964C480.284 291.996 479.812 289.353 482.024 289.225C483.941 289.114 485.458 292.005 486.365 293.327C487.229 288.529 489.559 284.271 488.542 279.854C487.913 277.123 487.269 274.388 486.596 271.667C486.2 270.064 485.779 265.147 484.44 264.045C481.95 261.996 472.85 265.645 470.098 266.468C467.588 267.219 464.387 267.931 462.077 269.197C459.65 270.528 460.394 272.444 460.441 275.384ZM379.803 110.26C383.53 109.836 386.76 107.485 389.62 105.034C394.306 101.017 395.018 97.8706 395.909 91.6813C389.897 94.7314 385.457 97.2543 378.675 97.3813C370.912 97.5268 367.095 92.7881 363.525 86.2675C362.568 87.7869 361.201 89.3989 360.502 91.0644C359.619 93.1681 359.731 92.7311 359.987 94.8662C360.382 98.1627 361.959 102.387 363.563 105.279C367.023 111.525 373.826 112.371 379.803 110.26ZM226.35 361.176H233.398C232.994 358.488 232.59 355.8 232.186 353.111C231.834 350.765 232.419 347.465 230.204 347.056C228.369 346.718 226.55 348.834 224.683 348.644C222.553 348.428 221.328 346.838 218.859 347.478C215.345 348.39 216.048 352.396 215.995 355.758C215.975 357.079 215.487 359.065 215.884 360.348C216.574 362.588 215.998 361.694 218.136 361.912C220.647 362.169 223.764 361.322 226.35 361.176ZM401.089 37.389C403.671 37.8167 410.358 43.5371 412.246 42.1727C414.809 40.321 407.441 35.2052 405.932 34.3999C398.555 30.4639 384.755 33.5739 379.797 40.7601C383.047 41.0891 387.018 37.9901 390.352 37.4807C393.924 36.9351 397.5 37.3983 401.089 37.389ZM399.289 185.439C401.391 194.258 405.166 203.707 405.143 212.875C405.12 222.403 403.098 231.051 399.394 239.776C397.542 244.141 395.882 248.554 393.777 252.797C392.802 254.763 391.905 257.171 390.557 258.885C388.894 261 388.379 260.844 386.401 259.165C385.517 261.518 384.59 263.944 381.586 262.362C379.422 261.222 379.468 258.398 378.76 256.299C376.861 250.672 372.803 245.818 369.938 240.692C367 235.436 364.521 229.782 361.27 224.729C359.706 222.297 357.841 220.032 356.17 217.67C354.902 215.88 352.967 211.739 351.207 210.689C350.974 213.049 353.392 216.486 354.285 218.791C355.457 221.818 356.464 224.929 357.31 228.071C358.955 234.172 359.948 240.549 361.2 246.751C363.438 257.839 366.077 268.856 367.575 280.11C368.968 290.58 369.339 301.399 368.28 311.915C367.826 316.432 365.283 320.252 363.567 324.366C361.236 329.959 358.404 333.446 353.721 337.413C345.218 344.617 335.804 348.928 325.448 352.144C323.516 352.744 321.72 352.483 319.909 352.89C317.875 353.345 316.257 354.424 314.046 354.784C308.341 355.712 302.539 356.804 297.031 358.488C292.69 359.816 288.402 361.198 284.108 362.577C280.835 363.628 276.803 364.606 273.652 366.155C265.88 369.977 258.59 374.461 251.379 379.211C249.265 380.605 247.705 381.449 246.146 383.51C244.459 385.74 244.703 387.317 243.783 389.86C242.926 392.234 241.428 393.571 239.394 391.597C237.492 389.753 238.243 385.861 238.089 383.578C237.856 380.136 235.897 366.976 233.621 365.876C231.978 365.082 227.174 366.79 225.182 367.018C222.6 367.314 220.273 367.307 217.702 366.939C218.552 370.624 215.448 375.606 214.144 378.846C211.921 384.37 210.191 389.752 209.269 395.633C208.642 399.641 208.843 403.667 208.252 407.722C207.641 411.909 208.566 418.472 203.105 419.1C194.436 420.097 192.225 402.042 191.24 395.987C189.693 386.491 190.917 377.134 191.83 367.588C191.904 366.814 192.281 363.413 191.945 362.796C191.671 362.293 189.234 361.425 188.92 361.193C186.173 359.159 187.291 358.078 188.109 355.05C189.672 349.263 189.219 342.032 192.974 336.972C195.846 333.1 202.295 335.452 206.01 336.497C208.779 337.276 211.514 338.324 214.205 339.362C216.066 340.08 218.143 342.225 219.772 342.572C223.021 343.263 225.415 338.943 227.839 337.412C232.212 334.653 236.773 332.116 241.485 330.266C250.143 326.865 259.102 324.913 267.984 322.051C273.423 320.299 278.794 318.385 283.96 315.853C287.777 313.984 291.627 311.352 295.756 310.085C300.958 308.489 306.238 306.271 311.315 304.066C316.715 301.72 322.624 300.217 328.167 298.316C316.628 280.73 306.768 261.92 298.843 242.27C297.929 240.004 297.052 237.726 296.243 235.418C295.831 234.242 294.818 228.974 293.745 228.23C291.796 226.88 283.96 232.999 281.777 234.488C273.868 239.883 266.282 245.779 258.042 250.682C250.905 254.928 244.173 259.853 237.348 264.407C233.59 266.915 230.094 270.113 226.272 272.646C222.461 275.171 217.976 279.875 213.46 280.965C211.776 281.373 208.921 280.875 207.219 280.731C204.818 280.528 202.139 280.304 199.804 279.609C195.227 278.249 190.392 276.704 185.919 275.011C177.879 271.967 171.647 264.458 164.399 259.821C155.664 254.233 145.768 252.841 136.004 249.751C125.321 246.372 113.473 246.004 102.198 246.882C102.198 236.172 107.164 228.139 112.583 219.349C108.68 216.681 107.033 215.019 102.665 217.487C99.4241 219.318 96.4362 220.964 93.4301 223.011C90.1651 225.235 86.6896 226.941 83.4376 229.38C79.9034 232.03 76.8118 234.842 73.5479 237.809C71.0932 240.039 68.2981 242.068 65.7306 244.084C63.195 246.076 60.6132 245.787 57.3709 244.43C56.4145 244.029 53.4284 242.632 52.9231 241.958C51.9045 240.6 52.6579 239.653 53.5042 237.863C55.461 233.72 57.9612 229.515 60.5151 225.727C62.7946 222.346 65.7534 219.523 68.1407 216.226C70.4071 213.098 72.0274 209.465 74.6526 206.63C77.5885 203.458 81.0703 200.913 83.8426 197.534C85.2244 195.849 86.7996 194.052 86.9091 192.063C86.993 190.537 85.3613 189.059 85.3459 187.964C85.3111 185.395 89.5406 182.781 91.3063 180.89C93.8983 178.114 96.459 175.715 100.463 176.906C103.403 177.78 107.825 181.637 110.015 183.879C112.771 186.701 115.055 189.967 117.898 192.758C119.496 194.328 121.199 195.76 122.85 197.265C123.827 198.154 125.374 200.706 126.455 201.226C127.42 201.692 128.363 201.251 129.713 201.213C129.105 201.229 132.182 201.769 132.019 201.723C133.475 202.129 134.913 202.569 136.348 203.052C142.249 205.037 147.686 208.386 153.011 211.721C166.534 220.191 179.225 229.218 192.471 238.246C196.394 240.919 197.473 240.729 200.485 236.901C203.296 233.33 205.627 229.362 208.267 225.66C212.619 219.561 217.524 213.628 222.662 208.208C227.951 202.63 234.047 197.96 239.699 192.798C241.269 191.365 247.739 186.525 247.33 184.71C247.1 183.685 245.008 181.956 244.346 180.907C243.357 179.343 242.332 177.577 241.603 175.852C237.31 165.694 248.453 164.998 254.973 161.859C262.934 158.026 270.814 153.793 278.95 150.371C283.036 148.653 287.126 147.084 291.251 145.492C295.048 144.025 298.505 141.648 302.241 140.03C304.994 138.838 310.972 138.383 312.806 135.847C313.889 134.352 313.423 129.627 313.613 127.885C313.927 124.993 314.39 122.118 315.116 119.305C313.753 119.049 311.192 120.608 309.951 121.208C307.563 122.362 305.483 123.499 302.833 124.225C297.163 125.777 291.226 125.954 285.64 127.638C277.137 130.204 268.071 131.688 259.755 135.369C250.179 139.606 241.934 147.06 235.207 155.105C231.735 159.258 228.975 163.25 226.605 168.179C225.992 169.456 225.264 173.735 224.32 174.625C223.119 175.759 219.948 174.566 218.583 174.331C218.583 178.106 218.659 181.888 218.529 185.657C218.39 189.635 219.08 195.738 217.757 199.408C216.517 202.853 214.201 202.14 211.748 200.427C208.488 198.15 206.817 196.845 203.895 200.372C198.812 206.508 196.889 216.04 193.403 223.222C192.261 225.575 189.445 230.5 187.906 225.665C186.784 222.141 188.644 217.647 187.775 214.165C186.587 216.337 183.035 222.799 180.225 222.781C176.358 222.757 177.62 216.506 177.749 213.958C175.468 216.492 168.777 224.77 167.157 218.134C165.913 213.041 169.386 207.986 171.852 203.976C174.721 199.309 177.542 194.572 180.52 189.986C183.433 185.497 185.383 180.411 188.337 175.894C186.085 176.219 181.728 175.453 183.112 171.824C183.837 169.927 186.128 170.724 187.246 169.546C188.411 168.32 189.038 164.837 189.69 163.23C192.903 155.309 197.51 148.797 202.837 142.357C212.25 130.976 224.269 121.889 236.386 114.267C250.824 105.186 265.708 99.6631 281.874 95.2236C289.535 93.1212 297.304 92.1539 305.048 90.6387C308.263 90.0099 311.523 89.6554 314.067 87.5352C317.859 84.3729 320.36 82.0317 324.931 80.0135C328.625 78.3831 332.13 77.6308 336.159 76.9344C340.477 76.1868 345.432 77.1808 349.581 75.9119C353.028 74.8562 357.047 72.5643 360.179 70.7308C361.757 69.8076 364.55 69.2874 365.401 68.5019C367.046 66.9873 368.134 63.2098 369.184 61.1756C366.586 61.884 365.597 59.9626 364.902 57.6357C363.746 53.7656 363.734 55.0517 360.125 53.4314C357.988 52.4713 357.296 49.9092 355.602 48.9996C353.786 48.0235 350.904 50.1289 348.758 49.4443C347.018 48.8892 345.318 46.9423 345.413 44.8707C345.452 44.0056 346.328 43.2384 346.343 42.5343C346.381 40.8836 345.086 39.9719 345.275 38.1627C345.568 35.3624 346.935 35.8355 345.775 32.801C344.619 29.7805 345.07 29.1848 345.417 26.054C345.513 25.1886 345.086 23.7947 345.667 23.0588C346.005 22.6288 347.244 22.5625 347.37 22.3452C347.843 21.5339 347.858 20.8673 347.953 19.3793C348.008 18.5317 347.756 16.8365 348.603 16.2092C349.339 15.6645 350.383 16.677 351.027 16.3564C351.587 16.0782 352.07 14.692 352.988 14.5248C356.381 13.9068 355.346 17.4999 357.078 13.0153C358.082 10.4177 358.852 9.35426 360.652 7.87713C361.435 8.25315 361.922 8.10133 362.117 7.42018C362.38 6.92778 362.644 6.43616 362.908 5.94453C364.311 5.59856 364.513 6.69355 365.6 5.61779C367.424 3.81238 365.548 -0.186114 369.232 0.884239C371.905 1.66021 372.554 5.22788 375.35 6.08478C375.735 4.92275 375.685 1.52608 377.309 1.18242C378.962 0.832583 380.22 3.96877 380.821 4.99287C381.212 4.1121 381.859 1.47449 382.503 0.829497C384.354 -1.02372 383.794 0.771723 385.432 1.01831C385.689 1.33193 385.947 1.64632 386.203 1.96071C387.061 1.52531 387.904 1.0661 388.734 0.579883C390.53 0.226186 389.89 0.41957 391.457 1.07917C392.708 1.60701 391.96 2.21038 393.481 2.54246C394.586 2.7821 395.522 1.58777 396.752 1.95376C397.109 2.11639 397.468 2.27973 397.826 2.4423C398.333 3.61282 399.111 3.8201 400.16 3.06336C401.397 3.59429 403.065 5.72799 404.382 5.65787C406.899 5.52149 406.306 1.91445 409.067 2.09092C410.09 2.15564 412.735 5.0206 413.465 5.87132C414.488 7.06494 414.199 8.09593 415.48 9.43828C417.338 11.3824 416.248 10.3398 418.021 11.2198C420.663 12.5321 421.637 12.0359 422.726 15.1944C423.672 17.9415 424.203 21.3589 424.214 24.2693C424.219 26.0855 422.965 30.091 425.386 29.2125C427.085 28.596 426.8 24.2108 428.623 25.5863C430.01 26.6311 427.274 32.2185 427.243 33.5292C427.151 37.3004 427.729 37.6025 425.484 40.4205C424.42 41.7553 421.983 44.2146 421.442 45.9436C420.803 47.989 422.499 51.5314 422.891 53.3583C423.739 57.3234 423.023 58.1612 420.507 61.2772C420.237 61.4452 419.968 61.6138 419.697 61.7819C418.354 61.7789 417.981 62.4765 418.579 63.8724C418.044 65.4299 418.108 66.9309 417.352 68.496C416.938 69.351 415.111 71.0829 415.018 71.929C414.853 73.4378 415.573 73.702 416.793 75.2659C421.711 81.5721 423.964 89.7445 426.397 97.3297C430.683 110.691 435.965 123.722 441.081 136.799C443.075 141.896 445.096 146.791 447.165 151.946C449.74 158.362 453.359 164.221 456.421 170.439C458.537 174.737 460.696 179.457 463.34 183.165C466.667 187.83 468.536 193.827 471.453 198.877C474.569 204.271 478.208 209.586 481.213 215.137C484.087 220.447 487.639 225.307 490.368 230.76C493.774 237.567 497.741 245.747 498.679 253.462C499.01 256.196 500.043 260.705 498.414 263.045C496.726 265.466 492.08 266.479 489.723 264.671C492.08 270.385 493.545 276.786 494.603 282.897C495.06 285.537 495.697 287.868 495.138 290.565C494.638 292.976 495.467 291.572 493.597 292.982C492.031 294.163 492.755 290.835 491.524 294.228C491.265 294.943 491.774 296.928 491.756 297.759C491.684 301.093 491.446 304.488 491.321 307.842C491.226 310.386 491.621 312.533 488.618 312.264C486.211 312.047 485.019 309.387 483.951 307.509C483.55 310.499 483.32 313.483 482.989 316.482C482.695 319.142 483.282 321.769 480.011 321.483C474.646 321.012 472.532 310.891 471.173 306.662C468.729 310.014 467.541 316.67 466.466 320.769C465.443 324.671 464.25 332.977 459.02 327.867C455.536 324.462 456.886 317.765 457.511 313.408C457.717 311.971 460.658 299.344 459.283 298.616C457.316 300.807 455.026 304.385 451.788 302.454C448.877 300.719 449.825 296.862 450.056 294.079C450.715 286.161 453.325 278.571 455.26 270.897C454.16 270.641 451.483 270.413 450.576 269.559C449.413 268.466 450.13 267.935 449.62 266.538C448.93 264.647 447.69 262.725 446.711 260.927C443.522 255.072 442.539 249.235 440.891 242.863C439.3 236.709 436.302 231.292 434.712 225.058C432.95 218.153 431.072 211.367 428.992 204.489C424.452 189.464 417.912 175.158 410.393 161.53C409.405 159.741 401.316 140.415 400.098 140.985C399.229 141.393 398.731 146.394 398.4 147.746C397.631 150.875 397.48 154.165 397.299 157.39C394.335 164.914 397.49 177.896 399.289 185.439Z" fill="black"/>
<path fill-rule="evenodd" clip-rule="evenodd" d="M125.916 159.97C128.936 160.72 130.016 153.392 130.354 151.123C130.901 147.445 131.528 144.282 133.431 141.065C134.357 139.501 135.463 137.893 136.663 136.544C137.364 135.759 139.119 134.735 139.486 133.893C140.499 131.563 139.322 125.706 139.335 123.085C139.344 121.401 138.287 113.568 140.185 113.022C142.65 112.311 143.293 119.455 143.565 121.062C143.877 122.904 143.826 124.68 144.015 126.501C144.189 128.202 145.078 129.255 145.419 130.388C146.393 133.627 144.08 136.347 142.423 139.264C140.579 142.512 138.583 145.666 137.288 149.212C135.883 153.057 135.973 157.108 134.874 161.002C133.089 167.33 125.599 170.78 119.533 168.924C116.308 167.937 116.986 165.668 115.964 163.054C115.578 162.061 114.491 161.51 114.167 160.192C113.825 158.797 114.138 156.981 114.401 155.572C115.677 148.752 117.747 141.611 119.747 134.975C108.862 141.217 97.3335 145.33 84.7986 145.096C78.568 144.979 74.0288 143.587 69.516 149.13C66.0182 153.425 66.0228 160.98 64.5953 166.322C63.0463 172.121 61.6491 179.549 58.1223 184.402C53.8672 190.257 48.058 189.294 47.6245 181.485C47.2544 174.827 50.435 168.518 49.9012 161.76C49.6332 158.359 48.3471 155.363 48.4258 151.919C48.4942 148.96 49.052 146.18 49.5778 143.266C43.3517 144.052 38.5297 146.717 34.1064 151.186C29.9648 155.37 28.2379 160.536 24.8177 165.322C21.697 169.688 18.9355 175.696 12.7753 175.547C4.91227 175.357 4.4173 165.277 7.36587 159.89C8.87298 157.136 10.9668 154.98 12.8824 152.555C15.0038 149.871 15.2541 147.714 15.6916 144.285C16.0241 141.669 16.1153 138.214 18.3755 136.49C20.4081 134.937 22.9596 135.692 24.84 133.634C26.6387 131.668 28.0588 128.69 29.6745 126.515C31.6923 123.8 33.7807 120.995 35.5755 118.113C39.4365 111.908 44.5106 107.591 49.8584 102.736C47.9194 101.478 42.8059 102.869 40.4044 102.47C36.4584 101.815 31.3518 99.859 28.2943 97.0464C21.9485 91.2051 18.8984 83.6075 18.5859 74.8271C18.2854 66.3935 19.556 56.222 25.5751 49.9543C28.6422 46.76 32.57 43.964 36.4458 41.9268C39.0265 40.5713 44.3412 37.6142 47.3251 38.8351C54.2145 41.6567 38.633 52.8774 36.5787 54.6729C30.0327 60.3925 26.2207 65.9132 26.373 75.0623C26.5201 83.9584 34.7526 88.1877 41.6379 91.1309C45.2092 92.6574 49.5231 93.8823 53.5124 93.7707C58.0333 93.6454 61.1084 90.9415 65.2261 89.3556C73.3314 86.2348 81.6471 84.1365 90.0016 82.0341C98.2289 79.9625 107.179 80.4303 115.604 79.0778C123.525 77.806 130.926 76.2379 138.413 73.2388C146.165 70.1329 152.145 60.8704 160.601 59.8961C165.845 59.2922 163.282 63.1576 161.016 65.1401C158.304 67.5121 155.361 69.5784 152.648 71.9575C145.737 78.0179 138.498 81.5828 129.739 83.8931C123.376 85.5704 116.517 87.1397 109.755 88.1402C101.219 89.4043 92.6273 89.0094 84.242 91.3114C79.2774 92.6735 74.456 94.409 69.772 96.6231C67.8535 97.5297 63.8853 98.9827 63.53 100.595C63.0692 102.683 64.6734 102.641 62.7395 104.564C59.4813 107.805 55.2439 110.096 51.9532 113.458C48.2878 117.202 44.8015 120.835 41.8324 125.226C38.8873 129.583 36.5359 133.805 32.1748 136.81C30.729 137.806 28.2744 139.553 26.6313 140.011C25.1194 140.433 24.4282 139.787 23.1342 140.663C19.6912 142.992 21.754 150.264 20.8455 153.865C19.6832 158.476 16.7073 161.938 14.8544 166.215C17.447 165.631 19.2566 161.161 20.5894 159.053C22.0836 156.688 23.9754 155.095 25.8762 153.051C29.8735 148.755 30.9315 142.879 35.6827 138.833C44.2893 131.506 57.6683 132.138 64.8497 122.316C66.0125 120.725 67.1052 116.126 68.5008 115.125C71.0569 113.292 70.8402 118.769 70.5773 120.395C69.6785 125.945 66.3906 132.505 62.0922 136.009C60.1469 137.595 57.4259 138.322 55.7378 140.381C55.3243 140.551 54.912 140.723 54.4979 140.893C54.7449 141.808 54.8795 142.738 54.8994 143.683C54.9388 145.333 54.5544 146.943 54.4899 148.607C54.3297 152.797 55.2199 156.379 56.0258 160.393C56.6029 163.26 55.0506 169.236 56.2876 171.573C58.7314 163.035 61.6052 153.172 66.2355 145.583C67.3294 143.788 69.4994 142.306 70.3612 140.458C70.7701 139.984 71.1796 139.51 71.589 139.036C70.8716 138.345 70.2465 137.573 69.7139 136.721C66.9376 130.647 73.0205 134.403 75.4478 134.919C79.3493 135.748 84.2112 134.044 88.2627 133.917C92.211 133.792 96.1045 133.655 99.9638 133.016C104.132 132.328 108.456 131.287 112.533 130.15C116.627 129.006 120.41 126.653 124.389 125.619C120.411 122.788 119.152 119.104 117.775 114.501C116.871 111.475 113.658 104.133 115.68 101.062C117.872 97.731 118.655 102.853 119.365 104.668C120.568 107.735 122.388 112.97 124.617 115.271C125.818 116.512 127.44 116.376 128.514 118.031C129.303 119.249 129.41 120.932 129.533 122.344C129.899 126.512 128.316 129.849 126.904 133.645C123.611 142.493 122.281 151.956 117.974 160.375C120.593 160.636 123.304 160.245 125.916 159.97Z" fill="black"/>
<path fill-rule="evenodd" clip-rule="evenodd" d="M181.017 90.2528C183.119 89.738 189.733 88.9869 187.814 84.9749C185.872 80.9172 180.704 87.4794 181.017 90.2528ZM243.632 58.3054C242.398 57.9064 240.439 56.9772 239.118 57.0758C237.552 57.1928 236.388 58.3743 234.799 58.5305C231.557 58.8493 229.05 57.4089 226.931 61.0135C231.439 61.0135 240.455 62.6042 243.632 58.3054ZM158.594 142.367C162.883 142.99 165.014 123.266 165.241 120.682C163.318 120.477 158.131 124.411 157.678 126.223C157.182 128.214 158.893 131.407 159.101 133.477C159.409 136.54 159.082 139.351 158.594 142.367ZM182.497 29.7778C177.333 30.3015 171.554 32.042 166.814 29.0516C162.97 26.628 161.547 21.5144 158.31 18.5124C158.31 27.1701 165.788 33.9919 173.397 36.739C177.272 38.1375 183.208 36.0281 186.631 38.3077C187.624 38.9685 189.74 41.9791 189.818 43.2224C190.083 47.4612 187.181 43.6677 185.537 43.7989C183.252 43.9806 180.073 50.2494 178.169 52.1554C176.737 53.5893 175.12 54.753 173.502 55.9851C172.969 56.3918 170.228 57.8352 170.091 58.5329C169.971 59.1521 171.474 61.4274 171.79 62.0146C173.969 66.0563 176.593 68.9526 180.037 71.8038C181.734 73.2086 183.502 73.9905 185.202 75.1573C185.757 75.5396 188.014 78.7393 187.358 78.6046C188.307 75.6067 191.006 72.1339 192.803 69.4834C194.644 66.7652 197.072 63.9182 200.159 62.8179C201.515 62.334 203.76 61.919 205.172 61.8003C206.163 61.764 207.145 61.8489 208.117 62.0544C209.532 62.7045 210.086 62.1814 209.778 60.4833C211.264 57.2688 210.388 53.2218 212.279 49.9567C214.498 46.1229 218.127 44.3862 222.285 44.8184C224.154 45.0126 226.167 45.8474 228.017 45.5066C229.85 45.1693 231.929 43.6291 233.723 42.9653C240.692 40.3855 249.292 37.2504 254.756 31.8756C255.586 31.0608 257.927 28.7997 258.112 27.6284C257.624 26.4855 257.137 25.3442 256.65 24.2021C256.522 22.5278 255.74 22.0711 254.303 22.8328C252.61 22.7959 249.401 24.8174 247.707 25.3958C245.557 26.1305 243.394 26.7766 241.278 27.6061C237.606 29.0454 234.031 30.5241 230.175 31.3804C226.183 32.2661 224.282 32.806 222.181 28.8683C220.127 25.0192 220.419 22.7681 215.636 23.3311C211.373 23.8317 207.801 25.5059 203.871 27.2726C201.261 28.4455 197.862 30.6057 195.207 31.0685C193.24 31.412 191.117 30.6142 189.222 30.2029C186.828 29.6846 184.931 29.7755 182.497 29.7778ZM232.01 52.1322H234.158C232.493 51.1139 230.828 50.0951 229.164 49.0774C226.821 53.0139 220.965 51.3022 217.415 53.6481C214.499 55.5748 211.762 63.7858 214.561 66.7765C218.452 70.9327 220.367 61.71 221.472 59.5856C223.72 55.2613 227.105 52.023 232.01 52.1322ZM163.966 60.9464C162.224 57.5241 163.366 54.2525 165.951 52.4362C169.681 49.8172 173.434 46.9476 177.092 44.0459C170.876 43.0306 166.421 40.8908 161.353 36.9438C155.506 32.3893 153.841 28.1806 154.005 20.4878C154.087 16.6264 153.569 5.65133 159.556 8.83734C164.502 11.4696 165.184 18.8304 170.505 21.3257C175.761 23.7901 181.954 21.234 187.482 23.1532C189.055 23.7 193.264 27.546 194.543 27.5283C196.241 27.5037 200.507 23.596 202.113 22.668C206.142 20.3407 211.354 18.0711 215.843 17.4003C218.662 16.9791 219.58 16.6772 221.623 18.8405C223.911 21.2625 224.628 24.2568 225.444 27.4035C234.124 23.683 242.891 20.2106 251.816 17.177C254.65 16.2136 256.596 14.9814 259.014 13.4288C262.476 11.2062 264.403 12.2351 265.032 16.8305C266.141 24.926 261.389 30.1036 257.26 36.1629C254.982 39.5045 253.427 41.8651 249.725 43.5715C245.871 45.3474 241.232 44.7751 237.047 46.1098C238.12 47.4713 238.688 50.6419 239.634 51.599C240.403 52.3769 244.084 52.248 245.326 52.9273C249.047 54.9632 248.604 58.3618 246.299 61.7225C243.698 65.513 239.853 66.2118 235.651 66.5419C233.771 66.6892 232.094 66.7159 230.211 66.5776C228.994 66.4879 224.753 65.1181 223.835 65.5243C222.748 66.004 222.496 68.5013 222.001 69.6419C221.214 71.4546 220.339 73.2893 218.487 74.1271C216.885 74.8509 215.079 74.6555 213.623 73.661C211.67 72.3298 212.205 70.7576 210.976 69.0482C210.861 67.2473 210.123 66.9065 208.764 68.0228C207.726 68.401 206.69 68.7833 205.655 69.1687C203.514 69.9809 201.515 70.7641 199.631 72.1279C196.021 74.7393 193.836 79.1449 189.813 80.9814C192.438 85.6512 190.799 92.0049 186.382 94.4298C185.387 94.976 184.167 95.6476 183.109 96.0014C182.321 96.2657 180.259 96.0519 179.726 96.5097C178.955 97.1747 178.531 103.465 177.991 104.867C176.134 109.687 172.191 112.085 169.856 116.456C167.58 120.722 168.069 127.343 167.406 132.148C166.586 138.099 166.064 144.346 163.616 149.869C161.979 153.564 157.065 157.944 152.728 157.216C146.35 156.145 149.123 147.662 151.079 144.006C154.096 138.367 154.092 134.101 153.327 127.863C150.809 128.253 144.57 130.818 144.87 125.822C145.075 122.414 152.141 119.291 154.617 117.58C160.215 113.712 165.943 109.212 170.67 104.256C172.624 102.207 175.42 98.4245 176.414 95.6226C177.139 93.5784 176.984 91.5899 177.14 89.4518C177.285 87.4841 178.944 84.7819 178.862 83.0619C178.74 80.5111 172.289 76.4356 170.444 73.7352C167.816 69.8877 165.607 65.3378 163.966 60.9464Z" fill="black"/>
<path fill-rule="evenodd" clip-rule="evenodd" d="M293.177 69.5113C295.154 69.2423 302.753 67.0502 304.058 69.1022C306.439 72.8452 299.44 73.5423 297.68 73.8819C289.904 75.3787 282.295 77.3702 274.754 79.6009C259.752 84.0368 244.457 89.6044 230.484 96.8315C228.296 97.9632 221.866 102.569 219.676 100.242C216.847 97.2371 223.711 93.9026 225.284 92.9662C232.253 88.8153 239.617 85.0919 247.097 82.0353C261.831 76.0152 277.397 71.3228 293.177 69.5113Z" fill="black"/>
<path fill-rule="evenodd" clip-rule="evenodd" d="M105.668 267.102C116.827 265.369 128.952 267.927 139.783 271.454C143.253 272.584 146.87 273.897 150.046 275.739C151.757 276.729 155.826 278.495 156.794 280.35C158.41 283.442 156.602 284.761 154.002 284.252C151.53 283.768 148.493 282.289 145.913 281.613C134.101 278.517 122.358 276.195 110.393 274.956C107.531 274.659 105.452 275.005 102.693 275.528C100.631 275.92 95.1858 278.253 93.6357 276.884C88.0329 271.941 103.001 267.409 105.668 267.102Z" fill="black"/>
<path fill-rule="evenodd" clip-rule="evenodd" d="M279.303 290.89C280.058 295.297 277.905 295.709 274.308 297.768C270.634 299.873 266.964 301.601 263.084 303.299C258.903 305.129 254.521 307.006 250.165 308.341C246.476 309.473 240.787 312.009 236.956 311.634C235.41 311.482 234.41 311.692 234.398 309.697C234.388 307.534 236.342 307.664 237.953 307.186C242.888 305.724 247.666 303.529 252.518 301.787C261.656 298.511 270.81 295.743 279.303 290.89Z" fill="black"/>
<path fill-rule="evenodd" clip-rule="evenodd" d="M2.48047 75.3461C-0.381473 70.4275 -0.323925 63.8707 0.46801 58.3132C0.73486 56.4399 5.0763 42.5907 7.6994 45.4698C9.25515 47.1774 3.95929 58.0537 3.40472 60.5391C2.7358 63.5358 2.39201 66.4998 2.83292 69.563C2.95303 70.3906 4.73463 75.6459 2.48047 75.3461Z" fill="black"/>
<path fill-rule="evenodd" clip-rule="evenodd" d="M152.464 103.265C150.369 100.281 153.174 93.6039 154.023 90.4315C154.547 88.4769 156.145 81.134 158.679 82.7015C161.139 84.2226 158.385 91.1048 157.893 93.0054C157.162 95.8245 156.1 103.194 152.464 103.265Z" fill="black"/>
<path fill-rule="evenodd" clip-rule="evenodd" d="M384.961 262.283C385.346 261.329 385.731 260.376 386.116 259.421C387.095 260.195 388.462 260.576 387.465 261.75C386.853 262.473 385.822 262.472 384.961 262.283Z" fill="black"/>
<path fill-rule="evenodd" clip-rule="evenodd" d="M349.602 76.1168C347.885 76.3905 346.74 76.4053 345.039 76.3638C346.561 76.2812 348.081 76.1993 349.602 76.1168Z" fill="black"/>
<path fill-rule="evenodd" clip-rule="evenodd" d="M405.213 214.89C405.208 213.702 405.204 212.514 405.201 211.327C405.205 212.516 405.208 213.703 405.213 214.89Z" fill="black"/>
<path fill-rule="evenodd" clip-rule="evenodd" d="M129.181 125.827C129.177 124.639 129.174 123.451 129.171 122.265C129.175 123.453 129.178 124.64 129.181 125.827Z" fill="black"/>
<path fill-rule="evenodd" clip-rule="evenodd" d="M182.5 21.7751C181.359 21.7674 180.218 21.7608 179.078 21.7531C180.224 21.2704 181.362 21.5026 182.5 21.7751Z" fill="black"/>
<path fill-rule="evenodd" clip-rule="evenodd" d="M190.221 387.671C190.208 388.463 190.192 389.256 190.177 390.046C190.191 389.253 190.206 388.461 190.221 387.671Z" fill="black"/>
<path fill-rule="evenodd" clip-rule="evenodd" d="M46.1953 102.958C46.7679 102.964 47.3394 102.97 47.9062 102.978C47.3325 102.972 46.7639 102.965 46.1953 102.958Z" fill="black"/>
<path fill-rule="evenodd" clip-rule="evenodd" d="M368.15 312.859C368.141 312.065 368.133 311.273 368.123 310.484C368.131 311.277 368.14 312.068 368.15 312.859Z" fill="black"/>
<path fill-rule="evenodd" clip-rule="evenodd" d="M397.169 157.296C397.204 156.503 397.241 155.711 397.276 154.921C397.24 155.715 397.204 156.505 397.169 157.296Z" fill="black"/>
<path fill-rule="evenodd" clip-rule="evenodd" d="M345.387 37.3586C345.345 38.1509 345.304 38.944 345.262 39.7336C345.303 38.9405 345.345 38.1502 345.387 37.3586Z" fill="black"/>
<path fill-rule="evenodd" clip-rule="evenodd" d="M491.884 298.015C491.891 297.222 491.898 296.429 491.905 295.64C491.898 296.433 491.891 297.224 491.884 298.015Z" fill="black"/>
<path fill-rule="evenodd" clip-rule="evenodd" d="M264.943 24.2961C264.922 23.503 264.901 22.7098 264.878 21.9211C264.9 22.715 264.921 23.5055 264.943 24.2961Z" fill="black"/>
<path fill-rule="evenodd" clip-rule="evenodd" d="M26.4712 75.3585C26.5037 74.5659 26.5356 73.7732 26.5681 72.9835C26.5351 73.7774 26.5037 74.5682 26.4712 75.3585Z" fill="black"/>
<path fill-rule="evenodd" clip-rule="evenodd" d="M232.117 66.7533C232.69 66.7503 233.261 66.748 233.828 66.745C233.253 66.748 232.686 66.7503 232.117 66.7533Z" fill="black"/>
<path fill-rule="evenodd" clip-rule="evenodd" d="M424.084 26.6711C424.046 25.878 424.008 25.0866 423.971 24.2961C424.008 25.0891 424.047 25.8796 424.084 26.6711Z" fill="black"/>
<path fill-rule="evenodd" clip-rule="evenodd" d="M48.1904 149.577C48.1915 150.371 48.1926 151.163 48.1926 151.952C48.1915 151.158 48.191 150.368 48.1904 149.577Z" fill="black"/>
<path fill-rule="evenodd" clip-rule="evenodd" d="M495.386 287.327C495.339 286.535 495.293 285.743 495.247 284.952C495.293 285.746 495.34 286.536 495.386 287.327Z" fill="black"/>
<path fill-rule="evenodd" clip-rule="evenodd" d="M211.586 281.121C212.159 281.102 212.731 281.083 213.297 281.064C212.723 281.084 212.155 281.104 211.586 281.121Z" fill="black"/>
<path fill-rule="evenodd" clip-rule="evenodd" d="M397.29 173.327C397.245 172.535 397.2 171.743 397.155 170.952C397.2 171.745 397.245 172.536 397.29 173.327Z" fill="black"/>
<path fill-rule="evenodd" clip-rule="evenodd" d="M123.758 266.835C122.997 266.841 122.237 266.846 121.477 266.851C122.237 266.846 122.997 266.841 123.758 266.835Z" fill="black"/>
<path fill-rule="evenodd" clip-rule="evenodd" d="M105.508 266.731C104.747 266.806 103.987 266.88 103.227 266.955C103.987 266.88 104.748 266.806 105.508 266.731Z" fill="black"/>
<path fill-rule="evenodd" clip-rule="evenodd" d="M396.678 167.984C396.661 167.389 396.643 166.795 396.627 166.202C396.645 166.797 396.662 167.39 396.678 167.984Z" fill="black"/>
<path fill-rule="evenodd" clip-rule="evenodd" d="M422.364 52.2023C422.332 51.6074 422.301 51.0136 422.269 50.4211C422.301 51.016 422.332 51.6091 422.364 52.2023Z" fill="black"/>
<path fill-rule="evenodd" clip-rule="evenodd" d="M247.794 57.5461C247.798 56.9517 247.803 56.3586 247.807 55.7648C247.803 56.3597 247.799 56.9523 247.794 57.5461Z" fill="black"/>
<path fill-rule="evenodd" clip-rule="evenodd" d="M168.441 220.958C168.754 220.977 169.068 220.996 169.383 221.015C168.68 221.646 167.857 220.997 168.441 220.958Z" fill="black"/>
<path fill-rule="evenodd" clip-rule="evenodd" d="M203.031 280.509C203.413 280.502 203.794 280.495 204.172 280.488C203.789 280.496 203.41 280.502 203.031 280.509Z" fill="black"/>
<path fill-rule="evenodd" clip-rule="evenodd" d="M494.811 282.577C494.768 281.983 494.724 281.389 494.682 280.796C494.725 281.391 494.768 281.984 494.811 282.577Z" fill="black"/>
<path fill-rule="evenodd" clip-rule="evenodd" d="M49.9749 165.609C49.9265 166.203 49.878 166.797 49.8301 167.39C49.8786 166.795 49.927 166.201 49.9749 165.609Z" fill="black"/>
<path fill-rule="evenodd" clip-rule="evenodd" d="M311.391 89.1549C310.708 89.6839 309.884 89.3883 309.109 89.3698C309.87 89.298 310.631 89.2267 311.391 89.1549Z" fill="black"/>
<path fill-rule="evenodd" clip-rule="evenodd" d="M491.311 305.734C491.32 305.139 491.329 304.544 491.337 303.952C491.328 304.548 491.32 305.141 491.311 305.734Z" fill="black"/>
<path fill-rule="evenodd" clip-rule="evenodd" d="M362.366 327.702C362.411 327.107 362.456 326.513 362.501 325.921C362.456 326.517 362.411 327.11 362.366 327.702Z" fill="black"/>
<path fill-rule="evenodd" clip-rule="evenodd" d="M39.9219 102.34C40.304 102.363 40.6855 102.385 41.0625 102.409C40.6798 102.387 40.3006 102.363 39.9219 102.34Z" fill="black"/>
<path fill-rule="evenodd" clip-rule="evenodd" d="M293.141 69.6217C292.38 69.6858 291.62 69.75 290.859 69.8141C291.62 69.75 292.38 69.6858 293.141 69.6217Z" fill="black"/>
<path fill-rule="evenodd" clip-rule="evenodd" d="M238.182 384.702C238.131 385.296 238.08 385.891 238.029 386.484C238.08 385.887 238.131 385.295 238.182 384.702Z" fill="black"/>
<path fill-rule="evenodd" clip-rule="evenodd" d="M126.039 159.879C125.279 159.938 124.519 159.997 123.758 160.057C124.519 159.997 125.279 159.938 126.039 159.879Z" fill="black"/>
<path fill-rule="evenodd" clip-rule="evenodd" d="M221.852 361.344C223.372 361.281 224.892 361.218 226.414 361.155C224.894 361.218 223.372 361.281 221.852 361.344Z" fill="black"/>
<path fill-rule="evenodd" clip-rule="evenodd" d="M360.666 305.734C360.704 304.743 360.742 303.753 360.779 302.765C360.741 303.755 360.704 304.745 360.666 305.734Z" fill="black"/>
<path fill-rule="evenodd" clip-rule="evenodd" d="M391.234 37.7632C392.185 37.6913 393.135 37.6195 394.086 37.5476C393.136 37.6195 392.185 37.6913 391.234 37.7632Z" fill="black"/>
<path fill-rule="evenodd" clip-rule="evenodd" d="M119.766 239.435C120.716 239.498 121.667 239.562 122.617 239.625C121.666 239.562 120.716 239.498 119.766 239.435Z" fill="black"/>
<path fill-rule="evenodd" clip-rule="evenodd" d="M187.376 216.671C186.975 215.78 186.996 214.989 187.441 214.296C187.679 215.105 187.658 215.896 187.376 216.671Z" fill="black"/>
<path fill-rule="evenodd" clip-rule="evenodd" d="M460.514 273.077C460.522 273.871 460.53 274.664 460.54 275.452C460.532 274.658 460.524 273.868 460.514 273.077Z" fill="black"/>
<path fill-rule="evenodd" clip-rule="evenodd" d="M231.844 350.859C231.835 350.065 231.827 349.272 231.819 348.484C231.828 349.279 231.836 350.069 231.844 350.859Z" fill="black"/>
<path fill-rule="evenodd" clip-rule="evenodd" d="M204.742 271.493C205.503 271.56 206.263 271.626 207.023 271.693C206.263 271.626 205.503 271.559 204.742 271.493Z" fill="black"/>
<path fill-rule="evenodd" clip-rule="evenodd" d="M190.521 219.591C190.403 218.637 190.569 218.283 191.018 218.527C191.136 219.424 190.97 219.779 190.521 219.591Z" fill="black"/>
<path fill-rule="evenodd" clip-rule="evenodd" d="M218.726 179.265C218.719 179.859 218.711 180.453 218.704 181.046C218.712 180.451 218.719 179.858 218.726 179.265Z" fill="black"/>
<path fill-rule="evenodd" clip-rule="evenodd" d="M480.495 292.077C480.49 291.483 480.485 290.889 480.481 290.296C480.485 290.89 480.49 291.484 480.495 292.077Z" fill="black"/>
<path fill-rule="evenodd" clip-rule="evenodd" d="M398.648 37.6575C399.409 37.6563 400.169 37.6551 400.93 37.6533C400.168 37.6545 399.409 37.6563 398.648 37.6575Z" fill="black"/>
<path fill-rule="evenodd" clip-rule="evenodd" d="M379.828 110.189L382.109 109.997L379.828 110.189Z" fill="black"/>
<path fill-rule="evenodd" clip-rule="evenodd" d="M343.898 209.852C343.517 209.846 343.135 209.839 342.758 209.833C343.141 209.84 343.52 209.846 343.898 209.852Z" fill="black"/>
<path fill-rule="evenodd" clip-rule="evenodd" d="M357.248 322.952C357.283 322.359 357.318 321.764 357.352 321.171C357.318 321.767 357.283 322.36 357.248 322.952Z" fill="black"/>
<path fill-rule="evenodd" clip-rule="evenodd" d="M269.188 332.133C268.805 332.148 268.424 332.163 268.047 332.178C268.43 332.163 268.809 332.147 269.188 332.133Z" fill="black"/>
<path fill-rule="evenodd" clip-rule="evenodd" d="M218.708 181.64C218.712 182.234 218.716 182.83 218.721 183.421C218.718 182.825 218.713 182.232 218.708 181.64Z" fill="black"/>
<path fill-rule="evenodd" clip-rule="evenodd" d="M184.211 29.3423C183.639 29.3429 183.067 29.3435 182.5 29.3435C183.074 29.3435 183.643 29.3429 184.211 29.3423Z" fill="black"/>
<path fill-rule="evenodd" clip-rule="evenodd" d="M186.923 76.546C187.729 77.0917 187.849 77.686 187.281 78.3273C186.366 78.2525 186.248 77.6593 186.923 76.546Z" fill="black"/>
<path fill-rule="evenodd" clip-rule="evenodd" d="M229.836 51.8876C230.596 51.8995 231.358 51.9114 232.117 51.9232C231.357 51.9114 230.596 51.8995 229.836 51.8876Z" fill="black"/>
<path fill-rule="evenodd" clip-rule="evenodd" d="M213.584 61.7023C213.582 62.2966 213.581 62.891 213.579 63.4836C213.581 62.8874 213.582 62.2955 213.584 61.7023Z" fill="black"/>
<path fill-rule="evenodd" clip-rule="evenodd" d="M199.609 62.6974L201.891 62.4884L199.609 62.6974Z" fill="black"/>
<path fill-rule="evenodd" clip-rule="evenodd" d="M302.744 171.787C297.156 172.426 290.05 171.87 285.002 169.039C281.502 167.075 279.88 160.641 284.962 159.736C287.816 159.228 291.24 161.844 293.762 162.855C296.765 164.058 299.898 164.624 302.99 165.466C305.089 166.038 308.137 167.482 306.221 170.606C305.876 171.169 302.783 172.869 302.744 171.787Z" fill="black"/>
<path fill-rule="evenodd" clip-rule="evenodd" d="M381.539 200.407C380.991 204.142 380.909 208.267 379.188 211.681C376.707 216.602 376.217 211.33 376.609 208.626C377.185 204.64 377.498 200.558 377.21 196.529C376.975 193.228 374.841 189.361 376.403 186.39C380.667 189.266 380.754 195.695 381.539 200.407Z" fill="black"/>
<path fill-rule="evenodd" clip-rule="evenodd" d="M381.734 84.2505C379.375 83.6882 375.516 82.0649 378.841 79.7748C380.192 78.8438 382.853 79.2903 384.362 78.4187C385.275 77.8909 385.793 76.7604 386.709 76.3507C389.744 74.9916 390.054 77.312 388.913 80.2635C387.704 83.3848 384.803 84.4019 381.734 84.2505Z" fill="black"/>
<path fill-rule="evenodd" clip-rule="evenodd" d="M380.368 64.5992C384.245 61.5829 383.718 65.3515 381.669 68.0061C380.907 68.9009 380.144 69.7951 379.38 70.6881L380.05 71.5419C379.935 72.7561 381.025 73.6545 379.688 74.4495C377.483 75.7629 375.826 72.6587 375.836 70.9398C375.851 68.0881 378.55 66.2997 380.368 64.5992Z" fill="black"/>
<path fill-rule="evenodd" clip-rule="evenodd" d="M379.87 64.842C376.251 68.5352 376.386 61.0996 378.31 59.4965C382.002 56.4197 379.623 63.5578 379.87 64.842Z" fill="black"/>
<path fill-rule="evenodd" clip-rule="evenodd" d="M386.787 67.6356C386.529 66.3258 386.496 60.1217 389.002 60.5344C391.727 60.9832 388.726 67.831 386.787 67.6356Z" fill="black"/>
<path fill-rule="evenodd" clip-rule="evenodd" d="M382.109 84.5367C382.491 84.5533 382.873 84.5706 383.25 84.5866C382.867 84.5706 382.488 84.5533 382.109 84.5367Z" fill="black"/>
<path fill-rule="evenodd" clip-rule="evenodd" d="M208.357 37.9523C205.27 32.4785 212.314 23.132 215.841 30.6968C216.319 31.7213 217.402 34.4826 216.099 35.3321C214.7 36.2439 215 34.9188 213.849 34.7193C212.477 34.4811 212.925 33.8146 211.331 34.5386C210.198 35.0529 209.139 37.0082 208.357 37.9523Z" fill="black"/>
</svg>
